<?xml version="1.0" encoding="utf-8"?>
<!-- Generator: Adobe Illustrator 26.1.0, SVG Export Plug-In . SVG Version: 6.00 Build 0)  -->
<svg version="1.1" id="레이어_1" xmlns="http://www.w3.org/2000/svg" xmlns:xlink="http://www.w3.org/1999/xlink" x="0px"
	 y="0px" viewBox="0 0 119 60" style="enable-background:new 0 0 119 60;" xml:space="preserve">
<style type="text/css">
	.st0{fill:#515151;}
	.st1{fill:#27477B;}
	.st2{fill:#D6C1AD;}
</style>
<g>
	<g>
		<path class="st0" d="M21.922,42.885l5.175-15.927l-13.549-9.844L0,26.958l5.175,15.927H21.922z M6.191,41.487L1.644,27.492
			l11.905-8.65l11.905,8.65l-4.547,13.995H6.191z"/>
		<polygon class="st1" points="14.504,21.72 14.504,39.602 19.584,39.602 20.207,37.687 16.413,37.687 16.413,25.475 21.063,28.853 
			20.09,31.849 17.368,29.872 17.368,32.239 21.096,34.948 23.315,28.121 		"/>
		<polygon class="st2" points="10.684,25.475 10.684,27.997 12.594,26.612 12.594,21.72 3.783,28.121 4.404,30.035 		"/>
		<polygon class="st2" points="12.594,39.602 12.594,31.336 10.684,32.721 10.684,37.687 8.904,37.687 7.626,33.763 12.594,30.158 
			12.594,27.79 5.375,33.037 7.513,39.602 		"/>
	</g>
	<g>
		<g>
			<path class="st0" d="M48.42,37.454h-2.821v1.166h2.267v0.402h-2.267v1.165h2.821v0.397h-3.218v-3.525h3.218V37.454z"/>
			<path class="st0" d="M51.819,38.336v2.247h-2.302c-0.328,0-0.592-0.265-0.592-0.592v-1.028h2.487v-0.627
				c0-0.104-0.083-0.192-0.191-0.192h-2.297v-0.402h2.297C51.555,37.743,51.819,38.008,51.819,38.336z M51.412,39.364h-2.086v0.627
				c0,0.103,0.088,0.19,0.19,0.19h1.895V39.364z"/>
			<path class="st0" d="M55.1,38.376h-0.407v-0.039c0-0.104-0.088-0.192-0.191-0.192h-1.704c-0.103,0-0.191,0.088-0.191,0.192v0.435
				c0,0.103,0.088,0.191,0.191,0.191h1.704c0.333,0,0.598,0.264,0.598,0.593v0.436c0,0.328-0.264,0.592-0.598,0.592h-1.704
				c-0.328,0-0.592-0.265-0.592-0.592v-0.039h0.402v0.039c0,0.103,0.088,0.19,0.191,0.19h1.704c0.103,0,0.191-0.088,0.191-0.19
				v-0.436c0-0.103-0.088-0.192-0.191-0.192h-1.704c-0.328,0-0.592-0.264-0.592-0.592v-0.435c0-0.329,0.265-0.594,0.592-0.594h1.704
				c0.333,0,0.598,0.265,0.598,0.594V38.376z"/>
			<path class="st0" d="M57.833,41.71H56.06v-0.407h1.773c0.103,0,0.191-0.088,0.191-0.191v-0.529h-1.895
				c-0.328,0-0.592-0.265-0.592-0.592v-2.238h0.401v2.238c0,0.103,0.088,0.19,0.191,0.19h1.704c0.103,0,0.191-0.088,0.191-0.19
				v-2.238h0.402v3.359C58.425,41.445,58.165,41.71,57.833,41.71z"/>
			<path class="st0" d="M60.296,37.058h0.397v3.525h-0.397V37.058z"/>
			<path class="st0" d="M64.87,37.782h-0.397v-0.137c0-0.103-0.088-0.191-0.191-0.191h-2.351c-0.102,0-0.191,0.088-0.191,0.191
				v0.788c0,0.103,0.088,0.187,0.191,0.187h2.351c0.328,0,0.588,0.264,0.588,0.588v0.788c0,0.328-0.26,0.588-0.588,0.588h-2.351
				c-0.328,0-0.588-0.26-0.588-0.588v-0.137h0.397v0.137c0,0.103,0.088,0.191,0.191,0.191h2.351c0.103,0,0.191-0.088,0.191-0.191
				v-0.788c0-0.103-0.088-0.186-0.191-0.186h-2.351c-0.328,0-0.588-0.264-0.588-0.588v-0.788c0-0.328,0.26-0.587,0.588-0.587h2.351
				c0.328,0,0.588,0.259,0.588,0.587V37.782z"/>
			<path class="st0" d="M68.866,37.058h0.543v3.525h-0.396v-3.076l-1.611,1.915l-1.612-1.915v3.076h-0.396v-3.525h0.544l1.465,1.743
				L68.866,37.058z"/>
			<path class="st0" d="M73.44,37.782h-0.397v-0.137c0-0.103-0.089-0.191-0.191-0.191h-2.351c-0.103,0-0.191,0.088-0.191,0.191
				v0.788c0,0.103,0.088,0.187,0.191,0.187h2.351c0.328,0,0.588,0.264,0.588,0.588v0.788c0,0.328-0.259,0.588-0.588,0.588h-2.351
				c-0.328,0-0.587-0.26-0.587-0.588v-0.137h0.396v0.137c0,0.103,0.088,0.191,0.191,0.191h2.351c0.103,0,0.191-0.088,0.191-0.191
				v-0.788c0-0.103-0.089-0.186-0.191-0.186h-2.351c-0.328,0-0.587-0.264-0.587-0.588v-0.788c0-0.328,0.259-0.587,0.587-0.587h2.351
				c0.328,0,0.588,0.259,0.588,0.587V37.782z"/>
			<path class="st0" d="M75.884,37.454c-0.102,0-0.191,0.088-0.191,0.191v2.351c0,0.103,0.089,0.191,0.191,0.191h2.928v0.397h-2.928
				c-0.327,0-0.587-0.26-0.587-0.588v-2.351c0-0.328,0.259-0.587,0.587-0.587h2.928v0.396H75.884z"/>
			<path class="st0" d="M81.594,37.743c0.333,0,0.598,0.265,0.598,0.594v1.655c0,0.328-0.265,0.592-0.598,0.592H79.89
				c-0.328,0-0.593-0.265-0.593-0.592v-1.655c0-0.329,0.264-0.594,0.593-0.594H81.594z M79.89,38.145
				c-0.103,0-0.191,0.088-0.191,0.192v1.655c0,0.103,0.088,0.19,0.191,0.19h1.704c0.108,0,0.191-0.088,0.191-0.19v-1.655
				c0-0.104-0.083-0.192-0.191-0.192H79.89z"/>
			<path class="st0" d="M87.045,38.336v2.247h-0.397v-2.247c0-0.104-0.088-0.192-0.196-0.192h-1.181c-0.107,0-0.19,0.088-0.19,0.192
				v2.247h-0.406v-2.247c0-0.104-0.089-0.192-0.192-0.192h-1.184c-0.104,0-0.192,0.088-0.192,0.192v2.247h-0.406v-2.841h3.751
				C86.785,37.743,87.045,38.008,87.045,38.336z"/>
			<path class="st0" d="M90.384,38.336v1.655c0,0.328-0.264,0.592-0.592,0.592h-1.899v1.127h-0.402v-3.967h2.301
				C90.12,37.743,90.384,38.008,90.384,38.336z M89.983,38.336c0-0.104-0.087-0.192-0.191-0.192h-1.703
				c-0.108,0-0.196,0.088-0.196,0.192v1.655c0,0.103,0.087,0.19,0.196,0.19h1.703c0.104,0,0.191-0.088,0.191-0.19V38.336z"/>
			<path class="st0" d="M93.627,38.336v2.247h-2.301c-0.328,0-0.593-0.265-0.593-0.592v-1.028h2.489v-0.627
				c0-0.104-0.083-0.192-0.191-0.192h-2.298v-0.402h2.298C93.362,37.743,93.627,38.008,93.627,38.336z M93.221,39.364h-2.086v0.627
				c0,0.103,0.088,0.19,0.191,0.19h1.896V39.364z"/>
			<path class="st0" d="M96.962,38.336v2.247H96.56v-2.247c0-0.104-0.088-0.192-0.191-0.192h-1.704
				c-0.107,0-0.197,0.088-0.197,0.192v2.247h-0.402v-2.841h2.302C96.698,37.743,96.962,38.008,96.962,38.336z"/>
			<path class="st0" d="M97.868,36.813v0.402h-0.402v-0.402H97.868z M97.467,37.743h0.402v2.841h-0.402V37.743z"/>
			<path class="st0" d="M100.777,37.743c0.332,0,0.597,0.265,0.597,0.594v1.655c0,0.328-0.265,0.592-0.597,0.592h-1.705
				c-0.328,0-0.593-0.265-0.593-0.592v-1.655c0-0.329,0.265-0.594,0.593-0.594H100.777z M99.072,38.145
				c-0.102,0-0.19,0.088-0.19,0.192v1.655c0,0.103,0.088,0.19,0.19,0.19h1.705c0.107,0,0.19-0.088,0.19-0.19v-1.655
				c0-0.104-0.083-0.192-0.19-0.192H99.072z"/>
			<path class="st0" d="M104.704,38.336v2.247h-0.4v-2.247c0-0.104-0.089-0.192-0.192-0.192h-1.703
				c-0.108,0-0.197,0.088-0.197,0.192v2.247h-0.401v-2.841h2.301C104.44,37.743,104.704,38.008,104.704,38.336z"/>
		</g>
		<g>
			<path class="st0" d="M117.451,36.551c-0.432,0-0.8-0.141-1.106-0.423c-0.305-0.282-0.458-0.621-0.458-1.015
				c0-0.397,0.153-0.736,0.458-1.017c0.306-0.281,0.674-0.422,1.106-0.422c0.425,0,0.788,0.141,1.093,0.422
				c0.304,0.281,0.456,0.62,0.456,1.017c0,0.394-0.152,0.733-0.456,1.015C118.24,36.41,117.876,36.551,117.451,36.551z
				 M117.451,33.836c-0.38,0-0.705,0.125-0.976,0.375c-0.27,0.25-0.405,0.551-0.405,0.902c0,0.352,0.135,0.65,0.405,0.896
				c0.271,0.246,0.596,0.37,0.976,0.37c0.378,0,0.702-0.123,0.97-0.37c0.269-0.246,0.404-0.545,0.404-0.896
				c0-0.352-0.135-0.652-0.404-0.902C118.153,33.961,117.829,33.836,117.451,33.836z M118.201,36.017h-0.334l-0.214-0.445
				c-0.111-0.22-0.229-0.33-0.353-0.33h-0.183v0.774h-0.279v-1.833h0.563c0.228,0,0.404,0.044,0.528,0.133
				c0.124,0.088,0.186,0.209,0.186,0.362c0,0.127-0.043,0.235-0.13,0.323c-0.087,0.088-0.209,0.148-0.367,0.179v0.008
				c0.109,0.021,0.218,0.134,0.326,0.336L118.201,36.017z M117.117,34.399v0.628h0.295c0.277,0,0.416-0.105,0.416-0.316
				c0-0.11-0.038-0.189-0.115-0.239c-0.076-0.049-0.194-0.073-0.351-0.073H117.117z"/>
		</g>
		<g>
			<path class="st0" d="M31.741,29.939l-1.229,2.792h-2.213l5.409-12.275h2.212l5.409,12.275h-2.213l-1.229-2.792H31.741z
				 M37.044,28.026l-2.23-5.058l-2.23,5.058H37.044z"/>
			<path class="st0" d="M51.655,20.457v1.949h-6.55v3.249h5.883v1.844h-5.883v3.284h6.761v1.949h-8.833V20.457H51.655z"/>
			<path class="st0" d="M63.017,26.761h2.072v4.197c-1.159,1.276-2.816,1.914-4.97,1.914c-1.815,0-3.334-0.597-4.557-1.791
				c-1.223-1.194-1.835-2.704-1.835-4.531c0-1.826,0.623-3.348,1.87-4.566c1.247-1.217,2.754-1.826,4.522-1.826
				c1.768,0,3.237,0.515,4.408,1.545l-1.106,1.581c-0.48-0.41-0.963-0.694-1.449-0.852c-0.486-0.158-1.051-0.237-1.695-0.237
				c-1.241,0-2.282,0.401-3.126,1.203c-0.843,0.802-1.265,1.855-1.265,3.161c0,1.305,0.41,2.353,1.23,3.143
				c0.819,0.79,1.811,1.186,2.976,1.186c1.165,0,2.14-0.252,2.924-0.755V26.761z"/>
			<path class="st0" d="M67.811,20.457h2.072v12.275h-2.072V20.457z"/>
			<path class="st0" d="M77.004,22.072c-0.603,0-1.098,0.123-1.484,0.369c-0.386,0.245-0.58,0.618-0.58,1.115
				c0,0.498,0.194,0.878,0.58,1.142c0.386,0.264,1.209,0.547,2.467,0.852c1.258,0.304,2.207,0.732,2.845,1.282
				c0.638,0.55,0.957,1.361,0.957,2.432c0,1.071-0.404,1.941-1.212,2.608c-0.807,0.667-1.867,1.001-3.178,1.001
				c-1.92,0-3.623-0.661-5.11-1.984l1.3-1.563c1.241,1.078,2.529,1.615,3.863,1.615c0.667,0,1.196-0.143,1.589-0.43
				c0.392-0.286,0.588-0.667,0.588-1.141c0-0.474-0.185-0.844-0.553-1.107c-0.369-0.263-1.004-0.503-1.906-0.72
				c-0.901-0.216-1.586-0.415-2.054-0.597c-0.469-0.182-0.884-0.419-1.247-0.711c-0.726-0.55-1.088-1.393-1.088-2.529
				c0-1.135,0.413-2.01,1.237-2.625c0.826-0.615,1.847-0.922,3.065-0.922c0.784,0,1.562,0.129,2.335,0.386
				c0.773,0.258,1.44,0.621,2.002,1.089l-1.106,1.563c-0.364-0.328-0.855-0.597-1.476-0.808
				C78.218,22.178,77.606,22.072,77.004,22.072z"/>
			<path class="st0" d="M92.975,20.457v1.949h-6.551v3.249h5.883v1.844h-5.883v3.284h6.762v1.949h-8.834V20.457H92.975z"/>
			<path class="st0" d="M101.439,30.853c0.714,0,1.329-0.12,1.844-0.361c0.515-0.239,1.054-0.623,1.615-1.15l1.336,1.369
				c-1.3,1.441-2.878,2.16-4.733,2.16c-1.856,0-3.396-0.597-4.619-1.791c-1.224-1.194-1.835-2.704-1.835-4.531
				c0-1.826,0.623-3.348,1.87-4.566c1.247-1.217,2.821-1.826,4.724-1.826c1.902,0,3.491,0.702,4.767,2.107l-1.317,1.44
				c-0.585-0.562-1.139-0.954-1.66-1.176c-0.521-0.222-1.133-0.333-1.835-0.333c-1.241,0-2.284,0.401-3.126,1.203
				c-0.844,0.802-1.265,1.827-1.265,3.073c0,1.247,0.418,2.289,1.256,3.126C99.3,30.434,100.291,30.853,101.439,30.853z"/>
			<path class="st0" d="M111.519,29.922c0.562,0.656,1.323,0.984,2.283,0.984c0.96,0,1.721-0.328,2.283-0.984
				c0.562-0.655,0.843-1.545,0.843-2.669v-6.796H119v6.884c0,1.768-0.486,3.128-1.458,4.083c-0.972,0.954-2.218,1.432-3.741,1.432
				c-1.523,0-2.769-0.477-3.74-1.432c-0.972-0.954-1.458-2.315-1.458-4.083v-6.884h2.072v6.796
				C110.676,28.376,110.957,29.267,111.519,29.922z"/>
		</g>
	</g>
</g>
</svg>
