<?xml version="1.0" encoding="utf-8"?>
<!-- Generator: Adobe Illustrator 26.1.0, SVG Export Plug-In . SVG Version: 6.00 Build 0)  -->
<svg version="1.1" id="레이어_1" xmlns="http://www.w3.org/2000/svg" xmlns:xlink="http://www.w3.org/1999/xlink" x="0px"
	 y="0px" viewBox="0 0 119 60" style="enable-background:new 0 0 119 60;" xml:space="preserve">
<style type="text/css">
	.st0{fill:#8DCEB8;}
	.st1{fill:#02D394;}
	.st2{fill:#57A933;}
	.st3{fill:#C1DC98;}
</style>
<g>
	<polygon class="st0" points="78.025,19.634 80.146,27.455 82.27,19.634 	"/>
	<polygon class="st1" points="65.573,34.879 68.764,34.879 66.891,29.931 	"/>
	<polygon class="st1" points="95.557,19.634 93.27,29.433 90.657,19.634 87.172,19.634 84.559,29.433 82.27,19.634 82.27,19.634 
		80.146,27.455 82.162,34.879 86.301,34.879 88.914,25.405 91.528,34.879 95.665,34.879 99.804,19.634 	"/>
	<polygon class="st0" points="82.27,19.634 82.27,19.634 78.023,19.634 75.736,29.433 73.123,19.634 69.638,19.634 67.025,29.433 
		66.891,29.931 68.764,34.879 68.767,34.879 71.38,25.405 73.994,34.879 78.134,34.879 80.146,27.455 78.025,19.634 	"/>
	<path class="st1" d="M66.891,29.934l-3.897-10.3h-4.356l-5.765,15.245h4.245l0.982-2.722h5.443l0.982,2.722h1.053L66.891,29.934z
		 M59.073,29.325l1.742-5.125l1.742,5.125C62.558,29.325,59.073,29.325,59.073,29.325z"/>
	<path d="M54.171,37.382l1.153,2.992h-0.427l-0.265-0.689h-1.35l-0.265,0.689h-0.43l1.153-2.992H54.171z M53.442,39.258h1.022
		l-0.507-1.318L53.442,39.258z"/>
	<path d="M57.838,40.374h-0.41v-1.811h-1.139v1.811h-0.41v-2.221h0.41v0.39c0.002-0.053,0.015-0.106,0.037-0.154
		c0.022-0.046,0.051-0.087,0.088-0.123c0.037-0.037,0.08-0.066,0.128-0.085c0.05-0.02,0.103-0.029,0.156-0.028h0.729
		c0.055-0.001,0.109,0.009,0.16,0.031c0.049,0.021,0.093,0.051,0.131,0.088c0.077,0.074,0.12,0.177,0.12,0.285V40.374z"/>
	<path d="M58.886,38.563v1.398h1.059v-0.373h0.413v0.373c0,0.056-0.012,0.111-0.034,0.162c-0.02,0.049-0.049,0.093-0.085,0.131
		c-0.039,0.036-0.083,0.065-0.131,0.085c-0.051,0.023-0.106,0.035-0.162,0.034h-1.059c-0.054,0-0.108-0.012-0.156-0.034
		c-0.049-0.02-0.093-0.049-0.131-0.085c-0.037-0.039-0.066-0.083-0.088-0.131c-0.02-0.051-0.031-0.107-0.031-0.162v-1.398
		c0-0.055,0.011-0.109,0.031-0.16c0.021-0.049,0.051-0.093,0.088-0.131c0.037-0.039,0.082-0.068,0.131-0.088
		c0.049-0.022,0.103-0.032,0.156-0.031h1.059c0.056-0.001,0.111,0.009,0.162,0.031c0.049,0.021,0.093,0.051,0.131,0.088
		c0.073,0.077,0.116,0.179,0.12,0.285v0.376h-0.413v-0.376L58.886,38.563z"/>
	<path d="M62.957,40.374h-0.404v-1.811h-1.139v1.811h-0.41v-3.077h0.41v1.247c0.002-0.053,0.015-0.106,0.037-0.154
		c0.022-0.046,0.051-0.087,0.088-0.123c0.037-0.037,0.08-0.066,0.128-0.085c0.05-0.02,0.103-0.029,0.156-0.028h0.729
		c0.055-0.001,0.109,0.009,0.16,0.031c0.049,0.021,0.093,0.051,0.131,0.088c0.037,0.037,0.066,0.081,0.088,0.128
		c0.022,0.051,0.032,0.106,0.031,0.162L62.957,40.374z"/>
	<path d="M65.516,39.961c0.001,0.056-0.009,0.111-0.031,0.162c-0.022,0.049-0.051,0.093-0.088,0.131
		c-0.037,0.036-0.081,0.065-0.128,0.085c-0.05,0.023-0.104,0.035-0.16,0.034h-1.105c-0.054,0-0.108-0.012-0.156-0.034
		c-0.049-0.02-0.093-0.049-0.131-0.085c-0.037-0.039-0.066-0.083-0.088-0.131c-0.02-0.051-0.031-0.107-0.031-0.162v-1.398
		c-0.001-0.107,0.043-0.21,0.12-0.285c0.038-0.037,0.082-0.067,0.131-0.088c0.049-0.022,0.103-0.032,0.156-0.031h1.11
		c0.055-0.001,0.109,0.009,0.16,0.031c0.096,0.043,0.173,0.12,0.217,0.217c0.022,0.051,0.032,0.106,0.031,0.162L65.516,39.961z
		 M64.004,38.563v1.398h1.11v-1.398H64.004z"/>
	<path d="M66.564,38.563v1.811h-0.41v-2.221h0.41v0.39c0.002-0.052,0.014-0.104,0.037-0.151c0.021-0.047,0.051-0.089,0.088-0.125
		c0.037-0.037,0.08-0.066,0.128-0.085c0.05-0.02,0.103-0.029,0.156-0.028h0.436c0.055-0.001,0.109,0.009,0.16,0.031
		c0.099,0.042,0.177,0.12,0.219,0.219c0.023,0.05,0.035,0.104,0.034,0.16v0.376h-0.413v-0.376H66.564z"/>
	<polygon points="69.994,40.371 69.567,40.371 69.567,37.382 69.994,37.382 71.793,39.699 71.793,37.382 72.22,37.382 72.22,40.371 
		71.793,40.371 69.994,38.053 	"/>
	<path d="M74.774,39.471h-1.469v0.489h1.469v0.413h-1.469c-0.055,0-0.109-0.012-0.16-0.034c-0.047-0.021-0.091-0.049-0.128-0.085
		c-0.038-0.037-0.068-0.082-0.088-0.131c-0.022-0.051-0.032-0.106-0.031-0.162v-1.398c-0.001-0.056,0.009-0.111,0.031-0.162
		c0.021-0.048,0.051-0.091,0.088-0.128c0.037-0.037,0.081-0.066,0.128-0.088c0.05-0.022,0.105-0.032,0.16-0.031h1.059
		c0.056-0.001,0.111,0.009,0.162,0.031c0.047,0.022,0.091,0.051,0.128,0.088c0.038,0.037,0.068,0.08,0.088,0.128
		c0.022,0.051,0.032,0.106,0.031,0.162V39.471z M73.305,38.563v0.498h1.059v-0.498H73.305z"/>
	<path d="M75.412,38.154h0.41v1.808h1.139v-1.808h0.41v2.221h-0.41v-0.376c-0.004,0.051-0.019,0.1-0.043,0.145
		c-0.023,0.045-0.053,0.085-0.091,0.12c-0.036,0.035-0.079,0.062-0.125,0.08c-0.047,0.02-0.099,0.031-0.151,0.031h-0.734
		c-0.055,0-0.11-0.012-0.16-0.034c-0.1-0.039-0.178-0.117-0.217-0.217c-0.023-0.051-0.035-0.106-0.034-0.162L75.412,38.154z"/>
	<path d="M78.427,38.563v1.811h-0.41v-2.221h0.41v0.39c0.002-0.052,0.014-0.104,0.037-0.151c0.021-0.047,0.051-0.089,0.088-0.125
		c0.037-0.037,0.08-0.066,0.128-0.085c0.05-0.02,0.103-0.029,0.156-0.028h0.436c0.055-0.001,0.109,0.009,0.16,0.031
		c0.099,0.042,0.177,0.12,0.219,0.219c0.023,0.05,0.035,0.104,0.034,0.16v0.376h-0.413v-0.376H78.427z"/>
	<path d="M80.172,39.403c0-0.055,0.011-0.109,0.031-0.16c0.022-0.049,0.051-0.093,0.088-0.131c0.038-0.037,0.082-0.067,0.131-0.088
		c0.051-0.02,0.105-0.031,0.16-0.031h1.059v-0.43H80.3v-0.41h1.341c0.055-0.001,0.109,0.009,0.16,0.031
		c0.049,0.021,0.093,0.051,0.131,0.088c0.077,0.074,0.12,0.177,0.12,0.285v1.811h-0.41v-0.376c-0.005,0.051-0.02,0.1-0.043,0.146
		c-0.023,0.045-0.053,0.085-0.091,0.12c-0.078,0.071-0.179,0.111-0.285,0.111h-0.649c-0.055,0-0.11-0.012-0.16-0.034
		c-0.049-0.02-0.093-0.049-0.131-0.085c-0.037-0.039-0.066-0.083-0.088-0.131c-0.02-0.051-0.031-0.107-0.031-0.162L80.172,39.403z
		 M80.582,39.972h1.059v-0.569h-1.059V39.972z"/>
	<rect x="82.691" y="37.297" width="0.41" height="3.074"/>
	<polygon points="85.621,40.371 84.764,37.382 85.193,37.382 85.854,39.762 86.515,37.382 86.945,37.382 87.605,39.762 
		88.269,37.382 88.696,37.382 87.841,40.371 87.372,40.371 86.731,38.131 86.088,40.371 	"/>
	<path d="M91.021,39.961c0,0.056-0.012,0.111-0.034,0.162c-0.021,0.049-0.051,0.093-0.088,0.131
		c-0.037,0.036-0.081,0.065-0.128,0.085c-0.05,0.023-0.104,0.035-0.16,0.034H89.51c-0.055,0.001-0.11-0.011-0.16-0.034
		c-0.049-0.02-0.093-0.049-0.131-0.085c-0.037-0.039-0.066-0.083-0.088-0.131c-0.02-0.051-0.031-0.107-0.031-0.162v-1.398
		c-0.001-0.107,0.043-0.21,0.12-0.285c0.038-0.037,0.082-0.067,0.131-0.088c0.05-0.022,0.105-0.032,0.16-0.031h1.102
		c0.055-0.001,0.109,0.009,0.16,0.031c0.047,0.022,0.091,0.051,0.128,0.088c0.076,0.075,0.12,0.177,0.123,0.285L91.021,39.961z
		 M89.509,38.563v1.398h1.102v-1.398H89.509z"/>
	<path d="M92.063,38.563v1.811h-0.41v-2.221h0.41v0.39c0.002-0.052,0.014-0.104,0.037-0.151c0.021-0.047,0.051-0.089,0.088-0.125
		c0.037-0.037,0.08-0.066,0.128-0.085c0.05-0.02,0.103-0.029,0.156-0.028h0.436c0.055-0.001,0.109,0.009,0.16,0.031
		c0.099,0.042,0.177,0.12,0.219,0.219c0.023,0.05,0.035,0.104,0.034,0.16v0.376h-0.413v-0.376H92.063z"/>
	<rect x="93.871" y="37.297" width="0.41" height="3.074"/>
	<path d="M94.919,38.563c-0.001-0.107,0.043-0.21,0.12-0.285c0.038-0.037,0.082-0.067,0.131-0.088
		c0.049-0.022,0.103-0.032,0.156-0.031h1.139v-0.854h0.413v3.069h-0.413v-0.376c-0.003,0.051-0.017,0.1-0.04,0.145
		c-0.023,0.045-0.053,0.085-0.091,0.12c-0.037,0.035-0.079,0.062-0.125,0.08c-0.048,0.02-0.099,0.03-0.151,0.031H95.32
		c-0.054,0-0.108-0.012-0.156-0.034c-0.049-0.02-0.093-0.049-0.131-0.085c-0.037-0.039-0.066-0.083-0.088-0.131
		c-0.02-0.051-0.031-0.107-0.031-0.162L94.919,38.563z M95.326,39.961h1.139v-1.398h-1.139V39.961z"/>
	<path class="st2" d="M32.29,15.863l12.241,7.075v14.146L32.29,44.157l-12.241-7.075V22.931L32.29,15.863z M32.29,15.099
		l-12.911,7.45v14.909L32.29,44.9l12.914-7.453V22.549L32.29,15.099z"/>
	<polygon class="st3" points="21.637,23.85 32.29,30.003 32.29,17.702 	"/>
	<polygon class="st2" points="21.637,36.155 32.29,42.304 32.29,30.003 21.637,23.85 	"/>
	<polygon class="st3" points="32.29,17.702 32.29,21.801 42.946,27.953 42.946,23.85 	"/>
	<polygon class="st3" points="32.29,30.003 42.946,36.152 42.946,32.052 32.29,25.901 	"/>
	<polygon class="st2" points="32.29,30.003 32.29,34.102 42.946,27.953 42.946,23.85 	"/>
	<polygon class="st2" points="32.29,42.304 42.946,36.155 42.946,32.052 32.29,38.204 	"/>
	<path class="st1" d="M32.29,15.863l12.241,7.075v14.146L32.29,44.157l-12.241-7.075V22.931L32.29,15.863z M32.29,15.099
		l-12.911,7.45v14.909L32.29,44.9l12.914-7.453V22.549L32.29,15.099z"/>
	<polygon class="st0" points="21.637,23.85 32.29,30.003 32.29,17.702 	"/>
	<polygon class="st1" points="21.637,36.155 32.29,42.304 32.29,30.003 21.637,23.85 	"/>
	<polygon class="st0" points="32.29,17.702 32.29,21.801 42.946,27.953 42.946,23.85 	"/>
	<polygon class="st0" points="32.29,30.003 42.946,36.152 42.946,32.052 32.29,25.901 	"/>
	<polygon class="st1" points="32.29,30.003 32.29,34.102 42.946,27.953 42.946,23.85 	"/>
	<polygon class="st1" points="32.29,42.304 42.946,36.155 42.946,32.052 32.29,38.204 	"/>
</g>
</svg>
