<?xml version="1.0" encoding="utf-8"?>
<!-- Generator: Adobe Illustrator 26.1.0, SVG Export Plug-In . SVG Version: 6.00 Build 0)  -->
<svg version="1.1" id="레이어_1" xmlns="http://www.w3.org/2000/svg" xmlns:xlink="http://www.w3.org/1999/xlink" x="0px"
	 y="0px" viewBox="0 0 119 60" style="enable-background:new 0 0 119 60;" xml:space="preserve">
<style type="text/css">
	.st0{fill:#8DCEB8;}
	.st1{fill:#02D394;}
	.st2{fill:#57A933;}
	.st3{fill:#C1DC98;}
</style>
<g>
	<polygon class="st0" points="86.825,14.686 89.958,26.24 93.096,14.686 	"/>
	<polygon class="st1" points="68.428,37.209 73.143,37.209 70.376,29.899 	"/>
	<polygon class="st1" points="112.725,14.686 109.347,29.163 105.486,14.686 100.338,14.686 96.477,29.163 93.096,14.686 
		93.096,14.686 89.958,26.24 92.936,37.209 99.051,37.209 102.912,23.212 106.773,37.209 112.885,37.209 119,14.686 	"/>
	<polygon class="st0" points="93.096,14.686 93.096,14.686 86.821,14.686 83.443,29.163 79.582,14.686 74.434,14.686 70.573,29.163 
		70.376,29.899 73.143,37.209 73.147,37.209 77.008,23.212 80.869,37.209 86.985,37.209 89.958,26.24 86.825,14.686 	"/>
	<path class="st1" d="M70.376,29.903l-5.758-15.217h-6.435l-8.517,22.523h6.271l1.451-4.021h8.042l1.451,4.021h1.556L70.376,29.903z
		 M58.826,29.003l2.574-7.571l2.574,7.571H58.826z"/>
	<path d="M51.584,40.906l1.703,4.42h-0.631l-0.391-1.018h-1.994l-0.391,1.018h-0.635l1.703-4.42H51.584z M50.507,43.678h1.51
		l-0.749-1.947L50.507,43.678z"/>
	<path d="M57.001,45.326h-0.606v-2.675h-1.682v2.675h-0.606v-3.281h0.606v0.576c0.003-0.079,0.022-0.156,0.055-0.227
		c0.032-0.068,0.076-0.129,0.13-0.181c0.054-0.054,0.118-0.097,0.189-0.126c0.074-0.029,0.152-0.043,0.231-0.042h1.077
		c0.081-0.002,0.161,0.014,0.236,0.046c0.072,0.031,0.138,0.075,0.193,0.13c0.114,0.11,0.178,0.262,0.177,0.421V45.326z"/>
	<path d="M58.549,42.651v2.065h1.565v-0.551h0.61v0.551c0,0.083-0.017,0.164-0.05,0.24c-0.029,0.072-0.072,0.138-0.126,0.193
		c-0.057,0.053-0.122,0.096-0.193,0.126c-0.075,0.034-0.157,0.051-0.24,0.05h-1.565c-0.08,0-0.159-0.017-0.231-0.05
		c-0.072-0.03-0.137-0.072-0.193-0.126c-0.054-0.057-0.098-0.122-0.13-0.193c-0.03-0.076-0.046-0.158-0.046-0.24v-2.065
		c0-0.081,0.016-0.161,0.046-0.236c0.031-0.072,0.075-0.138,0.13-0.193c0.055-0.057,0.121-0.101,0.193-0.13
		c0.073-0.032,0.152-0.048,0.231-0.046h1.565c0.082-0.002,0.164,0.014,0.24,0.046c0.072,0.031,0.138,0.075,0.193,0.13
		c0.108,0.114,0.171,0.264,0.177,0.421v0.555h-0.61v-0.555L58.549,42.651z"/>
	<path d="M64.563,45.326h-0.597v-2.675h-1.682v2.675h-0.606V40.78h0.606v1.842c0.003-0.079,0.022-0.156,0.055-0.227
		c0.032-0.068,0.076-0.129,0.13-0.181c0.054-0.054,0.118-0.097,0.189-0.126c0.074-0.029,0.152-0.043,0.231-0.042h1.077
		c0.081-0.002,0.161,0.014,0.236,0.046c0.072,0.031,0.138,0.075,0.193,0.13c0.054,0.055,0.098,0.119,0.13,0.189
		c0.032,0.076,0.048,0.157,0.046,0.24L64.563,45.326z"/>
	<path d="M68.344,44.716c0.002,0.082-0.014,0.164-0.046,0.24c-0.032,0.072-0.076,0.137-0.13,0.193
		c-0.055,0.053-0.119,0.096-0.189,0.126c-0.074,0.034-0.154,0.051-0.236,0.05h-1.632c-0.08,0-0.159-0.017-0.231-0.05
		c-0.072-0.03-0.137-0.072-0.193-0.126c-0.054-0.057-0.098-0.122-0.13-0.193c-0.03-0.076-0.046-0.158-0.046-0.24v-2.065
		c-0.001-0.158,0.063-0.31,0.177-0.421c0.056-0.055,0.121-0.099,0.193-0.13c0.073-0.032,0.152-0.048,0.231-0.046h1.64
		c0.081-0.002,0.161,0.014,0.236,0.046c0.142,0.064,0.256,0.178,0.32,0.32c0.032,0.076,0.048,0.157,0.046,0.24L68.344,44.716z
		 M66.111,42.651v2.065h1.64v-2.065H66.111z"/>
	<path d="M69.892,42.651v2.675h-0.606v-3.281h0.606v0.576c0.003-0.077,0.021-0.153,0.055-0.223c0.031-0.07,0.075-0.132,0.13-0.185
		c0.054-0.054,0.118-0.097,0.189-0.126c0.074-0.029,0.152-0.043,0.231-0.042h0.644c0.081-0.002,0.161,0.014,0.236,0.046
		c0.146,0.062,0.262,0.178,0.324,0.324c0.034,0.074,0.051,0.154,0.05,0.236v0.555h-0.61v-0.555L69.892,42.651z"/>
	<polygon points="74.96,45.322 74.329,45.322 74.329,40.906 74.96,40.906 77.618,44.329 77.618,40.906 78.249,40.906 78.249,45.322 
		77.618,45.322 74.96,41.898 	"/>
	<path d="M82.022,43.993h-2.17v0.723h2.17v0.61h-2.17c-0.081,0-0.161-0.017-0.236-0.05c-0.07-0.031-0.134-0.073-0.189-0.126
		c-0.056-0.055-0.1-0.121-0.13-0.193c-0.032-0.076-0.048-0.157-0.046-0.24v-2.065c-0.002-0.082,0.014-0.164,0.046-0.24
		c0.031-0.071,0.075-0.135,0.13-0.189c0.055-0.054,0.119-0.098,0.189-0.13c0.074-0.032,0.155-0.048,0.236-0.046h1.565
		c0.082-0.002,0.164,0.014,0.24,0.046c0.07,0.032,0.134,0.076,0.189,0.13c0.056,0.054,0.1,0.118,0.13,0.189
		c0.032,0.076,0.048,0.157,0.046,0.24V43.993z M79.851,42.651v0.736h1.565v-0.736H79.851z"/>
	<path d="M82.964,42.046h0.606v2.671h1.682v-2.671h0.606v3.281h-0.606v-0.555c-0.006,0.075-0.028,0.148-0.063,0.214
		c-0.034,0.067-0.079,0.126-0.135,0.177c-0.053,0.052-0.116,0.092-0.185,0.118c-0.07,0.03-0.146,0.046-0.223,0.046h-1.085
		c-0.081,0-0.162-0.017-0.236-0.05c-0.147-0.057-0.263-0.173-0.32-0.32c-0.034-0.075-0.051-0.157-0.05-0.24L82.964,42.046z"/>
	<path d="M87.418,42.651v2.675h-0.606v-3.281h0.606v0.576c0.003-0.077,0.021-0.153,0.055-0.223c0.031-0.07,0.075-0.132,0.13-0.185
		c0.054-0.054,0.118-0.097,0.189-0.126c0.074-0.029,0.152-0.043,0.231-0.042h0.644c0.081-0.002,0.161,0.014,0.236,0.046
		c0.146,0.062,0.262,0.178,0.324,0.324c0.034,0.074,0.051,0.154,0.05,0.236v0.555h-0.61v-0.555L87.418,42.651z"/>
	<path d="M89.996,43.892c0-0.081,0.016-0.161,0.046-0.236c0.032-0.072,0.076-0.137,0.13-0.193c0.056-0.055,0.121-0.099,0.193-0.13
		c0.075-0.03,0.155-0.046,0.236-0.046h1.565v-0.635h-1.981v-0.606h1.981c0.081-0.002,0.161,0.014,0.236,0.046
		c0.072,0.031,0.138,0.075,0.193,0.13c0.114,0.11,0.178,0.262,0.177,0.421v2.675h-0.606v-0.555
		c-0.008,0.075-0.029,0.147-0.063,0.215c-0.034,0.067-0.079,0.126-0.135,0.177c-0.115,0.105-0.265,0.164-0.421,0.164h-0.959
		c-0.081,0-0.162-0.017-0.236-0.05c-0.072-0.03-0.137-0.072-0.193-0.126c-0.054-0.057-0.098-0.122-0.13-0.193
		c-0.03-0.076-0.046-0.158-0.046-0.24L89.996,43.892z M90.602,44.733h1.565v-0.841h-1.565V44.733z"/>
	<rect x="93.718" y="40.78" width="0.606" height="4.542"/>
	<polygon points="98.046,45.322 96.78,40.906 97.415,40.906 98.391,44.422 99.367,40.906 100.002,40.906 100.978,44.422 
		101.958,40.906 102.589,40.906 101.327,45.322 100.633,45.322 99.687,42.012 98.736,45.322 	"/>
	<path d="M106.025,44.716c0,0.083-0.017,0.164-0.05,0.24c-0.031,0.072-0.075,0.138-0.13,0.193c-0.055,0.053-0.119,0.096-0.189,0.126
		c-0.074,0.034-0.154,0.051-0.236,0.05h-1.628c-0.081,0.001-0.162-0.016-0.236-0.05c-0.072-0.03-0.137-0.072-0.193-0.126
		c-0.054-0.057-0.098-0.122-0.13-0.193c-0.03-0.076-0.046-0.158-0.046-0.24v-2.065c-0.001-0.158,0.063-0.31,0.177-0.421
		c0.056-0.055,0.121-0.099,0.193-0.13c0.074-0.033,0.155-0.048,0.236-0.046h1.628c0.081-0.002,0.161,0.014,0.236,0.046
		c0.07,0.032,0.134,0.076,0.189,0.13c0.113,0.111,0.178,0.262,0.181,0.421L106.025,44.716z M103.791,42.651v2.065h1.628v-2.065
		H103.791z"/>
	<path d="M107.564,42.651v2.675h-0.606v-3.281h0.606v0.576c0.003-0.077,0.021-0.153,0.055-0.223c0.031-0.07,0.075-0.132,0.13-0.185
		c0.054-0.054,0.118-0.097,0.189-0.126c0.074-0.029,0.152-0.043,0.231-0.042h0.644c0.081-0.002,0.161,0.014,0.236,0.046
		c0.146,0.062,0.262,0.178,0.324,0.324c0.034,0.074,0.051,0.154,0.05,0.236v0.555h-0.61v-0.555L107.564,42.651z"/>
	<rect x="110.235" y="40.78" width="0.606" height="4.542"/>
	<path d="M111.783,42.651c-0.001-0.158,0.063-0.31,0.177-0.421c0.056-0.055,0.121-0.099,0.193-0.13
		c0.073-0.032,0.152-0.048,0.231-0.046h1.682v-1.262h0.61v4.534h-0.61v-0.555c-0.005,0.075-0.025,0.148-0.059,0.214
		c-0.034,0.067-0.079,0.126-0.135,0.177c-0.054,0.051-0.116,0.091-0.185,0.118c-0.071,0.03-0.146,0.045-0.223,0.046h-1.089
		c-0.08,0-0.159-0.017-0.231-0.05c-0.072-0.03-0.137-0.072-0.193-0.126c-0.054-0.057-0.098-0.122-0.13-0.193
		c-0.03-0.076-0.046-0.158-0.046-0.24L111.783,42.651z M112.384,44.716h1.682v-2.065h-1.682V44.716z"/>
	<path class="st2" d="M19.257,9.114l18.085,10.452v20.899L19.257,50.916L1.172,40.464V19.557L19.257,9.114z M19.257,7.986
		L0.183,18.993v22.026l19.074,10.994l19.078-11.011V18.993L19.257,7.986z"/>
	<polygon class="st3" points="3.519,20.915 19.257,30.004 19.257,11.831 	"/>
	<polygon class="st2" points="3.519,39.093 19.257,48.178 19.257,30.004 3.519,20.915 	"/>
	<polygon class="st3" points="19.257,11.831 19.257,17.887 35,26.976 35,20.915 	"/>
	<polygon class="st3" points="19.257,30.004 35,39.089 35,33.032 19.257,23.944 	"/>
	<polygon class="st2" points="19.257,30.004 19.257,36.061 35,26.976 35,20.915 	"/>
	<polygon class="st2" points="19.257,48.178 35,39.093 35,33.032 19.257,42.121 	"/>
	<path class="st1" d="M19.257,9.114l18.085,10.452v20.899L19.257,50.916L1.172,40.464V19.557L19.257,9.114z M19.257,7.986
		L0.183,18.993v22.026l19.074,10.994l19.078-11.011V18.993L19.257,7.986z"/>
	<polygon class="st0" points="3.519,20.915 19.257,30.004 19.257,11.831 	"/>
	<polygon class="st1" points="3.519,39.093 19.257,48.178 19.257,30.004 3.519,20.915 	"/>
	<polygon class="st0" points="19.257,11.831 19.257,17.887 35,26.976 35,20.915 	"/>
	<polygon class="st0" points="19.257,30.004 35,39.089 35,33.032 19.257,23.944 	"/>
	<polygon class="st1" points="19.257,30.004 19.257,36.061 35,26.976 35,20.915 	"/>
	<polygon class="st1" points="19.257,48.178 35,39.093 35,33.032 19.257,42.121 	"/>
</g>
</svg>
