<?xml version="1.0" encoding="utf-8"?>
<!-- Generator: Adobe Illustrator 26.1.0, SVG Export Plug-In . SVG Version: 6.00 Build 0)  -->
<svg version="1.1" id="레이어_1" xmlns="http://www.w3.org/2000/svg" xmlns:xlink="http://www.w3.org/1999/xlink" x="0px"
	 y="0px" viewBox="0 0 119 60" style="enable-background:new 0 0 119 60;" xml:space="preserve">
<style type="text/css">
	.st0{clip-path:url(#SVGID_00000069372945173570212640000000653854439913983661_);}
	.st1{fill-rule:evenodd;clip-rule:evenodd;fill:#5849FF;}
	.st2{fill-rule:evenodd;clip-rule:evenodd;fill:url(#SVGID_00000145055132468613066810000010331870040551717819_);}
</style>
<g>
	<g>
		<defs>
			<rect id="SVGID_1_" x="25.106" y="19.896" width="93.894" height="20.208"/>
		</defs>
		<clipPath id="SVGID_00000119821884254767566520000003995039321090750387_">
			<use xlink:href="#SVGID_1_"  style="overflow:visible;"/>
		</clipPath>
		<g style="clip-path:url(#SVGID_00000119821884254767566520000003995039321090750387_);">
			<path class="st1" d="M25.125,35.115l6.328-14.421c0.104-0.238,0.276-0.44,0.493-0.582c0.218-0.142,0.472-0.217,0.732-0.216h3.939
				l6.638,15.223c0.014,0.031,0.021,0.066,0.018,0.101c-0.002,0.035-0.014,0.068-0.033,0.097c-0.019,0.029-0.045,0.053-0.076,0.069
				c-0.031,0.016-0.065,0.024-0.1,0.023h-2.99c-0.04,0-0.079-0.011-0.112-0.033c-0.033-0.022-0.06-0.053-0.076-0.089l-1.327-2.862
				c-0.016-0.036-0.043-0.067-0.076-0.088c-0.033-0.021-0.072-0.033-0.112-0.032H30.04c-0.04,0-0.078,0.011-0.112,0.032
				c-0.033,0.021-0.06,0.052-0.076,0.088l-1.327,2.856c-0.016,0.037-0.042,0.068-0.076,0.089c-0.033,0.022-0.072,0.033-0.112,0.033
				h-3.023c-0.034,0.001-0.068-0.007-0.099-0.023c-0.03-0.016-0.056-0.039-0.075-0.068c-0.019-0.029-0.03-0.062-0.033-0.096
				C25.105,35.181,25.111,35.147,25.125,35.115z M36.98,29.553c0.034,0,0.068-0.008,0.098-0.024c0.03-0.016,0.056-0.039,0.075-0.068
				c0.019-0.028,0.03-0.061,0.033-0.095c0.003-0.034-0.003-0.068-0.016-0.099l-2.764-6.603c-0.016-0.038-0.042-0.07-0.076-0.092
				c-0.034-0.023-0.074-0.034-0.114-0.034c-0.041,0-0.08,0.012-0.114,0.034c-0.034,0.023-0.06,0.055-0.076,0.092l-2.764,6.603
				c-0.013,0.03-0.018,0.063-0.016,0.096c0.003,0.033,0.013,0.065,0.031,0.093c0.018,0.028,0.042,0.051,0.07,0.068
				c0.029,0.017,0.061,0.026,0.094,0.027l0.01,0.002H36.98z M44.702,40.104c-0.054,0-0.106-0.021-0.145-0.06
				c-0.038-0.038-0.06-0.09-0.06-0.145V25.715c0.004-0.302,0.128-0.59,0.345-0.801c0.217-0.211,0.508-0.327,0.811-0.323h6
				c1.945,0,3.463,0.465,4.554,1.396c1.091,0.93,1.559,2.238,1.559,4.001c0,1.778-0.468,3.171-1.559,4.101
				c-1.091,0.93-2.609,1.314-4.554,1.314h-3.887v4.496c0,0.054-0.021,0.106-0.06,0.145c-0.038,0.038-0.09,0.06-0.145,0.06H44.702z
				 M51.653,27.023h-3.887v6.028h3.887c0.945,0,1.668-0.25,2.168-0.75c0.5-0.5,0.751-1.258,0.751-2.274
				c0-1.001-0.25-1.751-0.751-2.248C53.321,27.282,52.598,27.03,51.653,27.023z M60.788,34.013c1.063,0.931,2.544,1.396,4.444,1.396
				h2.416c1.899,0,3.381-0.465,4.444-1.396c1.063-0.931,1.595-2.299,1.595-4.104c0-1.82-0.532-3.196-1.595-4.127
				c-1.063-0.931-2.544-1.396-4.444-1.396h-2.416c-1.899-0.001-3.381,0.464-4.444,1.396c-1.063,0.932-1.595,2.307-1.595,4.127
				C59.194,31.715,59.725,33.083,60.788,34.013z M67.648,32.995h-2.416v-0.004c-0.921,0.004-1.626-0.246-2.114-0.751
				c-0.489-0.504-0.733-1.282-0.733-2.331c0-1.066,0.244-1.85,0.733-2.353c0.488-0.503,1.194-0.755,2.116-0.755h2.416
				c0.92-0.001,1.624,0.25,2.114,0.755c0.49,0.504,0.735,1.289,0.735,2.353c-0.003,1.051-0.248,1.828-0.737,2.331
				C69.274,32.743,68.569,32.995,67.648,32.995z M93.196,35.409c-1.899,0-3.381-0.465-4.444-1.396
				c-1.063-0.931-1.595-2.299-1.595-4.104c0-1.819,0.532-3.195,1.595-4.127c1.063-0.932,2.544-1.397,4.444-1.396h2.416
				c1.899,0,3.381,0.465,4.444,1.396c1.063,0.931,1.595,2.306,1.595,4.127c0,1.806-0.532,3.174-1.595,4.104
				c-1.063,0.931-2.544,1.396-4.444,1.396H93.196z M93.196,32.995h2.416c0.921,0,1.626-0.252,2.114-0.755
				c0.489-0.503,0.734-1.28,0.737-2.331c0-1.064-0.245-1.849-0.735-2.353c-0.49-0.504-1.194-0.756-2.114-0.755h-2.416
				c-0.922,0-1.628,0.252-2.116,0.755c-0.489,0.503-0.733,1.288-0.733,2.353c0,1.05,0.244,1.827,0.733,2.331
				c0.488,0.504,1.193,0.755,2.114,0.751V32.995z M81.911,35.35c0.038,0.038,0.09,0.059,0.144,0.059h2.858
				c0.054,0,0.106-0.021,0.144-0.059c0.038-0.038,0.06-0.09,0.06-0.144V19.897h-2.041c-0.311-0.013-0.615,0.097-0.845,0.306
				c-0.23,0.209-0.366,0.501-0.38,0.81v14.192C81.851,35.26,81.872,35.312,81.911,35.35z M75.931,35.409
				c-0.054,0-0.106-0.021-0.144-0.059c-0.038-0.038-0.06-0.09-0.06-0.144V21.014c0.014-0.31,0.15-0.601,0.38-0.81
				c0.23-0.209,0.533-0.32,0.845-0.306h2.041v15.309c0,0.054-0.021,0.105-0.06,0.144c-0.038,0.038-0.09,0.059-0.144,0.059H75.931z
				 M107.328,28.003l-4.453,7.406h3.483l3.766-5.741c0.081-0.123,0.186-0.222,0.308-0.291c0.122-0.069,0.256-0.105,0.392-0.105h0.22
				c0.136,0,0.27,0.036,0.392,0.105c0.121,0.069,0.227,0.168,0.308,0.291l3.766,5.741H119l-4.45-7.406
				c-0.113-0.168-0.174-0.372-0.174-0.582s0.061-0.414,0.174-0.582l4.45-6.943h-3.467l-3.785,5.762
				c-0.08,0.125-0.185,0.226-0.306,0.297c-0.122,0.071-0.257,0.108-0.394,0.109h-0.22c-0.137-0.001-0.272-0.038-0.394-0.109
				c-0.122-0.071-0.227-0.172-0.306-0.297l-3.785-5.762h-3.47l4.453,6.943c0.112,0.168,0.173,0.372,0.173,0.582
				C107.501,27.631,107.44,27.835,107.328,28.003z"/>
		</g>
	</g>
	
		<linearGradient id="SVGID_00000040576318817018968580000004890133037129262505_" gradientUnits="userSpaceOnUse" x1="-5.8036" y1="39.0488" x2="22.7399" y2="25.3708" gradientTransform="matrix(1 0 0 -1 0 60)">
		<stop  offset="0" style="stop-color:#C040FC"/>
		<stop  offset="1" style="stop-color:#4B3CFF"/>
	</linearGradient>
	<path style="fill-rule:evenodd;clip-rule:evenodd;fill:url(#SVGID_00000040576318817018968580000004890133037129262505_);" d="
		M18.527,24.376c-1.432,3.295-3.775,6.112-6.751,8.118S5.312,35.613,1.725,35.7c-0.742-1.105-1.26-2.346-1.524-3.651
		c-0.264-1.305-0.268-2.65-0.013-3.957c0.255-1.307,0.765-2.551,1.5-3.661c0.735-1.11,1.681-2.064,2.785-2.807
		c1.103-0.744,2.342-1.262,3.645-1.526c1.303-0.264,2.646-0.268,3.951-0.013c1.305,0.256,2.547,0.766,3.655,1.503
		C16.833,22.324,17.785,23.271,18.527,24.376z M19.187,24.313v-1.258c0-0.013,0.003-0.026,0.01-0.037
		c0.006-0.011,0.016-0.02,0.027-0.027l1.083-0.637c0.011-0.006,0.023-0.01,0.035-0.01c0.012,0,0.024,0.003,0.035,0.01
		c0.011,0.006,0.019,0.016,0.026,0.027c0.006,0.011,0.009,0.024,0.009,0.037v1.258c0,0.013-0.003,0.025-0.01,0.037
		c-0.006,0.011-0.015,0.02-0.026,0.027l-1.084,0.637c-0.011,0.006-0.023,0.01-0.035,0.01c-0.012,0-0.024-0.003-0.035-0.01
		c-0.011-0.006-0.019-0.016-0.026-0.027S19.187,24.326,19.187,24.313z M18.316,35.865c1.23-1.722,1.892-3.787,1.892-5.905
		c0-1.561-0.361-3.1-1.055-4.497c-3.163,4.094-5.168,8.965-5.805,14.102C15.349,38.881,17.086,37.587,18.316,35.865z"/>
</g>
</svg>
