<?xml version="1.0" encoding="utf-8"?>
<!-- Generator: Adobe Illustrator 26.0.1, SVG Export Plug-In . SVG Version: 6.00 Build 0)  -->
<svg version="1.1" id="레이어_1" xmlns="http://www.w3.org/2000/svg" xmlns:xlink="http://www.w3.org/1999/xlink" x="0px"
	 y="0px" viewBox="0 0 119 60" style="enable-background:new 0 0 119 60;" xml:space="preserve">
<style type="text/css">
	.st0{fill:#43403F;}
	.st1{fill:#D52B26;}
	.st2{fill:#EB7222;}
	.st3{fill:url(#SVGID_1_);}
</style>
<g>
	<path class="st0" d="M78.628,36.223c-0.407,1.422-1.241,2.438-2.731,2.438c-1.49,0-1.741-1.017-1.333-2.438l2.019-7.044h-4.064
		l-2.02,7.044c-1.092,3.81,0.459,5.96,4.387,5.96c3.929,0,6.713-2.15,7.805-5.96l2.02-7.044h-4.064L78.628,36.223z"/>
	<path class="st0" d="M100.562,29.178c-1.682,0-3.137,0.416-4.356,1.165c-0.824-0.851-2.044-1.163-3.1-1.163
		c-0.796,0-1.833,0.209-3.043,1.025l-0.192,0.148c-0.122-0.698-0.683-1.185-1.503-1.185h-2.032l-3.731,13.015h4.064l2.023-7.054
		c0.468-1.634,1.586-2.7,2.671-2.7c1.354,0,1.892,0.976,1.398,2.7l-0.003,0.008l-2.02,7.044v0.001h4.06v-0.001h0.005l2.02-7.044
		c0.407-1.422,1.318-2.711,2.809-2.711c1.49,0,1.662,1.289,1.255,2.711l-2.02,7.044h4.064l2.02-7.044
		C106.041,31.328,104.49,29.178,100.562,29.178"/>
	<path class="st0" d="M55.374,26.613c0.321-1.122-0.327-2.031-1.449-2.031h-2.032l-4.273,14.902c-0.429,1.496,0.436,2.71,1.932,2.71
		h3.792l1.166-4.065h-2.077c-0.18,0-0.31-0.172-0.261-0.346l1.301-4.531h0.405c1.122,0,2.292-0.909,2.614-2.031l0.583-2.032h-2.437
		L55.374,26.613z"/>
	<path class="st0" d="M65.745,29.181c-0.786,0-1.806,0.205-2.994,0.993l1.023-3.57c0.322-1.122-0.326-2.031-1.449-2.031h-2.031
		l-5.05,17.61h4.064l2.022-7.054c0.469-1.632,1.588-2.7,2.672-2.7c1.354,0,1.892,0.977,1.397,2.7l-2.022,7.054h4.06l2.022-7.054
		C70.792,30.479,67.915,29.181,65.745,29.181"/>
	<path class="st0" d="M37.162,29.178c-0.742,0-1.444,0.087-2.106,0.255l0.811-2.829c0.322-1.122-0.326-2.031-1.449-2.031h-2.031
		l-3.185,11.108c-1.166,4.064,0.303,6.502,4.232,6.502s6.795-2.438,7.961-6.502C42.559,31.617,41.09,29.178,37.162,29.178
		 M34.422,38.733c-1.49,0-1.641-1.367-1.157-3.052c0.484-1.686,1.417-3.052,2.907-3.052c1.49,0,1.641,1.367,1.157,3.052
		C36.846,37.366,35.912,38.733,34.422,38.733"/>
	<path class="st0" d="M114.38,29.178c-0.742,0-1.444,0.087-2.106,0.255l0.811-2.829c0.322-1.122-0.326-2.031-1.449-2.031h-2.031
		l-3.185,11.108c-1.166,4.064,0.303,6.502,4.231,6.502s6.795-2.438,7.961-6.502C119.777,31.617,118.308,29.178,114.38,29.178
		 M111.64,38.733c-1.49,0-1.641-1.367-1.157-3.052c0.483-1.686,1.417-3.052,2.907-3.052c1.49,0,1.641,1.367,1.157,3.052
		C114.064,37.366,113.13,38.733,111.64,38.733"/>
	<path class="st0" d="M46.645,29.178h-2.032l-3.731,13.014h4.064l3.149-10.981C48.416,30.088,47.767,29.178,46.645,29.178"/>
	<path class="st0" d="M47.963,24.582c-1.122,0-2.293,0.909-2.614,2.032c-0.322,1.122,0.326,2.031,1.449,2.031
		c1.122,0,2.292-0.909,2.614-2.031C49.734,25.491,49.085,24.582,47.963,24.582"/>
	<path class="st1" d="M2.959,30H2.553c-1.871,0-2.952-1.516-2.416-3.387l1.359-4.742H5.29L2.959,30z"/>
	<path class="st2" d="M14.637,21.872h-2.303l-2.33,8.129h2.303c1.49,0,1.979,1.128,1.332,3.387
		c-0.647,2.257-1.784,3.387-3.274,3.387c-1.489,0-1.979-1.129-1.332-3.387l4.274-14.902c0.536-1.871-0.545-3.387-2.416-3.387H6.149
		L0.905,33.387c-2.201,7.676,0.762,11.514,7.129,11.514c6.367,0,11.532-3.838,13.733-11.514
		C23.968,25.711,21.005,21.872,14.637,21.872"/>
	<linearGradient id="SVGID_1_" gradientUnits="userSpaceOnUse" x1="13.9371" y1="23.6777" x2="19.396" y2="34.906">
		<stop  offset="0" style="stop-color:#D52B26"/>
		<stop  offset="0.0108" style="stop-color:#D62E26"/>
		<stop  offset="0.1358" style="stop-color:#DE4624"/>
		<stop  offset="0.2748" style="stop-color:#E45A23"/>
		<stop  offset="0.4357" style="stop-color:#E86823"/>
		<stop  offset="0.6363" style="stop-color:#EA7022"/>
		<stop  offset="1" style="stop-color:#EB7222"/>
	</linearGradient>
	<path class="st3" d="M12.335,21.872l-2.332,8.128h2.305c1.488,0,1.979,1.128,1.33,3.386h8.129c2.2-7.677-0.763-11.514-7.128-11.514
		H12.335"/>
</g>
</svg>
