<?xml version="1.0" encoding="utf-8"?>
<!-- Generator: Adobe Illustrator 26.0.1, SVG Export Plug-In . SVG Version: 6.00 Build 0)  -->
<svg version="1.1" id="레이어_1" xmlns="http://www.w3.org/2000/svg" xmlns:xlink="http://www.w3.org/1999/xlink" x="0px"
	 y="0px" viewBox="0 0 119 60" style="enable-background:new 0 0 119 60;" xml:space="preserve">
<style type="text/css">
	.st0{fill-rule:evenodd;clip-rule:evenodd;}
</style>
<path class="st0" d="M5.29,46.434V35.61h0.088l8.42,10.823h7.01l-9.655-11.574l9.082-9.631h-6.789L5.29,34.02V13.036H0v33.397H5.29z
	 M33.931,46.964c1.587,0,3.086-0.265,4.497-0.795c1.411-0.53,2.63-1.281,3.659-2.253c1.029-0.972,1.844-2.143,2.447-3.512
	c0.603-1.37,0.904-2.894,0.904-4.572c0-1.679-0.301-3.203-0.904-4.572c-0.602-1.369-1.418-2.54-2.447-3.512
	c-1.029-0.972-2.249-1.723-3.659-2.253c-1.411-0.53-2.91-0.795-4.497-0.795c-1.587,0-3.086,0.265-4.497,0.795
	c-1.411,0.53-2.631,1.281-3.659,2.253c-1.029,0.972-1.844,2.143-2.447,3.512c-0.603,1.369-0.904,2.894-0.904,4.572
	c0,1.679,0.301,3.203,0.904,4.572c0.603,1.37,1.418,2.54,2.447,3.512c1.028,0.972,2.248,1.723,3.659,2.253
	C30.845,46.699,32.344,46.964,33.931,46.964z M31.33,41.663c0.764,0.353,1.631,0.53,2.601,0.53s1.837-0.177,2.601-0.53
	c0.764-0.353,1.418-0.824,1.962-1.414c0.544-0.589,0.955-1.266,1.234-2.032c0.279-0.766,0.419-1.561,0.419-2.386
	c0-0.825-0.14-1.62-0.419-2.386c-0.279-0.766-0.691-1.443-1.234-2.032c-0.544-0.589-1.198-1.06-1.962-1.414
	c-0.764-0.353-1.631-0.53-2.601-0.53S32.094,29.647,31.33,30c-0.764,0.353-1.418,0.825-1.962,1.414
	c-0.544,0.589-0.955,1.266-1.235,2.032c-0.279,0.766-0.419,1.561-0.419,2.386c0,0.825,0.14,1.62,0.419,2.386
	c0.279,0.766,0.691,1.443,1.235,2.032C29.912,40.838,30.566,41.309,31.33,41.663z M55.474,46.434V35.08
	c0-0.295,0.066-0.736,0.199-1.325c0.132-0.589,0.397-1.178,0.794-1.767c0.397-0.589,0.97-1.112,1.719-1.568
	c0.749-0.457,1.741-0.685,2.976-0.685c0.411,0,0.83,0.037,1.256,0.11c0.426,0.074,0.86,0.169,1.301,0.287v-5.124
	c-0.323-0.088-0.639-0.162-0.948-0.221c-0.309-0.059-0.624-0.088-0.948-0.088c-1.411,0-2.66,0.339-3.747,1.016
	c-1.087,0.677-1.925,1.635-2.513,2.871h-0.088v-3.357h-5.29v21.205H55.474z M83.894,46.102c-1.293,0.574-2.748,0.861-4.365,0.861
	c-1.499,0-2.895-0.294-4.188-0.884c-1.293-0.589-2.322-1.531-3.086-2.827h-0.088v3.181h-5.026V13.036h5.29v14.888h0.132
	c0.265-0.353,0.602-0.714,1.014-1.082c0.411-0.368,0.911-0.714,1.499-1.038c0.588-0.324,1.264-0.589,2.028-0.795
	c0.764-0.206,1.646-0.309,2.645-0.309c1.499,0,2.88,0.287,4.144,0.861c1.264,0.574,2.344,1.362,3.24,2.363
	c0.897,1.001,1.594,2.179,2.094,3.534c0.5,1.355,0.749,2.813,0.749,4.373c0,1.561-0.235,3.019-0.705,4.374
	c-0.47,1.355-1.161,2.533-2.072,3.534C86.289,44.74,85.187,45.528,83.894,46.102z M78.471,42.193c-0.97,0-1.837-0.177-2.601-0.53
	c-0.764-0.353-1.418-0.824-1.962-1.414c-0.544-0.589-0.955-1.266-1.235-2.032c-0.279-0.766-0.419-1.561-0.419-2.386
	c0-0.825,0.14-1.62,0.419-2.386c0.279-0.766,0.691-1.443,1.235-2.032c0.544-0.589,1.198-1.06,1.962-1.414
	c0.764-0.353,1.631-0.53,2.601-0.53s1.837,0.177,2.601,0.53c0.764,0.353,1.418,0.825,1.962,1.414
	c0.544,0.589,0.955,1.266,1.234,2.032c0.279,0.766,0.419,1.561,0.419,2.386c0,0.825-0.14,1.62-0.419,2.386
	c-0.279,0.766-0.691,1.443-1.234,2.032c-0.544,0.589-1.198,1.06-1.962,1.414C80.308,42.016,79.441,42.193,78.471,42.193z
	 M94.812,25.229h5.29v21.205h-5.29V25.229z M114.812,46.964c0.617,0,1.33-0.052,2.138-0.155c0.808-0.103,1.492-0.287,2.05-0.552
	v-4.462c-0.323,0.235-0.764,0.405-1.323,0.508c-0.558,0.103-1.073,0.155-1.543,0.155c-1.176,0-1.962-0.309-2.358-0.928
	c-0.397-0.619-0.595-1.458-0.595-2.518v-9.277H119v-4.506h-5.819v-6.141h-5.29v6.141h-4.365v4.506h4.365v9.719
	c0,1.237,0.096,2.327,0.287,3.269c0.191,0.942,0.544,1.73,1.058,2.364c0.514,0.633,1.22,1.104,2.116,1.414
	C112.247,46.809,113.401,46.964,114.812,46.964z M100.77,18.227c0,1.888-1.53,3.418-3.418,3.418s-3.418-1.53-3.418-3.418
	s1.53-3.418,3.418-3.418S100.77,16.339,100.77,18.227z"/>
</svg>
