<?xml version="1.0" encoding="utf-8"?>
<!-- Generator: Adobe Illustrator 26.1.0, SVG Export Plug-In . SVG Version: 6.00 Build 0)  -->
<svg version="1.1" id="레이어_1" xmlns="http://www.w3.org/2000/svg" xmlns:xlink="http://www.w3.org/1999/xlink" x="0px"
	 y="0px" viewBox="0 0 119 60" style="enable-background:new 0 0 119 60;" xml:space="preserve">
<style type="text/css">
	.st0{fill-rule:evenodd;clip-rule:evenodd;}
</style>
<path class="st0" d="M26.272,40.073v-6.635h0.054l5.161,6.634h4.297l-5.918-7.094l5.567-5.903h-4.161l-4.999,5.389V19.602H23.03
	v20.471L26.272,40.073L26.272,40.073z M43.828,40.398c0.973,0,1.892-0.162,2.756-0.487c0.865-0.325,1.612-0.785,2.243-1.381
	c0.631-0.596,1.13-1.314,1.5-2.153c0.37-0.84,0.554-1.774,0.554-2.802c0-1.029-0.184-1.963-0.554-2.802
	c-0.369-0.839-0.869-1.557-1.5-2.153c-0.631-0.596-1.379-1.056-2.243-1.381c-0.865-0.325-1.784-0.487-2.756-0.487
	s-1.892,0.162-2.756,0.487s-1.613,0.785-2.243,1.381c-0.631,0.596-1.13,1.314-1.5,2.153c-0.37,0.839-0.554,1.774-0.554,2.802
	c0,1.029,0.184,1.963,0.554,2.802c0.37,0.84,0.869,1.557,1.5,2.153c0.63,0.596,1.378,1.056,2.243,1.381
	C41.936,40.236,42.855,40.398,43.828,40.398z M42.233,37.149c0.468,0.216,1,0.325,1.594,0.325s1.126-0.108,1.594-0.325
	c0.468-0.216,0.869-0.505,1.203-0.867c0.333-0.361,0.585-0.776,0.756-1.246c0.171-0.47,0.257-0.957,0.257-1.462
	s-0.086-0.993-0.257-1.462c-0.171-0.47-0.424-0.884-0.756-1.246c-0.333-0.361-0.734-0.65-1.203-0.867
	c-0.468-0.216-1-0.325-1.594-0.325S42.702,29.784,42.233,30s-0.869,0.506-1.203,0.867c-0.333,0.361-0.585,0.776-0.757,1.246
	c-0.171,0.47-0.257,0.957-0.257,1.462s0.086,0.993,0.257,1.462s0.424,0.884,0.757,1.246C41.364,36.643,41.765,36.932,42.233,37.149z
	 M57.032,40.073v-6.959c0-0.181,0.04-0.451,0.122-0.812c0.081-0.361,0.243-0.722,0.487-1.083s0.595-0.682,1.054-0.961
	c0.459-0.28,1.067-0.42,1.824-0.42c0.252,0,0.509,0.023,0.77,0.067c0.261,0.045,0.527,0.104,0.797,0.176V26.94
	c-0.198-0.054-0.392-0.099-0.581-0.135c-0.189-0.036-0.382-0.054-0.581-0.054c-0.865,0-1.63,0.208-2.297,0.623
	c-0.666,0.415-1.18,1.002-1.54,1.76h-0.054v-2.058H53.79v12.997C53.79,40.073,57.032,40.073,57.032,40.073z M74.452,39.87
	c-0.793,0.352-1.684,0.528-2.676,0.528c-0.919,0-1.774-0.18-2.567-0.542c-0.793-0.361-1.423-0.938-1.892-1.733h-0.054v1.95h-3.081
	V19.602h3.242v9.126h0.081c0.162-0.216,0.369-0.438,0.622-0.663c0.252-0.226,0.558-0.438,0.919-0.636
	c0.36-0.199,0.775-0.361,1.243-0.487c0.468-0.126,1.009-0.189,1.621-0.189c0.919,0,1.765,0.176,2.54,0.528
	c0.775,0.352,1.437,0.835,1.986,1.448c0.55,0.614,0.977,1.336,1.284,2.166c0.306,0.831,0.459,1.724,0.459,2.68
	c0,0.957-0.144,1.85-0.432,2.681c-0.288,0.831-0.712,1.553-1.27,2.166C75.92,39.035,75.245,39.518,74.452,39.87z M71.128,37.474
	c-0.595,0-1.126-0.108-1.594-0.325c-0.468-0.216-0.869-0.505-1.203-0.867c-0.333-0.361-0.585-0.776-0.757-1.246
	c-0.171-0.47-0.257-0.957-0.257-1.462s0.086-0.993,0.257-1.462c0.171-0.47,0.424-0.884,0.757-1.246s0.734-0.65,1.203-0.867
	c0.468-0.216,1-0.325,1.594-0.325s1.126,0.108,1.594,0.325c0.468,0.216,0.869,0.506,1.203,0.867
	c0.333,0.361,0.585,0.776,0.756,1.246c0.171,0.47,0.257,0.957,0.257,1.462s-0.086,0.993-0.257,1.462s-0.424,0.884-0.756,1.246
	c-0.333,0.361-0.734,0.65-1.203,0.867C72.254,37.365,71.723,37.474,71.128,37.474z M81.144,27.076h3.242v12.997h-3.242V27.076z
	 M93.403,40.398c0.378,0,0.815-0.032,1.31-0.095c0.495-0.063,0.915-0.176,1.257-0.338V37.23c-0.198,0.144-0.468,0.248-0.811,0.311
	c-0.342,0.063-0.658,0.095-0.946,0.095c-0.721,0-1.203-0.189-1.445-0.569c-0.243-0.379-0.365-0.894-0.365-1.543v-5.686h3.567v-2.762
	h-3.567v-3.764h-3.242v3.764h-2.676v2.762h2.676v5.957c0,0.758,0.059,1.426,0.176,2.004c0.117,0.577,0.333,1.06,0.648,1.449
	c0.315,0.388,0.748,0.677,1.297,0.867C91.831,40.303,92.538,40.398,93.403,40.398z M84.796,22.784c0,1.157-0.938,2.095-2.095,2.095
	c-1.157,0-2.095-0.938-2.095-2.095c0-1.157,0.938-2.095,2.095-2.095C83.858,20.689,84.796,21.627,84.796,22.784z"/>
</svg>
