<?xml version="1.0" encoding="utf-8"?>
<!-- Generator: Adobe Illustrator 26.0.1, SVG Export Plug-In . SVG Version: 6.00 Build 0)  -->
<svg version="1.1" id="레이어_1" xmlns="http://www.w3.org/2000/svg" xmlns:xlink="http://www.w3.org/1999/xlink" x="0px"
	 y="0px" viewBox="0 0 119 60" style="enable-background:new 0 0 119 60;" xml:space="preserve">
<style type="text/css">
	.st0{fill:#1A1A1A;}
	.st1{fill-rule:evenodd;clip-rule:evenodd;fill:#88BDF3;}
	.st2{fill-rule:evenodd;clip-rule:evenodd;fill:#3075EE;}
	.st3{fill-rule:evenodd;clip-rule:evenodd;fill:#5795F1;}
	.st4{fill-rule:evenodd;clip-rule:evenodd;fill:#205FEC;}
	.st5{fill-rule:evenodd;clip-rule:evenodd;fill:#134BEF;}
	.st6{fill-rule:evenodd;clip-rule:evenodd;fill:#0932E8;}
	.st7{fill-rule:evenodd;clip-rule:evenodd;fill:#164BEA;}
	.st8{fill-rule:evenodd;clip-rule:evenodd;fill:#3170F1;}
</style>
<desc>Created with Sketch.</desc>
<g id="Navigation">
	<g id="OKEx-logo-_x26_-Subtitle" transform="translate(-80.000000, -80.000000)">
		<g transform="translate(80.000000, 80.000000)">
			<g id="OKEx-logo">
				<path id="Text" class="st0" d="M66.868,29.96c0,1.41-0.218,2.741-0.675,3.972c-0.457,1.251-1.092,2.324-1.946,3.257
					c-0.854,0.933-1.887,1.668-3.138,2.224c-1.251,0.556-2.661,0.814-4.25,0.814c-1.589,0-2.999-0.278-4.25-0.814
					c-1.251-0.556-2.284-1.291-3.138-2.224c-0.854-0.933-1.509-2.026-1.946-3.257c-0.437-1.251-0.655-2.562-0.655-3.972
					c0-1.39,0.218-2.721,0.655-3.972c0.437-1.251,1.092-2.343,1.946-3.277c0.854-0.933,1.907-1.668,3.138-2.224
					c1.251-0.556,2.661-0.814,4.25-0.814c1.589,0,2.999,0.278,4.25,0.814c1.251,0.556,2.284,1.291,3.138,2.224
					c0.854,0.933,1.489,2.026,1.946,3.277C66.65,27.239,66.868,28.57,66.868,29.96z M56.879,36.971c0.973,0,1.827-0.179,2.542-0.536
					c0.735-0.357,1.331-0.854,1.827-1.47c0.496-0.636,0.854-1.37,1.092-2.224c0.238-0.854,0.357-1.787,0.357-2.78
					s-0.119-1.926-0.357-2.78c-0.238-0.854-0.596-1.589-1.092-2.224c-0.496-0.636-1.092-1.112-1.827-1.47
					c-0.735-0.357-1.569-0.536-2.542-0.536s-1.827,0.179-2.542,0.536c-0.735,0.357-1.331,0.854-1.827,1.47
					c-0.496,0.636-0.854,1.37-1.092,2.224c-0.238,0.854-0.357,1.787-0.357,2.78s0.119,1.926,0.357,2.78
					c0.238,0.854,0.596,1.589,1.092,2.224c0.496,0.636,1.092,1.112,1.827,1.47C55.051,36.792,55.905,36.971,56.879,36.971z
					 M69.489,39.89V20.03h4.171v9.533l6.891-9.533h4.826l-7.308,9.811l7.805,10.049H80.71l-7.07-9.751v9.751H69.489z M87.542,20.03
					h11.936v3.317h-7.745v4.806h7.388v3.297h-7.388v5.124h7.845v3.317H87.562V20.03H87.542z M114.353,20.03h4.528l-6.534,9.87
					L119,39.89h-4.568l-4.29-6.772l-4.29,6.772h-4.568l6.653-9.989l-6.534-9.87h4.528l4.21,6.713L114.353,20.03z"/>
				<g id="Path-raw">
					<circle id="Oval" class="st1" cx="21.051" cy="18.481" r="9.533"/>
					<circle id="Oval-Copy" class="st2" cx="21.051" cy="41.519" r="9.533"/>
					<circle id="Oval-Copy-2" class="st3" cx="32.57" cy="30" r="9.533"/>
					<circle id="Oval-Copy-3" class="st4" cx="9.533" cy="30" r="9.533"/>
					<path id="Combined-Shape" class="st5" d="M18.797,27.746c-3.454-0.837-6.173-3.556-7.011-7.011
						C15.241,21.573,17.96,24.292,18.797,27.746z"/>
					<path id="Combined-Shape_00000044870414934722106640000017922594661064565434_" class="st6" d="M11.787,39.265
						c0.837-3.454,3.556-6.173,7.011-7.011C17.96,35.708,15.241,38.427,11.787,39.265z"/>
					<path id="Combined-Shape_00000076598697384374552130000002773801616686196114_" class="st7" d="M23.305,32.254
						c3.454,0.837,6.173,3.556,7.011,7.011C26.862,38.427,24.143,35.708,23.305,32.254z"/>
					<path id="Combined-Shape_00000165926561896724872530000008663898675545920934_" class="st8" d="M30.316,20.735
						c-0.837,3.454-3.556,6.173-7.011,7.011C24.143,24.292,26.862,21.573,30.316,20.735z"/>
				</g>
			</g>
		</g>
	</g>
</g>
</svg>
