<?xml version="1.0" encoding="utf-8"?>
<!-- Generator: Adobe Illustrator 26.1.0, SVG Export Plug-In . SVG Version: 6.00 Build 0)  -->
<svg version="1.1" id="레이어_1" xmlns="http://www.w3.org/2000/svg" xmlns:xlink="http://www.w3.org/1999/xlink" x="0px"
	 y="0px" viewBox="0 0 119 60" style="enable-background:new 0 0 119 60;" xml:space="preserve">
<style type="text/css">
	.st0{fill:#3464AE;}
	.st1{fill:#243C82;}
</style>
<g>
	<g>
		<g>
			<path class="st0" d="M25.404,36.617c-0.001,0.003-0.002,0.005-0.002,0.008C25.404,36.617,25.404,36.616,25.404,36.617z"/>
			<polygon class="st0" points="25.401,36.624 25.401,36.626 25.4,36.627 			"/>
			<polygon class="st0" points="25.4,36.63 25.4,36.63 25.399,36.633 			"/>
			<polygon class="st0" points="25.398,36.634 25.397,36.639 25.397,36.639 			"/>
			<path class="st0" d="M25.399,36.633c0,0.001,0,0.001-0.001,0.002C25.398,36.634,25.399,36.633,25.399,36.633z"/>
			<path class="st0" d="M25.399,36.633c0-0.001,0.001-0.002,0.001-0.002c-0.001,0.003-0.002,0.006-0.002,0.008
				c0.001-0.002,0.001-0.003,0.002-0.005C25.398,36.634,25.399,36.633,25.399,36.633z"/>
			<path class="st0" d="M31.016,19.641c-4.885,14.778-5.541,16.763-5.612,16.976c0-0.001,0,0.001-0.002,0.008
				c-0.001,0.002-0.001,0.002-0.001,0.003c0-0.001,0-0.001,0.001-0.002c-0.001,0.002-0.001,0.003-0.002,0.005
				c0-0.001,0-0.001,0.001-0.002c0,0.001-0.001,0.002-0.001,0.003s0,0.001-0.001,0.002c-0.001,0.002-0.002,0.004-0.002,0.005l0,0
				l0,0c0,0.001-0.001,0.002,0,0.001c0,0,0,0,0,0.001H22.17c-0.778,0-1.33-0.763-1.084-1.503c0.004-0.01,0.006-0.018,0.008-0.024
				c-0.001,0.002-0.002,0.005-0.002,0.007c0.065-0.195,0.699-2.101,5.149-15.48h-6.92l-5.235,15.786
				c-0.799,2.408,0.96,4.919,3.515,4.969l-0.001,0.002c2.743,0,13.557,0,13.487,0l5.178-15.695l-2.789,0.728l5.496-5.79
				C38.971,19.641,31.016,19.641,31.016,19.641z"/>
			<path class="st0" d="M25.404,36.617c0,0.001-0.002,0.005-0.003,0.009c0-0.001,0-0.001,0.001-0.002
				C25.402,36.623,25.403,36.62,25.404,36.617z"/>
			<path class="st0" d="M21.097,35.099C21.098,35.097,21.098,35.097,21.097,35.099L21.097,35.099z"/>
			<path class="st0" d="M21.093,35.113c0.002-0.004,0.002-0.008,0.004-0.01C21.095,35.106,21.094,35.109,21.093,35.113z"/>
			<path class="st0" d="M21.096,35.103c0.001-0.002,0.001-0.003,0.002-0.004C21.097,35.1,21.096,35.101,21.096,35.103z"/>
		</g>
	</g>
	<path class="st0" d="M55.39,19.656l-14.816,0.028l1.769,5.748l-2.385-0.727l-5.173,15.604h6.879l2.22-6.507h6.908
		c3.333,0,6.289-2.143,7.324-5.311l0.719-2.198C60.915,20.005,56.501,19.656,55.39,19.656z M51.257,23.323
		c0.367,0,0.712,0.176,0.927,0.474c0.215,0.298,0.273,0.681,0.157,1.029l-1.246,3.736c-0.312,0.936-1.188,1.568-2.175,1.568h-3.853
		l2.269-6.808H51.257z"/>
	<path class="st1" d="M76.356,26.319h-7.148l2.211-6.668H64.41l-6.838,20.715h3.348h3.632h6.728c3.42,0,6.455-2.192,7.53-5.439
		l1.04-3.14C80.367,30.248,80.627,26.319,76.356,26.319z M73.028,31.475l-1.234,3.686c-0.309,0.922-1.172,1.545-2.145,1.545
		l-3.872,0.004l2.219-6.779l4.098-0.009C72.692,29.922,73.458,30.167,73.028,31.475z"/>
	<polygon class="st1" points="86.807,19.664 93.774,19.664 92.02,24.969 85.053,24.986 	"/>
	<polygon class="st1" points="84.085,27.875 91.063,27.875 86.954,40.36 79.976,40.36 	"/>
	<path class="st1" d="M99.154,34.73l1.574-4.757h3.164l1.218-3.61l-3.174-0.012l2.261-6.75l-7.039,0.06l-5.134,15.708
		c-0.813,2.487,1.056,5.044,3.674,5.022l6.49-0.055l1.21-3.672h-2.845C99.549,36.663,98.84,35.682,99.154,34.73z"/>
</g>
</svg>
