<?xml version="1.0" encoding="utf-8"?>
<!-- Generator: Adobe Illustrator 26.0.1, SVG Export Plug-In . SVG Version: 6.00 Build 0)  -->
<svg version="1.1" id="레이어_1" xmlns="http://www.w3.org/2000/svg" xmlns:xlink="http://www.w3.org/1999/xlink" x="0px"
	 y="0px" viewBox="0 0 119 60" style="enable-background:new 0 0 119 60;" xml:space="preserve">
<style type="text/css">
	.st0{fill:#3464AE;}
	.st1{fill:#243C82;}
</style>
<g>
	<g>
		<g>
			<path class="st0" d="M15.02,38.632c-0.001,0.004-0.002,0.007-0.003,0.01C15.019,38.633,15.02,38.631,15.02,38.632z"/>
			<polygon class="st0" points="15.016,38.642 15.016,38.644 15.015,38.646 			"/>
			<polygon class="st0" points="15.014,38.649 15.014,38.65 15.013,38.653 			"/>
			<polygon class="st0" points="15.012,38.655 15.01,38.661 15.01,38.661 			"/>
			<path class="st0" d="M15.013,38.653c0,0.001,0,0.001-0.001,0.002C15.012,38.654,15.013,38.653,15.013,38.653z"/>
			<path class="st0" d="M15.013,38.653c0-0.001,0.001-0.002,0.001-0.002c-0.001,0.004-0.003,0.008-0.003,0.01
				c0.001-0.002,0.001-0.004,0.002-0.006C15.012,38.654,15.013,38.653,15.013,38.653z"/>
			<path class="st0" d="M22.341,16.486c-6.373,19.279-7.229,21.869-7.321,22.146c0-0.001,0,0.001-0.003,0.01
				c-0.001,0.002-0.001,0.003-0.001,0.004c0-0.001,0-0.001,0.001-0.002c-0.001,0.002-0.001,0.004-0.002,0.006
				c0-0.001,0-0.001,0.001-0.002c0,0.001-0.001,0.003-0.001,0.004c0,0.001,0,0.001-0.001,0.002
				c-0.001,0.003-0.002,0.005-0.002,0.006v0c0,0,0,0,0,0c0,0.001-0.001,0.002,0,0.001c0,0,0,0,0,0.001h-4.211
				c-1.015,0-1.735-0.996-1.414-1.961c0.005-0.013,0.008-0.023,0.01-0.031c-0.001,0.003-0.002,0.006-0.003,0.009
				c0.085-0.255,0.912-2.741,6.717-20.194H7.083L0.254,37.079c-1.042,3.142,1.252,6.417,4.585,6.483l-0.001,0.003
				c3.579,0,17.686,0,17.594,0l6.755-20.475l-3.638,0.95l7.17-7.554H22.341z"/>
			<path class="st0" d="M15.02,38.632c0,0.001-0.002,0.006-0.004,0.012c0-0.001,0-0.001,0.001-0.002
				C15.017,38.64,15.018,38.636,15.02,38.632z"/>
			<path class="st0" d="M9.401,36.652C9.402,36.65,9.402,36.65,9.401,36.652L9.401,36.652z"/>
			<path class="st0" d="M9.395,36.671c0.002-0.005,0.003-0.01,0.005-0.013C9.398,36.661,9.397,36.665,9.395,36.671z"/>
			<path class="st0" d="M9.4,36.657c0.001-0.002,0.001-0.004,0.002-0.005C9.401,36.654,9.4,36.655,9.4,36.657z"/>
		</g>
	</g>
	<path class="st0" d="M54.138,16.506l-19.329,0.037l2.308,7.498l-3.111-0.948l-6.749,20.356h8.974l2.896-8.489h9.012
		c4.348,0,8.204-2.796,9.555-6.929l0.938-2.868C61.346,16.961,55.588,16.506,54.138,16.506z M48.747,21.29
		c0.479,0,0.929,0.23,1.209,0.619c0.28,0.389,0.356,0.888,0.205,1.343l-1.625,4.874c-0.407,1.221-1.55,2.045-2.838,2.045h-5.027
		l2.96-8.881H48.747z"/>
	<path class="st1" d="M81.49,25.198h-9.325l2.884-8.699h-9.144l-8.921,27.024h4.368h4.738h8.777c4.462,0,8.421-2.859,9.824-7.095
		l1.357-4.096C86.722,30.324,87.062,25.198,81.49,25.198z M77.148,31.924l-1.61,4.808c-0.403,1.203-1.529,2.015-2.798,2.016
		l-5.051,0.005l2.895-8.843l5.346-0.012C76.71,29.899,77.709,30.218,77.148,31.924z"/>
	<polygon class="st1" points="95.123,16.516 104.213,16.516 101.924,23.437 92.835,23.459 	"/>
	<polygon class="st1" points="91.573,27.228 100.676,27.228 95.315,43.516 86.212,43.516 	"/>
	<path class="st1" d="M111.231,36.171l2.053-6.206h4.127L119,25.256l-4.141-0.016l2.949-8.806l-9.183,0.078l-6.698,20.492
		c-1.061,3.244,1.378,6.58,4.793,6.551l8.467-0.072l1.578-4.791h-3.711C111.747,38.693,110.821,37.413,111.231,36.171z"/>
</g>
</svg>
