<?xml version="1.0" encoding="utf-8"?>
<!-- Generator: Adobe Illustrator 26.0.1, SVG Export Plug-In . SVG Version: 6.00 Build 0)  -->
<svg version="1.1" id="레이어_1" xmlns="http://www.w3.org/2000/svg" xmlns:xlink="http://www.w3.org/1999/xlink" x="0px"
	 y="0px" viewBox="0 0 530 530" style="enable-background:new 0 0 530 530;" xml:space="preserve">
<style type="text/css">
	.st0{fill:#D6D6D6;}
	.st1{fill:#FFFFFF;}
	.st2{fill:#EBEBEB;}
</style>
<g>
	<path class="st0" d="M529.7,264.9c0,20.9-2.4,41.3-7,60.8c-24.8,105.6-112.8,186.9-222,201.7c-11.8,1.6-23.8,2.4-36,2.4
		c-146.4,0-265-118.6-265-265s118.6-265,265-265C411.1-0.1,529.7,118.6,529.7,264.9z"/>
	<g>
		<path class="st1" d="M295.8,320.2v46.9h-61.9c0.1-15.4,4.2-28.8,12.1-40c7.9-11.3,20-24.6,36.3-39.8
			c12.7-11.8,22.9-22.2,30.5-31.2c7.6-8.9,14.1-19.6,19.5-32c5.4-12.4,8-26.6,8-42.4c0-25.1-7.4-45.3-22.3-60.5
			c-14.9-15.2-34.3-22.8-58.2-22.8c-23.7,0-42.6,7.7-56.6,23.1c-14.1,15.4-21.1,36-21.1,61.9c0,8.4,0.1,13.4,0.4,15l53.5,3
			c-0.9-6.7-1.3-13.7-1.3-21c0-24.8,7-37.3,21-37.3c12.8,0,19.3,11.7,19.3,35.1c0,17.7-3.1,32.5-9.3,44.4
			c-6.2,11.9-15.9,25.7-29,41.4c-11.7,14-21.2,26.7-28.4,38.1c-7.2,11.4-13.2,25.8-18.1,43.1c-4.9,17.3-7.3,38.8-7.3,64.4h158.9
			v-89.5H295.8z"/>
	</g>
	<path class="st2" d="M522.7,325.8c-24.8,105.6-112.8,186.9-222,201.7L183,409.7h158.9v-89.5h-46v46.9h-61.9
		c0.1-15.4,4.2-28.8,12.1-40c7.9-11.3,20-24.6,36.3-39.8c12.7-11.8,22.9-22.2,30.5-31.2c7.6-8.9,14.1-19.6,19.5-32
		c5.4-12.4,8-26.6,8-42.4c0-25.1-7.4-45.3-22.3-60.5L522.7,325.8z"/>
</g>
</svg>
