<?xml version="1.0" encoding="utf-8"?>
<!-- Generator: Adobe Illustrator 26.0.1, SVG Export Plug-In . SVG Version: 6.00 Build 0)  -->
<svg version="1.1" id="레이어_1" xmlns="http://www.w3.org/2000/svg" xmlns:xlink="http://www.w3.org/1999/xlink" x="0px"
	 y="0px" viewBox="0 0 530 530" style="enable-background:new 0 0 530 530;" xml:space="preserve">
<style type="text/css">
	.st0{fill:#CF7948;}
	.st1{fill:#E8D5CA;}
	.st2{fill:#FFFFFF;}
</style>
<g>
	<g>
		<circle class="st0" cx="264.7" cy="264.9" r="265"/>
		<path class="st1" d="M523.3,323.3c-21.6,96.3-95.7,172.8-190.6,197.9L213.5,402c-3.4-2.4-6.4-5-9.3-8
			c-13.7-14.5-20.6-38.9-20.6-73.1l54-4.7c0,17.8,0.4,29.9,1.3,36.3c0.9,6.4,2.8,11.3,5.9,14.9c3.1,3.6,7.2,5.4,12.5,5.4
			c8.1,0,13.7-3.9,16.7-11.8c3-7.9,4.5-22.1,4.5-42.6c0-13.1-1-23.3-3.1-30.6c-2.1-7.3-5.1-12.2-9.2-14.9c-4.1-2.6-10.2-4-18.5-4
			v-46c7.4,0,12.7-0.5,15.7-1.4c3.1-0.9,5.7-2.9,7.9-5.9c2.2-3,3.8-7.2,4.8-12.5c1-5.4,1.5-12.2,1.5-20.7c0-14.7-1.5-25.2-4.6-31.6
			c-3.1-6.4-8.2-9.5-15.3-9.5c-7.9,0-13.1,3.8-15.9,11.5c-2.7,7.6-4.1,19.6-4.3,35.9l-50.3-5.8c3-56.4,28.1-84.6,75.4-84.6
			c23.6,0,42.3,6.9,56.2,20.8L523.3,323.3z"/>
		<g>
			<path class="st2" d="M303.8,244.5c12.6-6.6,21.7-14.8,27.4-24.8c5.7-10,8.6-23.2,8.6-39.6c0-27-7-47.4-20.9-61.2
				C305,105,286.2,98.1,262.7,98.1c-47.3,0-72.4,28.2-75.4,84.6l50.3,5.8c0.1-16.3,1.6-28.2,4.3-35.9c2.7-7.6,8-11.5,15.9-11.5
				c7.1,0,12.2,3.2,15.3,9.5c3.1,6.4,4.6,16.9,4.6,31.6c0,8.4-0.5,15.3-1.5,20.7c-1,5.4-2.6,9.5-4.8,12.5c-2.2,3-4.9,5-7.9,5.9
				c-3.1,0.9-8.3,1.4-15.7,1.4v46c8.3,0,14.5,1.3,18.5,4c4.1,2.6,7.1,7.6,9.2,14.9c2.1,7.3,3.1,17.5,3.1,30.6
				c0,20.6-1.5,34.8-4.5,42.6c-3,7.9-8.6,11.8-16.7,11.8c-5.3,0-9.5-1.8-12.5-5.4c-3.1-3.6-5-8.5-5.9-14.9
				c-0.9-6.4-1.3-18.5-1.3-36.3l-54,4.7c0,34.3,6.8,58.6,20.6,73.1c2.8,3,5.9,5.7,9.3,8c13,9.1,29.9,13.7,50.9,13.7
				c24.3,0,43.6-8.2,57.9-24.7c14.3-16.5,21.5-38.7,21.5-66.5C343.8,286.2,330.5,259.6,303.8,244.5z"/>
		</g>
	</g>
</g>
</svg>
