<?xml version="1.0" encoding="utf-8"?>
<!-- Generator: Adobe Illustrator 26.0.1, SVG Export Plug-In . SVG Version: 6.00 Build 0)  -->
<svg version="1.1" id="레이어_1" xmlns="http://www.w3.org/2000/svg" xmlns:xlink="http://www.w3.org/1999/xlink" x="0px"
	 y="0px" viewBox="0 0 120 30" style="enable-background:new 0 0 120 30;" xml:space="preserve">
<style type="text/css">
	.st0{fill:#A8A8A8;}
</style>
<g>
	<path class="st0" d="M10.589,7.842C4.741,7.842,0,11.949,0,17.016v3.784c0,5.066,4.741,9.173,10.589,9.173h2.649v-6.203
		c-0.725,0.505-1.645,0.809-2.649,0.809c-2.337,0-4.231-1.641-4.231-3.666v-4.011c0-2.024,1.895-3.665,4.231-3.665
		c2.337,0,4.231,1.641,4.231,3.665v4.011l0.014,9.059h6.345v-9.173v-3.414v-0.37C21.18,11.949,16.438,7.842,10.589,7.842z"/>
	<path class="st0" d="M22.312,17.016v0.37v3.414v9.173h6.344l0.015-9.059v-4.011c0-2.024,1.894-3.665,4.231-3.665
		c1.274,0,1.715-0.023,3.189,0.156V8.268c-1.007-0.275-2.078-0.425-3.189-0.425C27.053,7.842,22.312,11.949,22.312,17.016z"/>
	<path class="st0" d="M57.365,6.554h4.599c0.478,0,0.864-0.327,0.864-0.729V2.483c0-0.403-0.386-0.729-0.864-0.729h-4.599
		c-0.477,0-0.864,0.326-0.864,0.729v3.341C56.502,6.227,56.888,6.554,57.365,6.554z"/>
	<path class="st0" d="M61.978,10.376H57.46c-0.53,0-0.958,0.37-0.958,0.826v12.571v5.374v0.825h0.958h4.519h0.958v-0.825v-5.374
		V11.202C62.937,10.745,62.507,10.376,61.978,10.376z"/>
	<path class="st0" d="M107.423,7.776v7.923c-0.738-4.442-5.149-7.856-10.481-7.856c-5.3,0-9.691,3.373-10.467,7.776
		c-0.071,0.398-0.106,0.808-0.114,1.221c-0.005-0.257-0.02-0.511-0.05-0.763c-0.017-0.15-0.04-0.299-0.066-0.447
		c-0.008-0.043-0.017-0.085-0.026-0.128c-0.019-0.104-0.04-0.208-0.064-0.311c-0.013-0.054-0.028-0.108-0.042-0.163
		c-0.023-0.089-0.046-0.179-0.072-0.269c-0.016-0.058-0.036-0.115-0.054-0.173c-0.027-0.084-0.053-0.167-0.082-0.249
		c-0.021-0.06-0.044-0.119-0.067-0.179c-0.03-0.079-0.06-0.158-0.092-0.236c-0.025-0.061-0.051-0.12-0.077-0.18
		c-0.034-0.076-0.067-0.151-0.103-0.225c-0.029-0.06-0.059-0.12-0.088-0.179c-0.037-0.073-0.075-0.145-0.114-0.217
		c-0.032-0.06-0.065-0.118-0.099-0.177c-0.04-0.071-0.082-0.14-0.124-0.21c-0.035-0.057-0.071-0.115-0.108-0.173
		c-0.043-0.067-0.088-0.135-0.134-0.202c-0.038-0.057-0.078-0.114-0.118-0.17c-0.047-0.065-0.095-0.13-0.144-0.195
		c-0.042-0.055-0.084-0.11-0.127-0.164c-0.05-0.064-0.103-0.126-0.155-0.189c-0.044-0.053-0.088-0.107-0.134-0.159
		c-0.054-0.062-0.11-0.123-0.166-0.184c-0.047-0.05-0.093-0.102-0.141-0.151c-0.059-0.061-0.119-0.121-0.18-0.18
		c-0.048-0.047-0.095-0.096-0.144-0.142c-0.065-0.062-0.133-0.122-0.201-0.183c-0.047-0.042-0.092-0.084-0.14-0.126
		c-0.087-0.075-0.177-0.148-0.267-0.22c-0.06-0.048-0.119-0.095-0.18-0.142c-0.091-0.07-0.183-0.14-0.277-0.208
		c-0.054-0.038-0.111-0.076-0.166-0.113c-0.073-0.051-0.146-0.102-0.221-0.151c-0.061-0.04-0.123-0.077-0.185-0.116
		c-0.072-0.045-0.143-0.09-0.217-0.133c-0.065-0.038-0.131-0.075-0.196-0.112c-0.072-0.041-0.145-0.082-0.218-0.122
		c-0.068-0.036-0.137-0.07-0.205-0.105c-0.074-0.038-0.149-0.075-0.224-0.111c-0.069-0.034-0.141-0.066-0.211-0.098
		c-0.076-0.034-0.152-0.069-0.229-0.102c-0.072-0.031-0.145-0.061-0.218-0.09c-0.078-0.031-0.156-0.062-0.235-0.092
		c-0.074-0.028-0.148-0.055-0.224-0.081c-0.08-0.028-0.16-0.056-0.24-0.083c-0.076-0.025-0.152-0.049-0.228-0.072
		c-0.082-0.025-0.165-0.049-0.248-0.073c-0.076-0.021-0.153-0.042-0.23-0.062c-0.085-0.023-0.171-0.043-0.257-0.064
		c-0.077-0.018-0.154-0.036-0.232-0.053c-0.088-0.019-0.177-0.036-0.266-0.054c-0.077-0.015-0.153-0.03-0.231-0.044
		c-0.092-0.015-0.185-0.029-0.279-0.043c-0.076-0.011-0.151-0.023-0.228-0.033C77.241,7.93,77.141,7.92,77.042,7.91
		c-0.072-0.008-0.145-0.016-0.217-0.023c-0.111-0.009-0.224-0.015-0.336-0.022c-0.061-0.003-0.123-0.009-0.185-0.011
		c-0.172-0.008-0.344-0.011-0.519-0.011c-0.003,0-0.006,0-0.009,0l0,0h0c-0.179,0-0.357,0.005-0.534,0.012
		c-0.05,0.002-0.099,0.007-0.149,0.009c-0.129,0.007-0.257,0.015-0.385,0.026c-0.053,0.005-0.105,0.011-0.157,0.016
		c-0.126,0.012-0.252,0.027-0.377,0.043c-0.047,0.006-0.093,0.013-0.139,0.019c-0.135,0.019-0.268,0.041-0.401,0.065
		c-0.034,0.006-0.069,0.012-0.103,0.019c-0.154,0.029-0.306,0.06-0.457,0.095c-0.013,0.003-0.025,0.005-0.038,0.009
		c-0.519,0.119-1.022,0.272-1.505,0.455V0.028h-6.344v16.987v0.37v3.414v3.78v5.393h6.344h1.597h0.487h2.162
		c0.209,0,0.417-0.007,0.623-0.017c0.064-0.004,0.126-0.008,0.19-0.013c0.145-0.009,0.289-0.021,0.432-0.036
		c0.069-0.007,0.139-0.014,0.208-0.023c0.144-0.017,0.286-0.037,0.428-0.059c0.059-0.01,0.118-0.018,0.178-0.027
		c0.463-0.079,0.916-0.186,1.355-0.316c0.026-0.008,0.052-0.015,0.078-0.023c0.98-0.296,1.896-0.714,2.721-1.233
		c0.002-0.001,0.004-0.003,0.007-0.004c0.4-0.252,0.778-0.527,1.133-0.824c0.01-0.008,0.02-0.017,0.031-0.025
		c0.344-0.291,0.667-0.602,0.963-0.931c0.016-0.018,0.034-0.036,0.049-0.054c0.146-0.164,0.286-0.332,0.42-0.505
		c0.004-0.005,0.007-0.009,0.01-0.014c0.125-0.163,0.243-0.33,0.355-0.5c0.019-0.029,0.039-0.057,0.057-0.087
		c0.115-0.177,0.224-0.356,0.325-0.541c0.005-0.008,0.009-0.018,0.014-0.027c0.094-0.171,0.18-0.346,0.261-0.523
		c0.018-0.039,0.036-0.078,0.053-0.118c0.083-0.187,0.16-0.376,0.229-0.569c0.004-0.011,0.007-0.024,0.011-0.035
		c0.063-0.18,0.118-0.363,0.169-0.548c0.013-0.047,0.026-0.093,0.037-0.141c0.05-0.197,0.095-0.395,0.13-0.596
		c0.002-0.009,0.003-0.019,0.004-0.028c0.033-0.192,0.057-0.386,0.076-0.582c0.005-0.052,0.01-0.103,0.014-0.156
		c0.012-0.157,0.017-0.316,0.021-0.475c0.008,0.424,0.044,0.842,0.116,1.25c0.776,4.403,5.167,7.776,10.467,7.776
		c0.915,0,1.802-0.101,2.649-0.29c0.551-0.123,1.083-0.285,1.595-0.479c3.437-1.305,5.917-4.145,6.291-7.518
		c0.019,0.171,0.038,0.342,0.067,0.51c0.777,4.403,7.083,7.776,12.384,7.776v-5.394c0,0,0,0-0.001,0
		c-2.165,0-5.224-1.409-5.475-3.226v-0.001c-0.02-0.145-0.033-0.29-0.033-0.439v-8.245h4.622c0.529,0,0.958-0.371,0.958-0.83V8.011
		c0-0.458-0.429-0.83-0.958-0.83h-4.622V0.305c0-0.054,0.004-0.107,0.007-0.16h-6.991c-0.004,0.092-0.012,0.182-0.012,0.274V2.29
		V7.776z M80.006,20.912v0.011c-0.005,1.758-1.441,3.225-3.352,3.575c-0.012,0.002-0.023,0.004-0.034,0.006
		c-0.113,0.02-0.229,0.034-0.346,0.046c-0.027,0.003-0.051,0.007-0.077,0.009c-0.136,0.011-0.274,0.018-0.412,0.018
		c-0.003,0-0.006,0-0.01,0c-0.004,0-0.008-0.001-0.013-0.001c-0.126,0-0.25-0.005-0.372-0.015c-0.052-0.004-0.103-0.012-0.154-0.018
		c-0.073-0.008-0.148-0.015-0.22-0.027c-0.063-0.01-0.124-0.024-0.186-0.036c-0.058-0.011-0.117-0.023-0.175-0.036
		c-0.068-0.016-0.134-0.036-0.2-0.054c-0.049-0.014-0.098-0.027-0.146-0.043c-0.07-0.023-0.139-0.047-0.207-0.073
		c-0.042-0.016-0.084-0.031-0.126-0.048c-0.07-0.029-0.139-0.06-0.207-0.092c-0.037-0.017-0.074-0.035-0.11-0.053
		c-0.068-0.034-0.136-0.07-0.202-0.108c-0.034-0.019-0.067-0.039-0.101-0.06c-0.065-0.038-0.128-0.079-0.19-0.121
		c-0.86-0.586-1.453-1.453-1.59-2.442v-0.001c-0.019-0.139-0.031-0.281-0.033-0.424v-0.015v-4.011c0-0.103,0.008-0.205,0.018-0.306
		c0.004-0.041,0.008-0.082,0.014-0.122c0.002-0.016,0.006-0.032,0.008-0.048c0.08-0.533,0.292-1.029,0.607-1.464
		c0.015-0.02,0.028-0.041,0.042-0.061c0.05-0.066,0.103-0.129,0.158-0.191c0.024-0.029,0.048-0.057,0.073-0.086
		c0.052-0.056,0.106-0.109,0.161-0.162c0.033-0.031,0.065-0.064,0.099-0.095c0.053-0.048,0.109-0.094,0.164-0.138
		c0.04-0.033,0.08-0.065,0.122-0.097c0.055-0.041,0.111-0.08,0.168-0.119c0.047-0.032,0.095-0.063,0.144-0.093
		c0.056-0.034,0.112-0.068,0.169-0.099c0.055-0.03,0.11-0.059,0.166-0.088c0.057-0.028,0.113-0.056,0.171-0.082
		c0.061-0.028,0.124-0.053,0.187-0.078c0.056-0.023,0.112-0.045,0.169-0.065c0.069-0.024,0.139-0.046,0.209-0.067
		c0.055-0.016,0.11-0.034,0.167-0.049c0.077-0.02,0.156-0.036,0.234-0.052c0.053-0.011,0.104-0.024,0.158-0.033
		c0.09-0.015,0.182-0.026,0.274-0.036c0.044-0.005,0.087-0.013,0.131-0.016c0.137-0.012,0.277-0.018,0.418-0.018
		c0.003,0,0.005,0,0.008,0c0.138,0,0.274,0.006,0.408,0.018c0.049,0.004,0.097,0.012,0.146,0.018
		c0.087,0.01,0.174,0.019,0.259,0.034c0.057,0.01,0.113,0.023,0.169,0.035c0.074,0.015,0.148,0.03,0.221,0.049
		c0.061,0.015,0.119,0.034,0.179,0.052c0.065,0.02,0.131,0.04,0.195,0.062c0.062,0.022,0.122,0.046,0.182,0.07
		c0.058,0.023,0.117,0.047,0.174,0.073c0.062,0.028,0.122,0.057,0.183,0.088c0.051,0.026,0.102,0.052,0.152,0.08
		c0.063,0.034,0.123,0.07,0.183,0.107c0.044,0.028,0.087,0.055,0.129,0.084c0.062,0.042,0.123,0.084,0.183,0.129
		c0.035,0.027,0.07,0.055,0.105,0.083c0.061,0.05,0.122,0.101,0.181,0.154c0.027,0.024,0.052,0.05,0.078,0.075
		c0.062,0.059,0.123,0.12,0.181,0.182c0.016,0.019,0.031,0.038,0.048,0.056c0.063,0.073,0.126,0.145,0.183,0.222
		c0.003,0.004,0.005,0.008,0.008,0.012c0.338,0.455,0.564,0.979,0.642,1.543c0.008,0.053,0.012,0.106,0.018,0.159
		c0.007,0.08,0.013,0.162,0.015,0.244c0,0.012,0.001,0.025,0.001,0.037V20.912z M101.161,21.388c-0.253,1.814-2.056,3.19-4.219,3.19
		c-2.165,0-3.947-1.409-4.198-3.226v-0.001c-0.02-0.145-0.033-0.29-0.033-0.439v-4.011c0-0.148,0.013-0.294,0.033-0.438
		c0.251-1.817,2.033-3.227,4.198-3.227c2.165,0,3.947,1.409,4.198,3.225c0.02,0.144,0.034,0.29,0.034,0.44v4.011l0,0.379
		C101.164,21.314,101.173,21.366,101.161,21.388z"/>
	<path class="st0" d="M55.409,15.631c-0.008-0.043-0.017-0.085-0.026-0.128c-0.02-0.104-0.04-0.208-0.064-0.311
		c-0.013-0.054-0.028-0.108-0.042-0.163c-0.023-0.089-0.046-0.179-0.072-0.269c-0.017-0.058-0.037-0.115-0.055-0.173
		c-0.026-0.084-0.052-0.167-0.081-0.249c-0.021-0.06-0.045-0.119-0.067-0.179c-0.03-0.079-0.06-0.158-0.092-0.236
		c-0.024-0.061-0.051-0.12-0.077-0.18c-0.034-0.076-0.067-0.151-0.103-0.225c-0.029-0.06-0.058-0.12-0.088-0.179
		c-0.037-0.073-0.074-0.145-0.113-0.217c-0.032-0.06-0.065-0.118-0.099-0.177c-0.04-0.071-0.081-0.14-0.124-0.21
		c-0.035-0.057-0.072-0.115-0.108-0.173c-0.043-0.067-0.088-0.135-0.134-0.202c-0.038-0.057-0.078-0.114-0.118-0.17
		c-0.047-0.065-0.095-0.13-0.144-0.195c-0.042-0.055-0.084-0.11-0.126-0.164c-0.05-0.064-0.103-0.126-0.155-0.189
		c-0.045-0.053-0.089-0.107-0.134-0.159c-0.054-0.062-0.11-0.123-0.166-0.184c-0.046-0.05-0.093-0.102-0.141-0.151
		c-0.059-0.061-0.12-0.121-0.18-0.18c-0.048-0.047-0.095-0.096-0.144-0.142c-0.065-0.062-0.133-0.122-0.201-0.183
		c-0.047-0.042-0.092-0.084-0.14-0.126c-0.087-0.075-0.176-0.148-0.266-0.22c-0.059-0.048-0.119-0.095-0.18-0.142
		c-0.092-0.07-0.183-0.14-0.277-0.208c-0.054-0.038-0.111-0.076-0.166-0.113c-0.073-0.051-0.146-0.102-0.221-0.151
		c-0.061-0.04-0.124-0.077-0.185-0.116c-0.072-0.045-0.144-0.09-0.217-0.133c-0.065-0.038-0.131-0.075-0.196-0.112
		c-0.073-0.041-0.145-0.082-0.218-0.122c-0.068-0.036-0.137-0.07-0.205-0.105c-0.074-0.038-0.148-0.075-0.223-0.111
		c-0.07-0.034-0.141-0.066-0.212-0.098c-0.076-0.034-0.152-0.069-0.229-0.102c-0.072-0.031-0.145-0.061-0.219-0.09
		c-0.077-0.031-0.156-0.062-0.234-0.092c-0.075-0.028-0.149-0.055-0.224-0.081c-0.08-0.028-0.16-0.056-0.241-0.083
		c-0.076-0.025-0.151-0.049-0.227-0.072c-0.082-0.025-0.165-0.049-0.248-0.073c-0.076-0.021-0.153-0.042-0.231-0.062
		c-0.084-0.023-0.171-0.043-0.257-0.064c-0.077-0.018-0.154-0.036-0.231-0.053c-0.088-0.019-0.178-0.036-0.267-0.054
		c-0.077-0.015-0.153-0.03-0.231-0.044c-0.092-0.015-0.186-0.029-0.279-0.043c-0.076-0.011-0.151-0.023-0.227-0.033
		C46.404,7.93,46.305,7.92,46.206,7.91c-0.072-0.008-0.145-0.016-0.217-0.023c-0.111-0.009-0.224-0.015-0.336-0.022
		c-0.062-0.003-0.123-0.009-0.186-0.011c-0.172-0.008-0.344-0.011-0.518-0.011c-0.003,0-0.006,0-0.009,0h0l0,0
		c-0.179,0-0.357,0.005-0.534,0.012c-0.05,0.002-0.099,0.007-0.148,0.009C44.128,7.871,44,7.879,43.873,7.89
		c-0.053,0.005-0.106,0.011-0.157,0.016c-0.127,0.012-0.252,0.027-0.377,0.043c-0.047,0.006-0.093,0.013-0.14,0.019
		c-0.135,0.019-0.268,0.041-0.401,0.065c-0.034,0.006-0.069,0.012-0.103,0.019c-0.154,0.029-0.306,0.06-0.457,0.095
		c-0.012,0.003-0.025,0.005-0.038,0.009c-0.518,0.119-1.021,0.272-1.505,0.455V0.028H34.35v16.987v0.37v3.414v3.78v5.393h6.344
		h1.597h0.487h2.162c0.21,0,0.417-0.007,0.623-0.017c0.063-0.004,0.126-0.008,0.19-0.013c0.145-0.009,0.289-0.021,0.432-0.036
		c0.069-0.007,0.138-0.014,0.207-0.023c0.144-0.017,0.286-0.037,0.428-0.059c0.059-0.01,0.119-0.018,0.178-0.027
		c0.464-0.079,0.915-0.186,1.355-0.316c0.026-0.008,0.052-0.015,0.077-0.023c0.981-0.296,1.896-0.714,2.721-1.233
		c0.002-0.001,0.004-0.003,0.007-0.004c0.4-0.252,0.778-0.527,1.133-0.824c0.01-0.008,0.021-0.017,0.03-0.025
		c0.345-0.291,0.667-0.602,0.964-0.931c0.016-0.018,0.033-0.036,0.05-0.054c0.146-0.164,0.286-0.332,0.42-0.505
		c0.003-0.005,0.006-0.009,0.01-0.014c0.125-0.163,0.243-0.33,0.355-0.5c0.019-0.029,0.039-0.057,0.057-0.087
		c0.115-0.177,0.224-0.356,0.325-0.541c0.005-0.008,0.01-0.018,0.014-0.027c0.094-0.171,0.18-0.346,0.262-0.523
		c0.018-0.039,0.036-0.078,0.053-0.118c0.083-0.187,0.16-0.376,0.229-0.569c0.004-0.011,0.007-0.024,0.011-0.035
		c0.064-0.18,0.119-0.363,0.17-0.548c0.012-0.047,0.026-0.093,0.037-0.141c0.05-0.197,0.095-0.395,0.13-0.596
		c0.002-0.009,0.003-0.019,0.004-0.028c0.033-0.192,0.057-0.386,0.076-0.582c0.005-0.052,0.009-0.103,0.014-0.156
		c0.016-0.206,0.027-0.413,0.027-0.622v-3.414v-0.37c0-0.317-0.019-0.63-0.054-0.938C55.457,15.927,55.434,15.778,55.409,15.631z
		 M49.171,20.912v0.011c-0.006,1.758-1.442,3.225-3.352,3.575c-0.011,0.002-0.023,0.004-0.034,0.006
		c-0.114,0.02-0.229,0.034-0.346,0.046c-0.026,0.003-0.052,0.007-0.077,0.009c-0.136,0.011-0.274,0.018-0.413,0.018
		c-0.003,0-0.006,0-0.009,0c-0.004,0-0.009-0.001-0.013-0.001c-0.126,0-0.25-0.005-0.373-0.015
		c-0.052-0.004-0.103-0.012-0.154-0.018c-0.074-0.008-0.148-0.015-0.22-0.027c-0.063-0.01-0.124-0.024-0.187-0.036
		c-0.058-0.011-0.117-0.023-0.174-0.036c-0.068-0.016-0.134-0.036-0.201-0.054c-0.049-0.014-0.098-0.027-0.146-0.043
		c-0.07-0.023-0.139-0.047-0.207-0.073c-0.042-0.016-0.084-0.031-0.126-0.048c-0.07-0.029-0.139-0.06-0.207-0.092
		c-0.037-0.017-0.074-0.035-0.11-0.053c-0.069-0.034-0.136-0.07-0.202-0.108c-0.034-0.019-0.068-0.039-0.101-0.06
		c-0.065-0.038-0.128-0.079-0.19-0.121c-0.86-0.586-1.454-1.453-1.591-2.442v-0.001c-0.019-0.139-0.031-0.281-0.032-0.424v-0.015
		v-4.011c0-0.103,0.008-0.205,0.018-0.306c0.004-0.041,0.008-0.082,0.014-0.122c0.002-0.016,0.006-0.032,0.008-0.048
		c0.08-0.533,0.292-1.029,0.607-1.464c0.015-0.02,0.027-0.041,0.042-0.061c0.049-0.066,0.103-0.129,0.157-0.191
		c0.025-0.029,0.048-0.057,0.073-0.086c0.051-0.056,0.106-0.109,0.16-0.162c0.033-0.031,0.065-0.064,0.099-0.095
		c0.053-0.048,0.108-0.094,0.164-0.138c0.041-0.033,0.081-0.065,0.122-0.097c0.055-0.041,0.111-0.08,0.168-0.119
		c0.047-0.032,0.095-0.063,0.144-0.093c0.055-0.034,0.112-0.068,0.17-0.099c0.054-0.03,0.11-0.059,0.166-0.088
		c0.056-0.028,0.112-0.056,0.171-0.082c0.061-0.028,0.124-0.053,0.187-0.078c0.056-0.023,0.112-0.045,0.17-0.065
		c0.068-0.024,0.138-0.046,0.208-0.067c0.055-0.016,0.11-0.034,0.167-0.049c0.076-0.02,0.155-0.036,0.234-0.052
		c0.052-0.011,0.104-0.024,0.157-0.033c0.09-0.015,0.182-0.026,0.274-0.036c0.044-0.005,0.087-0.013,0.132-0.016
		c0.137-0.012,0.277-0.018,0.418-0.018c0.003,0,0.006,0,0.008,0c0.138,0,0.274,0.006,0.408,0.018
		c0.05,0.004,0.097,0.012,0.146,0.018c0.087,0.01,0.174,0.019,0.259,0.034c0.057,0.01,0.113,0.023,0.17,0.035
		c0.074,0.015,0.148,0.03,0.22,0.049c0.061,0.015,0.119,0.034,0.179,0.052c0.066,0.02,0.131,0.04,0.196,0.062
		c0.061,0.022,0.122,0.046,0.182,0.07c0.058,0.023,0.117,0.047,0.174,0.073c0.062,0.028,0.123,0.057,0.183,0.088
		c0.051,0.026,0.102,0.052,0.153,0.08c0.062,0.034,0.123,0.07,0.183,0.107c0.044,0.028,0.087,0.055,0.13,0.084
		c0.062,0.042,0.123,0.084,0.182,0.129c0.036,0.027,0.07,0.055,0.105,0.083c0.062,0.05,0.123,0.101,0.181,0.154
		c0.027,0.024,0.053,0.05,0.079,0.075c0.062,0.059,0.123,0.12,0.181,0.182c0.017,0.019,0.032,0.038,0.048,0.056
		c0.063,0.073,0.125,0.145,0.182,0.222c0.003,0.004,0.006,0.008,0.008,0.012c0.339,0.455,0.565,0.979,0.642,1.543
		c0.007,0.053,0.012,0.106,0.018,0.159c0.007,0.08,0.013,0.162,0.014,0.244c0,0.012,0.002,0.025,0.002,0.037V20.912z"/>
</g>
</svg>
