<?xml version="1.0" encoding="utf-8"?>
<!-- Generator: Adobe Illustrator 26.0.1, SVG Export Plug-In . SVG Version: 6.00 Build 0)  -->
<svg version="1.1" id="레이어_1" xmlns="http://www.w3.org/2000/svg" xmlns:xlink="http://www.w3.org/1999/xlink" x="0px"
	 y="0px" viewBox="0 0 132.248 33" style="enable-background:new 0 0 132.248 33;" xml:space="preserve">
<style type="text/css">
	.st0{fill:#4341CE;}
</style>
<g>
	<path class="st0" d="M11.67,8.612C5.225,8.612,0,13.138,0,18.721v4.17C0,28.474,5.225,33,11.67,33h2.919v-6.837
		c-0.799,0.557-1.813,0.892-2.919,0.892c-2.575,0-4.663-1.809-4.663-4.04v-4.42c0-2.231,2.088-4.039,4.663-4.039
		c2.576,0,4.663,1.808,4.663,4.039v4.42L16.349,33h6.992V22.891v-3.762v-0.408C23.342,13.138,18.116,8.612,11.67,8.612z"/>
	<path class="st0" d="M24.59,18.721v0.408v3.762V33h6.991l0.016-9.984v-4.42c0-2.231,2.088-4.039,4.663-4.039
		c1.404,0,1.89-0.026,3.515,0.171V9.08c-1.11-0.303-2.29-0.469-3.515-0.469C29.815,8.612,24.59,13.138,24.59,18.721z"/>
	<path class="st0" d="M63.221,7.192h5.068c0.527,0,0.952-0.36,0.952-0.804V2.706c0-0.444-0.425-0.804-0.952-0.804h-5.068
		c-0.526,0-0.952,0.36-0.952,0.804v3.682C62.269,6.832,62.695,7.192,63.221,7.192z"/>
	<path class="st0" d="M68.304,11.404h-4.98c-0.584,0-1.056,0.407-1.056,0.91v13.855v5.923V33h1.056h4.98h1.056v-0.909v-5.923V12.314
		C69.361,11.811,68.887,11.404,68.304,11.404z"/>
	<path class="st0" d="M118.388,8.539v8.731c-0.813-4.896-5.674-8.658-11.551-8.658c-5.841,0-10.68,3.717-11.535,8.57
		c-0.078,0.439-0.116,0.89-0.126,1.346c-0.006-0.283-0.022-0.564-0.055-0.84c-0.019-0.166-0.044-0.33-0.073-0.493
		c-0.008-0.048-0.019-0.094-0.028-0.141c-0.021-0.115-0.044-0.229-0.07-0.342c-0.014-0.06-0.031-0.119-0.046-0.179
		c-0.025-0.098-0.05-0.198-0.079-0.296c-0.018-0.064-0.039-0.127-0.059-0.191c-0.029-0.092-0.058-0.184-0.09-0.275
		c-0.023-0.066-0.049-0.131-0.074-0.197c-0.033-0.087-0.066-0.174-0.102-0.26c-0.027-0.067-0.056-0.133-0.085-0.198
		c-0.037-0.083-0.074-0.166-0.113-0.248c-0.032-0.066-0.065-0.132-0.097-0.197c-0.041-0.08-0.082-0.16-0.125-0.239
		c-0.036-0.066-0.072-0.13-0.109-0.195c-0.044-0.078-0.09-0.154-0.137-0.231c-0.039-0.063-0.078-0.127-0.119-0.191
		c-0.048-0.074-0.097-0.149-0.148-0.222c-0.042-0.063-0.086-0.125-0.13-0.188c-0.052-0.072-0.105-0.143-0.158-0.215
		c-0.046-0.06-0.092-0.121-0.14-0.181c-0.056-0.071-0.113-0.139-0.171-0.209c-0.049-0.058-0.097-0.117-0.148-0.175
		c-0.059-0.069-0.121-0.135-0.183-0.203c-0.052-0.055-0.103-0.112-0.155-0.167c-0.065-0.068-0.132-0.133-0.199-0.199
		c-0.053-0.052-0.105-0.106-0.158-0.156c-0.072-0.068-0.147-0.134-0.221-0.201c-0.052-0.046-0.102-0.093-0.154-0.139
		c-0.096-0.083-0.195-0.163-0.294-0.243c-0.066-0.053-0.132-0.105-0.198-0.156c-0.1-0.077-0.202-0.154-0.305-0.229
		c-0.06-0.042-0.122-0.083-0.183-0.125c-0.08-0.056-0.161-0.112-0.243-0.166c-0.067-0.044-0.136-0.085-0.204-0.128
		c-0.079-0.049-0.158-0.099-0.239-0.147c-0.071-0.042-0.144-0.082-0.216-0.123c-0.08-0.045-0.16-0.091-0.241-0.134
		c-0.075-0.039-0.151-0.077-0.226-0.116c-0.081-0.041-0.164-0.083-0.247-0.122c-0.076-0.037-0.155-0.073-0.233-0.108
		c-0.084-0.038-0.168-0.076-0.252-0.113c-0.08-0.034-0.16-0.067-0.241-0.099c-0.086-0.035-0.171-0.069-0.259-0.101
		c-0.081-0.031-0.163-0.06-0.247-0.09C87.833,9.33,87.745,9.3,87.656,9.27c-0.084-0.027-0.167-0.054-0.251-0.08
		c-0.091-0.028-0.182-0.054-0.274-0.08c-0.084-0.023-0.169-0.047-0.254-0.069c-0.094-0.025-0.188-0.048-0.283-0.07
		c-0.085-0.02-0.17-0.04-0.256-0.058c-0.097-0.021-0.195-0.04-0.293-0.059c-0.085-0.016-0.169-0.033-0.255-0.048
		c-0.101-0.017-0.204-0.032-0.307-0.047c-0.084-0.012-0.167-0.025-0.251-0.036c-0.108-0.014-0.218-0.025-0.327-0.036
		c-0.08-0.008-0.159-0.018-0.239-0.025c-0.123-0.01-0.247-0.017-0.37-0.024c-0.068-0.003-0.136-0.01-0.204-0.012
		c-0.19-0.008-0.38-0.013-0.571-0.013c-0.003,0-0.007,0-0.01,0l0,0h0c-0.197,0-0.393,0.005-0.588,0.013
		c-0.056,0.002-0.109,0.007-0.164,0.01c-0.142,0.008-0.284,0.017-0.424,0.029c-0.058,0.005-0.115,0.012-0.173,0.018
		c-0.139,0.014-0.278,0.029-0.416,0.048c-0.052,0.007-0.103,0.014-0.153,0.021c-0.149,0.021-0.296,0.045-0.442,0.071
		c-0.038,0.007-0.076,0.013-0.113,0.02c-0.17,0.032-0.338,0.066-0.504,0.104c-0.014,0.003-0.028,0.006-0.041,0.01
		c-0.571,0.132-1.126,0.3-1.659,0.502V0H71.84v18.721v0.408v3.762v4.165V33h6.992h1.76h0.536h2.383c0.23,0,0.459-0.008,0.687-0.019
		c0.07-0.004,0.139-0.009,0.209-0.014c0.16-0.01,0.319-0.023,0.476-0.039c0.076-0.007,0.153-0.016,0.229-0.025
		c0.158-0.019,0.316-0.041,0.472-0.065c0.065-0.011,0.131-0.02,0.196-0.03c0.511-0.087,1.009-0.205,1.493-0.348
		c0.029-0.008,0.057-0.016,0.086-0.025c1.081-0.326,2.089-0.787,2.999-1.359c0.002-0.001,0.005-0.003,0.007-0.004
		c0.44-0.278,0.857-0.581,1.248-0.908c0.011-0.009,0.022-0.019,0.034-0.027c0.38-0.321,0.735-0.664,1.062-1.026
		c0.018-0.02,0.037-0.04,0.055-0.06c0.161-0.181,0.316-0.366,0.462-0.556c0.004-0.005,0.007-0.01,0.011-0.015
		c0.137-0.18,0.267-0.363,0.392-0.551c0.021-0.032,0.043-0.063,0.063-0.095c0.127-0.195,0.247-0.393,0.359-0.596
		c0.005-0.009,0.01-0.019,0.016-0.029c0.103-0.189,0.198-0.381,0.288-0.576c0.019-0.043,0.039-0.086,0.058-0.13
		c0.092-0.206,0.177-0.415,0.253-0.627c0.004-0.013,0.008-0.026,0.012-0.038c0.07-0.198,0.131-0.4,0.187-0.604
		c0.014-0.052,0.028-0.103,0.041-0.155c0.056-0.217,0.105-0.436,0.144-0.657c0.002-0.01,0.003-0.02,0.005-0.031
		c0.037-0.211,0.063-0.425,0.083-0.641c0.006-0.057,0.011-0.114,0.015-0.171c0.014-0.173,0.019-0.348,0.023-0.523
		c0.009,0.467,0.048,0.928,0.128,1.377c0.855,4.853,5.695,8.57,11.536,8.57c1.008,0,1.986-0.111,2.919-0.319
		c0.607-0.135,1.194-0.314,1.758-0.528c3.788-1.438,6.521-4.568,6.933-8.285c0.021,0.188,0.041,0.377,0.074,0.562
		c0.856,4.853,7.806,8.57,13.648,8.57v-5.945c0,0,0,0-0.001,0c-2.386,0-5.757-1.553-6.034-3.555V23.5
		c-0.022-0.159-0.037-0.32-0.037-0.484v-9.087h5.094c0.583,0,1.056-0.409,1.056-0.914V8.797c0-0.505-0.473-0.915-1.056-0.915h-5.094
		V0.305c0-0.059,0.004-0.118,0.007-0.177h-7.705c-0.004,0.101-0.013,0.201-0.013,0.302v2.062V8.539z M88.173,23.016v0.012
		c-0.006,1.937-1.588,3.554-3.694,3.94c-0.013,0.002-0.025,0.005-0.037,0.007c-0.125,0.022-0.253,0.037-0.381,0.051
		c-0.029,0.003-0.057,0.008-0.085,0.01c-0.15,0.013-0.302,0.019-0.455,0.02c-0.003,0-0.007,0-0.011,0
		c-0.005,0-0.009-0.001-0.014-0.001c-0.139,0-0.275-0.006-0.41-0.017c-0.057-0.004-0.113-0.013-0.17-0.019
		c-0.081-0.009-0.163-0.017-0.242-0.029c-0.069-0.011-0.137-0.026-0.205-0.039c-0.064-0.013-0.129-0.025-0.192-0.039
		c-0.075-0.018-0.148-0.039-0.221-0.06c-0.054-0.016-0.108-0.03-0.161-0.047c-0.077-0.025-0.153-0.052-0.228-0.08
		c-0.046-0.018-0.093-0.035-0.138-0.053c-0.077-0.032-0.153-0.066-0.228-0.101c-0.041-0.019-0.081-0.038-0.121-0.058
		c-0.075-0.038-0.15-0.077-0.222-0.119c-0.038-0.021-0.074-0.043-0.111-0.066c-0.071-0.042-0.141-0.087-0.209-0.133
		c-0.948-0.646-1.602-1.601-1.753-2.692V23.5c-0.021-0.153-0.035-0.309-0.036-0.468v-0.016v-4.42c0-0.114,0.009-0.226,0.02-0.338
		c0.004-0.045,0.009-0.09,0.015-0.135c0.002-0.018,0.006-0.035,0.009-0.053c0.088-0.587,0.322-1.134,0.669-1.614
		c0.016-0.022,0.031-0.045,0.047-0.067c0.055-0.073,0.114-0.142,0.174-0.211c0.027-0.032,0.053-0.063,0.08-0.094
		c0.057-0.061,0.117-0.12,0.177-0.179c0.036-0.035,0.072-0.07,0.109-0.104c0.058-0.053,0.12-0.103,0.181-0.153
		c0.044-0.037,0.088-0.072,0.134-0.107c0.06-0.045,0.122-0.088,0.185-0.131c0.052-0.035,0.105-0.07,0.159-0.103
		c0.061-0.038,0.124-0.075,0.187-0.11c0.06-0.033,0.121-0.065,0.183-0.096c0.062-0.031,0.124-0.062,0.188-0.09
		c0.067-0.031,0.136-0.059,0.206-0.086c0.062-0.025,0.124-0.049,0.187-0.072c0.076-0.026,0.153-0.05,0.23-0.074
		c0.061-0.018,0.121-0.037,0.184-0.054c0.085-0.022,0.171-0.039,0.258-0.057c0.058-0.012,0.115-0.026,0.174-0.036
		c0.099-0.017,0.2-0.028,0.302-0.039c0.048-0.005,0.095-0.014,0.145-0.018c0.152-0.013,0.305-0.02,0.461-0.02
		c0.003,0,0.006,0,0.009,0c0.152,0,0.302,0.007,0.45,0.02c0.054,0.004,0.107,0.013,0.161,0.02c0.095,0.011,0.191,0.021,0.285,0.037
		c0.063,0.011,0.125,0.026,0.187,0.039c0.082,0.017,0.163,0.033,0.243,0.054c0.067,0.017,0.132,0.038,0.197,0.057
		c0.072,0.022,0.145,0.044,0.215,0.068c0.068,0.024,0.134,0.051,0.2,0.077c0.064,0.026,0.129,0.052,0.192,0.08
		c0.068,0.031,0.135,0.063,0.201,0.096c0.056,0.028,0.113,0.057,0.167,0.089c0.069,0.038,0.136,0.077,0.202,0.118
		c0.048,0.031,0.095,0.061,0.142,0.093c0.068,0.046,0.136,0.093,0.201,0.142c0.039,0.03,0.077,0.06,0.115,0.091
		c0.068,0.055,0.135,0.111,0.2,0.17c0.03,0.027,0.057,0.055,0.086,0.082c0.069,0.065,0.136,0.132,0.2,0.201
		c0.018,0.02,0.035,0.041,0.053,0.061c0.07,0.08,0.138,0.16,0.201,0.245c0.003,0.004,0.006,0.009,0.009,0.013
		c0.373,0.502,0.622,1.079,0.707,1.7c0.008,0.058,0.014,0.116,0.019,0.175c0.008,0.089,0.015,0.178,0.016,0.268
		c0,0.014,0.001,0.027,0.001,0.041V23.016z M111.487,23.54c-0.279,1.999-2.266,3.515-4.65,3.515c-2.386,0-4.349-1.553-4.627-3.555
		V23.5c-0.022-0.159-0.037-0.32-0.037-0.484v-4.42c0-0.163,0.015-0.324,0.037-0.483c0.276-2.003,2.241-3.556,4.627-3.556
		c2.386,0,4.349,1.553,4.627,3.554c0.022,0.159,0.037,0.32,0.037,0.485v4.42l0,0.418C111.489,23.458,111.5,23.516,111.487,23.54z"/>
	<path class="st0" d="M61.064,17.195c-0.008-0.048-0.019-0.094-0.028-0.141c-0.022-0.115-0.044-0.229-0.071-0.342
		c-0.014-0.06-0.031-0.119-0.046-0.179c-0.025-0.098-0.05-0.198-0.079-0.296c-0.019-0.064-0.04-0.127-0.06-0.191
		c-0.029-0.092-0.057-0.184-0.09-0.275c-0.023-0.066-0.049-0.131-0.074-0.197c-0.033-0.087-0.066-0.174-0.102-0.26
		c-0.027-0.067-0.056-0.133-0.085-0.198c-0.037-0.083-0.074-0.166-0.114-0.248c-0.032-0.066-0.064-0.132-0.097-0.197
		c-0.04-0.08-0.082-0.16-0.125-0.239c-0.035-0.066-0.072-0.13-0.109-0.195c-0.044-0.078-0.09-0.154-0.136-0.231
		c-0.039-0.063-0.079-0.127-0.119-0.191c-0.048-0.074-0.097-0.149-0.148-0.222c-0.042-0.063-0.086-0.125-0.13-0.188
		c-0.052-0.072-0.105-0.143-0.159-0.215c-0.046-0.06-0.092-0.121-0.139-0.181c-0.056-0.071-0.113-0.139-0.171-0.209
		c-0.049-0.058-0.098-0.117-0.148-0.175c-0.059-0.069-0.121-0.135-0.183-0.203c-0.051-0.055-0.102-0.112-0.155-0.167
		c-0.065-0.068-0.132-0.133-0.199-0.199c-0.053-0.052-0.104-0.106-0.159-0.156c-0.072-0.068-0.147-0.134-0.221-0.201
		c-0.052-0.046-0.102-0.093-0.154-0.139c-0.096-0.083-0.194-0.163-0.293-0.243c-0.065-0.053-0.132-0.105-0.198-0.156
		c-0.101-0.077-0.201-0.154-0.305-0.229c-0.06-0.042-0.122-0.083-0.183-0.125c-0.081-0.056-0.161-0.112-0.243-0.166
		c-0.067-0.044-0.136-0.085-0.204-0.128c-0.079-0.049-0.158-0.099-0.239-0.147c-0.071-0.042-0.144-0.082-0.216-0.123
		c-0.08-0.045-0.16-0.091-0.241-0.134c-0.075-0.039-0.151-0.077-0.226-0.116c-0.082-0.041-0.163-0.083-0.246-0.122
		c-0.077-0.037-0.156-0.073-0.234-0.108c-0.083-0.038-0.167-0.076-0.252-0.113c-0.08-0.034-0.16-0.067-0.241-0.099
		c-0.085-0.035-0.171-0.069-0.258-0.101c-0.082-0.031-0.164-0.06-0.247-0.09C53.849,9.33,53.761,9.3,53.672,9.27
		c-0.083-0.027-0.167-0.054-0.25-0.08c-0.091-0.028-0.182-0.054-0.274-0.08c-0.084-0.023-0.169-0.047-0.254-0.069
		c-0.093-0.025-0.188-0.048-0.283-0.07c-0.085-0.02-0.17-0.04-0.255-0.058c-0.097-0.021-0.196-0.04-0.294-0.059
		c-0.085-0.016-0.169-0.033-0.255-0.048c-0.102-0.017-0.205-0.032-0.307-0.047c-0.083-0.012-0.167-0.025-0.25-0.036
		c-0.109-0.014-0.218-0.025-0.327-0.036c-0.08-0.008-0.159-0.018-0.239-0.025c-0.123-0.01-0.247-0.017-0.37-0.024
		c-0.068-0.003-0.136-0.01-0.205-0.012c-0.189-0.008-0.38-0.013-0.571-0.013c-0.003,0-0.007,0-0.01,0h0l0,0
		c-0.198,0-0.394,0.005-0.588,0.013c-0.055,0.002-0.109,0.007-0.163,0.01c-0.142,0.008-0.284,0.017-0.424,0.029
		c-0.058,0.005-0.116,0.012-0.173,0.018c-0.14,0.014-0.278,0.029-0.416,0.048c-0.052,0.007-0.103,0.014-0.154,0.021
		c-0.149,0.021-0.296,0.045-0.442,0.071c-0.038,0.007-0.076,0.013-0.113,0.02c-0.17,0.032-0.337,0.066-0.504,0.104
		c-0.014,0.003-0.028,0.006-0.041,0.01c-0.571,0.132-1.125,0.3-1.658,0.502V0h-6.992v18.721v0.408v3.762v4.165V33h6.992h1.76h0.536
		h2.383c0.231,0,0.46-0.008,0.687-0.019c0.07-0.004,0.139-0.009,0.209-0.014c0.16-0.01,0.319-0.023,0.476-0.039
		c0.077-0.007,0.153-0.016,0.229-0.025c0.158-0.019,0.316-0.041,0.472-0.065c0.065-0.011,0.131-0.02,0.196-0.03
		c0.511-0.087,1.008-0.205,1.493-0.348c0.029-0.008,0.057-0.016,0.085-0.025c1.081-0.326,2.09-0.787,2.999-1.359
		c0.002-0.001,0.005-0.003,0.007-0.004c0.441-0.278,0.857-0.581,1.248-0.908c0.011-0.009,0.023-0.019,0.034-0.027
		c0.38-0.321,0.735-0.664,1.062-1.026c0.018-0.02,0.037-0.04,0.055-0.06c0.161-0.181,0.316-0.366,0.463-0.556
		c0.003-0.005,0.007-0.01,0.011-0.015c0.138-0.18,0.267-0.363,0.392-0.551c0.021-0.032,0.043-0.063,0.063-0.095
		c0.126-0.195,0.247-0.393,0.358-0.596c0.006-0.009,0.011-0.019,0.016-0.029c0.103-0.189,0.198-0.381,0.288-0.576
		c0.02-0.043,0.039-0.086,0.058-0.13c0.091-0.206,0.177-0.415,0.252-0.627c0.004-0.013,0.008-0.026,0.012-0.038
		c0.07-0.198,0.131-0.4,0.187-0.604c0.014-0.052,0.028-0.103,0.041-0.155c0.056-0.217,0.105-0.436,0.144-0.657
		c0.002-0.01,0.003-0.02,0.004-0.031c0.037-0.211,0.063-0.425,0.084-0.641c0.005-0.057,0.01-0.114,0.015-0.171
		c0.018-0.227,0.029-0.455,0.029-0.685v-3.762v-0.408c0-0.349-0.02-0.694-0.06-1.034C61.118,17.522,61.093,17.358,61.064,17.195z
		 M54.189,23.016v0.012c-0.007,1.937-1.589,3.554-3.694,3.94c-0.013,0.002-0.025,0.005-0.038,0.007
		c-0.125,0.022-0.253,0.037-0.381,0.051c-0.029,0.003-0.057,0.008-0.085,0.01c-0.15,0.013-0.302,0.019-0.455,0.02
		c-0.003,0-0.007,0-0.01,0c-0.005,0-0.01-0.001-0.014-0.001c-0.138,0-0.275-0.006-0.411-0.017c-0.057-0.004-0.113-0.013-0.17-0.019
		c-0.081-0.009-0.163-0.017-0.242-0.029c-0.069-0.011-0.137-0.026-0.206-0.039c-0.064-0.013-0.129-0.025-0.192-0.039
		c-0.075-0.018-0.148-0.039-0.221-0.06c-0.054-0.016-0.108-0.03-0.161-0.047c-0.077-0.025-0.153-0.052-0.228-0.08
		c-0.046-0.018-0.093-0.035-0.138-0.053c-0.077-0.032-0.153-0.066-0.228-0.101c-0.041-0.019-0.081-0.038-0.121-0.058
		c-0.076-0.038-0.15-0.077-0.222-0.119c-0.038-0.021-0.075-0.043-0.111-0.066c-0.071-0.042-0.141-0.087-0.209-0.133
		c-0.948-0.646-1.602-1.601-1.753-2.692V23.5c-0.021-0.153-0.035-0.309-0.036-0.468v-0.016v-4.42c0-0.114,0.009-0.226,0.02-0.338
		c0.005-0.045,0.009-0.09,0.015-0.135c0.002-0.018,0.006-0.035,0.009-0.053c0.088-0.587,0.322-1.134,0.669-1.614
		c0.016-0.022,0.03-0.045,0.047-0.067c0.055-0.073,0.113-0.142,0.173-0.211c0.027-0.032,0.053-0.063,0.081-0.094
		c0.056-0.061,0.117-0.12,0.177-0.179c0.036-0.035,0.072-0.07,0.11-0.104c0.058-0.053,0.119-0.103,0.181-0.153
		c0.045-0.037,0.089-0.072,0.134-0.107c0.06-0.045,0.122-0.088,0.185-0.131c0.052-0.035,0.105-0.07,0.159-0.103
		c0.061-0.038,0.124-0.075,0.187-0.11c0.059-0.033,0.121-0.065,0.183-0.096c0.062-0.031,0.124-0.062,0.188-0.09
		c0.067-0.031,0.136-0.059,0.206-0.086c0.062-0.025,0.124-0.049,0.188-0.072c0.075-0.026,0.152-0.05,0.229-0.074
		c0.061-0.018,0.121-0.037,0.184-0.054c0.084-0.022,0.171-0.039,0.258-0.057c0.057-0.012,0.114-0.026,0.173-0.036
		c0.099-0.017,0.201-0.028,0.302-0.039c0.049-0.005,0.096-0.014,0.145-0.018c0.152-0.013,0.305-0.02,0.46-0.02
		c0.003,0,0.006,0,0.009,0c0.152,0,0.302,0.007,0.45,0.02c0.055,0.004,0.107,0.013,0.161,0.02c0.095,0.011,0.192,0.021,0.285,0.037
		c0.063,0.011,0.125,0.026,0.188,0.039c0.081,0.017,0.163,0.033,0.243,0.054c0.067,0.017,0.132,0.038,0.197,0.057
		c0.073,0.022,0.145,0.044,0.216,0.068c0.068,0.024,0.134,0.051,0.2,0.077c0.064,0.026,0.129,0.052,0.191,0.08
		c0.069,0.031,0.135,0.063,0.201,0.096c0.056,0.028,0.113,0.057,0.168,0.089c0.068,0.038,0.135,0.077,0.201,0.118
		c0.048,0.031,0.096,0.061,0.143,0.093c0.068,0.046,0.135,0.093,0.201,0.142c0.039,0.03,0.077,0.06,0.115,0.091
		c0.068,0.055,0.135,0.111,0.2,0.17c0.03,0.027,0.058,0.055,0.087,0.082c0.068,0.065,0.135,0.132,0.199,0.201
		c0.019,0.02,0.035,0.041,0.053,0.061c0.07,0.08,0.138,0.16,0.201,0.245c0.003,0.004,0.006,0.009,0.009,0.013
		c0.373,0.502,0.622,1.079,0.708,1.7c0.008,0.058,0.014,0.116,0.019,0.175c0.008,0.089,0.015,0.178,0.016,0.268
		c0,0.014,0.002,0.027,0.002,0.041V23.016z"/>
</g>
</svg>
