<?xml version="1.0" encoding="utf-8"?>
<!-- Generator: Adobe Illustrator 26.0.1, SVG Export Plug-In . SVG Version: 6.00 Build 0)  -->
<svg version="1.1" id="레이어_1" xmlns="http://www.w3.org/2000/svg" xmlns:xlink="http://www.w3.org/1999/xlink" x="0px"
	 y="0px" viewBox="0 0 381.323 41" style="enable-background:new 0 0 381.323 41;" xml:space="preserve">
<style type="text/css">
	.st0{fill:#4341CE;}
	.st1{fill:#888888;}
</style>
<g>
	<path class="st0" d="M59.49,14.157c-4.658,0-8.435,3.271-8.435,7.307v3.014c0,4.035,3.777,7.307,8.435,7.307h2.11v-4.942
		c-0.578,0.403-1.31,0.645-2.11,0.645c-1.861,0-3.37-1.308-3.37-2.92v-3.195c0-1.613,1.509-2.919,3.37-2.919
		c1.862,0,3.37,1.307,3.37,2.919v3.195l0.012,7.217h5.054v-7.307v-2.719v-0.295C67.926,17.428,64.149,14.157,59.49,14.157z"/>
	<path class="st0" d="M68.828,21.464v0.295v2.719v7.307h5.053l0.012-7.216v-3.195c0-1.613,1.509-2.919,3.37-2.919
		c1.015,0,1.366-0.019,2.541,0.124v-4.082c-0.802-0.219-1.655-0.339-2.541-0.339C72.605,14.157,68.828,17.428,68.828,21.464z"/>
	<path class="st0" d="M96.751,13.131h3.663c0.381,0,0.688-0.26,0.688-0.581V9.888c0-0.321-0.307-0.581-0.688-0.581h-3.663
		c-0.38,0-0.688,0.26-0.688,0.581v2.661C96.062,12.87,96.37,13.131,96.751,13.131z"/>
	<path class="st0" d="M100.425,16.175h-3.6c-0.422,0-0.763,0.294-0.763,0.658v10.014v4.281v0.656h0.763h3.6h0.763v-0.657v-4.281
		V16.833C101.189,16.469,100.846,16.175,100.425,16.175z"/>
	<path class="st0" d="M136.625,14.104v6.311c-0.588-3.539-4.101-6.258-8.349-6.258c-4.222,0-7.719,2.687-8.337,6.194
		c-0.056,0.317-0.084,0.643-0.091,0.973c-0.004-0.205-0.016-0.408-0.04-0.607c-0.014-0.12-0.032-0.239-0.053-0.356
		c-0.006-0.035-0.014-0.068-0.02-0.102c-0.015-0.083-0.032-0.166-0.051-0.247c-0.01-0.043-0.022-0.086-0.033-0.129
		c-0.018-0.071-0.036-0.143-0.057-0.214c-0.013-0.046-0.028-0.092-0.043-0.138c-0.021-0.066-0.042-0.133-0.065-0.199
		c-0.017-0.048-0.035-0.095-0.053-0.142c-0.024-0.063-0.048-0.126-0.074-0.188c-0.02-0.048-0.04-0.096-0.061-0.143
		c-0.027-0.06-0.053-0.12-0.082-0.179c-0.023-0.048-0.047-0.095-0.07-0.142c-0.03-0.058-0.059-0.116-0.09-0.173
		c-0.026-0.048-0.052-0.094-0.079-0.141c-0.032-0.056-0.065-0.111-0.099-0.167c-0.028-0.046-0.056-0.092-0.086-0.138
		c-0.035-0.053-0.07-0.108-0.107-0.16c-0.03-0.046-0.062-0.09-0.094-0.136c-0.038-0.052-0.076-0.103-0.114-0.155
		c-0.033-0.043-0.066-0.087-0.101-0.131c-0.04-0.051-0.082-0.1-0.124-0.151c-0.035-0.042-0.07-0.085-0.107-0.126
		c-0.043-0.05-0.087-0.098-0.132-0.147c-0.038-0.04-0.074-0.081-0.112-0.121c-0.047-0.049-0.095-0.096-0.144-0.144
		c-0.038-0.038-0.076-0.077-0.114-0.113c-0.052-0.049-0.106-0.097-0.16-0.145c-0.038-0.033-0.074-0.067-0.111-0.1
		c-0.069-0.06-0.141-0.118-0.213-0.176c-0.048-0.038-0.095-0.076-0.143-0.113c-0.072-0.056-0.146-0.111-0.22-0.166
		c-0.043-0.03-0.088-0.06-0.132-0.09c-0.058-0.04-0.116-0.081-0.176-0.12c-0.048-0.032-0.098-0.061-0.147-0.093
		c-0.057-0.035-0.114-0.072-0.173-0.106c-0.051-0.03-0.104-0.059-0.156-0.089c-0.058-0.033-0.116-0.066-0.174-0.097
		c-0.054-0.028-0.109-0.056-0.163-0.084c-0.059-0.03-0.119-0.06-0.179-0.088c-0.055-0.027-0.112-0.053-0.168-0.078
		c-0.061-0.027-0.121-0.055-0.182-0.082c-0.058-0.025-0.116-0.048-0.174-0.072c-0.062-0.025-0.124-0.05-0.187-0.073
		c-0.059-0.022-0.118-0.043-0.179-0.065c-0.064-0.022-0.128-0.043-0.192-0.065c-0.061-0.02-0.121-0.039-0.181-0.058
		c-0.066-0.02-0.132-0.039-0.198-0.058c-0.061-0.017-0.122-0.034-0.184-0.05c-0.068-0.018-0.136-0.035-0.205-0.051
		c-0.061-0.014-0.123-0.029-0.185-0.042c-0.07-0.015-0.141-0.029-0.212-0.043c-0.061-0.012-0.122-0.024-0.184-0.035
		c-0.073-0.012-0.147-0.023-0.222-0.034c-0.061-0.009-0.121-0.018-0.181-0.026c-0.078-0.01-0.158-0.018-0.236-0.026
		c-0.058-0.006-0.115-0.013-0.173-0.018c-0.089-0.007-0.179-0.012-0.267-0.017c-0.049-0.002-0.098-0.007-0.147-0.009
		c-0.137-0.006-0.275-0.009-0.413-0.009c-0.002,0-0.005,0-0.007,0l0,0l0,0c-0.142,0-0.284,0.004-0.425,0.009
		c-0.04,0.001-0.079,0.005-0.119,0.007c-0.103,0.006-0.205,0.012-0.306,0.021c-0.042,0.004-0.083,0.009-0.125,0.013
		c-0.1,0.01-0.201,0.021-0.301,0.035c-0.038,0.005-0.074,0.01-0.111,0.015c-0.108,0.015-0.214,0.033-0.319,0.051
		c-0.027,0.005-0.055,0.009-0.082,0.014c-0.123,0.023-0.244,0.048-0.364,0.075c-0.01,0.002-0.02,0.004-0.03,0.007
		c-0.413,0.095-0.814,0.217-1.199,0.363V7.932h-5.055v13.531v0.295v2.719v3.01v4.296h5.054h1.272h0.387h1.722
		c0.166,0,0.332-0.006,0.497-0.014c0.051-0.003,0.1-0.007,0.151-0.01c0.116-0.007,0.231-0.017,0.344-0.028
		c0.055-0.005,0.111-0.012,0.166-0.018c0.114-0.014,0.228-0.03,0.341-0.047c0.047-0.008,0.095-0.014,0.142-0.022
		c0.369-0.063,0.729-0.148,1.079-0.252c0.021-0.006,0.041-0.012,0.062-0.018c0.781-0.236,1.51-0.569,2.168-0.982
		c0.001-0.001,0.004-0.002,0.005-0.003c0.318-0.201,0.619-0.42,0.902-0.656c0.008-0.007,0.016-0.014,0.025-0.02
		c0.275-0.232,0.531-0.48,0.768-0.742c0.013-0.014,0.027-0.029,0.04-0.043c0.116-0.131,0.228-0.265,0.334-0.402
		c0.003-0.004,0.005-0.007,0.008-0.011c0.099-0.13,0.193-0.262,0.283-0.398c0.015-0.023,0.031-0.046,0.046-0.069
		c0.092-0.141,0.179-0.284,0.259-0.431c0.004-0.007,0.007-0.014,0.012-0.021c0.074-0.137,0.143-0.275,0.208-0.416
		c0.014-0.031,0.028-0.062,0.042-0.094c0.066-0.149,0.128-0.3,0.183-0.453c0.003-0.009,0.006-0.019,0.009-0.027
		c0.051-0.143,0.095-0.289,0.135-0.437c0.01-0.038,0.02-0.074,0.03-0.112c0.04-0.157,0.076-0.315,0.104-0.475
		c0.001-0.007,0.002-0.014,0.004-0.022c0.027-0.153,0.046-0.307,0.06-0.463c0.004-0.041,0.008-0.082,0.011-0.124
		c0.01-0.125,0.014-0.252,0.017-0.378c0.007,0.338,0.035,0.671,0.093,0.995c0.618,3.508,4.116,6.194,8.338,6.194
		c0.729,0,1.435-0.08,2.11-0.231c0.439-0.098,0.863-0.227,1.271-0.382c2.738-1.039,4.713-3.302,5.011-5.988
		c0.015,0.136,0.03,0.272,0.053,0.406c0.619,3.508,5.642,6.194,9.865,6.194V27.49c0,0,0,0-0.001,0c-1.725,0-4.161-1.122-4.361-2.57
		v-0.002c-0.016-0.115-0.027-0.231-0.027-0.35V18h3.682c0.421,0,0.763-0.296,0.763-0.661v-3.049c0-0.365-0.342-0.661-0.763-0.661
		h-3.682V8.153c0-0.043,0.003-0.085,0.005-0.128h-5.569c-0.003,0.073-0.009,0.145-0.009,0.218v1.49L136.625,14.104L136.625,14.104z
		 M114.786,24.568v0.009c-0.004,1.4-1.148,2.569-2.67,2.848c-0.009,0.001-0.018,0.004-0.027,0.005
		c-0.09,0.016-0.183,0.027-0.275,0.037c-0.021,0.002-0.041,0.006-0.061,0.007c-0.108,0.009-0.218,0.014-0.329,0.014
		c-0.002,0-0.005,0-0.008,0c-0.004,0-0.007-0.001-0.01-0.001c-0.1,0-0.199-0.004-0.296-0.012c-0.041-0.003-0.082-0.009-0.123-0.014
		c-0.059-0.007-0.118-0.012-0.175-0.021c-0.05-0.008-0.099-0.019-0.148-0.028c-0.046-0.009-0.093-0.018-0.139-0.028
		c-0.054-0.013-0.107-0.028-0.16-0.043c-0.039-0.012-0.078-0.022-0.116-0.034c-0.056-0.018-0.111-0.038-0.165-0.058
		c-0.033-0.013-0.067-0.025-0.1-0.038c-0.056-0.023-0.111-0.048-0.165-0.073c-0.03-0.014-0.059-0.027-0.087-0.042
		c-0.054-0.027-0.108-0.056-0.16-0.086c-0.027-0.015-0.053-0.031-0.08-0.048c-0.051-0.03-0.102-0.063-0.151-0.096
		c-0.685-0.467-1.158-1.157-1.267-1.946v-0.002c-0.015-0.111-0.025-0.223-0.026-0.338v-0.012v-3.195
		c0-0.082,0.007-0.163,0.014-0.244c0.003-0.033,0.007-0.065,0.011-0.098c0.001-0.013,0.004-0.025,0.007-0.038
		c0.064-0.424,0.233-0.82,0.484-1.167c0.012-0.016,0.022-0.033,0.034-0.048c0.04-0.053,0.082-0.103,0.126-0.153
		c0.02-0.023,0.038-0.046,0.058-0.068c0.041-0.044,0.085-0.087,0.128-0.129c0.026-0.025,0.052-0.051,0.079-0.075
		c0.042-0.038,0.087-0.074,0.131-0.111c0.032-0.027,0.064-0.052,0.097-0.077c0.043-0.033,0.088-0.064,0.134-0.095
		c0.038-0.025,0.076-0.051,0.115-0.074c0.044-0.027,0.09-0.054,0.135-0.08c0.043-0.024,0.087-0.047,0.132-0.069
		c0.045-0.022,0.09-0.045,0.136-0.065c0.048-0.022,0.098-0.043,0.149-0.062c0.045-0.018,0.09-0.035,0.135-0.052
		c0.055-0.019,0.111-0.036,0.166-0.053c0.044-0.013,0.087-0.027,0.133-0.039c0.061-0.016,0.124-0.028,0.186-0.041
		c0.042-0.009,0.083-0.019,0.126-0.026c0.072-0.012,0.145-0.02,0.218-0.028c0.035-0.004,0.069-0.01,0.105-0.013
		c0.11-0.009,0.22-0.014,0.333-0.014c0.002,0,0.004,0,0.007,0c0.11,0,0.218,0.005,0.325,0.014c0.039,0.003,0.077,0.009,0.116,0.014
		c0.069,0.008,0.138,0.015,0.206,0.027c0.046,0.008,0.09,0.019,0.135,0.028c0.059,0.012,0.118,0.024,0.176,0.039
		c0.048,0.012,0.095,0.027,0.142,0.041c0.052,0.016,0.105,0.032,0.155,0.049c0.049,0.017,0.097,0.037,0.145,0.056
		c0.046,0.019,0.093,0.038,0.139,0.058c0.049,0.022,0.098,0.046,0.145,0.069c0.04,0.02,0.082,0.041,0.121,0.064
		c0.05,0.027,0.098,0.056,0.146,0.085c0.035,0.022,0.069,0.044,0.103,0.067c0.049,0.033,0.098,0.067,0.145,0.103
		c0.028,0.022,0.056,0.043,0.083,0.066c0.049,0.04,0.098,0.08,0.145,0.123c0.022,0.02,0.041,0.04,0.062,0.059
		c0.05,0.047,0.098,0.095,0.145,0.145c0.013,0.014,0.025,0.03,0.038,0.044c0.051,0.058,0.1,0.116,0.145,0.177
		c0.002,0.003,0.004,0.007,0.007,0.009c0.27,0.363,0.45,0.78,0.511,1.229c0.006,0.042,0.01,0.084,0.014,0.126
		c0.006,0.064,0.011,0.129,0.012,0.194c0,0.01,0.001,0.02,0.001,0.03L114.786,24.568L114.786,24.568z M131.637,24.947
		c-0.202,1.445-1.638,2.541-3.361,2.541c-1.725,0-3.143-1.122-3.344-2.57l0,0c-0.016-0.115-0.027-0.231-0.027-0.35v-3.195
		c0-0.118,0.011-0.234,0.027-0.349c0.199-1.448,1.62-2.57,3.344-2.57s3.143,1.122,3.344,2.569c0.016,0.115,0.027,0.231,0.027,0.351
		v3.195v0.302C131.638,24.887,131.646,24.929,131.637,24.947z"/>
	<path class="st0" d="M95.192,20.361c-0.006-0.035-0.014-0.068-0.02-0.102c-0.016-0.083-0.032-0.166-0.051-0.247
		c-0.01-0.043-0.022-0.086-0.033-0.129c-0.018-0.071-0.036-0.143-0.057-0.214c-0.014-0.046-0.029-0.092-0.043-0.138
		c-0.021-0.066-0.041-0.133-0.065-0.199c-0.017-0.048-0.035-0.095-0.053-0.142c-0.024-0.063-0.048-0.126-0.074-0.188
		c-0.02-0.048-0.04-0.096-0.061-0.143c-0.027-0.06-0.053-0.12-0.082-0.179c-0.023-0.048-0.046-0.095-0.07-0.142
		c-0.029-0.058-0.059-0.116-0.09-0.173c-0.025-0.048-0.052-0.094-0.079-0.141c-0.032-0.056-0.065-0.111-0.098-0.167
		c-0.028-0.046-0.057-0.092-0.086-0.138c-0.035-0.053-0.07-0.108-0.107-0.16c-0.03-0.046-0.062-0.09-0.094-0.136
		c-0.038-0.052-0.076-0.103-0.115-0.155c-0.033-0.043-0.066-0.087-0.1-0.131c-0.04-0.051-0.082-0.1-0.124-0.151
		c-0.035-0.042-0.071-0.085-0.107-0.126c-0.043-0.05-0.087-0.098-0.132-0.147c-0.037-0.04-0.074-0.081-0.112-0.121
		c-0.047-0.049-0.095-0.096-0.144-0.144c-0.038-0.038-0.075-0.077-0.115-0.113c-0.052-0.049-0.106-0.097-0.16-0.145
		c-0.038-0.033-0.074-0.067-0.111-0.1c-0.069-0.06-0.14-0.118-0.212-0.176c-0.047-0.038-0.095-0.076-0.143-0.113
		c-0.073-0.056-0.145-0.111-0.22-0.166c-0.043-0.03-0.088-0.06-0.132-0.09c-0.059-0.04-0.116-0.081-0.176-0.12
		c-0.048-0.032-0.098-0.061-0.147-0.093c-0.057-0.035-0.114-0.072-0.173-0.106c-0.051-0.03-0.104-0.059-0.156-0.089
		c-0.058-0.033-0.116-0.066-0.174-0.097c-0.054-0.028-0.109-0.056-0.163-0.084c-0.059-0.03-0.118-0.06-0.178-0.088
		c-0.056-0.027-0.113-0.053-0.169-0.078c-0.06-0.027-0.121-0.055-0.182-0.082c-0.058-0.025-0.116-0.048-0.174-0.072
		c-0.061-0.025-0.124-0.05-0.186-0.073c-0.059-0.022-0.119-0.043-0.179-0.065c-0.064-0.022-0.127-0.043-0.192-0.065
		c-0.06-0.02-0.121-0.039-0.181-0.058c-0.066-0.02-0.132-0.039-0.198-0.058c-0.061-0.017-0.122-0.034-0.184-0.05
		c-0.067-0.018-0.136-0.035-0.205-0.051c-0.061-0.014-0.123-0.029-0.184-0.042c-0.07-0.015-0.142-0.029-0.213-0.043
		c-0.061-0.012-0.122-0.024-0.184-0.035c-0.074-0.012-0.148-0.023-0.222-0.034c-0.06-0.009-0.121-0.018-0.181-0.026
		c-0.079-0.01-0.158-0.018-0.236-0.026c-0.058-0.006-0.115-0.013-0.173-0.018c-0.089-0.007-0.179-0.012-0.267-0.017
		c-0.049-0.002-0.098-0.007-0.148-0.009c-0.137-0.006-0.275-0.009-0.413-0.009c-0.002,0-0.005,0-0.007,0l0,0l0,0
		c-0.143,0-0.285,0.004-0.425,0.009c-0.04,0.001-0.079,0.005-0.118,0.007c-0.103,0.006-0.205,0.012-0.306,0.021
		c-0.042,0.004-0.084,0.009-0.125,0.013c-0.101,0.01-0.201,0.021-0.301,0.035c-0.038,0.005-0.074,0.01-0.111,0.015
		c-0.108,0.015-0.214,0.033-0.319,0.051c-0.027,0.005-0.055,0.009-0.082,0.014c-0.123,0.023-0.244,0.048-0.364,0.075
		c-0.01,0.002-0.02,0.004-0.03,0.007c-0.413,0.095-0.813,0.217-1.198,0.363V7.932H78.42v13.531v0.295v2.719v3.01v4.296h5.054h1.272
		h0.387h1.722c0.167,0,0.332-0.006,0.497-0.014c0.051-0.003,0.1-0.007,0.151-0.01c0.116-0.007,0.231-0.017,0.344-0.028
		c0.056-0.005,0.111-0.012,0.166-0.018c0.114-0.014,0.228-0.03,0.341-0.047c0.047-0.008,0.095-0.014,0.142-0.022
		c0.369-0.063,0.729-0.148,1.079-0.252c0.021-0.006,0.041-0.012,0.061-0.018c0.781-0.236,1.511-0.569,2.168-0.982
		c0.001-0.001,0.004-0.002,0.005-0.003c0.319-0.201,0.619-0.42,0.902-0.656c0.008-0.007,0.017-0.014,0.025-0.02
		c0.275-0.232,0.531-0.48,0.768-0.742c0.013-0.014,0.027-0.029,0.04-0.043c0.116-0.131,0.228-0.265,0.335-0.402
		c0.002-0.004,0.005-0.007,0.008-0.011c0.1-0.13,0.193-0.262,0.283-0.398c0.015-0.023,0.031-0.046,0.046-0.069
		c0.091-0.141,0.179-0.284,0.259-0.431c0.004-0.007,0.008-0.014,0.012-0.021c0.074-0.137,0.143-0.275,0.208-0.416
		c0.014-0.031,0.028-0.062,0.042-0.094c0.066-0.149,0.128-0.3,0.182-0.453c0.003-0.009,0.006-0.019,0.009-0.027
		c0.051-0.143,0.095-0.289,0.135-0.437c0.01-0.038,0.02-0.074,0.03-0.112c0.04-0.157,0.076-0.315,0.104-0.475
		c0.001-0.007,0.002-0.014,0.003-0.022c0.027-0.153,0.046-0.307,0.061-0.463c0.004-0.041,0.007-0.082,0.011-0.124
		c0.013-0.164,0.021-0.329,0.021-0.495v-2.719v-0.295c0-0.252-0.014-0.502-0.043-0.747C95.231,20.597,95.212,20.478,95.192,20.361z
		 M90.222,24.568v0.009c-0.005,1.4-1.149,2.569-2.67,2.848c-0.009,0.001-0.018,0.004-0.027,0.005
		c-0.09,0.016-0.183,0.027-0.275,0.037c-0.021,0.002-0.041,0.006-0.061,0.007c-0.108,0.009-0.218,0.014-0.329,0.014
		c-0.002,0-0.005,0-0.007,0c-0.004,0-0.007-0.001-0.01-0.001c-0.1,0-0.199-0.004-0.297-0.012c-0.041-0.003-0.082-0.009-0.123-0.014
		c-0.059-0.007-0.118-0.012-0.175-0.021c-0.05-0.008-0.099-0.019-0.149-0.028c-0.046-0.009-0.093-0.018-0.139-0.028
		c-0.054-0.013-0.107-0.028-0.16-0.043c-0.039-0.012-0.078-0.022-0.116-0.034c-0.056-0.018-0.111-0.038-0.165-0.058
		c-0.033-0.013-0.067-0.025-0.1-0.038c-0.056-0.023-0.111-0.048-0.165-0.073c-0.03-0.014-0.059-0.027-0.087-0.042
		c-0.055-0.027-0.108-0.056-0.16-0.086c-0.027-0.015-0.054-0.031-0.08-0.048c-0.051-0.03-0.102-0.063-0.151-0.096
		c-0.685-0.467-1.158-1.157-1.267-1.946v-0.002c-0.015-0.111-0.025-0.223-0.026-0.338v-0.012v-3.195
		c0-0.082,0.007-0.163,0.014-0.244c0.004-0.033,0.007-0.065,0.011-0.098c0.001-0.013,0.004-0.025,0.007-0.038
		c0.064-0.424,0.233-0.82,0.484-1.167c0.012-0.016,0.022-0.033,0.034-0.048c0.04-0.053,0.082-0.103,0.125-0.153
		c0.02-0.023,0.038-0.046,0.059-0.068c0.04-0.044,0.085-0.087,0.128-0.129c0.026-0.025,0.052-0.051,0.08-0.075
		c0.042-0.038,0.086-0.074,0.131-0.111c0.033-0.027,0.064-0.052,0.097-0.077c0.043-0.033,0.088-0.064,0.134-0.095
		c0.038-0.025,0.076-0.051,0.115-0.074c0.044-0.027,0.09-0.054,0.135-0.08c0.043-0.024,0.087-0.047,0.132-0.069
		s0.09-0.045,0.136-0.065c0.048-0.022,0.098-0.043,0.149-0.062c0.045-0.018,0.09-0.035,0.136-0.052
		c0.054-0.019,0.11-0.036,0.166-0.053c0.044-0.013,0.087-0.027,0.133-0.039c0.061-0.016,0.124-0.028,0.186-0.041
		c0.041-0.009,0.082-0.019,0.125-0.026c0.072-0.012,0.145-0.02,0.218-0.028c0.035-0.004,0.069-0.01,0.105-0.013
		c0.11-0.009,0.22-0.014,0.332-0.014c0.002,0,0.004,0,0.007,0c0.11,0,0.218,0.005,0.325,0.014c0.04,0.003,0.077,0.009,0.116,0.014
		c0.069,0.008,0.139,0.015,0.206,0.027c0.046,0.008,0.09,0.019,0.136,0.028c0.059,0.012,0.118,0.024,0.176,0.039
		c0.048,0.012,0.095,0.027,0.142,0.041c0.053,0.016,0.105,0.032,0.156,0.049c0.049,0.017,0.097,0.037,0.145,0.056
		c0.046,0.019,0.093,0.038,0.138,0.058c0.05,0.022,0.098,0.046,0.145,0.069c0.04,0.02,0.082,0.041,0.121,0.064
		c0.049,0.027,0.098,0.056,0.145,0.085c0.035,0.022,0.069,0.044,0.103,0.067c0.049,0.033,0.098,0.067,0.145,0.103
		c0.028,0.022,0.056,0.043,0.083,0.066c0.049,0.04,0.098,0.08,0.145,0.123c0.022,0.02,0.042,0.04,0.063,0.059
		c0.049,0.047,0.098,0.095,0.144,0.145c0.014,0.014,0.025,0.03,0.038,0.044c0.051,0.058,0.1,0.116,0.145,0.177
		c0.002,0.003,0.004,0.007,0.007,0.009c0.27,0.363,0.45,0.78,0.512,1.229c0.006,0.042,0.01,0.084,0.014,0.126
		c0.006,0.064,0.011,0.129,0.012,0.194c0,0.01,0.001,0.02,0.001,0.03C90.222,21.37,90.222,24.568,90.222,24.568z"/>
</g>
<image style="overflow:visible;" width="411" height="411" xlink:href="C:\Users\전혜민\Downloads\botcharictor.png"  transform="matrix(0.0998 0 0 0.0998 0 0)">
</image>
<g>
	<path class="st1" d="M158.447,31.793l-2.928-7.952h1.472l2.144,6.224h0.064l2.208-6.224h1.328l-2.912,7.952H158.447z"/>
	<path class="st1" d="M164.159,22.272v-1.424h1.392v1.424H164.159z M164.159,31.793V23.84h1.376v7.952H164.159z"/>
	<path class="st1" d="M167.758,31.793V23.84h1.296v0.88h0.08c0.224-0.277,0.536-0.509,0.936-0.696
		c0.4-0.186,0.808-0.279,1.224-0.279c0.224,0,0.389,0.021,0.496,0.064v1.215c-0.224-0.031-0.427-0.047-0.608-0.047
		c-0.758,0-1.446,0.202-2.064,0.607v6.208H167.758z"/>
	<path class="st1" d="M175.759,31.873c-1.43,0-2.144-0.65-2.144-1.952v-4.943h-1.136V23.84h1.136v-1.889h1.36v1.889h2v1.137h-2
		v4.751c0,0.385,0.083,0.654,0.248,0.809s0.467,0.231,0.904,0.231c0.331,0,0.667-0.042,1.008-0.128v0.928
		C176.666,31.771,176.207,31.873,175.759,31.873z"/>
	<path class="st1" d="M181.087,31.936c-0.79,0-1.392-0.197-1.808-0.592s-0.624-0.976-0.624-1.744v-5.76h1.344v5.536
		c0,0.501,0.107,0.858,0.32,1.072c0.213,0.213,0.603,0.319,1.168,0.319c0.619,0,1.301-0.191,2.048-0.576V23.84h1.376v7.952h-1.152
		l-0.16-0.688h-0.08C182.729,31.659,181.919,31.936,181.087,31.936z"/>
	<path class="st1" d="M189.039,31.936c-0.747,0-1.344-0.191-1.792-0.575c-0.448-0.385-0.672-0.944-0.672-1.681
		c0-1.344,0.8-2.117,2.4-2.319l2.112-0.257v-0.736c0-0.597-0.142-0.996-0.424-1.199c-0.283-0.203-0.792-0.305-1.528-0.305
		c-0.523,0-1.158,0.075-1.904,0.225v-0.977c0.757-0.287,1.568-0.432,2.432-0.432c1.845,0,2.769,0.784,2.769,2.352v5.761h-1.088
		l-0.144-0.672h-0.08C190.628,31.665,189.935,31.936,189.039,31.936z M189.375,30.88c0.747,0,1.317-0.182,1.712-0.544v-2.192
		l-1.76,0.177c-0.47,0.053-0.811,0.181-1.024,0.384c-0.214,0.202-0.32,0.518-0.32,0.943c0,0.406,0.125,0.713,0.376,0.92
		C188.609,30.776,188.948,30.88,189.375,30.88z"/>
	<path class="st1" d="M194.59,31.793V20.337h1.376v11.456H194.59z"/>
	<path class="st1" d="M204.35,31.936c-0.747,0-1.344-0.191-1.792-0.575c-0.448-0.385-0.672-0.944-0.672-1.681
		c0-1.344,0.8-2.117,2.399-2.319l2.112-0.257v-0.736c0-0.597-0.142-0.996-0.424-1.199c-0.283-0.203-0.792-0.305-1.528-0.305
		c-0.522,0-1.157,0.075-1.903,0.225v-0.977c0.757-0.287,1.567-0.432,2.432-0.432c1.845,0,2.768,0.784,2.768,2.352v5.761h-1.088
		l-0.144-0.672h-0.08C205.939,31.665,205.246,31.936,204.35,31.936z M204.686,30.88c0.746,0,1.317-0.182,1.712-0.544v-2.192
		l-1.76,0.177c-0.47,0.053-0.811,0.181-1.024,0.384c-0.213,0.202-0.319,0.518-0.319,0.943c0,0.406,0.125,0.713,0.376,0.92
		C203.92,30.776,204.259,30.88,204.686,30.88z"/>
	<path class="st1" d="M211.917,31.921c-1.077,0-1.936-0.187-2.576-0.56v-1.072c0.821,0.33,1.611,0.496,2.368,0.496
		c1.142,0,1.712-0.368,1.712-1.104c0-0.319-0.099-0.573-0.296-0.76s-0.536-0.344-1.016-0.472l-0.752-0.208
		c-0.641-0.171-1.131-0.422-1.473-0.752c-0.341-0.331-0.512-0.816-0.512-1.457c0-0.725,0.232-1.298,0.696-1.719
		c0.464-0.422,1.16-0.633,2.088-0.633c0.832,0,1.558,0.154,2.176,0.465v1.104c-0.598-0.277-1.307-0.416-2.128-0.416
		c-1.023,0-1.536,0.352-1.536,1.056c0,0.32,0.086,0.56,0.256,0.72c0.171,0.16,0.47,0.299,0.896,0.416l0.752,0.192
		c0.8,0.214,1.362,0.485,1.688,0.816c0.325,0.33,0.487,0.837,0.487,1.52c0,0.769-0.251,1.354-0.752,1.76
		C213.497,31.718,212.803,31.921,211.917,31.921z"/>
	<path class="st1" d="M218.461,31.921c-1.077,0-1.936-0.187-2.576-0.56v-1.072c0.821,0.33,1.611,0.496,2.368,0.496
		c1.142,0,1.712-0.368,1.712-1.104c0-0.319-0.099-0.573-0.296-0.76s-0.536-0.344-1.016-0.472l-0.752-0.208
		c-0.641-0.171-1.131-0.422-1.473-0.752c-0.341-0.331-0.512-0.816-0.512-1.457c0-0.725,0.232-1.298,0.696-1.719
		c0.464-0.422,1.16-0.633,2.088-0.633c0.832,0,1.558,0.154,2.176,0.465v1.104c-0.598-0.277-1.307-0.416-2.128-0.416
		c-1.023,0-1.536,0.352-1.536,1.056c0,0.32,0.086,0.56,0.256,0.72c0.171,0.16,0.47,0.299,0.896,0.416l0.752,0.192
		c0.8,0.214,1.362,0.485,1.688,0.816c0.325,0.33,0.487,0.837,0.487,1.52c0,0.769-0.251,1.354-0.752,1.76
		C220.041,31.718,219.347,31.921,218.461,31.921z"/>
	<path class="st1" d="M226.253,31.936c-1.237,0-2.179-0.354-2.824-1.063s-0.968-1.688-0.968-2.937v-0.239
		c0-1.312,0.333-2.31,1-2.992s1.501-1.024,2.504-1.024c2.145,0,3.216,1.254,3.216,3.76v0.769h-5.312
		c0.043,0.917,0.282,1.573,0.72,1.968s1.066,0.592,1.889,0.592c0.885,0,1.706-0.202,2.464-0.607v1.008
		C228.27,31.68,227.374,31.936,226.253,31.936z M225.902,24.784c-0.523,0-0.979,0.18-1.368,0.537s-0.61,0.951-0.664,1.783h3.872
		c0-0.811-0.152-1.399-0.456-1.768S226.52,24.784,225.902,24.784z"/>
	<path class="st1" d="M233.421,31.873c-1.43,0-2.145-0.65-2.145-1.952v-4.943h-1.136V23.84h1.136v-1.889h1.36v1.889h2v1.137h-2
		v4.751c0,0.385,0.082,0.654,0.248,0.809c0.165,0.154,0.466,0.231,0.903,0.231c0.331,0,0.667-0.042,1.009-0.128v0.928
		C234.328,31.771,233.869,31.873,233.421,31.873z"/>
	<path class="st1" d="M238.413,31.921c-1.077,0-1.936-0.187-2.576-0.56v-1.072c0.821,0.33,1.611,0.496,2.368,0.496
		c1.142,0,1.712-0.368,1.712-1.104c0-0.319-0.099-0.573-0.296-0.76s-0.536-0.344-1.016-0.472l-0.752-0.208
		c-0.641-0.171-1.131-0.422-1.473-0.752c-0.341-0.331-0.512-0.816-0.512-1.457c0-0.725,0.232-1.298,0.696-1.719
		c0.464-0.422,1.16-0.633,2.088-0.633c0.832,0,1.558,0.154,2.176,0.465v1.104c-0.598-0.277-1.307-0.416-2.128-0.416
		c-1.023,0-1.536,0.352-1.536,1.056c0,0.32,0.086,0.56,0.256,0.72c0.171,0.16,0.47,0.299,0.896,0.416l0.752,0.192
		c0.8,0.214,1.362,0.485,1.688,0.816c0.325,0.33,0.487,0.837,0.487,1.52c0,0.769-0.251,1.354-0.752,1.76
		C239.992,31.718,239.298,31.921,238.413,31.921z"/>
	<path class="st1" d="M247.117,31.793V23.84h1.296v0.688h0.08c0.821-0.564,1.627-0.848,2.416-0.848c0.886,0,1.521,0.293,1.904,0.881
		h0.08c0.896-0.588,1.775-0.881,2.64-0.881c1.461,0,2.192,0.73,2.192,2.192v5.92h-1.345v-5.632c0-0.47-0.101-0.803-0.304-1
		c-0.202-0.197-0.565-0.297-1.088-0.297c-0.533,0-1.174,0.182-1.92,0.545c0.021,0.191,0.032,0.346,0.032,0.464v5.92h-1.36v-5.632
		c0-0.47-0.102-0.803-0.304-1c-0.203-0.197-0.561-0.297-1.072-0.297c-0.555,0-1.184,0.177-1.888,0.529v6.399H247.117z"/>
	<path class="st1" d="M262.237,31.936c-0.789,0-1.392-0.197-1.808-0.592s-0.624-0.976-0.624-1.744v-5.76h1.344v5.536
		c0,0.501,0.106,0.858,0.32,1.072c0.213,0.213,0.603,0.319,1.168,0.319c0.618,0,1.301-0.191,2.048-0.576V23.84h1.376v7.952h-1.152
		l-0.159-0.688h-0.08C263.879,31.659,263.069,31.936,262.237,31.936z"/>
	<path class="st1" d="M268.269,31.793V20.337h1.376v11.456H268.269z"/>
	<path class="st1" d="M274.429,31.873c-1.43,0-2.145-0.65-2.145-1.952v-4.943h-1.136V23.84h1.136v-1.889h1.36v1.889h2v1.137h-2
		v4.751c0,0.385,0.082,0.654,0.248,0.809c0.165,0.154,0.466,0.231,0.903,0.231c0.331,0,0.667-0.042,1.009-0.128v0.928
		C275.335,31.771,274.876,31.873,274.429,31.873z"/>
	<path class="st1" d="M277.405,22.272v-1.424h1.392v1.424H277.405z M277.405,31.793V23.84h1.376v7.952H277.405z"/>
	<path class="st1" d="M287.773,31.873c-1.43,0-2.145-0.65-2.145-1.952v-4.943h-1.136V23.84h1.136v-1.889h1.36v1.889h2v1.137h-2
		v4.751c0,0.385,0.082,0.654,0.248,0.809c0.165,0.154,0.466,0.231,0.903,0.231c0.331,0,0.667-0.042,1.009-0.128v0.928
		C288.679,31.771,288.22,31.873,287.773,31.873z"/>
	<path class="st1" d="M290.716,31.793V23.84h1.296v0.88h0.08c0.225-0.277,0.536-0.509,0.937-0.696
		c0.399-0.186,0.808-0.279,1.224-0.279c0.224,0,0.39,0.021,0.496,0.064v1.215c-0.224-0.031-0.427-0.047-0.608-0.047
		c-0.757,0-1.445,0.202-2.063,0.607v6.208H290.716z"/>
	<path class="st1" d="M298.108,31.936c-0.747,0-1.344-0.191-1.792-0.575c-0.448-0.385-0.672-0.944-0.672-1.681
		c0-1.344,0.8-2.117,2.399-2.319l2.112-0.257v-0.736c0-0.597-0.142-0.996-0.424-1.199c-0.283-0.203-0.792-0.305-1.528-0.305
		c-0.522,0-1.157,0.075-1.903,0.225v-0.977c0.757-0.287,1.567-0.432,2.432-0.432c1.845,0,2.768,0.784,2.768,2.352v5.761h-1.088
		l-0.144-0.672h-0.08C299.697,31.665,299.003,31.936,298.108,31.936z M298.444,30.88c0.746,0,1.317-0.182,1.712-0.544v-2.192
		l-1.76,0.177c-0.47,0.053-0.811,0.181-1.024,0.384c-0.213,0.202-0.319,0.518-0.319,0.943c0,0.406,0.125,0.713,0.376,0.92
		C297.678,30.776,298.017,30.88,298.444,30.88z"/>
	<path class="st1" d="M306.444,31.936c-0.406,0-0.792-0.066-1.16-0.199c-0.368-0.134-0.715-0.345-1.04-0.633
		s-0.587-0.69-0.784-1.208c-0.197-0.517-0.296-1.128-0.296-1.832V27.84c0-1.387,0.322-2.426,0.968-3.12
		c0.646-0.692,1.501-1.04,2.568-1.04c0.778,0,1.456,0.166,2.032,0.496v-3.84h1.359v11.456h-1.151l-0.128-0.64h-0.08
		C308.208,31.675,307.446,31.936,306.444,31.936z M306.891,30.816c0.715,0,1.328-0.208,1.841-0.624v-4.879
		c-0.385-0.311-1.003-0.465-1.856-0.465c-0.758,0-1.328,0.219-1.712,0.656s-0.576,1.157-0.576,2.16v0.352
		c0,1.014,0.2,1.733,0.601,2.16C305.587,30.603,306.156,30.816,306.891,30.816z"/>
	<path class="st1" d="M312.299,22.272v-1.424h1.392v1.424H312.299z M312.299,31.793V23.84h1.376v7.952H312.299z"/>
	<path class="st1" d="M315.9,31.793V23.84h1.296v0.688h0.08c0.789-0.564,1.68-0.848,2.672-0.848c0.789,0,1.371,0.176,1.744,0.528
		s0.561,0.907,0.561,1.664v5.92h-1.345v-5.632c0-0.47-0.106-0.803-0.319-1c-0.214-0.197-0.624-0.297-1.232-0.297
		c-0.65,0-1.35,0.177-2.096,0.529v6.399H315.9z"/>
	<path class="st1" d="M327.179,34.144c-2.399,0-3.6-0.576-3.6-1.728c0-0.395,0.136-0.729,0.408-1
		c0.271-0.272,0.632-0.472,1.08-0.601v-0.079c-0.534-0.203-0.801-0.523-0.801-0.961c0-0.522,0.305-1.002,0.912-1.439
		c-0.661-0.416-0.991-1.056-0.991-1.92v-0.16c0-0.8,0.279-1.43,0.84-1.889c0.56-0.458,1.288-0.688,2.184-0.688
		c0.416,0,0.806,0.049,1.168,0.145h2.704v1.023h-1.36c0.331,0.342,0.496,0.789,0.496,1.344v0.16c0,0.812-0.279,1.43-0.84,1.856
		c-0.56,0.427-1.288,0.64-2.184,0.64c-0.47,0-0.907-0.063-1.312-0.191c-0.224,0.17-0.336,0.373-0.336,0.607
		c0,0.192,0.059,0.326,0.176,0.4s0.31,0.111,0.576,0.111h2.176c1.686,0,2.528,0.673,2.528,2.017
		C331.003,33.361,329.729,34.144,327.179,34.144z M327.148,33.073c0.896,0,1.524-0.08,1.888-0.24
		c0.362-0.16,0.544-0.438,0.544-0.832c0-0.331-0.102-0.57-0.304-0.72c-0.203-0.149-0.555-0.225-1.057-0.225h-2.239
		c-0.641,0.225-0.961,0.613-0.961,1.168c0,0.342,0.157,0.568,0.473,0.681C325.806,33.016,326.358,33.073,327.148,33.073z
		 M327.196,27.825c1.12,0,1.68-0.47,1.68-1.408v-0.24c0-0.49-0.149-0.858-0.448-1.104c-0.299-0.246-0.709-0.368-1.231-0.368
		c-0.523,0-0.929,0.128-1.216,0.384c-0.288,0.256-0.433,0.607-0.433,1.057v0.239C325.547,27.344,326.097,27.825,327.196,27.825z"/>
	<path class="st1" d="M338.635,31.921c-1.077,0-1.936-0.187-2.576-0.56v-1.072c0.821,0.33,1.611,0.496,2.368,0.496
		c1.142,0,1.712-0.368,1.712-1.104c0-0.319-0.099-0.573-0.296-0.76s-0.536-0.344-1.016-0.472l-0.752-0.208
		c-0.641-0.171-1.131-0.422-1.473-0.752c-0.341-0.331-0.512-0.816-0.512-1.457c0-0.725,0.232-1.298,0.696-1.719
		c0.464-0.422,1.16-0.633,2.088-0.633c0.832,0,1.558,0.154,2.176,0.465v1.104c-0.598-0.277-1.307-0.416-2.128-0.416
		c-1.023,0-1.536,0.352-1.536,1.056c0,0.32,0.086,0.56,0.256,0.72c0.171,0.16,0.47,0.299,0.896,0.416l0.752,0.192
		c0.8,0.214,1.362,0.485,1.688,0.816c0.325,0.33,0.487,0.837,0.487,1.52c0,0.769-0.251,1.354-0.752,1.76
		C340.214,31.718,339.521,31.921,338.635,31.921z"/>
	<path class="st1" d="M343.643,34.176c-0.384,0-0.726-0.074-1.023-0.224v-0.96c0.256,0.042,0.512,0.063,0.768,0.063
		c0.843,0,1.365-0.245,1.568-0.735l0.368-1.04l-3.057-7.44h1.473l2.239,5.632h0.064l2.064-5.632h1.327l-3.216,8.672
		c-0.256,0.704-0.565,1.157-0.928,1.36C344.928,34.075,344.379,34.176,343.643,34.176z"/>
	<path class="st1" d="M352.811,31.921c-1.077,0-1.936-0.187-2.576-0.56v-1.072c0.821,0.33,1.611,0.496,2.368,0.496
		c1.142,0,1.712-0.368,1.712-1.104c0-0.319-0.099-0.573-0.296-0.76s-0.536-0.344-1.016-0.472l-0.752-0.208
		c-0.641-0.171-1.131-0.422-1.473-0.752c-0.341-0.331-0.512-0.816-0.512-1.457c0-0.725,0.232-1.298,0.696-1.719
		c0.464-0.422,1.16-0.633,2.088-0.633c0.832,0,1.558,0.154,2.176,0.465v1.104c-0.598-0.277-1.307-0.416-2.128-0.416
		c-1.023,0-1.536,0.352-1.536,1.056c0,0.32,0.086,0.56,0.256,0.72c0.171,0.16,0.47,0.299,0.896,0.416l0.752,0.192
		c0.8,0.214,1.362,0.485,1.688,0.816c0.325,0.33,0.487,0.837,0.487,1.52c0,0.769-0.251,1.354-0.752,1.76
		C354.39,31.718,353.697,31.921,352.811,31.921z"/>
	<path class="st1" d="M359.868,31.873c-1.43,0-2.145-0.65-2.145-1.952v-4.943h-1.136V23.84h1.136v-1.889h1.36v1.889h2v1.137h-2
		v4.751c0,0.385,0.082,0.654,0.248,0.809c0.165,0.154,0.466,0.231,0.903,0.231c0.331,0,0.667-0.042,1.009-0.128v0.928
		C360.774,31.771,360.315,31.873,359.868,31.873z"/>
	<path class="st1" d="M366.107,31.936c-1.237,0-2.179-0.354-2.824-1.063s-0.968-1.688-0.968-2.937v-0.239
		c0-1.312,0.333-2.31,1-2.992s1.501-1.024,2.504-1.024c2.145,0,3.216,1.254,3.216,3.76v0.769h-5.312
		c0.043,0.917,0.282,1.573,0.72,1.968s1.066,0.592,1.889,0.592c0.885,0,1.706-0.202,2.464-0.607v1.008
		C368.124,31.68,367.227,31.936,366.107,31.936z M365.755,24.784c-0.523,0-0.979,0.18-1.368,0.537s-0.61,0.951-0.664,1.783h3.872
		c0-0.811-0.152-1.399-0.456-1.768S366.374,24.784,365.755,24.784z"/>
	<path class="st1" d="M370.714,31.793V23.84h1.296v0.688h0.08c0.821-0.564,1.627-0.848,2.416-0.848c0.886,0,1.521,0.293,1.904,0.881
		h0.08c0.896-0.588,1.775-0.881,2.64-0.881c1.461,0,2.192,0.73,2.192,2.192v5.92h-1.345v-5.632c0-0.47-0.101-0.803-0.304-1
		c-0.202-0.197-0.565-0.297-1.088-0.297c-0.533,0-1.174,0.182-1.92,0.545c0.021,0.191,0.032,0.346,0.032,0.464v5.92h-1.36v-5.632
		c0-0.47-0.102-0.803-0.304-1c-0.203-0.197-0.561-0.297-1.072-0.297c-0.555,0-1.184,0.177-1.888,0.529v6.399H370.714z"/>
</g>
</svg>
