<?xml version="1.0" encoding="utf-8"?>
<!-- Generator: Adobe Illustrator 26.2.0, SVG Export Plug-In . SVG Version: 6.00 Build 0)  -->
<svg version="1.1" id="레이어_1" xmlns="http://www.w3.org/2000/svg" xmlns:xlink="http://www.w3.org/1999/xlink" x="0px"
	 y="0px" viewBox="0 0 381.3 41" style="enable-background:new 0 0 381.3 41;" xml:space="preserve">
<style type="text/css">
	.st0{fill:#4341CE;}
	.st1{fill:#888888;}
</style>
<g>
	<path class="st0" d="M59.5,14.2c-4.7,0-8.4,3.3-8.4,7.3v3c0,4,3.8,7.3,8.4,7.3h2.1v-4.9c-0.6,0.4-1.3,0.6-2.1,0.6
		c-1.9,0-3.4-1.3-3.4-2.9v-3.2c0-1.6,1.5-2.9,3.4-2.9c1.9,0,3.4,1.3,3.4,2.9v3.2l0,7.2h5.1v-7.3v-2.7v-0.3
		C67.9,17.4,64.1,14.2,59.5,14.2z"/>
	<path class="st0" d="M68.8,21.5v0.3v2.7v7.3h5.1l0-7.2v-3.2c0-1.6,1.5-2.9,3.4-2.9c1,0,1.4,0,2.5,0.1v-4.1
		c-0.8-0.2-1.7-0.3-2.5-0.3C72.6,14.2,68.8,17.4,68.8,21.5z"/>
	<path class="st0" d="M96.8,13.1h3.7c0.4,0,0.7-0.3,0.7-0.6V9.9c0-0.3-0.3-0.6-0.7-0.6h-3.7c-0.4,0-0.7,0.3-0.7,0.6v2.7
		C96.1,12.9,96.4,13.1,96.8,13.1z"/>
	<path class="st0" d="M100.4,16.2h-3.6c-0.4,0-0.8,0.3-0.8,0.7v10v4.3v0.7h0.8h3.6h0.8v-0.7v-4.3v-10
		C101.2,16.5,100.8,16.2,100.4,16.2z"/>
	<path class="st0" d="M136.6,14.1v6.3c-0.6-3.5-4.1-6.3-8.3-6.3c-4.2,0-7.7,2.7-8.3,6.2c-0.1,0.3-0.1,0.6-0.1,1c0-0.2,0-0.4,0-0.6
		c0-0.1,0-0.2-0.1-0.4c0,0,0-0.1,0-0.1c0-0.1,0-0.2-0.1-0.2c0,0,0-0.1,0-0.1c0-0.1,0-0.1-0.1-0.2c0,0,0-0.1,0-0.1
		c0-0.1,0-0.1-0.1-0.2c0,0,0-0.1-0.1-0.1c0-0.1,0-0.1-0.1-0.2c0,0,0-0.1-0.1-0.1c0-0.1-0.1-0.1-0.1-0.2c0,0,0-0.1-0.1-0.1
		c0-0.1-0.1-0.1-0.1-0.2c0,0-0.1-0.1-0.1-0.1c0-0.1-0.1-0.1-0.1-0.2c0,0-0.1-0.1-0.1-0.1c0-0.1-0.1-0.1-0.1-0.2c0,0-0.1-0.1-0.1-0.1
		c0-0.1-0.1-0.1-0.1-0.2c0,0-0.1-0.1-0.1-0.1c0-0.1-0.1-0.1-0.1-0.2c0,0-0.1-0.1-0.1-0.1c0,0-0.1-0.1-0.1-0.1c0,0-0.1-0.1-0.1-0.1
		c0,0-0.1-0.1-0.1-0.1c0,0-0.1-0.1-0.1-0.1c-0.1,0-0.1-0.1-0.2-0.1c0,0-0.1-0.1-0.1-0.1c-0.1-0.1-0.1-0.1-0.2-0.2
		c0,0-0.1-0.1-0.1-0.1c-0.1-0.1-0.1-0.1-0.2-0.2c0,0-0.1-0.1-0.1-0.1c-0.1,0-0.1-0.1-0.2-0.1c0,0-0.1-0.1-0.1-0.1
		c-0.1,0-0.1-0.1-0.2-0.1c-0.1,0-0.1-0.1-0.2-0.1c-0.1,0-0.1-0.1-0.2-0.1c-0.1,0-0.1-0.1-0.2-0.1c-0.1,0-0.1-0.1-0.2-0.1
		c-0.1,0-0.1-0.1-0.2-0.1c-0.1,0-0.1-0.1-0.2-0.1c-0.1,0-0.1,0-0.2-0.1c-0.1,0-0.1-0.1-0.2-0.1c-0.1,0-0.1,0-0.2-0.1
		c-0.1,0-0.1,0-0.2-0.1c-0.1,0-0.1,0-0.2-0.1c-0.1,0-0.1,0-0.2-0.1c-0.1,0-0.1,0-0.2-0.1c-0.1,0-0.1,0-0.2-0.1c-0.1,0-0.1,0-0.2,0
		c-0.1,0-0.1,0-0.2,0c-0.1,0-0.1,0-0.2,0c-0.1,0-0.1,0-0.2,0c-0.1,0-0.1,0-0.2,0c-0.1,0-0.2,0-0.2,0c-0.1,0-0.1,0-0.2,0
		c-0.1,0-0.2,0-0.3,0c0,0-0.1,0-0.1,0c-0.1,0-0.3,0-0.4,0c0,0,0,0,0,0l0,0l0,0c-0.1,0-0.3,0-0.4,0c0,0-0.1,0-0.1,0
		c-0.1,0-0.2,0-0.3,0c0,0-0.1,0-0.1,0c-0.1,0-0.2,0-0.3,0c0,0-0.1,0-0.1,0c-0.1,0-0.2,0-0.3,0.1c0,0-0.1,0-0.1,0
		c-0.1,0-0.2,0-0.4,0.1c0,0,0,0,0,0c-0.4,0.1-0.8,0.2-1.2,0.4V7.9H103v13.5v0.3v2.7v3v4.3h5.1h1.3h0.4h1.7c0.2,0,0.3,0,0.5,0
		c0.1,0,0.1,0,0.2,0c0.1,0,0.2,0,0.3,0c0.1,0,0.1,0,0.2,0c0.1,0,0.2,0,0.3,0c0,0,0.1,0,0.1,0c0.4-0.1,0.7-0.1,1.1-0.3c0,0,0,0,0.1,0
		c0.8-0.2,1.5-0.6,2.2-1c0,0,0,0,0,0c0.3-0.2,0.6-0.4,0.9-0.7c0,0,0,0,0,0c0.3-0.2,0.5-0.5,0.8-0.7c0,0,0,0,0,0
		c0.1-0.1,0.2-0.3,0.3-0.4c0,0,0,0,0,0c0.1-0.1,0.2-0.3,0.3-0.4c0,0,0,0,0-0.1c0.1-0.1,0.2-0.3,0.3-0.4c0,0,0,0,0,0
		c0.1-0.1,0.1-0.3,0.2-0.4c0,0,0-0.1,0-0.1c0.1-0.1,0.1-0.3,0.2-0.5c0,0,0,0,0,0c0.1-0.1,0.1-0.3,0.1-0.4c0,0,0-0.1,0-0.1
		c0-0.2,0.1-0.3,0.1-0.5c0,0,0,0,0,0c0-0.2,0-0.3,0.1-0.5c0,0,0-0.1,0-0.1c0-0.1,0-0.3,0-0.4c0,0.3,0,0.7,0.1,1
		c0.6,3.5,4.1,6.2,8.3,6.2c0.7,0,1.4-0.1,2.1-0.2c0.4-0.1,0.9-0.2,1.3-0.4c2.7-1,4.7-3.3,5-6c0,0.1,0,0.3,0.1,0.4
		c0.6,3.5,5.6,6.2,9.9,6.2v-4.3c0,0,0,0,0,0c-1.7,0-4.2-1.1-4.4-2.6v0c0-0.1,0-0.2,0-0.4V18h3.7c0.4,0,0.8-0.3,0.8-0.7v-3
		c0-0.4-0.3-0.7-0.8-0.7h-3.7V8.2c0,0,0-0.1,0-0.1h-5.6c0,0.1,0,0.1,0,0.2v1.5L136.6,14.1L136.6,14.1z M114.8,24.6L114.8,24.6
		c0,1.4-1.1,2.6-2.7,2.9c0,0,0,0,0,0c-0.1,0-0.2,0-0.3,0c0,0,0,0-0.1,0c-0.1,0-0.2,0-0.3,0c0,0,0,0,0,0c0,0,0,0,0,0
		c-0.1,0-0.2,0-0.3,0c0,0-0.1,0-0.1,0c-0.1,0-0.1,0-0.2,0c-0.1,0-0.1,0-0.1,0c0,0-0.1,0-0.1,0c-0.1,0-0.1,0-0.2,0c0,0-0.1,0-0.1,0
		c-0.1,0-0.1,0-0.2-0.1c0,0-0.1,0-0.1,0c-0.1,0-0.1,0-0.2-0.1c0,0-0.1,0-0.1,0c-0.1,0-0.1-0.1-0.2-0.1c0,0-0.1,0-0.1,0
		c-0.1,0-0.1-0.1-0.2-0.1c-0.7-0.5-1.2-1.2-1.3-1.9v0c0-0.1,0-0.2,0-0.3v0v-3.2c0-0.1,0-0.2,0-0.2c0,0,0-0.1,0-0.1c0,0,0,0,0,0
		c0.1-0.4,0.2-0.8,0.5-1.2c0,0,0,0,0,0c0-0.1,0.1-0.1,0.1-0.2c0,0,0,0,0.1-0.1c0,0,0.1-0.1,0.1-0.1c0,0,0.1-0.1,0.1-0.1
		c0,0,0.1-0.1,0.1-0.1c0,0,0.1-0.1,0.1-0.1c0,0,0.1-0.1,0.1-0.1c0,0,0.1-0.1,0.1-0.1c0,0,0.1-0.1,0.1-0.1c0,0,0.1,0,0.1-0.1
		c0,0,0.1,0,0.1-0.1c0,0,0.1,0,0.1-0.1c0,0,0.1,0,0.1-0.1c0.1,0,0.1,0,0.2-0.1c0,0,0.1,0,0.1,0c0.1,0,0.1,0,0.2,0c0,0,0.1,0,0.1,0
		c0.1,0,0.1,0,0.2,0c0,0,0.1,0,0.1,0c0.1,0,0.2,0,0.3,0c0,0,0,0,0,0c0.1,0,0.2,0,0.3,0c0,0,0.1,0,0.1,0c0.1,0,0.1,0,0.2,0
		c0,0,0.1,0,0.1,0c0.1,0,0.1,0,0.2,0c0,0,0.1,0,0.1,0c0.1,0,0.1,0,0.2,0c0,0,0.1,0,0.1,0.1c0,0,0.1,0,0.1,0.1c0,0,0.1,0,0.1,0.1
		c0,0,0.1,0,0.1,0.1c0.1,0,0.1,0.1,0.1,0.1c0,0,0.1,0,0.1,0.1c0,0,0.1,0.1,0.1,0.1c0,0,0.1,0,0.1,0.1c0,0,0.1,0.1,0.1,0.1
		c0,0,0,0,0.1,0.1c0.1,0,0.1,0.1,0.1,0.1c0,0,0,0,0,0c0.1,0.1,0.1,0.1,0.1,0.2c0,0,0,0,0,0c0.3,0.4,0.4,0.8,0.5,1.2c0,0,0,0.1,0,0.1
		c0,0.1,0,0.1,0,0.2c0,0,0,0,0,0L114.8,24.6L114.8,24.6z M131.6,24.9c-0.2,1.4-1.6,2.5-3.4,2.5c-1.7,0-3.1-1.1-3.3-2.6l0,0
		c0-0.1,0-0.2,0-0.4v-3.2c0-0.1,0-0.2,0-0.3c0.2-1.4,1.6-2.6,3.3-2.6s3.1,1.1,3.3,2.6c0,0.1,0,0.2,0,0.4v3.2L131.6,24.9
		C131.6,24.9,131.6,24.9,131.6,24.9z"/>
	<path class="st0" d="M95.2,20.4c0,0,0-0.1,0-0.1c0-0.1,0-0.2-0.1-0.2c0,0,0-0.1,0-0.1c0-0.1,0-0.1-0.1-0.2c0,0,0-0.1,0-0.1
		c0-0.1,0-0.1-0.1-0.2c0,0,0-0.1-0.1-0.1c0-0.1,0-0.1-0.1-0.2c0,0,0-0.1-0.1-0.1c0-0.1-0.1-0.1-0.1-0.2c0,0,0-0.1-0.1-0.1
		c0-0.1-0.1-0.1-0.1-0.2c0,0-0.1-0.1-0.1-0.1c0-0.1-0.1-0.1-0.1-0.2c0,0-0.1-0.1-0.1-0.1c0-0.1-0.1-0.1-0.1-0.2c0,0-0.1-0.1-0.1-0.1
		c0-0.1-0.1-0.1-0.1-0.2c0,0-0.1-0.1-0.1-0.1c0-0.1-0.1-0.1-0.1-0.2c0,0-0.1-0.1-0.1-0.1c0,0-0.1-0.1-0.1-0.1c0,0-0.1-0.1-0.1-0.1
		c0,0-0.1-0.1-0.1-0.1c0,0-0.1-0.1-0.1-0.1c-0.1,0-0.1-0.1-0.2-0.1c0,0-0.1-0.1-0.1-0.1c-0.1-0.1-0.1-0.1-0.2-0.2
		c0,0-0.1-0.1-0.1-0.1c-0.1-0.1-0.1-0.1-0.2-0.2c0,0-0.1-0.1-0.1-0.1c-0.1,0-0.1-0.1-0.2-0.1c0,0-0.1-0.1-0.1-0.1
		c-0.1,0-0.1-0.1-0.2-0.1c-0.1,0-0.1-0.1-0.2-0.1c-0.1,0-0.1-0.1-0.2-0.1c-0.1,0-0.1-0.1-0.2-0.1c-0.1,0-0.1-0.1-0.2-0.1
		c-0.1,0-0.1-0.1-0.2-0.1c-0.1,0-0.1-0.1-0.2-0.1c-0.1,0-0.1,0-0.2-0.1c-0.1,0-0.1-0.1-0.2-0.1c-0.1,0-0.1,0-0.2-0.1
		c-0.1,0-0.1,0-0.2-0.1c-0.1,0-0.1,0-0.2-0.1c-0.1,0-0.1,0-0.2-0.1c-0.1,0-0.1,0-0.2-0.1c-0.1,0-0.1,0-0.2-0.1c-0.1,0-0.1,0-0.2,0
		c-0.1,0-0.1,0-0.2,0c-0.1,0-0.1,0-0.2,0c-0.1,0-0.1,0-0.2,0c-0.1,0-0.1,0-0.2,0c-0.1,0-0.2,0-0.2,0c-0.1,0-0.1,0-0.2,0
		c-0.1,0-0.2,0-0.3,0c0,0-0.1,0-0.1,0c-0.1,0-0.3,0-0.4,0c0,0,0,0,0,0l0,0l0,0c-0.1,0-0.3,0-0.4,0c0,0-0.1,0-0.1,0
		c-0.1,0-0.2,0-0.3,0c0,0-0.1,0-0.1,0c-0.1,0-0.2,0-0.3,0c0,0-0.1,0-0.1,0c-0.1,0-0.2,0-0.3,0.1c0,0-0.1,0-0.1,0
		c-0.1,0-0.2,0-0.4,0.1c0,0,0,0,0,0c-0.4,0.1-0.8,0.2-1.2,0.4V7.9h-5.1v13.5v0.3v2.7v3v4.3h5.1h1.3h0.4h1.7c0.2,0,0.3,0,0.5,0
		c0.1,0,0.1,0,0.2,0c0.1,0,0.2,0,0.3,0c0.1,0,0.1,0,0.2,0c0.1,0,0.2,0,0.3,0c0,0,0.1,0,0.1,0c0.4-0.1,0.7-0.1,1.1-0.3c0,0,0,0,0.1,0
		c0.8-0.2,1.5-0.6,2.2-1c0,0,0,0,0,0c0.3-0.2,0.6-0.4,0.9-0.7c0,0,0,0,0,0c0.3-0.2,0.5-0.5,0.8-0.7c0,0,0,0,0,0
		c0.1-0.1,0.2-0.3,0.3-0.4c0,0,0,0,0,0c0.1-0.1,0.2-0.3,0.3-0.4c0,0,0,0,0-0.1c0.1-0.1,0.2-0.3,0.3-0.4c0,0,0,0,0,0
		c0.1-0.1,0.1-0.3,0.2-0.4c0,0,0-0.1,0-0.1c0.1-0.1,0.1-0.3,0.2-0.5c0,0,0,0,0,0c0.1-0.1,0.1-0.3,0.1-0.4c0,0,0-0.1,0-0.1
		c0-0.2,0.1-0.3,0.1-0.5c0,0,0,0,0,0c0-0.2,0-0.3,0.1-0.5c0,0,0-0.1,0-0.1c0-0.2,0-0.3,0-0.5v-2.7v-0.3c0-0.3,0-0.5,0-0.7
		C95.2,20.6,95.2,20.5,95.2,20.4z M90.2,24.6L90.2,24.6c0,1.4-1.1,2.6-2.7,2.9c0,0,0,0,0,0c-0.1,0-0.2,0-0.3,0c0,0,0,0-0.1,0
		c-0.1,0-0.2,0-0.3,0c0,0,0,0,0,0c0,0,0,0,0,0c-0.1,0-0.2,0-0.3,0c0,0-0.1,0-0.1,0c-0.1,0-0.1,0-0.2,0c-0.1,0-0.1,0-0.1,0
		c0,0-0.1,0-0.1,0c-0.1,0-0.1,0-0.2,0c0,0-0.1,0-0.1,0c-0.1,0-0.1,0-0.2-0.1c0,0-0.1,0-0.1,0c-0.1,0-0.1,0-0.2-0.1c0,0-0.1,0-0.1,0
		c-0.1,0-0.1-0.1-0.2-0.1c0,0-0.1,0-0.1,0c-0.1,0-0.1-0.1-0.2-0.1c-0.7-0.5-1.2-1.2-1.3-1.9v0c0-0.1,0-0.2,0-0.3v0v-3.2
		c0-0.1,0-0.2,0-0.2c0,0,0-0.1,0-0.1c0,0,0,0,0,0c0.1-0.4,0.2-0.8,0.5-1.2c0,0,0,0,0,0c0-0.1,0.1-0.1,0.1-0.2c0,0,0,0,0.1-0.1
		c0,0,0.1-0.1,0.1-0.1c0,0,0.1-0.1,0.1-0.1c0,0,0.1-0.1,0.1-0.1c0,0,0.1-0.1,0.1-0.1c0,0,0.1-0.1,0.1-0.1c0,0,0.1-0.1,0.1-0.1
		c0,0,0.1-0.1,0.1-0.1c0,0,0.1,0,0.1-0.1s0.1,0,0.1-0.1c0,0,0.1,0,0.1-0.1c0,0,0.1,0,0.1-0.1c0.1,0,0.1,0,0.2-0.1c0,0,0.1,0,0.1,0
		c0.1,0,0.1,0,0.2,0c0,0,0.1,0,0.1,0c0.1,0,0.1,0,0.2,0c0,0,0.1,0,0.1,0c0.1,0,0.2,0,0.3,0c0,0,0,0,0,0c0.1,0,0.2,0,0.3,0
		c0,0,0.1,0,0.1,0c0.1,0,0.1,0,0.2,0c0,0,0.1,0,0.1,0c0.1,0,0.1,0,0.2,0c0,0,0.1,0,0.1,0c0.1,0,0.1,0,0.2,0c0,0,0.1,0,0.1,0.1
		c0,0,0.1,0,0.1,0.1c0.1,0,0.1,0,0.1,0.1c0,0,0.1,0,0.1,0.1c0,0,0.1,0.1,0.1,0.1c0,0,0.1,0,0.1,0.1c0,0,0.1,0.1,0.1,0.1
		c0,0,0.1,0,0.1,0.1c0,0,0.1,0.1,0.1,0.1c0,0,0,0,0.1,0.1c0,0,0.1,0.1,0.1,0.1c0,0,0,0,0,0c0.1,0.1,0.1,0.1,0.1,0.2c0,0,0,0,0,0
		c0.3,0.4,0.4,0.8,0.5,1.2c0,0,0,0.1,0,0.1c0,0.1,0,0.1,0,0.2c0,0,0,0,0,0C90.2,21.4,90.2,24.6,90.2,24.6z"/>
</g>
<image style="overflow:visible;" width="171" height="172" xlink:href="user\asset\img\svg\logo\40F723AD.png"  transform="matrix(0.24 0 0 0.24 0 -4.000000e-02)">
</image>
<g>
	<path class="st1" d="M158.4,31.8l-2.9-8h1.5l2.1,6.2h0.1l2.2-6.2h1.3l-2.9,8H158.4z"/>
	<path class="st1" d="M164.2,22.3v-1.4h1.4v1.4H164.2z M164.2,31.8v-8h1.4v8L164.2,31.8L164.2,31.8z"/>
	<path class="st1" d="M167.8,31.8v-8h1.3v0.9h0.1c0.2-0.3,0.5-0.5,0.9-0.7c0.4-0.2,0.8-0.3,1.2-0.3c0.2,0,0.4,0,0.5,0.1V25
		c-0.2,0-0.4,0-0.6,0c-0.8,0-1.4,0.2-2.1,0.6v6.2L167.8,31.8L167.8,31.8z"/>
	<path class="st1" d="M175.8,31.9c-1.4,0-2.1-0.6-2.1-2V25h-1.1v-1.1h1.1V22h1.4v1.9h2V25h-2v4.8c0,0.4,0.1,0.7,0.2,0.8
		s0.5,0.2,0.9,0.2c0.3,0,0.7,0,1-0.1v0.9C176.7,31.8,176.2,31.9,175.8,31.9z"/>
	<path class="st1" d="M181.1,31.9c-0.8,0-1.4-0.2-1.8-0.6s-0.6-1-0.6-1.7v-5.8h1.3v5.5c0,0.5,0.1,0.9,0.3,1.1
		c0.2,0.2,0.6,0.3,1.2,0.3c0.6,0,1.3-0.2,2-0.6v-6.4h1.4v8h-1.2l-0.2-0.7h-0.1C182.7,31.7,181.9,31.9,181.1,31.9z"/>
	<path class="st1" d="M189,31.9c-0.7,0-1.3-0.2-1.8-0.6c-0.4-0.4-0.7-0.9-0.7-1.7c0-1.3,0.8-2.1,2.4-2.3l2.1-0.3v-0.7
		c0-0.6-0.1-1-0.4-1.2c-0.3-0.2-0.8-0.3-1.5-0.3c-0.5,0-1.2,0.1-1.9,0.2v-1c0.8-0.3,1.6-0.4,2.4-0.4c1.8,0,2.8,0.8,2.8,2.4v5.8h-1.1
		l-0.1-0.7h-0.1C190.6,31.7,189.9,31.9,189,31.9z M189.4,30.9c0.7,0,1.3-0.2,1.7-0.5v-2.2l-1.8,0.2c-0.5,0.1-0.8,0.2-1,0.4
		c-0.2,0.2-0.3,0.5-0.3,0.9c0,0.4,0.1,0.7,0.4,0.9C188.6,30.8,188.9,30.9,189.4,30.9z"/>
	<path class="st1" d="M194.6,31.8V20.3h1.4v11.5H194.6z"/>
	<path class="st1" d="M204.4,31.9c-0.7,0-1.3-0.2-1.8-0.6c-0.4-0.4-0.7-0.9-0.7-1.7c0-1.3,0.8-2.1,2.4-2.3l2.1-0.3v-0.7
		c0-0.6-0.1-1-0.4-1.2c-0.3-0.2-0.8-0.3-1.5-0.3c-0.5,0-1.2,0.1-1.9,0.2v-1c0.8-0.3,1.6-0.4,2.4-0.4c1.8,0,2.8,0.8,2.8,2.4v5.8h-1.1
		l-0.1-0.7h-0.1C205.9,31.7,205.2,31.9,204.4,31.9z M204.7,30.9c0.7,0,1.3-0.2,1.7-0.5v-2.2l-1.8,0.2c-0.5,0.1-0.8,0.2-1,0.4
		c-0.2,0.2-0.3,0.5-0.3,0.9c0,0.4,0.1,0.7,0.4,0.9C203.9,30.8,204.3,30.9,204.7,30.9z"/>
	<path class="st1" d="M211.9,31.9c-1.1,0-1.9-0.2-2.6-0.6v-1.1c0.8,0.3,1.6,0.5,2.4,0.5c1.1,0,1.7-0.4,1.7-1.1
		c0-0.3-0.1-0.6-0.3-0.8s-0.5-0.3-1-0.5l-0.8-0.2c-0.6-0.2-1.1-0.4-1.5-0.8c-0.3-0.3-0.5-0.8-0.5-1.5c0-0.7,0.2-1.3,0.7-1.7
		c0.5-0.4,1.2-0.6,2.1-0.6c0.8,0,1.6,0.2,2.2,0.5v1.1c-0.6-0.3-1.3-0.4-2.1-0.4c-1,0-1.5,0.4-1.5,1.1c0,0.3,0.1,0.6,0.3,0.7
		c0.2,0.2,0.5,0.3,0.9,0.4l0.8,0.2c0.8,0.2,1.4,0.5,1.7,0.8c0.3,0.3,0.5,0.8,0.5,1.5c0,0.8-0.3,1.4-0.8,1.8
		C213.5,31.7,212.8,31.9,211.9,31.9z"/>
	<path class="st1" d="M218.5,31.9c-1.1,0-1.9-0.2-2.6-0.6v-1.1c0.8,0.3,1.6,0.5,2.4,0.5c1.1,0,1.7-0.4,1.7-1.1
		c0-0.3-0.1-0.6-0.3-0.8s-0.5-0.3-1-0.5l-0.8-0.2c-0.6-0.2-1.1-0.4-1.5-0.8c-0.3-0.3-0.5-0.8-0.5-1.5c0-0.7,0.2-1.3,0.7-1.7
		c0.5-0.4,1.2-0.6,2.1-0.6c0.8,0,1.6,0.2,2.2,0.5v1.1c-0.6-0.3-1.3-0.4-2.1-0.4c-1,0-1.5,0.4-1.5,1.1c0,0.3,0.1,0.6,0.3,0.7
		c0.2,0.2,0.5,0.3,0.9,0.4l0.8,0.2c0.8,0.2,1.4,0.5,1.7,0.8c0.3,0.3,0.5,0.8,0.5,1.5c0,0.8-0.3,1.4-0.8,1.8
		C220,31.7,219.3,31.9,218.5,31.9z"/>
	<path class="st1" d="M226.3,31.9c-1.2,0-2.2-0.4-2.8-1.1s-1-1.7-1-2.9v-0.2c0-1.3,0.3-2.3,1-3s1.5-1,2.5-1c2.1,0,3.2,1.3,3.2,3.8
		v0.8h-5.3c0,0.9,0.3,1.6,0.7,2s1.1,0.6,1.9,0.6c0.9,0,1.7-0.2,2.5-0.6v1C228.3,31.7,227.4,31.9,226.3,31.9z M225.9,24.8
		c-0.5,0-1,0.2-1.4,0.5s-0.6,1-0.7,1.8h3.9c0-0.8-0.2-1.4-0.5-1.8S226.5,24.8,225.9,24.8z"/>
	<path class="st1" d="M233.4,31.9c-1.4,0-2.1-0.6-2.1-2V25h-1.1v-1.1h1.1V22h1.4v1.9h2V25h-2v4.8c0,0.4,0.1,0.7,0.2,0.8
		c0.2,0.2,0.5,0.2,0.9,0.2c0.3,0,0.7,0,1-0.1v0.9C234.3,31.8,233.9,31.9,233.4,31.9z"/>
	<path class="st1" d="M238.4,31.9c-1.1,0-1.9-0.2-2.6-0.6v-1.1c0.8,0.3,1.6,0.5,2.4,0.5c1.1,0,1.7-0.4,1.7-1.1
		c0-0.3-0.1-0.6-0.3-0.8s-0.5-0.3-1-0.5l-0.8-0.2c-0.6-0.2-1.1-0.4-1.5-0.8c-0.3-0.3-0.5-0.8-0.5-1.5c0-0.7,0.2-1.3,0.7-1.7
		c0.5-0.4,1.2-0.6,2.1-0.6c0.8,0,1.6,0.2,2.2,0.5v1.1c-0.6-0.3-1.3-0.4-2.1-0.4c-1,0-1.5,0.4-1.5,1.1c0,0.3,0.1,0.6,0.3,0.7
		c0.2,0.2,0.5,0.3,0.9,0.4l0.8,0.2c0.8,0.2,1.4,0.5,1.7,0.8c0.3,0.3,0.5,0.8,0.5,1.5c0,0.8-0.3,1.4-0.8,1.8
		C240,31.7,239.3,31.9,238.4,31.9z"/>
	<path class="st1" d="M247.1,31.8v-8h1.3v0.7h0.1c0.8-0.6,1.6-0.8,2.4-0.8c0.9,0,1.5,0.3,1.9,0.9h0.1c0.9-0.6,1.8-0.9,2.6-0.9
		c1.5,0,2.2,0.7,2.2,2.2v5.9h-1.3v-5.6c0-0.5-0.1-0.8-0.3-1c-0.2-0.2-0.6-0.3-1.1-0.3c-0.5,0-1.2,0.2-1.9,0.5c0,0.2,0,0.3,0,0.5v5.9
		h-1.4v-5.6c0-0.5-0.1-0.8-0.3-1c-0.2-0.2-0.6-0.3-1.1-0.3c-0.6,0-1.2,0.2-1.9,0.5v6.4L247.1,31.8L247.1,31.8z"/>
	<path class="st1" d="M262.2,31.9c-0.8,0-1.4-0.2-1.8-0.6s-0.6-1-0.6-1.7v-5.8h1.3v5.5c0,0.5,0.1,0.9,0.3,1.1
		c0.2,0.2,0.6,0.3,1.2,0.3c0.6,0,1.3-0.2,2-0.6v-6.4h1.4v8h-1.2l-0.2-0.7h-0.1C263.9,31.7,263.1,31.9,262.2,31.9z"/>
	<path class="st1" d="M268.3,31.8V20.3h1.4v11.5H268.3z"/>
	<path class="st1" d="M274.4,31.9c-1.4,0-2.1-0.6-2.1-2V25h-1.1v-1.1h1.1V22h1.4v1.9h2V25h-2v4.8c0,0.4,0.1,0.7,0.2,0.8
		c0.2,0.2,0.5,0.2,0.9,0.2c0.3,0,0.7,0,1-0.1v0.9C275.3,31.8,274.9,31.9,274.4,31.9z"/>
	<path class="st1" d="M277.4,22.3v-1.4h1.4v1.4H277.4z M277.4,31.8v-8h1.4v8L277.4,31.8L277.4,31.8z"/>
	<path class="st1" d="M287.8,31.9c-1.4,0-2.1-0.6-2.1-2V25h-1.1v-1.1h1.1V22h1.4v1.9h2V25h-2v4.8c0,0.4,0.1,0.7,0.2,0.8
		c0.2,0.2,0.5,0.2,0.9,0.2c0.3,0,0.7,0,1-0.1v0.9C288.7,31.8,288.2,31.9,287.8,31.9z"/>
	<path class="st1" d="M290.7,31.8v-8h1.3v0.9h0.1c0.2-0.3,0.5-0.5,0.9-0.7c0.4-0.2,0.8-0.3,1.2-0.3c0.2,0,0.4,0,0.5,0.1V25
		c-0.2,0-0.4,0-0.6,0c-0.8,0-1.4,0.2-2.1,0.6v6.2L290.7,31.8L290.7,31.8z"/>
	<path class="st1" d="M298.1,31.9c-0.7,0-1.3-0.2-1.8-0.6c-0.4-0.4-0.7-0.9-0.7-1.7c0-1.3,0.8-2.1,2.4-2.3l2.1-0.3v-0.7
		c0-0.6-0.1-1-0.4-1.2c-0.3-0.2-0.8-0.3-1.5-0.3c-0.5,0-1.2,0.1-1.9,0.2v-1c0.8-0.3,1.6-0.4,2.4-0.4c1.8,0,2.8,0.8,2.8,2.4v5.8h-1.1
		l-0.1-0.7h-0.1C299.7,31.7,299,31.9,298.1,31.9z M298.4,30.9c0.7,0,1.3-0.2,1.7-0.5v-2.2l-1.8,0.2c-0.5,0.1-0.8,0.2-1,0.4
		c-0.2,0.2-0.3,0.5-0.3,0.9c0,0.4,0.1,0.7,0.4,0.9C297.7,30.8,298,30.9,298.4,30.9z"/>
	<path class="st1" d="M306.4,31.9c-0.4,0-0.8-0.1-1.2-0.2c-0.4-0.1-0.7-0.3-1-0.6s-0.6-0.7-0.8-1.2c-0.2-0.5-0.3-1.1-0.3-1.8v-0.2
		c0-1.4,0.3-2.4,1-3.1c0.6-0.7,1.5-1,2.6-1c0.8,0,1.5,0.2,2,0.5v-3.8h1.4v11.5h-1.2l-0.1-0.6h-0.1C308.2,31.7,307.4,31.9,306.4,31.9
		z M306.9,30.8c0.7,0,1.3-0.2,1.8-0.6v-4.9c-0.4-0.3-1-0.5-1.9-0.5c-0.8,0-1.3,0.2-1.7,0.7s-0.6,1.2-0.6,2.2V28c0,1,0.2,1.7,0.6,2.2
		C305.6,30.6,306.2,30.8,306.9,30.8z"/>
	<path class="st1" d="M312.3,22.3v-1.4h1.4v1.4H312.3z M312.3,31.8v-8h1.4v8L312.3,31.8L312.3,31.8z"/>
	<path class="st1" d="M315.9,31.8v-8h1.3v0.7h0.1c0.8-0.6,1.7-0.8,2.7-0.8c0.8,0,1.4,0.2,1.7,0.5s0.6,0.9,0.6,1.7v5.9h-1.3v-5.6
		c0-0.5-0.1-0.8-0.3-1c-0.2-0.2-0.6-0.3-1.2-0.3c-0.6,0-1.4,0.2-2.1,0.5v6.4L315.9,31.8L315.9,31.8z"/>
	<path class="st1" d="M327.2,34.1c-2.4,0-3.6-0.6-3.6-1.7c0-0.4,0.1-0.7,0.4-1c0.3-0.3,0.6-0.5,1.1-0.6v-0.1c-0.5-0.2-0.8-0.5-0.8-1
		c0-0.5,0.3-1,0.9-1.4c-0.7-0.4-1-1.1-1-1.9v-0.2c0-0.8,0.3-1.4,0.8-1.9c0.6-0.5,1.3-0.7,2.2-0.7c0.4,0,0.8,0,1.2,0.1h2.7v1h-1.4
		c0.3,0.3,0.5,0.8,0.5,1.3v0.2c0,0.8-0.3,1.4-0.8,1.9c-0.6,0.4-1.3,0.6-2.2,0.6c-0.5,0-0.9-0.1-1.3-0.2c-0.2,0.2-0.3,0.4-0.3,0.6
		c0,0.2,0.1,0.3,0.2,0.4s0.3,0.1,0.6,0.1h2.2c1.7,0,2.5,0.7,2.5,2C331,33.4,329.7,34.1,327.2,34.1z M327.1,33.1
		c0.9,0,1.5-0.1,1.9-0.2c0.4-0.2,0.5-0.4,0.5-0.8c0-0.3-0.1-0.6-0.3-0.7c-0.2-0.1-0.6-0.2-1.1-0.2H326c-0.6,0.2-1,0.6-1,1.2
		c0,0.3,0.2,0.6,0.5,0.7C325.8,33,326.4,33.1,327.1,33.1z M327.2,27.8c1.1,0,1.7-0.5,1.7-1.4v-0.2c0-0.5-0.1-0.9-0.4-1.1
		s-0.7-0.4-1.2-0.4c-0.5,0-0.9,0.1-1.2,0.4c-0.3,0.3-0.4,0.6-0.4,1.1v0.2C325.5,27.3,326.1,27.8,327.2,27.8z"/>
	<path class="st1" d="M338.6,31.9c-1.1,0-1.9-0.2-2.6-0.6v-1.1c0.8,0.3,1.6,0.5,2.4,0.5c1.1,0,1.7-0.4,1.7-1.1
		c0-0.3-0.1-0.6-0.3-0.8s-0.5-0.3-1-0.5l-0.8-0.2c-0.6-0.2-1.1-0.4-1.5-0.8c-0.3-0.3-0.5-0.8-0.5-1.5c0-0.7,0.2-1.3,0.7-1.7
		c0.5-0.4,1.2-0.6,2.1-0.6c0.8,0,1.6,0.2,2.2,0.5v1.1c-0.6-0.3-1.3-0.4-2.1-0.4c-1,0-1.5,0.4-1.5,1.1c0,0.3,0.1,0.6,0.3,0.7
		c0.2,0.2,0.5,0.3,0.9,0.4l0.8,0.2c0.8,0.2,1.4,0.5,1.7,0.8c0.3,0.3,0.5,0.8,0.5,1.5c0,0.8-0.3,1.4-0.8,1.8
		C340.2,31.7,339.5,31.9,338.6,31.9z"/>
	<path class="st1" d="M343.6,34.2c-0.4,0-0.7-0.1-1-0.2v-1c0.3,0,0.5,0.1,0.8,0.1c0.8,0,1.4-0.2,1.6-0.7l0.4-1l-3.1-7.4h1.5l2.2,5.6
		h0.1l2.1-5.6h1.3l-3.2,8.7c-0.3,0.7-0.6,1.2-0.9,1.4C344.9,34.1,344.4,34.2,343.6,34.2z"/>
	<path class="st1" d="M352.8,31.9c-1.1,0-1.9-0.2-2.6-0.6v-1.1c0.8,0.3,1.6,0.5,2.4,0.5c1.1,0,1.7-0.4,1.7-1.1
		c0-0.3-0.1-0.6-0.3-0.8s-0.5-0.3-1-0.5l-0.8-0.2c-0.6-0.2-1.1-0.4-1.5-0.8c-0.3-0.3-0.5-0.8-0.5-1.5c0-0.7,0.2-1.3,0.7-1.7
		c0.5-0.4,1.2-0.6,2.1-0.6c0.8,0,1.6,0.2,2.2,0.5v1.1c-0.6-0.3-1.3-0.4-2.1-0.4c-1,0-1.5,0.4-1.5,1.1c0,0.3,0.1,0.6,0.3,0.7
		c0.2,0.2,0.5,0.3,0.9,0.4l0.8,0.2c0.8,0.2,1.4,0.5,1.7,0.8c0.3,0.3,0.5,0.8,0.5,1.5c0,0.8-0.3,1.4-0.8,1.8
		C354.4,31.7,353.7,31.9,352.8,31.9z"/>
	<path class="st1" d="M359.9,31.9c-1.4,0-2.1-0.6-2.1-2V25h-1.1v-1.1h1.1V22h1.4v1.9h2V25h-2v4.8c0,0.4,0.1,0.7,0.2,0.8
		c0.2,0.2,0.5,0.2,0.9,0.2c0.3,0,0.7,0,1-0.1v0.9C360.8,31.8,360.3,31.9,359.9,31.9z"/>
	<path class="st1" d="M366.1,31.9c-1.2,0-2.2-0.4-2.8-1.1s-1-1.7-1-2.9v-0.2c0-1.3,0.3-2.3,1-3s1.5-1,2.5-1c2.1,0,3.2,1.3,3.2,3.8
		v0.8h-5.3c0,0.9,0.3,1.6,0.7,2s1.1,0.6,1.9,0.6c0.9,0,1.7-0.2,2.5-0.6v1C368.1,31.7,367.2,31.9,366.1,31.9z M365.8,24.8
		c-0.5,0-1,0.2-1.4,0.5s-0.6,1-0.7,1.8h3.9c0-0.8-0.2-1.4-0.5-1.8S366.4,24.8,365.8,24.8z"/>
	<path class="st1" d="M370.7,31.8v-8h1.3v0.7h0.1c0.8-0.6,1.6-0.8,2.4-0.8c0.9,0,1.5,0.3,1.9,0.9h0.1c0.9-0.6,1.8-0.9,2.6-0.9
		c1.5,0,2.2,0.7,2.2,2.2v5.9H380v-5.6c0-0.5-0.1-0.8-0.3-1c-0.2-0.2-0.6-0.3-1.1-0.3c-0.5,0-1.2,0.2-1.9,0.5c0,0.2,0,0.3,0,0.5v5.9
		h-1.4v-5.6c0-0.5-0.1-0.8-0.3-1c-0.2-0.2-0.6-0.3-1.1-0.3c-0.6,0-1.2,0.2-1.9,0.5v6.4L370.7,31.8L370.7,31.8z"/>
</g>
</svg>
