<?xml version="1.0" encoding="utf-8"?>
<!-- Generator: Adobe Illustrator 26.0.3, SVG Export Plug-In . SVG Version: 6.00 Build 0)  -->
<svg version="1.1" id="레이어_1" xmlns="http://www.w3.org/2000/svg" xmlns:xlink="http://www.w3.org/1999/xlink" x="0px"
	 y="0px" viewBox="0 0 18 18" style="enable-background:new 0 0 18 18;" xml:space="preserve">
<style type="text/css">
	.st0{fill:#FFFFFF;}
</style>
<g>
	<path class="st0" d="M5.669,11.012c0,0,0-3.128,0-3.685c0-0.85-0.672-0.962-0.672-0.962V4.89c0,0,1.951,0.119,2.065,2.483
		c0,0.682,0,3.638,0,3.638H5.669z"/>
	<path class="st0" d="M7.982,9.035c0-0.296,0.059-0.576,0.178-0.84C8.277,7.931,8.451,7.69,8.682,7.472
		c0.224-0.207,0.479-0.365,0.763-0.476c0.284-0.11,0.583-0.165,0.896-0.165c0.319,0,0.623,0.055,0.91,0.165
		c0.287,0.111,0.541,0.269,0.762,0.476c0.224,0.21,0.394,0.448,0.512,0.714C12.641,8.453,12.7,8.736,12.7,9.035
		c0,0.299-0.059,0.582-0.175,0.848c-0.117,0.267-0.288,0.505-0.512,0.714c-0.222,0.207-0.475,0.366-0.762,0.476
		c-0.288,0.11-0.591,0.166-0.91,0.166c-0.313,0-0.612-0.055-0.896-0.166c-0.284-0.11-0.539-0.269-0.763-0.476
		c-0.23-0.218-0.405-0.458-0.523-0.722C8.041,9.611,7.982,9.331,7.982,9.035z M9.397,9.026c0,0.267,0.092,0.494,0.277,0.682
		C9.858,9.896,10.08,9.99,10.34,9.99c0.264,0,0.489-0.094,0.677-0.282c0.188-0.188,0.282-0.415,0.282-0.682
		c0-0.267-0.094-0.494-0.282-0.682c-0.188-0.188-0.413-0.282-0.677-0.282c-0.259,0-0.481,0.094-0.665,0.282
		C9.489,8.532,9.397,8.759,9.397,9.026z"/>
	<path class="st0" d="M4.138,7.497C3.83,7.141,3.315,6.832,2.821,6.848C2.242,6.867,1.752,6.974,1.383,7.289H1.365V5.014H0v5.954
		h1.365v-0.289h0.017c0.294,0.224,0.691,0.387,1.236,0.387c0.602,0,1.154-0.171,1.514-0.577c0.36-0.406,0.539-0.79,0.539-1.46
		C4.671,8.41,4.446,7.853,4.138,7.497z M2.969,9.717C2.781,9.905,2.556,9.999,2.292,9.999c-0.259,0-0.481-0.094-0.665-0.282
		C1.442,9.529,1.35,9.302,1.35,9.035c0-0.267,0.092-0.494,0.277-0.682c0.184-0.188,0.406-0.282,0.665-0.282
		c0.264,0,0.489,0.094,0.677,0.282C3.157,8.54,3.251,8.768,3.251,9.035C3.251,9.302,3.157,9.529,2.969,9.717z"/>
	<path class="st0" d="M16.644,6.873v0.326h-0.018c-0.33-0.3-0.667-0.43-1.202-0.43c-0.598,0-1.121,0.199-1.487,0.627
		c-0.367,0.427-0.55,1.004-0.55,1.73c0,0.648,0.164,1.164,0.494,1.55c0.329,0.385,0.815,0.592,1.375,0.592
		c0.604,0,1.059-0.156,1.37-0.586h0.018v0.277c0.001,0.72-0.763,1.085-1.318,1.03v1.081c0.665,0.096,1.455,0.058,2.01-0.468
		C17.802,12.157,18,11.519,18,10.474V6.873H16.644z M16.382,9.717c-0.188,0.188-0.413,0.282-0.677,0.282
		c-0.259,0-0.481-0.094-0.665-0.282c-0.185-0.188-0.277-0.415-0.277-0.682c0-0.267,0.092-0.494,0.277-0.682
		c0.184-0.188,0.406-0.282,0.665-0.282c0.263,0,0.489,0.094,0.677,0.282c0.188,0.188,0.282,0.415,0.282,0.682
		C16.664,9.302,16.57,9.529,16.382,9.717z"/>
</g>
</svg>
