<?xml version="1.0" encoding="utf-8"?>
<!-- Generator: Adobe Illustrator 26.0.3, SVG Export Plug-In . SVG Version: 6.00 Build 0)  -->
<svg version="1.1" id="레이어_1" xmlns="http://www.w3.org/2000/svg" xmlns:xlink="http://www.w3.org/1999/xlink" x="0px"
	 y="0px" viewBox="0 0 18 18" style="enable-background:new 0 0 18 18;" xml:space="preserve">
<style type="text/css">
	.st0{fill:#FFFFFF;}
</style>
<path class="st0" d="M9.002,4.385c-2.554,0-4.614,2.06-4.614,4.615s2.06,4.615,4.614,4.615s4.614-2.06,4.614-4.615
	S11.556,4.385,9.002,4.385z M9.002,12c-1.65,0-3-1.346-3-3s1.345-3,3-3s3,1.346,3,3S10.652,12,9.002,12L9.002,12z M14.881,4.196
	c0,0.598-0.482,1.076-1.076,1.076c-0.598,0-1.076-0.482-1.076-1.076S13.21,3.12,13.805,3.12S14.881,3.602,14.881,4.196z
	 M17.937,5.289c-0.068-1.442-0.398-2.719-1.454-3.772c-1.052-1.052-2.329-1.382-3.771-1.454c-1.486-0.084-5.939-0.084-7.425,0
	C3.85,0.132,2.573,0.461,1.517,1.513s-1.381,2.33-1.454,3.772c-0.084,1.486-0.084,5.94,0,7.427c0.068,1.442,0.398,2.719,1.454,3.772
	s2.329,1.382,3.771,1.454c1.486,0.084,5.939,0.084,7.425,0c1.442-0.068,2.719-0.398,3.771-1.454c1.052-1.052,1.381-2.33,1.454-3.772
	C18.021,11.225,18.021,6.775,17.937,5.289L17.937,5.289z M16.017,14.306c-0.313,0.787-0.92,1.394-1.711,1.711
	c-1.185,0.47-3.996,0.361-5.305,0.361s-4.124,0.104-5.305-0.361c-0.787-0.313-1.393-0.92-1.711-1.711
	C1.517,13.121,1.625,10.309,1.625,9S1.521,4.875,1.987,3.694C2.3,2.907,2.906,2.3,3.697,1.983c1.185-0.47,3.996-0.361,5.305-0.361
	s4.124-0.104,5.305,0.361c0.787,0.313,1.393,0.92,1.711,1.711c0.47,1.185,0.361,3.996,0.361,5.306S16.487,13.125,16.017,14.306z"/>
</svg>
