<?xml version="1.0" encoding="utf-8"?>
<!-- Generator: Adobe Illustrator 26.0.1, SVG Export Plug-In . SVG Version: 6.00 Build 0)  -->
<svg version="1.1" id="레이어_1" xmlns="http://www.w3.org/2000/svg" xmlns:xlink="http://www.w3.org/1999/xlink" x="0px"
	 y="0px" viewBox="0 0 172.831 25" style="enable-background:new 0 0 172.831 25;" xml:space="preserve">
<style type="text/css">
	.st0{fill:#3D2A2E;}
	.st1{fill:#FFE900;}
	.st2{fill:#3E2A2E;}
	.st3{opacity:0.5;fill:#A87E84;}
</style>
<g>
	<g>
		<g>
			<g>
				<path class="st0" d="M0,18.006V5.069h1.186v6.863l6.678-6.863h1.525l-5.251,5.366l5.866,7.571H8.527l-5.18-6.784l-2.161,2.22
					v4.564H0z"/>
				<path class="st0" d="M17.338,16.653c-0.492,0.534-1.024,0.931-1.599,1.194c-0.574,0.264-1.192,0.396-1.853,0.396
					c-0.943,0-1.694-0.246-2.252-0.738c-0.559-0.492-0.839-1.148-0.839-1.967c0-0.533,0.127-0.998,0.382-1.394
					c0.254-0.398,0.624-0.712,1.111-0.942c0.557-0.251,1.483-0.426,2.784-0.524c0.251-0.019,0.442-0.036,0.572-0.048
					c0.075-0.017,0.178-0.036,0.307-0.061c0.89-0.182,1.335-0.565,1.335-1.151c0-0.726-0.179-1.246-0.54-1.559
					c-0.36-0.314-0.953-0.47-1.779-0.47c-0.837,0-1.478,0.174-1.922,0.523c-0.445,0.349-0.686,0.865-0.721,1.55l-1.062-0.009
					c0.023-0.932,0.365-1.667,1.027-2.208c0.662-0.542,1.554-0.812,2.678-0.812c1.119,0,1.968,0.24,2.548,0.72
					c0.579,0.48,0.868,1.183,0.868,2.107v5.094c0,0.386,0.047,0.627,0.141,0.721c0.094,0.093,0.27,0.14,0.527,0.14
					c0.083,0,0.152-0.001,0.211-0.004c0.059-0.003,0.12-0.007,0.185-0.013v0.808c-0.135,0.03-0.27,0.051-0.404,0.066
					c-0.135,0.015-0.258,0.022-0.369,0.022c-0.445,0-0.779-0.109-1.002-0.324c-0.222-0.217-0.333-0.54-0.333-0.968V16.653z
					 M17.267,13.114c-0.286,0.105-0.654,0.191-1.102,0.255c-0.448,0.064-1.169,0.123-2.165,0.176
					c-0.69,0.18-1.212,0.439-1.563,0.773c-0.351,0.333-0.527,0.734-0.527,1.202c0,0.533,0.189,0.957,0.568,1.274
					c0.377,0.316,0.89,0.474,1.54,0.474c0.989,0,1.778-0.256,2.367-0.768c0.589-0.513,0.883-1.211,0.883-2.095V13.114z"/>
				<path class="st0" d="M20.904,18.006V5.069h1.079v8.133l4.663-4.532h1.38l-3.523,3.416l3.953,5.919h-1.235l-3.471-5.199
					l-1.766,1.696v3.504H20.904z"/>
				<path class="st0" d="M35.683,16.653c-0.491,0.534-1.025,0.931-1.598,1.194c-0.574,0.264-1.192,0.396-1.853,0.396
					c-0.943,0-1.694-0.246-2.254-0.738c-0.559-0.492-0.838-1.148-0.838-1.967c0-0.533,0.126-0.998,0.382-1.394
					c0.254-0.398,0.624-0.712,1.11-0.942c0.555-0.251,1.484-0.426,2.784-0.524c0.252-0.019,0.442-0.036,0.571-0.048
					c0.076-0.017,0.179-0.036,0.308-0.061c0.889-0.182,1.334-0.565,1.334-1.151c0-0.726-0.18-1.246-0.54-1.559
					c-0.36-0.314-0.952-0.47-1.778-0.47c-0.838,0-1.478,0.174-1.922,0.523c-0.446,0.349-0.686,0.865-0.721,1.55l-1.063-0.009
					c0.025-0.932,0.366-1.667,1.028-2.208c0.661-0.542,1.554-0.812,2.678-0.812c1.118,0,1.968,0.24,2.547,0.72
					c0.58,0.48,0.87,1.183,0.87,2.107v5.094c0,0.386,0.047,0.627,0.14,0.721c0.093,0.093,0.269,0.14,0.527,0.14
					c0.081,0,0.152-0.001,0.21-0.004c0.058-0.003,0.121-0.007,0.185-0.013v0.808c-0.135,0.03-0.269,0.051-0.404,0.066
					c-0.134,0.015-0.257,0.022-0.369,0.022c-0.445,0-0.779-0.109-1.001-0.324c-0.223-0.217-0.334-0.54-0.334-0.968V16.653z
					 M35.614,13.114c-0.287,0.105-0.654,0.191-1.102,0.255c-0.448,0.064-1.169,0.123-2.165,0.176
					c-0.691,0.18-1.213,0.439-1.564,0.773c-0.351,0.333-0.527,0.734-0.527,1.202c0,0.533,0.189,0.957,0.566,1.274
					c0.379,0.316,0.892,0.474,1.542,0.474c0.989,0,1.779-0.256,2.367-0.768c0.589-0.513,0.883-1.211,0.883-2.095V13.114z"/>
				<path class="st0" d="M38.784,13.351c0-1.563,0.373-2.773,1.121-3.632c0.746-0.857,1.798-1.285,3.156-1.285
					c1.365,0,2.423,0.428,3.176,1.285c0.751,0.859,1.128,2.069,1.128,3.632c0,1.552-0.376,2.755-1.125,3.61
					c-0.75,0.855-1.809,1.282-3.18,1.282c-1.358,0-2.411-0.425-3.156-1.278C39.157,16.113,38.784,14.908,38.784,13.351z
					 M39.899,13.351c0,1.252,0.276,2.225,0.831,2.916c0.552,0.692,1.329,1.036,2.331,1.036c1.014,0,1.795-0.341,2.344-1.027
					c0.552-0.686,0.826-1.659,0.826-2.925c0-1.264-0.274-2.241-0.826-2.929c-0.55-0.688-1.331-1.032-2.344-1.032
					c-1.002,0-1.778,0.345-2.331,1.036C40.176,11.118,39.899,12.092,39.899,13.351z"/>
			</g>
			<g>
				<path class="st0" d="M50.169,18.006V7.38h-3.837v-2.31h10.309v2.31H52.83v10.626H50.169z"/>
				<path class="st0" d="M61.208,16.82c-0.322,0.498-0.743,0.878-1.265,1.138c-0.521,0.259-1.127,0.391-1.817,0.391
					c-0.926,0-1.638-0.264-2.139-0.79c-0.5-0.527-0.75-1.277-0.75-2.25c0-0.901,0.25-1.589,0.75-2.063
					c0.501-0.475,1.329-0.799,2.481-0.976c0.264-0.041,0.61-0.087,1.037-0.139c1.083-0.141,1.625-0.454,1.625-0.94
					c0-0.386-0.12-0.662-0.36-0.83c-0.241-0.167-0.641-0.25-1.203-0.25c-0.516,0-0.911,0.103-1.187,0.307
					c-0.274,0.206-0.412,0.499-0.412,0.879v0.14h-2.389v-0.175c0-0.977,0.346-1.745,1.036-2.306
					c0.691-0.558,1.644-0.839,2.864-0.839c1.335,0,2.358,0.232,3.068,0.695c0.713,0.461,1.068,1.129,1.068,2.002v5.428
					c0,0.398,0.041,0.695,0.123,0.892c0.081,0.195,0.219,0.343,0.412,0.443v0.43h-2.66c-0.088-0.164-0.156-0.345-0.202-0.545
					C61.241,17.262,61.214,17.049,61.208,16.82z M61.165,13.308c-0.416,0.193-0.894,0.349-1.436,0.466
					c-0.542,0.117-0.822,0.178-0.839,0.184c-0.45,0.128-0.765,0.29-0.944,0.484c-0.179,0.193-0.269,0.459-0.269,0.798
					c0,0.351,0.115,0.631,0.343,0.839c0.228,0.208,0.535,0.311,0.921,0.311c0.691,0,1.234-0.194,1.63-0.584
					c0.395-0.389,0.593-0.92,0.593-1.593V13.308z"/>
				<path class="st0" d="M65.934,18.006V5.069h2.555v12.937H65.934z"/>
				<path class="st0" d="M70.844,18.006V5.069h2.485v6.789l3.039-3.399h3.074l-3.329,3.539l3.531,6.008h-3.065l-2.284-4.066
					l-0.966,1.046v3.021H70.844z"/>
			</g>
		</g>
	</g>
	<path class="st1" d="M161.643,0H95.352c-6.204,0-11.233,5.029-11.233,11.234v0.284c0,4.269,2.38,7.982,5.887,9.883
		c-0.083,0.407-0.351,1.047-0.762,1.601c-0.476,0.64-1.076,1.385-1.351,1.679c-0.274,0.293-0.025,0.428,0.801,0.216
		c0.824-0.216,2.555-0.882,3.85-1.628c0.581-0.334,0.92-0.528,1.16-0.649c0.539,0.079,1.088,0.134,1.649,0.134h66.291
		c6.204,0,11.235-5.03,11.235-11.235v-0.284C172.878,5.029,167.847,0,161.643,0z"/>
	<g>
		<polygon class="st1" points="129.293,11.72 129.291,11.722 129.293,11.721 		"/>
		<path class="st1" d="M128.847,12.875c0.002,0.005,0.005,0.008,0.008,0.013l-0.015-0.028
			C128.842,12.866,128.844,12.87,128.847,12.875z"/>
	</g>
	<path class="st2" d="M95.533,0.033h-0.195c-6.19,0-11.209,5.018-11.209,11.209v0.284c0,4.259,2.375,7.964,5.874,9.861
		c-0.083,0.406-0.349,1.043-0.761,1.596c-0.475,0.638-1.073,1.381-1.348,1.674c-0.273,0.294-0.025,0.427,0.798,0.215
		c0.824-0.215,2.551-0.879,3.843-1.624c0.579-0.335,0.918-0.526,1.158-0.648c0.538,0.08,1.084,0.134,1.646,0.134h0.195
		c6.189,0,11.209-5.019,11.209-11.209v-0.284C106.742,5.051,101.722,0.033,95.533,0.033z M89.537,11.054h2.403v2.381h-2.403
		c-0.385,0-0.709-0.108-0.964-0.323c-0.254-0.211-0.376-0.497-0.376-0.877c0-0.364,0.125-0.644,0.382-0.858
		C88.84,11.16,89.154,11.054,89.537,11.054z M100.815,12.118c-0.726,0.884-1.794,1.332-3.174,1.332h-1.627v-2.382h0.893
		c0.667,0,1.167-0.175,1.528-0.536c0.334-0.337,0.504-0.799,0.504-1.377C98.91,8.626,98.721,8.2,98.375,7.887
		c-0.346-0.31-0.787-0.467-1.311-0.467h-1.74v8.885c0,0.437-0.124,0.808-0.367,1.106c-0.242,0.293-0.57,0.436-1.001,0.436
		c-0.428,0-0.76-0.144-1.014-0.439c-0.255-0.302-0.379-0.663-0.379-1.102V6.722c0-0.537,0.146-0.945,0.447-1.247
		c0.295-0.298,0.715-0.449,1.25-0.449h2.996c1.413,0,2.49,0.353,3.201,1.048c0.262,0.251,0.497,0.547,0.697,0.883
		c0.202,0.336,0.357,0.695,0.464,1.066c0.104,0.373,0.157,0.75,0.157,1.119C101.774,10.359,101.452,11.36,100.815,12.118z"/>
	<g>
		<path class="st0" d="M119.062,11.663h-6.715c-0.659,0-1.28,0-1.939,0.051v-1.33c0.659,0.051,1.28,0.051,1.939,0.051h6.715
			c0.658,0,1.279,0,1.938-0.051v1.33C120.341,11.663,119.72,11.663,119.062,11.663z M112.79,7.241h-0.038
			c-0.443,0-0.773,0-1.217,0.051V5.987c0.443,0.051,0.773,0.051,1.217,0.051h5.891c0.443,0,0.773,0,1.217-0.051v1.305
			c-0.444-0.051-0.824-0.051-1.267-0.051l-0.038,1.33h0.304c0.443,0,0.773,0,1.217-0.051v1.317
			c-0.444-0.051-0.824-0.051-1.268-0.051h-6.258c-0.443,0-0.773,0-1.216,0.051V8.521c0.443,0.051,0.773,0.051,1.216,0.051h0.266
			L112.79,7.241z M111.688,17.098v-2.926h6.182V13.55h-5.08c-0.355,0-0.747,0.013-1.102,0.051v-1.305
			c0.405,0.051,0.747,0.051,1.102,0.051h6.981c-0.051,0.316-0.064,0.634-0.064,0.95v1.963h-6.195v0.634h5.283
			c0.405,0,0.747,0,1.153-0.038v1.292c-0.418-0.051-0.735-0.051-1.153-0.051H111.688z M114.374,7.241l0.025,1.33h2.635l0.038-1.33
			H114.374z"/>
		<path class="st0" d="M126.141,7.773h-2.243c-0.418,0-0.722,0-1.14,0.051V6.329c0.418,0.051,0.722,0.051,1.14,0.051h3.864
			c-0.051,0.38-0.051,0.709-0.051,1.09v3.712h-3.371v2.09h1.179c1.001,0,2.623-0.177,3.408-0.316v1.356
			c-0.811,0.113-2.546,0.342-4.029,0.342h-2.141V9.813h3.383V7.773z M129.967,11.092h-0.735c-0.291,0-0.646,0-0.938,0.051V9.521
			c0.304,0.051,0.659,0.051,0.963,0.051h0.709V7.507c0-0.57-0.013-1.128-0.063-1.698h1.685c-0.051,0.57-0.051,1.128-0.051,1.698
			v7.931c0,0.57,0,1.128,0.051,1.698h-1.685c0.051-0.57,0.063-1.128,0.063-1.698V11.092z"/>
		<path class="st0" d="M141.861,15.869h-6.714c-0.659,0-1.28,0-1.939,0.051v-1.495c0.659,0.051,1.28,0.051,1.939,0.051h6.714
			c0.66,0,1.28,0,1.939-0.051v1.495C143.141,15.869,142.521,15.869,141.861,15.869z M139.366,7.19c0,2.04,1.976,3.738,4.054,4.231
			c-0.38,0.38-0.773,0.849-1.026,1.166c-1.394-0.456-3.066-1.558-3.902-2.977c-0.773,1.444-2.331,2.483-3.876,2.989
			c-0.254-0.304-0.634-0.747-1.077-1.203c2.242-0.608,4.079-2.116,4.079-4.206c0-0.329-0.013-0.722-0.051-1.051h1.849
			C139.366,6.456,139.366,6.874,139.366,7.19z"/>
		<path class="st0" d="M150.537,8.875h-1.203c0.152,1.28,1.584,2.344,2.863,2.648c-0.354,0.406-0.684,0.811-0.962,1.204
			c-0.963-0.317-2.154-1.141-2.699-1.951c-0.405,0.798-1.698,1.812-2.813,2.205c-0.355-0.419-0.671-0.76-1.115-1.166
			c1.609-0.519,2.939-1.52,3.003-2.939h-1.165c-0.368,0-0.634,0-1.001,0.051V7.545c0.367,0.051,0.633,0.051,1.001,0.051h4.091
			c0.368,0,0.634,0,1.002-0.051v1.381C151.171,8.875,150.905,8.875,150.537,8.875z M149.435,6.962h-1.901
			c-0.291,0-0.544-0.013-0.848,0.025V5.721c0.304,0.026,0.558,0.026,0.848,0.026h1.901c0.291,0,0.545,0,0.849-0.026v1.267
			C149.98,6.962,149.726,6.962,149.435,6.962z M146.787,16.946V14.45c0-0.304,0-0.659-0.051-0.963h1.685
			c-0.051,0.291-0.051,0.646-0.051,0.937v1.14h4.574c0.659,0,1.241,0,1.9-0.051v1.482c-0.659-0.051-1.241-0.051-1.9-0.051H146.787z
			 M154.617,12.765c0,0.431,0,0.848,0.051,1.28h-1.66c0.051-0.431,0.063-0.849,0.063-1.28V7.089c0-0.431-0.013-0.848-0.063-1.28
			h1.66c-0.051,0.431-0.051,0.849-0.051,1.28V12.765z"/>
		<path class="st0" d="M163.179,11.004c0.367-0.988,0.634-2.483,0.634-3.472h-5.271c-0.532,0-0.912,0-1.444,0.051V6.088
			c0.532,0.051,0.912,0.051,1.444,0.051h6.956c0,1.419-0.266,3.459-0.684,4.865c0.608,0,1.178,0,1.786-0.051v1.469
			c-0.659-0.051-1.28-0.051-1.938-0.051h-2.623v3.547c0,0.368,0,0.862,0.051,1.229h-1.723c0.051-0.393,0.051-0.837,0.051-1.229
			v-3.547h-2.47c-0.659,0-1.28,0-1.939,0.051v-1.469c0.659,0.051,1.28,0.051,1.939,0.051H163.179z"/>
	</g>
	<g>
		<path class="st3" d="M90.775,20.782c-3.233-1.752-5.429-5.176-5.429-9.112v-0.262c0-5.721,4.638-10.358,10.358-10.358h0.18
			c0.683,0,1.351,0.068,1.996,0.194c-0.855-0.229-1.752-0.351-2.678-0.351H95.02c-5.719,0-10.357,4.637-10.357,10.358v0.262
			c0,3.936,2.195,7.36,5.427,9.112L90.775,20.782z"/>
	</g>
</g>
</svg>
