<?xml version="1.0" encoding="utf-8"?>
<!-- Generator: Adobe Illustrator 26.2.1, SVG Export Plug-In . SVG Version: 6.00 Build 0)  -->
<svg version="1.1" id="레이어_1" xmlns="http://www.w3.org/2000/svg" xmlns:xlink="http://www.w3.org/1999/xlink" x="0px"
	 y="0px" viewBox="0 0 18 18" style="enable-background:new 0 0 18 18;" xml:space="preserve">
<style type="text/css">
	.st0{fill:#FFFFFF;}
</style>
<path class="st0" d="M5.451,15.213V6.829H2.664v8.384H5.451L5.451,15.213z M4.058,5.684c0.972,0,1.577-0.644,1.577-1.448
	C5.616,3.413,5.03,2.787,4.077,2.787C3.123,2.787,2.5,3.413,2.5,4.236c0,0.805,0.605,1.448,1.54,1.448H4.058L4.058,5.684z
	 M6.994,15.213H9.78v-4.682c0-0.25,0.018-0.501,0.092-0.68c0.201-0.501,0.66-1.019,1.43-1.019c1.008,0,1.412,0.769,1.412,1.896
	v4.485H15.5v-4.807c0-2.575-1.375-3.773-3.208-3.773c-1.503,0-2.163,0.84-2.53,1.412H9.78V6.829H6.994
	C7.03,7.615,6.994,15.213,6.994,15.213L6.994,15.213z"/>
</svg>
