<?xml version="1.0" encoding="utf-8"?>
<!-- Generator: Adobe Illustrator 26.2.1, SVG Export Plug-In . SVG Version: 6.00 Build 0)  -->
<svg version="1.1" id="레이어_1" xmlns="http://www.w3.org/2000/svg" xmlns:xlink="http://www.w3.org/1999/xlink" x="0px"
	 y="0px" viewBox="0 0 18 18" style="enable-background:new 0 0 18 18;" xml:space="preserve">
<g>
	<polygon points="6.578,8.439 7.615,8.439 7.096,6.966 	"/>
	<path d="M9,0.695c-4.971,0-9,3.177-9,7.096c0,2.534,1.685,4.757,4.219,6.012c-0.138,0.475-0.886,3.059-0.916,3.262
		c0,0-0.018,0.152,0.081,0.211c0.099,0.058,0.215,0.013,0.215,0.013c0.283-0.04,3.284-2.147,3.803-2.513
		C7.92,14.849,8.454,14.887,9,14.887c4.971,0,9-3.177,9-7.096C18,3.872,13.971,0.695,9,0.695z M4.543,9.772
		c0,0.273-0.233,0.496-0.519,0.496c-0.286,0-0.519-0.222-0.519-0.496V6.688h-0.81c-0.281,0-0.51-0.228-0.51-0.508
		c0-0.28,0.229-0.508,0.51-0.508h2.659c0.281,0,0.51,0.228,0.51,0.508c0,0.28-0.229,0.508-0.51,0.508h-0.81V9.772z M8.907,10.19
		c-0.102,0.047-0.216,0.072-0.33,0.072c-0.217,0-0.382-0.088-0.432-0.229L7.888,9.359l-1.583,0l-0.257,0.673
		c-0.05,0.141-0.215,0.229-0.432,0.229c-0.114,0-0.229-0.025-0.33-0.072c-0.143-0.066-0.281-0.248-0.123-0.737l1.242-3.269
		c0.088-0.249,0.353-0.505,0.691-0.512c0.339,0.008,0.605,0.264,0.693,0.513L9.03,9.451C9.188,9.942,9.05,10.124,8.907,10.19z
		 M11.531,10.192H9.865c-0.274,0-0.498-0.214-0.498-0.476V6.19c0-0.286,0.238-0.519,0.53-0.519c0.292,0,0.53,0.233,0.53,0.519v3.05
		h1.103c0.274,0,0.498,0.214,0.498,0.476C12.029,9.979,11.806,10.192,11.531,10.192z M15.596,9.801
		c-0.019,0.137-0.091,0.259-0.201,0.342c-0.091,0.069-0.199,0.105-0.312,0.105c-0.165,0-0.316-0.075-0.415-0.206L13.45,8.429
		l-0.18,0.18v1.133c0,0.287-0.233,0.519-0.519,0.519s-0.519-0.233-0.519-0.519V6.19c0-0.286,0.233-0.519,0.519-0.519
		s0.519,0.233,0.519,0.519v1.116l1.449-1.449c0.075-0.075,0.177-0.116,0.288-0.116c0.13,0,0.26,0.056,0.357,0.153
		c0.091,0.091,0.145,0.208,0.153,0.329c0.008,0.122-0.033,0.235-0.115,0.316l-1.183,1.183l1.278,1.693
		C15.58,9.527,15.615,9.664,15.596,9.801z"/>
</g>
</svg>
