<?xml version="1.0" encoding="utf-8"?>
<!-- Generator: Adobe Illustrator 26.2.1, SVG Export Plug-In . SVG Version: 6.00 Build 0)  -->
<svg version="1.1" id="레이어_1" xmlns="http://www.w3.org/2000/svg" xmlns:xlink="http://www.w3.org/1999/xlink" x="0px"
	 y="0px" viewBox="0 0 19.506 18" style="enable-background:new 0 0 19.506 18;" xml:space="preserve">
<g>
	<polygon points="7.128,8.392 8.252,8.392 7.69,6.796 	"/>
	<path d="M9.753,0C4.366,0,0,3.443,0,7.69c0,2.746,1.826,5.155,4.572,6.515c-0.15,0.515-0.96,3.315-0.993,3.535
		c0,0-0.02,0.165,0.088,0.229C3.774,18.031,3.9,17.982,3.9,17.982c0.307-0.043,3.559-2.327,4.121-2.723
		c0.561,0.079,1.14,0.12,1.732,0.12c5.387,0,9.753-3.443,9.753-7.69S15.14,0,9.753,0z M4.923,9.837c0,0.296-0.252,0.537-0.562,0.537
		c-0.31,0-0.562-0.241-0.562-0.537V6.495H2.92c-0.305,0-0.553-0.247-0.553-0.55c0-0.303,0.248-0.55,0.553-0.55h2.881
		c0.305,0,0.553,0.247,0.553,0.55c0,0.303-0.248,0.55-0.553,0.55H4.924v3.342H4.923z M9.652,10.29
		c-0.111,0.051-0.234,0.078-0.358,0.078c-0.235,0-0.414-0.095-0.468-0.248l-0.278-0.73H6.832l-0.278,0.729
		c-0.054,0.153-0.233,0.248-0.468,0.248c-0.124,0-0.248-0.027-0.358-0.078C5.573,10.217,5.424,10.02,5.595,9.49l1.346-3.542
		C7.036,5.678,7.323,5.4,7.69,5.393c0.367,0.009,0.656,0.286,0.751,0.556l1.345,3.54C9.957,10.021,9.807,10.218,9.652,10.29z
		 M12.496,10.292H10.69c-0.297,0-0.54-0.232-0.54-0.516V5.955c0-0.31,0.258-0.562,0.574-0.562c0.316,0,0.574,0.252,0.574,0.562V9.26
		h1.195c0.297,0,0.54,0.232,0.54,0.516C13.035,10.061,12.794,10.292,12.496,10.292z M16.901,9.868
		c-0.021,0.148-0.099,0.281-0.218,0.371c-0.099,0.075-0.216,0.114-0.338,0.114c-0.179,0-0.342-0.081-0.45-0.223l-1.32-1.748
		L14.38,8.576v1.228c0,0.311-0.252,0.562-0.562,0.562s-0.562-0.252-0.562-0.562V5.955c0-0.31,0.252-0.562,0.562-0.562
		s0.562,0.252,0.562,0.562v1.209l1.57-1.57c0.081-0.081,0.192-0.126,0.312-0.126c0.141,0,0.282,0.061,0.387,0.166
		c0.099,0.099,0.157,0.225,0.166,0.357c0.009,0.132-0.036,0.255-0.125,0.342l-1.282,1.282l1.385,1.835
		C16.883,9.571,16.921,9.72,16.901,9.868z"/>
</g>
</svg>
