<?xml version="1.0" encoding="utf-8"?>
<!-- Generator: Adobe Illustrator 26.2.1, SVG Export Plug-In . SVG Version: 6.00 Build 0)  -->
<svg version="1.1" id="레이어_1" xmlns="http://www.w3.org/2000/svg" xmlns:xlink="http://www.w3.org/1999/xlink" x="0px"
	 y="0px" viewBox="0 0 18 18" style="enable-background:new 0 0 18 18;" xml:space="preserve">
<style type="text/css">
	.st0{fill:#1A1A1A;}
</style>
<path class="st0" d="M9.449,13.011l-2.182,2.182c-0.596,0.596-1.388,0.924-2.23,0.924c-0.842,0-1.634-0.328-2.23-0.924
	c-0.596-0.596-0.924-1.388-0.924-2.23c0-0.842,0.328-1.634,0.924-2.23L5.09,8.45c0.183-0.183,0.384-0.339,0.596-0.467
	c0.109-0.066,0.221-0.125,0.335-0.176c0.001-0.001,0.003-0.001,0.004-0.002C6.072,7.783,6.12,7.764,6.167,7.745
	c0.003-0.001,0.007-0.003,0.01-0.004c0.015-0.006,0.031-0.012,0.046-0.017c0,0,0,0,0,0c0.03-0.011,0.061-0.022,0.091-0.032
	c0.005-0.002,0.01-0.003,0.014-0.005C6.342,7.682,6.356,7.678,6.37,7.673C6.376,7.671,6.382,7.67,6.389,7.668
	C6.412,7.66,6.436,7.653,6.459,7.647c0.007-0.002,0.014-0.004,0.022-0.006c0.012-0.003,0.024-0.007,0.037-0.01
	c0.009-0.002,0.018-0.005,0.028-0.007C6.557,7.621,6.568,7.618,6.58,7.615c0.018-0.004,0.036-0.009,0.055-0.013
	c0.01-0.002,0.02-0.004,0.03-0.006C6.677,7.594,6.688,7.591,6.7,7.589c0.01-0.002,0.02-0.004,0.03-0.006
	C6.746,7.58,6.762,7.577,6.778,7.574c0.01-0.002,0.02-0.003,0.029-0.005c0.016-0.003,0.032-0.005,0.047-0.007
	C6.864,7.561,6.872,7.56,6.88,7.558c0.016-0.002,0.032-0.004,0.048-0.006C6.934,7.551,6.941,7.55,6.947,7.55
	C6.968,7.547,6.989,7.545,7.01,7.543c0.007-0.001,0.014-0.001,0.02-0.002c0.017-0.002,0.034-0.003,0.05-0.004
	c0.006,0,0.012-0.001,0.019-0.001c0.022-0.002,0.044-0.003,0.066-0.004c0.004,0,0.009,0,0.013-0.001
	C7.197,7.53,7.216,7.529,7.234,7.529c0.006,0,0.012,0,0.019,0c0.022,0,0.045-0.001,0.067-0.001c0.022,0,0.043,0,0.065,0.001
	c0.009,0,0.017,0,0.026,0.001c0.012,0,0.025,0.001,0.037,0.001c0.028,0.001,0.057,0.003,0.085,0.005
	C8.269,7.584,8.989,7.889,9.55,8.45c0.346,0.346,0.602,0.758,0.755,1.208c0.123,0.019,0.248,0.029,0.375,0.029
	c0.534,0,1.04-0.175,1.453-0.496c-0.042-0.137-0.091-0.272-0.145-0.406c-0.254-0.625-0.626-1.186-1.106-1.667
	c-0.481-0.481-1.041-0.853-1.667-1.106C8.817,5.85,8.404,5.741,7.981,5.686c0,0,0,0,0,0C7.956,5.683,7.931,5.68,7.906,5.677
	C7.902,5.676,7.897,5.676,7.892,5.675C7.869,5.672,7.846,5.67,7.823,5.668c-0.002,0-0.005,0-0.007-0.001
	C7.79,5.664,7.764,5.662,7.738,5.66c-0.003,0-0.007-0.001-0.01-0.001C7.706,5.657,7.684,5.656,7.662,5.654
	c-0.006,0-0.012-0.001-0.018-0.001C7.621,5.652,7.598,5.65,7.575,5.649c-0.002,0-0.004,0-0.006,0
	c-0.025-0.001-0.05-0.002-0.076-0.003c-0.006,0-0.012,0-0.018-0.001C7.455,5.645,7.436,5.644,7.416,5.644c-0.007,0-0.014,0-0.021,0
	c-0.025,0-0.05-0.001-0.075-0.001c-0.028,0-0.056,0-0.083,0.001c-0.006,0-0.013,0-0.019,0C7.19,5.645,7.162,5.645,7.134,5.646
	c-0.002,0-0.003,0-0.005,0C7.103,5.647,7.077,5.649,7.05,5.65c-0.006,0-0.012,0.001-0.018,0.001
	C7.005,5.653,6.977,5.654,6.949,5.656c-0.002,0-0.004,0-0.006,0C6.917,5.659,6.89,5.661,6.864,5.663
	c-0.005,0-0.009,0.001-0.014,0.001C6.821,5.667,6.793,5.67,6.765,5.673c-0.002,0-0.004,0-0.006,0.001
	C6.732,5.677,6.704,5.68,6.677,5.684c-0.003,0-0.006,0.001-0.009,0.001C6.639,5.689,6.61,5.693,6.581,5.697
	c-0.001,0-0.003,0-0.004,0.001C6.548,5.702,6.519,5.706,6.491,5.711c-0.001,0-0.003,0-0.004,0.001
	c-0.03,0.005-0.059,0.01-0.089,0.016c-0.001,0-0.002,0-0.003,0c-0.06,0.011-0.119,0.023-0.179,0.037c0,0-0.001,0-0.001,0
	c-0.06,0.013-0.119,0.028-0.179,0.044c0,0,0,0,0,0c-0.06,0.016-0.119,0.032-0.178,0.05c0,0,0,0,0,0
	C5.712,5.903,5.568,5.954,5.425,6.012C4.8,6.265,4.239,6.638,3.759,7.118L1.475,9.401c-0.481,0.481-0.853,1.041-1.106,1.667
	C0.124,11.672,0,12.309,0,12.963s0.124,1.291,0.369,1.895c0.254,0.625,0.626,1.186,1.106,1.667c0.481,0.481,1.041,0.853,1.667,1.106
	C3.746,17.876,4.383,18,5.037,18s1.291-0.124,1.895-0.369c0.625-0.254,1.186-0.626,1.667-1.106l2.283-2.283
	c0.358-0.358,0.656-0.761,0.89-1.202c-0.358,0.068-0.723,0.102-1.092,0.102C10.263,13.142,9.851,13.098,9.449,13.011z M17.631,3.142
	c-0.254-0.625-0.626-1.186-1.106-1.667c-0.481-0.481-1.041-0.853-1.667-1.106C14.254,0.124,13.617,0,12.963,0
	c-0.654,0-1.291,0.124-1.895,0.369c-0.625,0.254-1.186,0.626-1.667,1.106L7.118,3.759C6.76,4.117,6.462,4.52,6.228,4.961
	C6.586,4.893,6.951,4.858,7.32,4.858c0.417,0,0.829,0.044,1.231,0.131l2.182-2.182c0.596-0.596,1.388-0.924,2.23-0.924
	c0.842,0,1.634,0.328,2.23,0.924c1.23,1.23,1.23,3.23,0,4.46L12.91,9.55c-0.615,0.615-1.422,0.922-2.23,0.922
	c-0.808,0-1.615-0.307-2.23-0.922C8.104,9.204,7.848,8.792,7.695,8.342C7.572,8.322,7.447,8.312,7.32,8.312
	c-0.534,0-1.04,0.175-1.453,0.496c0.042,0.137,0.091,0.272,0.145,0.406c0.254,0.625,0.626,1.186,1.106,1.667
	c0.481,0.481,1.041,0.853,1.667,1.106c0.604,0.245,1.241,0.369,1.895,0.369c0.654,0,1.291-0.124,1.895-0.369
	c0.625-0.254,1.186-0.626,1.667-1.106l2.283-2.283c0.481-0.481,0.853-1.041,1.106-1.667C17.876,6.328,18,5.691,18,5.037
	C18,4.383,17.876,3.746,17.631,3.142z"/>
</svg>
