<?xml version="1.0" encoding="utf-8"?>
<!-- Generator: Adobe Illustrator 25.4.1, SVG Export Plug-In . SVG Version: 6.00 Build 0)  -->
<svg version="1.1" id="레이어_1" xmlns="http://www.w3.org/2000/svg" xmlns:xlink="http://www.w3.org/1999/xlink" x="0px"
	 y="0px" viewBox="0 0 17.6 19.5" style="enable-background:new 0 0 17.6 19.5;" xml:space="preserve">
<style type="text/css">
	.st0{fill:#2D2D2F;}
</style>
<path class="st0" d="M14.8,14.1c-0.6,0-1.3,0.2-1.8,0.7l-0.1,0.1l-0.1,0l-0.1,0l-0.1-0.1l-7.1-4.2l-0.1-0.1l-0.1,0l0-0.1l0-0.1
	c0-0.2,0.1-0.4,0.1-0.6c0-0.2,0-0.4-0.1-0.6l0-0.1l0-0.1l0.1,0l0.1-0.1l7-4.1l0.1-0.1l0.1,0l0.1,0.1L13,4.7c0.5,0.5,1.2,0.7,1.8,0.7
	c1.5,0,2.7-1.2,2.7-2.7s-1.2-2.7-2.7-2.7s-2.7,1.2-2.7,2.7c0,0.2,0,0.4,0.1,0.6l0,0.1l0,0.1l-0.1,0L12,3.7L5,7.8L4.9,7.9l-0.1,0
	L4.7,7.9L4.6,7.8C4.1,7.3,3.5,7.1,2.8,7.1c-1.5,0-2.7,1.2-2.7,2.7s1.2,2.7,2.7,2.7c0.7,0,1.3-0.3,1.8-0.7l0.1-0.1l0.1-0.1l0.1,0
	L5,11.7l7.1,4.2l0.1,0.1l0.1,0l0,0.1l0,0.1c0,0.2-0.1,0.4-0.1,0.6c0,1.4,1.2,2.6,2.6,2.6s2.6-1.2,2.6-2.6
	C17.4,15.3,16.2,14.1,14.8,14.1z M14.8,1.5c0.7,0,1.3,0.6,1.3,1.3s-0.6,1.3-1.3,1.3s-1.3-0.6-1.3-1.3S14.1,1.5,14.8,1.5z M2.8,11.1
	c-0.7,0-1.3-0.6-1.3-1.3s0.6-1.3,1.3-1.3S4.1,9,4.1,9.8S3.5,11.1,2.8,11.1z M14.8,18.1c-0.7,0-1.3-0.6-1.3-1.3s0.6-1.3,1.3-1.3
	s1.3,0.6,1.3,1.3S15.5,18.1,14.8,18.1z"/>
</svg>
