<?xml version="1.0" encoding="utf-8"?>
<!-- Generator: Adobe Illustrator 26.2.1, SVG Export Plug-In . SVG Version: 6.00 Build 0)  -->
<svg version="1.1" id="레이어_1" xmlns="http://www.w3.org/2000/svg" xmlns:xlink="http://www.w3.org/1999/xlink" x="0px"
	 y="0px" viewBox="0 0 18 18" style="enable-background:new 0 0 18 18;" xml:space="preserve">
<g>
	<polygon points="6.58,8.44 7.61,8.44 7.1,6.97 	"/>
	<path d="M9,0.7c-4.97,0-9,3.18-9,7.1c0,2.53,1.68,4.76,4.22,6.01c-0.14,0.48-0.89,3.06-0.92,3.26c0,0-0.02,0.15,0.08,0.21
		c0.1,0.06,0.21,0.01,0.21,0.01c0.28-0.04,3.28-2.15,3.8-2.51c0.52,0.07,1.05,0.11,1.6,0.11c4.97,0,9-3.18,9-7.1S13.97,0.7,9,0.7z
		 M4.54,9.77c0,0.27-0.23,0.5-0.52,0.5s-0.52-0.22-0.52-0.5V6.69H2.7c-0.28,0-0.51-0.23-0.51-0.51c0-0.28,0.23-0.51,0.51-0.51h2.66
		c0.28,0,0.51,0.23,0.51,0.51c0,0.28-0.23,0.51-0.51,0.51H4.54L4.54,9.77L4.54,9.77z M8.91,10.19c-0.1,0.05-0.22,0.07-0.33,0.07
		c-0.22,0-0.38-0.09-0.43-0.23L7.89,9.36H6.31l-0.26,0.67C6,10.17,5.83,10.26,5.62,10.26c-0.11,0-0.23-0.02-0.33-0.07
		c-0.14-0.07-0.28-0.25-0.12-0.74l1.24-3.27C6.49,5.93,6.76,5.68,7.1,5.67C7.44,5.68,7.7,5.94,7.79,6.18l1.24,3.27
		C9.19,9.94,9.05,10.12,8.91,10.19z M11.53,10.19H9.86c-0.27,0-0.5-0.21-0.5-0.48V6.19c0-0.29,0.24-0.52,0.53-0.52
		s0.53,0.23,0.53,0.52v3.05h1.1c0.27,0,0.5,0.21,0.5,0.48C12.03,9.98,11.81,10.19,11.53,10.19z M15.6,9.8
		c-0.02,0.14-0.09,0.26-0.2,0.34c-0.09,0.07-0.2,0.1-0.31,0.1c-0.16,0-0.32-0.07-0.41-0.21l-1.22-1.61l-0.18,0.18v1.13
		c0,0.29-0.23,0.52-0.52,0.52s-0.52-0.23-0.52-0.52V6.19c0-0.29,0.23-0.52,0.52-0.52s0.52,0.23,0.52,0.52v1.12l1.45-1.45
		c0.07-0.07,0.18-0.12,0.29-0.12c0.13,0,0.26,0.06,0.36,0.15c0.09,0.09,0.15,0.21,0.15,0.33c0.01,0.12-0.03,0.24-0.11,0.32
		l-1.18,1.18l1.28,1.69C15.58,9.53,15.61,9.66,15.6,9.8z"/>
</g>
</svg>
