<?xml version="1.0" encoding="utf-8"?>
<!-- Generator: Adobe Illustrator 26.0.3, SVG Export Plug-In . SVG Version: 6.00 Build 0)  -->
<svg version="1.1" id="레이어_1" xmlns="http://www.w3.org/2000/svg" xmlns:xlink="http://www.w3.org/1999/xlink" x="0px"
	 y="0px" viewBox="0 0 18 18" style="enable-background:new 0 0 18 18;" xml:space="preserve">
<style type="text/css">
	.st0{fill:#FFFFFF;}
</style>
<path id="XMLID_2_" class="st0" d="M5.661,16.314c6.793,0,10.507-5.628,10.507-10.507c0-0.16-0.003-0.319-0.011-0.477
	C16.879,4.808,17.506,4.158,18,3.417c-0.662,0.294-1.374,0.492-2.121,0.581c0.762-0.457,1.348-1.181,1.624-2.043
	c-0.714,0.423-1.504,0.731-2.345,0.896c-0.674-0.718-1.634-1.167-2.696-1.167c-2.04,0-3.694,1.654-3.694,3.693
	c0,0.29,0.032,0.572,0.096,0.842C5.796,6.066,3.074,4.596,1.253,2.362c-0.317,0.546-0.5,1.18-0.5,1.856
	c0,1.281,0.652,2.412,1.643,3.074C1.79,7.273,1.221,7.107,0.723,6.83C0.723,6.846,0.723,6.861,0.723,6.877
	c0,1.789,1.273,3.282,2.963,3.62c-0.31,0.084-0.637,0.13-0.974,0.13c-0.238,0-0.469-0.024-0.694-0.067
	c0.47,1.467,1.833,2.535,3.45,2.565c-1.264,0.991-2.856,1.581-4.587,1.581c-0.298,0-0.592-0.017-0.881-0.051
	C1.634,15.703,3.575,16.314,5.661,16.314"/>
</svg>
