<?xml version="1.0" encoding="utf-8"?>
<!-- Generator: Adobe Illustrator 26.2.1, SVG Export Plug-In . SVG Version: 6.00 Build 0)  -->
<svg version="1.1" id="레이어_1" xmlns="http://www.w3.org/2000/svg" xmlns:xlink="http://www.w3.org/1999/xlink" x="0px"
	 y="0px" viewBox="0 0 18 18" style="enable-background:new 0 0 18 18;" xml:space="preserve">
<style type="text/css">
	.st0{fill:#FFFFFF;}
</style>
<path class="st0" d="M17.145,4.908c-0.196-0.731-0.772-1.307-1.503-1.503C14.316,3.05,9,3.05,9,3.05s-5.316,0-6.642,0.355
	C1.627,3.601,1.051,4.177,0.855,4.908C0.5,6.234,0.5,9,0.5,9s0,2.766,0.355,4.092c0.196,0.731,0.772,1.307,1.503,1.503
	C3.684,14.95,9,14.95,9,14.95s5.316,0,6.642-0.355c0.731-0.196,1.308-0.772,1.503-1.503C17.5,11.766,17.5,9,17.5,9
	S17.5,6.234,17.145,4.908z M7.3,11.55v-5.1L11.717,9L7.3,11.55z"/>
</svg>
