<?xml version="1.0" encoding="utf-8"?>
<!-- Generator: Adobe Illustrator 26.0.1, SVG Export Plug-In . SVG Version: 6.00 Build 0)  -->
<svg version="1.1" id="레이어_1" xmlns="http://www.w3.org/2000/svg" xmlns:xlink="http://www.w3.org/1999/xlink" x="0px"
	 y="0px" viewBox="0 0 50 50" style="enable-background:new 0 0 50 50;" xml:space="preserve">
<style type="text/css">
	.st0{fill:#F6F6FD;}
	.st1{fill:#C8C8E4;}
</style>
<g>
	<circle class="st0" cx="25" cy="25" r="25"/>
</g>
<g>
	<path class="st1" d="M40.437,36.942h-3.406c-0.286-3.246-2.945-5.798-6.172-5.798c-3.228,0-5.887,2.551-6.172,5.798h-6.222
		c-0.311,0-0.564,0.259-0.564,0.58c0,0.32,0.252,0.58,0.564,0.58h6.76c0.311,0,0.564-0.259,0.564-0.58
		c0-2.877,2.275-5.218,5.071-5.218c2.796,0,5.07,2.34,5.07,5.218c0,0.32,0.253,0.58,0.564,0.58h3.944
		c0.311,0,0.563-0.259,0.563-0.58C41,37.201,40.748,36.942,40.437,36.942z"/>
	<path class="st1" d="M32.302,37.344v-0.016c0.333-0.183,0.612-0.534,0.612-1.148c0-0.828-0.48-1.387-1.491-1.438v-0.409
		c0-0.16-0.126-0.29-0.282-0.29c-0.155,0-0.281,0.13-0.281,0.29v0.405h-1.547c-0.047,0-0.078,0.032-0.078,0.08v5.26
		c0,0.048,0.031,0.08,0.078,0.08h1.547v0.553c0,0.16,0.126,0.289,0.281,0.289c0.156,0,0.282-0.129,0.282-0.289v-0.56
		c1.012-0.066,1.584-0.584,1.584-1.587C33.006,37.902,32.627,37.472,32.302,37.344z M30.148,35.614c0-0.032,0.015-0.047,0.046-0.047
		h1.053c0.465,0,0.751,0.287,0.751,0.717c0,0.422-0.286,0.709-0.751,0.709h-1.053c-0.031,0-0.046-0.016-0.046-0.047V35.614z
		 M31.295,39.329h-1.1c-0.031,0-0.046-0.016-0.046-0.048v-1.41c0-0.033,0.015-0.048,0.046-0.048h1.1
		c0.512,0,0.798,0.303,0.798,0.749C32.092,39.026,31.806,39.329,31.295,39.329z"/>
	<path class="st1" d="M27.587,23.537c0.211,0.217,0.586,0.217,0.797,0l2.289-2.356c2.5,3.013,4.517,6.279,5.852,9.479
		c0.089,0.215,0.295,0.351,0.517,0.351c0.025,0,0.051-0.002,0.077-0.006c0.251-0.036,0.449-0.24,0.481-0.499
		c0.624-4.9-1.04-10.134-4.485-14.3l0.845-0.869c0.22-0.227,0.22-0.594,0-0.82l-1.593-1.64c-0.22-0.226-0.577-0.226-0.797,0
		l-0.845,0.869c-4.049-3.546-9.136-5.26-13.897-4.614c-0.252,0.034-0.45,0.236-0.485,0.495c-0.035,0.259,0.103,0.509,0.336,0.612
		c3.108,1.372,6.283,3.447,9.211,6.021l-2.289,2.356c-0.22,0.226-0.22,0.593,0,0.82l0.797,0.82L9.165,35.936
		c-0.22,0.226-0.22,0.593,0,0.82l1.593,1.64c0.11,0.113,0.254,0.17,0.398,0.17c0.144,0,0.288-0.056,0.398-0.17L26.79,22.717
		L27.587,23.537z M31.969,14.109l0.797,0.82l-0.403,0.415c-0.129-0.14-0.26-0.279-0.393-0.416c-0.133-0.137-0.268-0.272-0.404-0.404
		L31.969,14.109z M27.117,16.642c0.11-0.113,0.17-0.268,0.165-0.428c-0.005-0.16-0.074-0.311-0.191-0.417
		c-2.514-2.272-5.222-4.193-7.934-5.633c4.264,0.098,8.627,2.098,12.016,5.585c3.389,3.488,5.332,7.977,5.427,12.365
		c-1.4-2.792-3.265-5.579-5.474-8.165c-0.102-0.12-0.249-0.191-0.405-0.196c-0.006,0-0.012,0-0.018,0
		c-0.15,0-0.293,0.061-0.399,0.17l-2.319,2.386l-0.79-0.813c-0.002-0.002-0.004-0.005-0.006-0.007l-1.411-1.451l-0.98-1.008
		L27.117,16.642z M11.157,37.165l-0.797-0.82l14.836-15.268l0.332,0.341l0.465,0.479L11.157,37.165z"/>
	<path class="st1" d="M26.915,39.261H12.83c-0.311,0-0.563,0.26-0.563,0.58c0,0.32,0.252,0.58,0.563,0.58h14.085
		c0.311,0,0.564-0.26,0.564-0.58C27.479,39.52,27.226,39.261,26.915,39.261z"/>
</g>
</svg>
