<?xml version="1.0" encoding="utf-8"?>
<!-- Generator: Adobe Illustrator 26.0.1, SVG Export Plug-In . SVG Version: 6.00 Build 0)  -->
<svg version="1.1" id="레이어_1" xmlns="http://www.w3.org/2000/svg" xmlns:xlink="http://www.w3.org/1999/xlink" x="0px"
	 y="0px" viewBox="0 0 50 50" style="enable-background:new 0 0 50 50;" xml:space="preserve">
<style type="text/css">
	.st0{fill:#F6F6FD;}
	.st1{fill:#C8C8E4;}
</style>
<g>
	<circle class="st0" cx="25" cy="25" r="25"/>
</g>
<g>
	<path class="st1" d="M38.424,12.028l-0.176,2.398l-0.266-0.285C34.936,10.874,30.619,9,26.139,9C17.24,9,10,16.178,10,25
		s7.24,16,16.139,16c5.324,0,10.287-2.598,13.309-6.96l-1.311-0.873c-2.728,3.928-7.2,6.267-11.998,6.267
		c-8.028,0-14.559-6.475-14.559-14.434c0-7.959,6.531-14.434,14.559-14.434c4.082,0,8.003,1.72,10.758,4.72l0.287,0.312
		l-2.698-0.195l-0.115,1.562l5.247,0.379L40,12.142L38.424,12.028z"/>
	<path class="st1" d="M15.777,28.164h5.397v-1.209h-3.215v-0.168c0-0.741,0.751-1.179,1.587-1.599
		c0.999-0.5,1.617-1.039,1.617-2.179c0-1.407-0.909-2.214-2.493-2.214c-1.286,0-2.289,0.551-2.809,1.066l0.845,0.897
		c0.306-0.279,0.96-0.776,1.726-0.776c0.679,0,1.101,0.402,1.101,1.049c0,0.999-0.958,1.424-1.885,1.834l-0.034,0.015
		C16.228,25.5,15.799,26.249,15.777,28.164z"/>
	<path class="st1" d="M25.323,28.153h1.392v-1.599h0.953v-1.198h-0.953V20.87h-0.939l-3.485,4.376v1.308h3.031V28.153z
		 M23.495,25.356l2.023-2.568v2.568H23.495z"/>
	<path class="st1" d="M32.749,28.164h1.392v-3.438c0-1.342-0.514-1.967-1.616-1.967c-0.779,0-1.444,0.354-1.825,0.971l-0.315,0.509
		v-3.573h-1.393v7.497h1.393v-3.091l0.01-0.027c0.247-0.686,0.899-1.11,1.361-1.11c0.298,0,0.993,0.12,0.993,1.231V28.164z"/>
</g>
</svg>
