<?xml version="1.0" encoding="utf-8"?>
<!-- Generator: Adobe Illustrator 26.0.1, SVG Export Plug-In . SVG Version: 6.00 Build 0)  -->
<svg version="1.1" id="레이어_1" xmlns="http://www.w3.org/2000/svg" xmlns:xlink="http://www.w3.org/1999/xlink" x="0px"
	 y="0px" viewBox="0 0 50 50" style="enable-background:new 0 0 50 50;" xml:space="preserve">
<style type="text/css">
	.st0{fill:#F6F6FD;}
	.st1{fill:#C8C8E4;}
</style>
<g>
	<circle class="st0" cx="25" cy="25" r="25"/>
</g>
<g>
	<path class="st1" d="M40.402,36.618h-0.465V20.22c0-0.329-0.268-0.598-0.598-0.598H10.66c-0.329,0-0.598,0.268-0.598,0.598v16.398
		H9.598C9.268,36.618,9,36.886,9,37.216v1.062c0.002,1.499,1.223,2.72,2.722,2.722h26.556c1.499-0.002,2.72-1.223,2.722-2.722
		v-1.062C41,36.886,40.732,36.618,40.402,36.618z M28.826,36.794l-0.887,0.887h-5.879l-0.887-0.887
		c-0.113-0.112-0.263-0.175-0.423-0.176h-9.494V20.817h27.485v15.801h-9.494C29.089,36.619,28.939,36.681,28.826,36.794z
		 M21.659,38.786c0.033,0.01,0.067,0.017,0.102,0.02C21.726,38.803,21.692,38.796,21.659,38.786c-0.033-0.01-0.065-0.023-0.096-0.04
		C21.594,38.763,21.626,38.776,21.659,38.786z M28.437,38.747c-0.031,0.016-0.063,0.03-0.096,0.04
		C28.374,38.776,28.406,38.763,28.437,38.747z M21.001,36.748c0.031,0.016,0.06,0.036,0.087,0.058
		C21.061,36.784,21.032,36.764,21.001,36.748c-0.076-0.041-0.162-0.063-0.25-0.063C20.839,36.685,20.925,36.707,21.001,36.748z
		 M21.813,38.876L21.813,38.876h6.373c0.16,0,0.31-0.062,0.422-0.175l0.887-0.887h10.309v0.465c0,0.842-0.685,1.527-1.527,1.527
		H11.722c-0.842,0-1.527-0.685-1.527-1.527v-0.465h10.309l0.887,0.887C21.504,38.813,21.654,38.875,21.813,38.876z M9.097,38.682
		c0.014,0.088,0.031,0.174,0.053,0.259C9.129,38.857,9.111,38.77,9.097,38.682z M9.276,39.311c0.101,0.238,0.235,0.459,0.398,0.655
		C9.511,39.77,9.377,39.549,9.276,39.311z M9.757,40.063c0.114,0.126,0.24,0.24,0.377,0.342C9.998,40.303,9.871,40.188,9.757,40.063
		z M10.346,40.548c0.146,0.089,0.301,0.164,0.464,0.223C10.647,40.712,10.492,40.637,10.346,40.548z M11.059,40.849
		c0.085,0.022,0.171,0.04,0.259,0.053C11.23,40.889,11.143,40.871,11.059,40.849z M38.682,40.903
		c0.088-0.014,0.174-0.031,0.259-0.053C38.857,40.871,38.77,40.889,38.682,40.903z M39.191,40.772
		c0.163-0.06,0.318-0.135,0.464-0.223C39.508,40.637,39.353,40.712,39.191,40.772z M39.866,40.405
		c0.136-0.102,0.262-0.217,0.377-0.342C40.129,40.188,40.002,40.303,39.866,40.405z M40.326,39.966
		c0.162-0.197,0.297-0.417,0.398-0.655C40.623,39.549,40.489,39.77,40.326,39.966z M40.849,38.941
		c0.022-0.085,0.04-0.171,0.053-0.259C40.889,38.77,40.871,38.857,40.849,38.941z"/>
	<path class="st1" d="M17.048,29.462l3.706,2.648l0.044,0.031l0.04-0.036l6.367-5.836l6.331,3.687l0.044,0.026l0.036-0.036
		l4.709-4.711l0.019-0.019v-0.027v-3.906v-0.066h-0.066H11.722h-0.066v0.066v12.24v0.136l0.107-0.083L17.048,29.462z M27.045,24.794
		l-0.036,0.033l-6.305,5.779l-3.646-2.604l-0.04-0.029l-0.039,0.03l-4.129,3.211v-8.803h24.299v2.31l-3.764,3.765l-6.298-3.667
		L27.045,24.794z M17.02,28.056L17.02,28.056l-1.853,1.441L17.02,28.056z M20.71,30.691L20.71,30.691l-1.845-1.318L20.71,30.691z
		 M27.054,24.876l2.334,1.359L27.054,24.876L27.054,24.876z"/>
	<path class="st1" d="M16.502,19.224c0.329,0,0.598-0.268,0.598-0.598v-1.087l1.79-0.299c0.24-0.04,0.429-0.219,0.483-0.456
		c0.141-0.619,0.384-1.206,0.721-1.744c0.129-0.206,0.121-0.468-0.02-0.666l-1.054-1.474l0.787-0.787l1.474,1.054
		c0.102,0.073,0.222,0.112,0.348,0.112c0.113,0,0.222-0.032,0.318-0.091c0.537-0.337,1.124-0.579,1.742-0.721
		c0.237-0.054,0.416-0.244,0.456-0.483l0.301-1.79h1.112l0.299,1.79c0.04,0.24,0.219,0.429,0.456,0.483
		c0.619,0.141,1.206,0.384,1.744,0.721c0.095,0.06,0.205,0.091,0.318,0.091c0.126,0,0.246-0.039,0.348-0.112l1.474-1.054
		l0.787,0.787l-1.054,1.474c-0.142,0.198-0.15,0.459-0.02,0.666c0.337,0.537,0.579,1.124,0.721,1.742
		c0.054,0.237,0.244,0.416,0.483,0.456l1.79,0.299v1.089c0,0.329,0.268,0.598,0.598,0.598c0.329,0,0.598-0.268,0.598-0.598v-1.593
		c0-0.293-0.21-0.541-0.499-0.589l-1.905-0.319c-0.139-0.475-0.329-0.936-0.566-1.371l1.123-1.571
		c0.171-0.239,0.144-0.563-0.064-0.77l-1.503-1.504c-0.113-0.113-0.263-0.175-0.423-0.175c-0.125,0-0.246,0.039-0.348,0.112
		l-1.571,1.125c-0.435-0.237-0.895-0.428-1.371-0.567l-0.319-1.907C26.603,9.209,26.355,9,26.063,9h0h-0.001h-2.124
		c-0.293,0-0.541,0.21-0.589,0.499l-0.319,1.905c-0.475,0.139-0.936,0.329-1.371,0.566l-1.569-1.122
		c-0.102-0.073-0.222-0.112-0.348-0.112c-0.16,0-0.31,0.062-0.423,0.175l-1.504,1.504c-0.208,0.208-0.234,0.532-0.063,0.77
		l1.123,1.569c-0.237,0.435-0.428,0.895-0.567,1.371l-1.907,0.319c-0.289,0.049-0.498,0.297-0.497,0.59v1.593
		C15.905,18.956,16.173,19.224,16.502,19.224z M16.249,19.094c0.03,0.016,0.062,0.03,0.095,0.04
		C16.311,19.123,16.279,19.11,16.249,19.094z M16.395,19.147c0.035,0.007,0.07,0.011,0.107,0.011
		C16.465,19.158,16.43,19.154,16.395,19.147z M18.879,17.175l-1.846,0.308L18.879,17.175c0.027-0.004,0.052-0.011,0.077-0.019
		C18.931,17.164,18.905,17.171,18.879,17.175z M19.207,16.981c-0.032,0.04-0.07,0.076-0.112,0.106
		C19.138,17.057,19.175,17.021,19.207,16.981c0.032-0.04,0.058-0.086,0.078-0.135C19.266,16.895,19.239,16.94,19.207,16.981z
		 M20.038,15.005c-0.042,0.068-0.084,0.137-0.123,0.206C19.954,15.142,19.995,15.073,20.038,15.005
		c0.072-0.114,0.096-0.248,0.073-0.376C20.133,14.757,20.109,14.891,20.038,15.005z M21.389,13.157
		c0.008,0.004,0.016,0.007,0.025,0.01C21.405,13.164,21.397,13.162,21.389,13.157z M21.463,13.188
		c0.01,0.003,0.021,0.005,0.031,0.008C21.484,13.193,21.473,13.191,21.463,13.188z M21.541,13.207
		c0.011,0.002,0.022,0.002,0.034,0.003C21.563,13.209,21.552,13.209,21.541,13.207z M21.62,13.214c0.014,0,0.028-0.001,0.043-0.002
		c-0.012,0.001-0.023,0.002-0.035,0.002C21.625,13.214,21.622,13.214,21.62,13.214z M21.841,13.17
		c0.024-0.01,0.047-0.022,0.069-0.036C21.888,13.147,21.865,13.159,21.841,13.17z M21.694,13.21c0.015-0.002,0.03-0.005,0.045-0.009
		C21.724,13.205,21.71,13.208,21.694,13.21z M21.769,13.195c0.016-0.005,0.032-0.011,0.048-0.017
		C21.801,13.184,21.785,13.191,21.769,13.195z M25.612,10.129L25.612,10.129l0.308,1.846L25.612,10.129z M26.248,9.099
		c0.006,0.002,0.012,0.005,0.018,0.008C26.26,9.105,26.254,9.102,26.248,9.099z M26.29,9.117c0.006,0.003,0.013,0.007,0.019,0.01
		C26.303,9.124,26.297,9.12,26.29,9.117z M28.338,13.212c0.014,0.001,0.028,0.002,0.043,0.002c-0.003,0-0.005,0.001-0.008,0.001
		C28.361,13.214,28.349,13.213,28.338,13.212z M28.09,13.133c0.022,0.014,0.045,0.026,0.069,0.036
		C28.135,13.159,28.112,13.147,28.09,13.133z M28.183,13.178c0.016,0.006,0.032,0.012,0.048,0.017
		C28.215,13.191,28.199,13.184,28.183,13.178z M28.261,13.201c0.015,0.003,0.03,0.007,0.045,0.009
		C28.29,13.208,28.276,13.205,28.261,13.201z M28.426,13.21c0.011-0.001,0.022-0.002,0.034-0.003
		C28.448,13.209,28.437,13.209,28.426,13.21z M28.506,13.196c0.01-0.003,0.021-0.005,0.031-0.008
		C28.527,13.191,28.516,13.193,28.506,13.196z M28.587,13.168c0.008-0.004,0.017-0.006,0.025-0.01
		C28.603,13.162,28.595,13.164,28.587,13.168z M29.889,14.63c-0.005,0.025-0.007,0.051-0.008,0.077
		C29.882,14.681,29.885,14.655,29.889,14.63z M30.269,10.802c-0.003,0-0.007,0-0.01,0c0,0,0,0,0.001,0
		C30.263,10.801,30.266,10.802,30.269,10.802z M30.597,10.922c-0.004-0.004-0.009-0.007-0.013-0.01
		C30.588,10.916,30.593,10.919,30.597,10.922z M30.557,10.892c-0.005-0.004-0.011-0.007-0.017-0.01
		C30.546,10.885,30.551,10.888,30.557,10.892z M30.514,10.866c-0.006-0.003-0.012-0.006-0.018-0.009
		C30.502,10.86,30.508,10.863,30.514,10.866z M30.469,10.844c-0.006-0.003-0.013-0.005-0.019-0.008
		C30.456,10.839,30.463,10.842,30.469,10.844z M30.423,10.827c-0.006-0.002-0.013-0.004-0.019-0.006
		C30.41,10.823,30.416,10.825,30.423,10.827z M30.375,10.814c-0.006-0.001-0.013-0.003-0.019-0.004
		C30.362,10.811,30.368,10.813,30.375,10.814z M30.325,10.806c-0.006-0.001-0.012-0.002-0.017-0.002
		C30.313,10.804,30.319,10.805,30.325,10.806z M29.951,10.9l-1.605,1.149h0L29.951,10.9z M30.186,10.807
		c-0.004,0.001-0.008,0.001-0.011,0.002C30.178,10.808,30.182,10.807,30.186,10.807z M30.106,10.824
		c-0.004,0.001-0.008,0.003-0.013,0.004C30.097,10.827,30.102,10.826,30.106,10.824z M30.026,10.855
		c-0.003,0.002-0.006,0.003-0.009,0.005C30.02,10.859,30.023,10.857,30.026,10.855z M26.912,11.456l-0.326-1.948
		c-0.005-0.032-0.014-0.063-0.024-0.092c0.011,0.03,0.019,0.06,0.024,0.092L26.912,11.456z M26.556,9.402
		c-0.004-0.01-0.008-0.02-0.012-0.029C26.549,9.382,26.552,9.392,26.556,9.402z M26.537,9.359c-0.005-0.009-0.009-0.019-0.015-0.028
		C26.528,9.341,26.532,9.35,26.537,9.359z M26.512,9.315c-0.005-0.008-0.009-0.015-0.015-0.023
		C26.503,9.3,26.508,9.308,26.512,9.315z M26.454,9.239c-0.005-0.005-0.01-0.011-0.015-0.016
		C26.444,9.228,26.449,9.233,26.454,9.239z M26.485,9.276c-0.005-0.007-0.01-0.013-0.015-0.02
		C26.475,9.263,26.48,9.269,26.485,9.276z M26.331,9.139c0.006,0.004,0.013,0.008,0.019,0.012
		C26.343,9.147,26.337,9.143,26.331,9.139z M26.369,9.164c0.005,0.004,0.011,0.008,0.016,0.012
		C26.38,9.172,26.375,9.167,26.369,9.164z M26.405,9.192c0.005,0.004,0.009,0.008,0.014,0.013C26.415,9.2,26.41,9.196,26.405,9.192z
		 M26.063,9.066c0.008,0,0.016,0.001,0.023,0.001C26.078,9.067,26.07,9.066,26.063,9.066C26.062,9.066,26.063,9.066,26.063,9.066z
		 M26.224,9.092c-0.007-0.002-0.013-0.005-0.02-0.007C26.21,9.087,26.217,9.09,26.224,9.092z M26.18,9.08
		c-0.007-0.002-0.015-0.004-0.022-0.005C26.165,9.076,26.172,9.078,26.18,9.08z M26.133,9.072c-0.007-0.001-0.015-0.002-0.022-0.003
		C26.118,9.069,26.126,9.071,26.133,9.072z M23.669,9.139c0.026-0.015,0.054-0.029,0.083-0.04c0.029-0.011,0.059-0.019,0.09-0.025
		c-0.031,0.006-0.061,0.014-0.09,0.025C23.724,9.111,23.696,9.124,23.669,9.139c-0.04,0.023-0.076,0.051-0.108,0.084
		C23.593,9.191,23.63,9.163,23.669,9.139z M23.414,9.51c0.016-0.096,0.057-0.182,0.116-0.253C23.471,9.328,23.43,9.414,23.414,9.51
		l-0.326,1.947L23.414,9.51z M21.654,12.048l-1.603-1.146c0,0,0,0,0,0c0,0,0,0,0,0L21.654,12.048z M19.816,10.808
		c0.004,0.001,0.007,0.001,0.011,0.002C19.823,10.809,19.819,10.809,19.816,10.808z M19.896,10.826
		c0.004,0.001,0.008,0.003,0.012,0.004C19.904,10.829,19.9,10.827,19.896,10.826z M19.975,10.857
		c0.003,0.002,0.006,0.003,0.01,0.005C19.981,10.86,19.978,10.858,19.975,10.857z M19.743,10.803c-0.003,0-0.007,0-0.01,0
		C19.736,10.803,19.739,10.803,19.743,10.803C19.742,10.803,19.743,10.803,19.743,10.803z M19.405,10.924
		c0.004-0.004,0.009-0.007,0.013-0.01C19.413,10.917,19.409,10.92,19.405,10.924z M19.445,10.894
		c0.005-0.004,0.011-0.007,0.017-0.011C19.456,10.887,19.45,10.89,19.445,10.894z M19.488,10.868
		c0.006-0.003,0.012-0.006,0.018-0.009C19.5,10.861,19.494,10.864,19.488,10.868z M19.532,10.846
		c0.006-0.003,0.013-0.005,0.019-0.008C19.545,10.841,19.539,10.843,19.532,10.846z M19.579,10.829
		c0.007-0.002,0.013-0.004,0.02-0.006C19.592,10.825,19.585,10.827,19.579,10.829z M19.627,10.816
		c0.006-0.001,0.013-0.003,0.019-0.004C19.64,10.813,19.633,10.814,19.627,10.816z M19.677,10.807
		c0.006-0.001,0.012-0.002,0.018-0.002C19.689,10.806,19.683,10.807,19.677,10.807z M17.801,12.535
		c-0.027,0.039-0.048,0.081-0.064,0.124C17.753,12.616,17.775,12.574,17.801,12.535z M18.361,16.183
		c0.024-0.083,0.05-0.166,0.077-0.248C18.411,16.018,18.385,16.1,18.361,16.183l-1.948,0.326L18.361,16.183z M16.013,18.833
		c0.013,0.032,0.03,0.062,0.049,0.09C16.043,18.895,16.026,18.865,16.013,18.833z"/>
	<path class="st1" d="M28.12,18.095c0,0.329,0.268,0.598,0.598,0.598c0.329,0,0.598-0.268,0.598-0.598
		c0-2.379-1.936-4.315-4.315-4.315s-4.315,1.936-4.315,4.315c0,0.329,0.268,0.598,0.598,0.598c0.329,0,0.598-0.268,0.598-0.598
		c0-1.721,1.4-3.12,3.12-3.12S28.12,16.375,28.12,18.095z"/>
	<path class="st1" d="M22.809,18.095c0,0.329,0.268,0.598,0.598,0.598c0.329,0,0.598-0.268,0.598-0.598
		c0-0.549,0.447-0.996,0.996-0.996c0.549,0,0.996,0.447,0.996,0.996c0,0.329,0.268,0.598,0.598,0.598
		c0.329,0,0.598-0.268,0.598-0.598c0-1.208-0.983-2.191-2.191-2.191S22.809,16.887,22.809,18.095z"/>
	<polygon class="st1" points="38.344,36.22 38.344,36.154 38.344,35.622 38.344,35.091 38.344,27.124 38.344,27.058 38.278,27.058 
		37.216,27.058 37.149,27.058 37.149,27.124 37.149,35.025 36.22,35.025 36.22,29.249 36.22,29.183 36.154,29.183 35.091,29.183 
		35.025,29.183 35.025,29.249 35.025,35.025 34.095,35.025 34.095,30.842 34.095,30.776 34.029,30.776 32.967,30.776 32.9,30.776 
		32.9,30.842 32.9,35.025 31.971,35.025 31.971,29.78 31.971,29.714 31.905,29.714 30.842,29.714 30.776,29.714 30.776,29.78 
		30.776,35.025 29.846,35.025 29.846,28.718 29.846,28.651 29.78,28.651 28.718,28.651 28.651,28.651 28.651,28.718 28.651,35.025 
		27.722,35.025 27.722,27.656 27.722,27.589 27.656,27.589 26.593,27.589 26.527,27.589 26.527,27.656 26.527,35.025 25.598,35.025 
		25.598,29.78 25.598,29.714 25.531,29.714 24.469,29.714 24.402,29.714 24.402,29.78 24.402,35.025 23.473,35.025 23.473,31.905 
		23.473,31.838 23.407,31.838 22.344,31.838 22.278,31.838 22.278,31.905 22.278,35.025 21.349,35.025 21.349,32.967 21.349,32.9 
		21.282,32.9 20.22,32.9 20.154,32.9 20.154,32.967 20.154,35.025 19.224,35.025 19.224,31.905 19.224,31.838 19.158,31.838 
		18.095,31.838 18.029,31.838 18.029,31.905 18.029,35.025 17.1,35.025 17.1,31.373 17.1,31.307 17.033,31.307 15.971,31.307 
		15.905,31.307 15.905,31.373 15.905,35.025 14.975,35.025 14.975,32.967 14.975,32.9 14.909,32.9 13.846,32.9 13.78,32.9 
		13.78,32.967 13.78,35.025 12.851,35.025 12.851,34.56 12.851,34.494 12.784,34.494 11.722,34.494 11.656,34.494 11.656,34.56 
		11.656,35.091 11.656,35.622 11.656,36.154 11.656,36.22 11.722,36.22 38.278,36.22 	"/>
</g>
</svg>
