<?xml version="1.0" encoding="utf-8"?>
<!-- Generator: Adobe Illustrator 26.0.1, SVG Export Plug-In . SVG Version: 6.00 Build 0)  -->
<svg version="1.1" id="레이어_1" xmlns="http://www.w3.org/2000/svg" xmlns:xlink="http://www.w3.org/1999/xlink" x="0px"
	 y="0px" viewBox="0 0 50 50" style="enable-background:new 0 0 50 50;" xml:space="preserve">
<style type="text/css">
	.st0{fill:#F6F6FD;}
	.st1{fill:#C8C8E4;}
</style>
<g>
	<circle class="st0" cx="25" cy="25" r="25"/>
</g>
<g>
	<path class="st1" d="M40.621,22.865l-5.498-5.071c-0.184-0.17-0.425-0.285-0.685-0.329v-1.012h1.367
		c0.524,0,0.992-0.289,1.193-0.735c0.201-0.447,0.091-0.956-0.28-1.298L31.22,9.349C30.976,9.124,30.652,9,30.307,9
		c-0.345,0-0.669,0.124-0.913,0.349l-5.498,5.072c-0.371,0.342-0.48,0.851-0.28,1.298c0.2,0.447,0.669,0.735,1.193,0.735h1.366
		v5.564c-1.065-0.162-2.165-0.169-3.239-0.021v-1.441h1.366c0.524,0,0.992-0.289,1.193-0.735c0.201-0.446,0.091-0.956-0.28-1.298
		l-5.498-5.072c-0.503-0.464-1.323-0.464-1.826,0l-5.498,5.072c-0.371,0.342-0.481,0.851-0.28,1.298
		c0.201,0.447,0.669,0.735,1.193,0.735h0.262L9.379,24.42c-0.371,0.342-0.481,0.851-0.28,1.298c0.201,0.447,0.669,0.735,1.193,0.735
		h1.367v12.191c0,0.657,0.579,1.191,1.291,1.191h5.681c0.216,0,0.43-0.05,0.62-0.146C20.834,40.546,22.642,41,24.484,41
		c2.094,0,4.111-0.575,5.837-1.665c0.243,0.314,0.628,0.499,1.049,0.499h5.681c0.712,0,1.291-0.534,1.291-1.191V24.898h1.367
		c0.524,0,0.992-0.289,1.193-0.735C41.102,23.716,40.992,23.207,40.621,22.865z M12.254,25.354h-1.962
		c-0.029,0-0.07-0.006-0.093-0.057c-0.023-0.051,0.001-0.082,0.022-0.101l5.498-5.072c0.024-0.022,0.052-0.027,0.071-0.027
		c0.019,0,0.047,0.005,0.071,0.027l3.355,3.095c-3.143,1.719-5.091,4.861-5.091,8.225c0,2.822,1.335,5.466,3.671,7.291h-4.847
		c-0.055,0-0.1-0.041-0.1-0.092v-12.74C12.849,25.6,12.582,25.354,12.254,25.354z M21.746,20.006v2.223
		c-0.481,0.122-0.957,0.277-1.417,0.463l-3.626-3.344C16.451,19.116,16.121,19,15.79,19c-0.331,0-0.661,0.116-0.913,0.348
		l-0.118,0.109h-1.452c-0.029,0-0.069-0.006-0.093-0.057c-0.023-0.051,0.001-0.082,0.022-0.101l5.499-5.071
		c0.019-0.017,0.045-0.027,0.07-0.027c0.027,0,0.052,0.01,0.071,0.027l5.498,5.071c0.02,0.019,0.045,0.05,0.022,0.101
		c-0.023,0.051-0.064,0.057-0.093,0.057h-1.962C22.013,19.457,21.746,19.703,21.746,20.006z M33.653,31.445
		c0,4.663-4.113,8.457-9.168,8.457s-9.169-3.794-9.169-8.457c0-4.663,4.113-8.457,9.169-8.457S33.653,26.782,33.653,31.445z
		 M30.307,10.098c0.019,0,0.047,0.005,0.071,0.027l5.498,5.072c0.02,0.019,0.045,0.05,0.022,0.101
		c-0.023,0.051-0.064,0.057-0.093,0.057h-1.962c-0.328,0-0.595,0.246-0.595,0.549v10.451c-1.361-1.99-3.436-3.435-5.881-4.089
		v-6.362c0-0.303-0.267-0.549-0.595-0.549h-1.962c-0.017,0-0.067,0-0.093-0.058c-0.026-0.057,0.01-0.09,0.022-0.1l5.498-5.071
		C30.262,10.102,30.291,10.098,30.307,10.098z M37.151,24.349v14.294c0,0.051-0.045,0.092-0.1,0.092H31.37
		c-0.05,0-0.091-0.034-0.099-0.078c2.271-1.82,3.573-4.447,3.573-7.213c0-0.897-0.136-1.787-0.406-2.646V18.715l5.341,4.926
		c0.012,0.011,0.047,0.044,0.022,0.101c-0.023,0.051-0.064,0.057-0.093,0.057h-1.962C37.418,23.8,37.151,24.046,37.151,24.349z"/>
	<path class="st1" d="M24.484,23.832c-1.59,0-3.172,0.473-4.838,1.446c-0.885,0.517-1.773,1.61-1.81,1.656l0,0
		c-1.05,1.314-1.605,2.874-1.605,4.51c0,4.198,3.702,7.613,8.253,7.613s8.253-3.415,8.253-7.613S29.035,23.832,24.484,23.832z
		 M31.547,31.445c0,3.592-3.168,6.514-7.062,6.514c-3.894,0-7.062-2.922-7.062-6.514c0-1.4,0.475-2.735,1.374-3.861
		c0.006-0.008,0.586-0.772,1.546-1.414c1.21-0.811,2.643-1.239,4.143-1.239C28.379,24.93,31.547,27.853,31.547,31.445z"/>
	<path class="st1" d="M25.495,34.561h-2.584c-0.663,0-1.202-0.497-1.202-1.109v-1.226c0.204,0.163,0.515,0.156,0.709-0.023
		c0.203-0.187,0.203-0.492,0-0.679l-0.857-0.79l-0.005-0.004c-0.203-0.187-0.533-0.187-0.736,0l-0.861,0.795
		c-0.098,0.091-0.153,0.211-0.153,0.339c0,0.128,0.054,0.249,0.153,0.34c0.194,0.179,0.504,0.187,0.709,0.023v1.226
		c0,1.141,1.006,2.069,2.243,2.069h2.584c0.287,0,0.521-0.215,0.521-0.48C26.016,34.777,25.782,34.561,25.495,34.561z"/>
	<path class="st1" d="M28.595,31.384c-0.126,0-0.246,0.041-0.341,0.117v-1.226c0-1.141-1.006-2.069-2.243-2.069h-2.584
		c-0.287,0-0.521,0.215-0.521,0.48s0.234,0.48,0.521,0.48h2.584c0.663,0,1.202,0.497,1.202,1.109v1.226
		c-0.204-0.163-0.515-0.156-0.709,0.023c-0.203,0.187-0.203,0.492,0,0.679l0.862,0.795c0.097,0.089,0.231,0.141,0.368,0.141
		c0.137,0,0.271-0.051,0.368-0.141l0.861-0.795c0.098-0.091,0.153-0.211,0.153-0.34c0-0.128-0.054-0.249-0.153-0.34
		C28.865,31.433,28.734,31.384,28.595,31.384z"/>
</g>
</svg>
