<?xml version="1.0" encoding="utf-8"?>
<!-- Generator: Adobe Illustrator 26.0.1, SVG Export Plug-In . SVG Version: 6.00 Build 0)  -->
<svg version="1.1" id="레이어_1" xmlns="http://www.w3.org/2000/svg" xmlns:xlink="http://www.w3.org/1999/xlink" x="0px"
	 y="0px" viewBox="0 0 50 50" style="enable-background:new 0 0 50 50;" xml:space="preserve">
<style type="text/css">
	.st0{fill:#F6F6FD;}
	.st1{fill:#C8C8E4;}
</style>
<g>
	<circle class="st0" cx="25" cy="25" r="25"/>
</g>
<path class="st1" d="M39.045,26.958c-1.174-0.547-2.803-0.918-4.587-1.045l-0.738-0.053l0.681-0.275l3.945-1.591
	c0.274-0.111,0.401-0.412,0.284-0.672c-0.046-0.103-0.128-0.19-0.231-0.245l-1.959-1.066l-0.315-0.171l0.334-0.134l1.922-0.772
	c0.132-0.054,0.235-0.153,0.289-0.28c0.054-0.127,0.052-0.266-0.004-0.392c-0.046-0.103-0.128-0.19-0.231-0.245l-1.994-1.065
	l-0.319-0.171l0.337-0.135l1.922-0.772c0.273-0.111,0.401-0.412,0.284-0.672c-0.046-0.103-0.128-0.19-0.231-0.245l-1.994-1.065
	l-0.319-0.171l0.337-0.135l1.922-0.772c0.132-0.054,0.235-0.153,0.289-0.28c0.054-0.127,0.052-0.266-0.004-0.392
	c-0.046-0.103-0.128-0.19-0.231-0.245l-9.091-4.835C29.265,9.022,29.174,9,29.082,9c-0.071,0-0.141,0.013-0.207,0.039l-6.731,2.616
	l-0.029,0.011l-0.032,0.001c-0.061,0.002-0.121,0.014-0.178,0.036l-4.107,1.638l-8.445,3.286c-0.137,0.051-0.243,0.147-0.301,0.272
	c-0.058,0.125-0.061,0.264-0.009,0.392c0.043,0.105,0.124,0.196,0.226,0.254l1.979,1.106l0.311,0.174l-0.333,0.131l-1.872,0.738
	c-0.278,0.106-0.412,0.405-0.301,0.667c0.043,0.101,0.12,0.188,0.218,0.245l1.977,1.105l0.312,0.174l-0.334,0.131l-1.886,0.738
	c-0.135,0.052-0.239,0.149-0.296,0.275c-0.056,0.126-0.057,0.265-0.003,0.392c0.044,0.104,0.125,0.193,0.228,0.25l1.98,1.107
	l0.307,0.171l-0.327,0.133l-1.872,0.758c-0.271,0.113-0.396,0.415-0.276,0.674c0.041,0.089,0.108,0.165,0.193,0.219l2.198,1.227
	l0.089,0.05v0.098v9.561c0,1.237,1.329,2.013,2.445,2.447C15.452,40.677,17.424,41,19.412,41c2.779,0,5.366-0.61,6.752-1.591
	l0.106-0.075l0.107,0.074c1.44,0.997,3.97,1.593,6.768,1.593c1.989,0,3.96-0.323,5.409-0.886C39.671,39.68,41,38.904,41,37.667
	v-8.468C41.004,28.102,39.939,27.375,39.045,26.958z M36.618,23.293l0.32,0.17L36.6,23.599l-5.334,2.144l-0.25,0.101v-0.258v-1.578
	v-0.113l0.11-0.044l3.642-1.468l0.081-0.033l0.077,0.041L36.618,23.293z M36.618,20.233l0.32,0.17L36.6,20.539l-5.334,2.144
	l-0.25,0.101v-0.258v-1.578v-0.113l0.11-0.044l3.642-1.468l0.081-0.033l0.077,0.041L36.618,20.233z M36.619,17.174l0.318,0.171
	L36.6,17.48l-5.334,2.144l-0.25,0.101v-0.258v-1.584V17.77l0.11-0.044l3.642-1.468l0.082-0.033l0.077,0.042L36.619,17.174z
	 M23.627,12.186l5.341-2.076l0.08-0.031l0.076,0.04l7.493,3.988l0.32,0.17L36.6,14.413l-6.011,2.411L30.5,16.86l-0.081-0.051
	l-6.824-4.323l-0.281-0.178L23.627,12.186z M11.079,17.36l-0.313-0.175l0.336-0.131l6.709-2.609l0.089-0.034l0.08,0.05l6.903,4.371
	l0.277,0.176l-0.307,0.124l-6.068,2.445l-0.083,0.034l-0.078-0.044L11.079,17.36z M11.079,20.42l-0.312-0.175l0.335-0.13
	l1.562-0.608l0.083-0.032l0.077,0.043l5.564,3.107c0.084,0.047,0.179,0.072,0.275,0.072c0.073,0,0.144-0.014,0.211-0.041l6.63-2.67
	l0.25-0.101v0.258v1.578v0.113l-0.109,0.044l-3.383,1.366l-0.048,0.019l-0.051-0.008c-0.899-0.137-1.816-0.206-2.727-0.206
	c-1.037,0-2.08,0.09-3.1,0.267l-0.066,0.011l-0.058-0.032L11.079,20.42z M25.747,22.944v0.259v0.867v0.282l-0.263-0.13
	c-0.333-0.165-0.681-0.309-1.035-0.427l-0.434-0.146l0.423-0.172l1.058-0.43L25.747,22.944z M11.58,26.313l-0.006,0.06v0.135v0.297
	l-0.27-0.149l-0.223-0.123l-0.317-0.175l0.34-0.131l0.23-0.089l0.276-0.107L11.58,26.313z M11.078,23.472l-0.307-0.175l0.332-0.129
	l1.562-0.608l0.083-0.032l0.077,0.044l1.612,0.915l0.321,0.182l-0.351,0.124c-0.491,0.174-0.964,0.398-1.405,0.667l-0.094,0.057
	l-0.096-0.055L11.078,23.472z M26.193,36.902v0.765c0,1.09-2.897,2.308-6.774,2.308s-6.774-1.219-6.774-2.308v-0.765v-0.314
	l0.278,0.17c1.428,0.876,3.918,1.42,6.496,1.42c2.572,0,5.061-0.544,6.496-1.421l0.277-0.169V36.902z M26.193,34.082v0.765
	c0,1.09-2.897,2.308-6.774,2.308s-6.774-1.219-6.774-2.308v-0.765v-0.314l0.278,0.17c1.428,0.876,3.918,1.42,6.496,1.42
	c2.572,0,5.061-0.544,6.496-1.421l0.277-0.169V34.082z M26.193,31.261v0.765c0,1.09-2.897,2.308-6.774,2.308
	s-6.774-1.219-6.774-2.308v-0.765v-0.314l0.278,0.17c1.428,0.876,3.918,1.42,6.496,1.42c2.572,0,5.061-0.544,6.496-1.421
	l0.277-0.169V31.261z M26.193,28.413v0.792c0,1.09-2.897,2.308-6.774,2.308s-6.774-1.219-6.774-2.308v-0.792V28.1l0.278,0.17
	c1.428,0.876,3.918,1.42,6.496,1.42c2.572,0,5.061-0.544,6.496-1.421l0.277-0.169V28.413z M24.299,27.922
	c-1.295,0.487-2.996,0.757-4.797,0.765l-0.007,0.007H19.42c-3.877,0-6.774-1.219-6.774-2.308c0-1.09,2.897-2.308,6.774-2.308
	c3.881,0,6.781,1.208,6.781,2.288C26.2,26.892,25.49,27.474,24.299,27.922z M26.834,25.214v-0.059v-6.044
	c-0.001-0.171-0.092-0.33-0.243-0.424l-7.199-4.563l-0.281-0.178l0.313-0.122l2.599-1.011l0.089-0.034l0.08,0.05l7.652,4.842
	l0.08,0.051v0.091v8.195v0.14l-0.145,0.027c-0.77,0.145-1.526,0.371-2.244,0.672l-0.253,0.106v-0.262v-0.328
	c-0.005-0.397-0.15-0.789-0.408-1.104L26.834,25.214z M33.154,39.976c-2.971,0-5.058-0.683-6.02-1.322l-0.127-0.085l0.07-0.132
	c0.126-0.238,0.194-0.505,0.197-0.772l0-0.299v-0.253l0.247,0.094c1.694,0.647,3.48,0.975,5.306,0.975
	c0.107,0,0.216-0.001,0.324-0.004c2.576,0,5.065-0.544,6.5-1.421l0.277-0.169v0.313l0,0.765
	C39.927,38.757,37.031,39.976,33.154,39.976z M33.157,37.155c-0.147,0.005-0.296,0.008-0.444,0.008c-1.843,0-3.689-0.41-5.34-1.187
	l-0.1-0.047v-0.106V34.56v-0.253l0.247,0.094c1.694,0.647,3.48,0.975,5.306,0.975c0.107,0,0.216-0.001,0.324-0.003
	c2.576,0,5.065-0.544,6.5-1.421l0.277-0.169v0.313l0,0.751C39.927,35.936,37.032,37.154,33.157,37.155z M33.157,34.335
	c-0.148,0.005-0.298,0.008-0.445,0.008c-1.842,0-3.688-0.41-5.339-1.187l-0.1-0.047v-0.106v-1.284v-0.253l0.247,0.094
	c1.694,0.647,3.48,0.975,5.306,0.975c0.107,0,0.216-0.001,0.324-0.004c2.576,0,5.065-0.544,6.5-1.421l0.277-0.169v0.313l0,0.772
	C39.927,33.116,37.032,34.334,33.157,34.335z M33.157,31.514c-0.148,0.005-0.298,0.008-0.445,0.008c-1.842,0-3.688-0.41-5.339-1.187
	l-0.1-0.047v-0.106v-1.96v-0.106l0.1-0.047c1.659-0.785,3.516-1.199,5.369-1.199c0.138,0,0.277,0.002,0.415,0.007
	c3.875,0.001,6.77,1.219,6.77,2.308C39.927,30.284,37.032,31.513,33.157,31.514z"/>
</svg>
