<?xml version="1.0" encoding="utf-8"?>
<!-- Generator: Adobe Illustrator 26.0.1, SVG Export Plug-In . SVG Version: 6.00 Build 0)  -->
<svg version="1.1" id="레이어_1" xmlns="http://www.w3.org/2000/svg" xmlns:xlink="http://www.w3.org/1999/xlink" x="0px"
	 y="0px" viewBox="0 0 24 24" style="enable-background:new 0 0 24 24;" xml:space="preserve">
<style type="text/css">
	.st0{fill:#FFFFFF;}
</style>
<g>
	<g>
		<path class="st0" d="M23.381,19.546c-0.087,0-0.174-0.018-0.256-0.056l-2.977-1.353c-1.398,0.923-3.009,1.409-4.685,1.409
			c-4.707,0-8.536-3.829-8.536-8.536s3.829-8.536,8.536-8.536C20.171,2.474,24,6.303,24,11.01c0,1.299-0.303,2.595-0.876,3.762
			l0.863,4.026c0.049,0.229-0.035,0.465-0.217,0.611C23.657,19.5,23.52,19.546,23.381,19.546z M15.464,3.711
			c-4.025,0-7.299,3.274-7.299,7.299c0,4.025,3.274,7.299,7.299,7.299c1.534,0,3.008-0.477,4.26-1.381
			c0.181-0.13,0.415-0.153,0.618-0.061l2.178,0.99l-0.651-3.04c-0.03-0.142-0.01-0.289,0.058-0.418
			c0.556-1.056,0.837-2.196,0.837-3.389C22.763,6.986,19.488,3.711,15.464,3.711z"/>
		<path class="st0" d="M0.619,21.526c-0.138,0-0.276-0.046-0.388-0.137c-0.182-0.146-0.266-0.383-0.217-0.611l0.749-3.497
			C0.263,16.255,0,15.119,0,13.979c0-3.677,2.625-6.803,6.242-7.434c0.339-0.057,0.657,0.166,0.716,0.503
			c0.059,0.337-0.166,0.657-0.503,0.716c-3.023,0.527-5.217,3.141-5.217,6.215c0,1.03,0.244,2.016,0.724,2.929
			c0.067,0.128,0.088,0.276,0.057,0.418l-0.538,2.51l1.766-0.802c0.202-0.092,0.438-0.069,0.618,0.061
			c1.083,0.781,2.356,1.194,3.682,1.194c1.155,0,2.284-0.315,3.265-0.909c0.292-0.177,0.672-0.085,0.85,0.208
			c0.177,0.292,0.084,0.673-0.208,0.85c-1.175,0.713-2.526,1.089-3.907,1.089c-1.466,0-2.878-0.421-4.106-1.222L0.874,21.47
			C0.793,21.507,0.705,21.526,0.619,21.526z"/>
	</g>
	<g>
		<path class="st0" d="M19.917,11.629H11.01c-0.342,0-0.619-0.277-0.619-0.619s0.277-0.619,0.619-0.619h8.907
			c0.342,0,0.619,0.277,0.619,0.619S20.259,11.629,19.917,11.629z"/>
		<path class="st0" d="M19.917,14.598h-6.433c-0.342,0-0.619-0.277-0.619-0.619s0.277-0.619,0.619-0.619h6.433
			c0.342,0,0.619,0.277,0.619,0.619S20.259,14.598,19.917,14.598z"/>
		<path class="st0" d="M19.917,8.66H11.01c-0.342,0-0.619-0.277-0.619-0.619c0-0.342,0.277-0.619,0.619-0.619h8.907
			c0.342,0,0.619,0.277,0.619,0.619C20.536,8.383,20.259,8.66,19.917,8.66z"/>
	</g>
</g>
</svg>
