<?xml version="1.0" encoding="utf-8"?>
<!-- Generator: Adobe Illustrator 26.0.1, SVG Export Plug-In . SVG Version: 6.00 Build 0)  -->
<svg version="1.1" id="레이어_1" xmlns="http://www.w3.org/2000/svg" xmlns:xlink="http://www.w3.org/1999/xlink" x="0px"
	 y="0px" viewBox="0 0 12 12" style="enable-background:new 0 0 12 12;" xml:space="preserve">
<style type="text/css">
	.st0{fill:#4341CE;}
</style>
<path class="st0" d="M3.765,10.576c-0.245,0-0.476-0.096-0.649-0.269L0.269,7.46C0.095,7.286,0,7.056,0,6.811
	c0-0.245,0.095-0.476,0.269-0.649c0.173-0.173,0.404-0.269,0.649-0.269c0.245,0,0.476,0.096,0.649,0.269l2.199,2.199l6.668-6.668
	c0.173-0.173,0.404-0.269,0.649-0.269c0.245,0,0.476,0.095,0.649,0.269C11.905,1.866,12,2.096,12,2.342
	c0,0.245-0.095,0.476-0.269,0.649l-7.317,7.317C4.241,10.481,4.011,10.576,3.765,10.576z"/>
</svg>
