<svg xmlns="http://www.w3.org/2000/svg" viewBox="0 0 24 24" style="enable-background:new 0 0 24 24" xml:space="preserve"><path d="M13.714 12.369 13.345 12l.369-.369L23.721 1.624c.18-.18.279-.419.279-.673s-.099-.493-.279-.673a.949.949 0 0 0-1.345 0L12.369 10.286l-.369.369-.369-.369L1.624.279A.942.942 0 0 0 .952 0a.942.942 0 0 0-.673.279C.099.458 0 .697 0 .951s.099.493.279.673l10.007 10.007.369.369-.369.369L.279 22.376a.944.944 0 0 0-.279.673c0 .254.099.493.279.672.179.18.418.279.672.279a.942.942 0 0 0 .672-.279L11.63 13.714l.37-.369.369.369 10.007 10.007c.18.18.418.279.673.279a.942.942 0 0 0 .672-.279.946.946 0 0 0 .279-.673.946.946 0 0 0-.279-.673L13.714 12.369z"/></svg>