<?xml version="1.0" encoding="utf-8"?>
<!-- Generator: Adobe Illustrator 26.2.1, SVG Export Plug-In . SVG Version: 6.00 Build 0)  -->
<svg version="1.1" id="레이어_1" xmlns="http://www.w3.org/2000/svg" xmlns:xlink="http://www.w3.org/1999/xlink" x="0px"
	 y="0px" viewBox="0 0 18 18" style="enable-background:new 0 0 18 18;" xml:space="preserve">
<style type="text/css">
	.st0{fill:#333333;}
</style>
<path class="st0" d="M15.707,11.693c-0.359-0.192-1.105-0.593-1.105-5.13c0-2.509-1.599-4.653-3.987-5.361
	C10.431,0.607,9.939,0.154,9.34,0.034C9.228,0.011,9.113,0,9,0C8.248,0,7.594,0.49,7.379,1.203c-2.385,0.71-3.981,2.853-3.981,5.36
	c0,4.548-0.707,4.909-1.046,5.082c-0.564,0.288-1.165,0.706-1.165,2.031c0,0.75,0.61,1.36,1.36,1.36h3.103
	C5.856,16.709,7.301,18,9,18s3.144-1.291,3.351-2.965h3.103c0.75,0,1.36-0.61,1.36-1.36v-0.11
	C16.814,12.442,16.282,12.001,15.707,11.693z M11.223,14.928c-0.151,1.1-1.097,1.94-2.223,1.94s-2.072-0.84-2.223-1.94H11.223z
	 M8.308,2.151l0.131-0.02V1.694c0-0.31,0.252-0.562,0.561-0.562c0.039,0,0.079,0.004,0.118,0.012
	c0.257,0.052,0.444,0.294,0.444,0.577v0.41l0.131,0.02c2.189,0.341,3.778,2.196,3.778,4.411c0,5.214,1.024,5.764,1.701,6.128
	c0.329,0.177,0.51,0.274,0.51,0.876v0.11c0,0.125-0.102,0.227-0.228,0.227H2.546c-0.125,0-0.227-0.102-0.227-0.227
	c0-0.742,0.206-0.848,0.548-1.023c0.702-0.359,1.663-0.85,1.663-6.091C4.53,4.348,6.119,2.492,8.308,2.151z"/>
</svg>
