<?xml version="1.0" encoding="utf-8"?>
<!-- Generator: Adobe Illustrator 26.0.1, SVG Export Plug-In . SVG Version: 6.00 Build 0)  -->
<svg version="1.1" id="레이어_1" xmlns="http://www.w3.org/2000/svg" xmlns:xlink="http://www.w3.org/1999/xlink" x="0px"
	 y="0px" viewBox="0 0 20 20" style="enable-background:new 0 0 20 20;" xml:space="preserve">
<style type="text/css">
	.st0{fill:#EE418B;}
	.st1{fill:#EE417E;}
</style>
<g>
	<path class="st0" d="M10,1c4.963,0,9,4.037,9,9s-4.037,9-9,9s-9-4.037-9-9S5.037,1,10,1 M10,0C4.477,0,0,4.477,0,10s4.477,10,10,10
		s10-4.477,10-10S15.523,0,10,0L10,0z"/>
</g>
<g>
	<path class="st1" d="M7.047,15.875V4.899h3.84c1.28,0,2.245,0.288,2.896,0.864c0.65,0.575,0.976,1.413,0.976,2.512
		c0,1.12-0.334,1.981-1,2.584s-1.582,0.904-2.744,0.904h-2v4.111H7.047z M9.016,10.291h1.632c0.725,0,1.248-0.154,1.568-0.464
		c0.32-0.31,0.479-0.789,0.479-1.439c0-0.715-0.154-1.222-0.463-1.521c-0.31-0.299-0.827-0.448-1.552-0.448H9.016V10.291z"/>
</g>
</svg>
