<?xml version="1.0" encoding="utf-8"?>
<!-- Generator: Adobe Illustrator 26.0.1, SVG Export Plug-In . SVG Version: 6.00 Build 0)  -->
<svg version="1.1" id="레이어_1" xmlns="http://www.w3.org/2000/svg" xmlns:xlink="http://www.w3.org/1999/xlink" x="0px"
	 y="0px" viewBox="0 0 16 16" style="enable-background:new 0 0 16 16;" xml:space="preserve">
<style type="text/css">
	.st0{fill:#4341CE;}
</style>
<g>
	<g>
		<path class="st0" d="M8,1c3.86,0,7,3.14,7,7s-3.14,7-7,7s-7-3.14-7-7S4.14,1,8,1 M8,0C3.582,0,0,3.582,0,8s3.582,8,8,8
			s8-3.582,8-8S12.418,0,8,0L8,0z"/>
	</g>
	<g>
		<path class="st0" d="M5.638,12.7v-8.78H8.71c1.024,0,1.796,0.23,2.317,0.691c0.52,0.46,0.78,1.13,0.78,2.009
			c0,0.896-0.267,1.585-0.8,2.067c-0.533,0.482-1.266,0.723-2.195,0.723h-1.6V12.7H5.638z M7.212,8.233h1.305
			c0.58,0,0.998-0.123,1.254-0.371c0.256-0.248,0.384-0.631,0.384-1.152c0-0.572-0.123-0.977-0.37-1.216
			C9.537,5.255,9.124,5.135,8.544,5.135H7.212V8.233z"/>
	</g>
</g>
</svg>
