<?xml version="1.0" encoding="utf-8"?>
<!-- Generator: Adobe Illustrator 26.0.1, SVG Export Plug-In . SVG Version: 6.00 Build 0)  -->
<svg version="1.1" id="레이어_1" xmlns="http://www.w3.org/2000/svg" xmlns:xlink="http://www.w3.org/1999/xlink" x="0px"
	 y="0px" viewBox="0 0 530 530" style="enable-background:new 0 0 530 530;" xml:space="preserve">
<style type="text/css">
	.st0{fill:#F5B916;}
	.st1{fill:#FFFFFF;}
	.st2{fill:#FFE596;}
</style>
<g>
	<path class="st0" d="M529.7,264.9c0,20.4-2.3,40.2-6.7,59.2c-22.7,99.3-101.2,177.4-200.8,199.5c-18.5,4.1-37.8,6.3-57.6,6.3
		c-146.4,0-265-118.6-265-265s118.6-265,265-265C411.1-0.1,529.7,118.6,529.7,264.9z"/>
	<g>
		<path class="st1" d="M297.5,363.9V98.6h-25.1c-18.5,19.7-39.7,32-63.8,36.8v44.8c9.3-1.4,17.5-3.6,24.6-6.6v190.4h-24.6v46h112.9
			v-46H297.5z"/>
	</g>
	<path class="st2" d="M523.1,324.2c-22.7,99.3-101.2,177.4-200.8,199.5L208.6,410h112.9v-46h-24V98.6L523.1,324.2z"/>
</g>
</svg>
