<?xml version="1.0" encoding="utf-8"?>
<!-- Generator: Adobe Illustrator 26.2.0, SVG Export Plug-In . SVG Version: 6.00 Build 0)  -->
<svg version="1.1" id="레이어_1" xmlns="http://www.w3.org/2000/svg" xmlns:xlink="http://www.w3.org/1999/xlink" x="0px"
	 y="0px" viewBox="0 0 530 530" style="enable-background:new 0 0 530 530;" xml:space="preserve">
<style type="text/css">
	.st0{fill:#F5B916;}
	.st1{fill:#FFFFFF;}
	.st2{fill:#FFE596;}
</style>
<g>
	<path class="st0" d="M530,265c0,20.4-2.3,40.2-6.7,59.2c-22.7,99.3-101.2,177.4-200.8,199.5c-18.5,4.1-37.8,6.3-57.6,6.3
		C118.6,530,0,411.4,0,265S118.6,0,265,0C411.4,0,530,118.6,530,265z"/>
	<g>
		<path class="st1" d="M297.8,364V98.6h-25.1c-18.5,19.7-39.7,32-63.8,36.8v44.8c9.3-1.4,17.5-3.6,24.6-6.6V364h-24.6v46h112.9v-46
			H297.8z"/>
	</g>
	<path class="st2" d="M523.3,324.2c-22.7,99.3-101.2,177.4-200.8,199.5L208.9,410h112.9v-46h-24V98.6L523.3,324.2z"/>
</g>
</svg>
