<?xml version="1.0" encoding="utf-8"?>
<!-- Generator: Adobe Illustrator 26.0.3, SVG Export Plug-In . SVG Version: 6.00 Build 0)  -->
<svg version="1.1" id="레이어_1" xmlns="http://www.w3.org/2000/svg" xmlns:xlink="http://www.w3.org/1999/xlink" x="0px"
	 y="0px" viewBox="0 0 16 16" style="enable-background:new 0 0 16 16;" xml:space="preserve">
<style type="text/css">
	.st0{fill:#F4F4F4;}
</style>
<g>
	<path class="st0" d="M13,16H3c-1.657,0-3-1.343-3-3V3c0-1.657,1.343-3,3-3h10c1.657,0,3,1.343,3,3v10C16,14.657,14.657,16,13,16z"
		/>
</g>
<path d="M14,6.987V2.331l-1.598,1.597l-0.165-0.166C11.099,2.626,9.593,2,7.996,2C4.69,2,2,4.692,2,8c0,3.309,2.69,6,5.996,6
	c2.63,0,4.939-1.715,5.718-4.208h-1.149c-0.732,1.871-2.547,3.117-4.569,3.117c-2.708,0-4.912-2.202-4.912-4.909
	s2.204-4.909,4.912-4.909c1.297,0,2.525,0.517,3.456,1.456l0.164,0.165L9.341,6.987H14z"/>
</svg>
