<?xml version="1.0" encoding="utf-8"?>
<!-- Generator: Adobe Illustrator 26.0.1, SVG Export Plug-In . SVG Version: 6.00 Build 0)  -->
<svg version="1.1" id="레이어_1" xmlns="http://www.w3.org/2000/svg" xmlns:xlink="http://www.w3.org/1999/xlink" x="0px"
	 y="0px" viewBox="0 0 15 15" style="enable-background:new 0 0 15 15;" xml:space="preserve">
<style type="text/css">
	.st0{fill:#323333;}
</style>
<path class="st0" d="M10.872,9.545l0.177-0.281c0.598-0.952,0.914-2.05,0.914-3.176c0-3.298-2.683-5.981-5.981-5.981S0,2.79,0,6.088
	c0,3.298,2.683,5.981,5.981,5.981c1.228,0,2.409-0.371,3.416-1.072l0.286-0.199l3.843,3.843c0.163,0.163,0.379,0.252,0.61,0.252
	c0.231,0,0.448-0.09,0.611-0.252C14.91,14.478,15,14.261,15,14.03c0-0.23-0.09-0.447-0.253-0.61L10.872,9.545z M5.981,10.829
	c-2.614,0-4.741-2.127-4.741-4.741c0-2.614,2.127-4.741,4.741-4.741c2.614,0,4.741,2.127,4.741,4.741
	C10.722,8.702,8.595,10.829,5.981,10.829z"/>
</svg>
