<?xml version="1.0" encoding="utf-8"?>
<!-- Generator: Adobe Illustrator 26.0.3, SVG Export Plug-In . SVG Version: 6.00 Build 0)  -->
<svg version="1.1" id="레이어_1" xmlns="http://www.w3.org/2000/svg" xmlns:xlink="http://www.w3.org/1999/xlink" x="0px"
	 y="0px" viewBox="0 0 16 16" style="enable-background:new 0 0 16 16;" xml:space="preserve">
<style type="text/css">
	.st0{fill:#888888;}
</style>
<path class="st0" d="M11.597,10.181l0.189-0.3c0.638-1.015,0.975-2.187,0.975-3.388c0-3.518-2.862-6.38-6.38-6.38S0,2.976,0,6.494
	s2.862,6.38,6.38,6.38c1.31,0,2.57-0.396,3.644-1.143l0.305-0.212l4.099,4.099c0.174,0.174,0.404,0.269,0.651,0.269
	s0.478-0.096,0.652-0.269c0.174-0.174,0.27-0.405,0.27-0.652c0-0.245-0.096-0.477-0.27-0.651L11.597,10.181z M6.38,11.551
	c-2.788,0-5.057-2.269-5.057-5.057S3.591,1.437,6.38,1.437s5.057,2.269,5.057,5.057S9.168,11.551,6.38,11.551z"/>
</svg>
