<?xml version="1.0" encoding="utf-8"?>
<!-- Generator: Adobe Illustrator 26.0.1, SVG Export Plug-In . SVG Version: 6.00 Build 0)  -->
<svg version="1.1" id="레이어_1" xmlns="http://www.w3.org/2000/svg" xmlns:xlink="http://www.w3.org/1999/xlink" x="0px"
	 y="0px" viewBox="0 0 16 16" style="enable-background:new 0 0 16 16;" xml:space="preserve">
<style type="text/css">
	.st0{fill:#FFFFFF;}
</style>
<g>
	<path class="st0" d="M5.877,12.043l-1.349,0.752c-0.07,0.039-0.154-0.019-0.142-0.098l0.239-1.662
		c0.006-0.043,0.057-0.063,0.091-0.036l1.17,0.951C5.916,11.976,5.912,12.024,5.877,12.043z"/>
	<path class="st0" d="M15.947,2.67l-0.093,0.16L9.47,13.788c-0.075,0.129-0.248,0.161-0.364,0.067l-4.2-3.375l0.015-0.107
		l6.565-4.902c0.081-0.06,0.1-0.173,0.044-0.257l0,0c-0.057-0.085-0.171-0.109-0.258-0.054L4.07,9.728L4.066,9.757l-0.365,2.545
		c-0.012,0.087-0.137,0.09-0.154,0.005L2.833,8.753L2.284,8.306L0.09,6.523c-0.154-0.125-0.101-0.374,0.091-0.425l13.594-3.616
		L15.531,2.1c0.029-0.007,0.058-0.01,0.086-0.01C15.901,2.09,16.1,2.406,15.947,2.67z"/>
</g>
</svg>
