<?xml version="1.0" encoding="utf-8"?>
<!-- Generator: Adobe Illustrator 26.0.3, SVG Export Plug-In . SVG Version: 6.00 Build 0)  -->
<svg version="1.1" xmlns="http://www.w3.org/2000/svg" xmlns:xlink="http://www.w3.org/1999/xlink" x="0px" y="0px"
	 viewBox="0 0 1041.049 1337.896" style="enable-background:new 0 0 1041.049 1337.896;" xml:space="preserve">
<style type="text/css">
	.st0{fill:#2E2C89;}
	.st1{fill:#E7EAF1;}
	.st2{opacity:0.4;}
	.st3{fill:#FFFFFF;}
	.st4{fill:#333333;}
	.st5{fill:#CCC9DC;}
	.st6{fill:#A4B1F9;}
	.st7{fill:#6458C6;}
	.st8{fill:#90F1F5;}
</style>
<g id="묐迹_2">
	<g>
		<g>
			<path class="st0" d="M391.2,1251.613l-21.465-20.307l-126.675-4.698c0,0,29.31,31.634,39.402,38.235
				c10.092,6.601,93.65,25.028,93.65,25.028l31.334,6.973l22.136-9.549l4.686-11.172L391.2,1251.613z"/>
		</g>
		<g>
			<path class="st0" d="M658.069,1209.224c0,0-76.32,2.991-85.539,3.618c-9.219,0.627-132.817,4.196-132.817,4.196l-38.469,22.734
				l11.12,33.252l40.503-2.541l14.908-5.793l49.853,14.736l24.013-3.047l-3.559,8.19l67.627,23.958c0,0,64.234,7.555,107.356-31.015
				L658.069,1209.224z"/>
		</g>
		<g>
			<path class="st0" d="M239.913,1287.042l-19.939-1.948l-20.098-0.492l-8.274-2.586l-15.31,0.961l-10.329,5.506
				c0,0,0.509,8.119,7.716,7.297c7.207-0.821,41.253-2.588,41.253-2.588l25.485,1.875l12.422-3.341L239.913,1287.042z"/>
		</g>
		<g>
			<path class="st0" d="M264.587,1306.586c-10.555,4.161-27.099,3.609-27.099,3.609l15.06,22.273l67.541,1.293l-35.846-22.38
				L264.587,1306.586z"/>
		</g>
		<g>
			<polygon class="st0" points="338.303,1301.96 304.929,1296.286 282.905,1306.403 291.049,1318.505 319.743,1328.252 
				349.23,1326.402 			"/>
		</g>
		<g>
			<polygon class="st0" points="397.467,1301.296 390.464,1303.093 382.574,1322.525 445.294,1296.873 			"/>
		</g>
		<g>
			<path class="st0" d="M489.659,1269.041l-24.15,9.782l18.128,14.019c0,0,29.012-8.14,35.362-17.375L489.659,1269.041z"/>
		</g>
		<g>
			<path class="st0" d="M554.805,1308.971l-40.756-16.123l-15.745-1.704l-20.633,1.294l-21.382,8.149l9.7,4.025
				c0,0,23.164-5.793,27.879-1.749c4.714,4.044-8.172,22.785-8.172,22.785L554.805,1308.971z"/>
		</g>
		<g>
			<polygon class="st0" points="713.314,1247.466 747.711,1251.285 760.063,1271.224 850.033,1243.138 846.74,1264.475 
				921.945,1238.219 918.854,1229.783 818.007,1214.832 754.57,1218.812 706.452,1227.952 			"/>
		</g>
		<g>
			<polygon class="st0" points="818.983,1278.021 799.21,1280.93 747.302,1326.434 849.613,1323.88 833.39,1289.887 			"/>
		</g>
		<g>
			<path class="st0" d="M849.155,1316.577c0,0,9.384-17.313,61.778-3.876c52.394,13.437,59.999-15.066,59.999-15.066l-64.91-13.805
				l-38.796,1.024l-30.093,6.609l-1.442,14.656L849.155,1316.577z"/>
		</g>
		<g>
			<path class="st0" d="M1029.36,1305.271c0,0-52.259,43.059-140.591,30.241c0,0-8.059-19.562,43.349-16.81
				C983.526,1321.455,1029.36,1305.271,1029.36,1305.271z"/>
		</g>
		<g>
			<g>
				<path class="st0" d="M695.019,1317.979c-0.27,0.017-0.543,0.029-0.82,0.037c-9.794,0.277-19.518-3.069-27.234-6.821
					c-2.891,1.853-5.67,3.851-8.226,5.875l-2.116-2.672c2.341-1.854,4.614-3.522,6.814-5.015c-0.881-0.477-1.725-0.951-2.53-1.418
					c-8.87-5.146-14.731-10.303-14.976-10.52l2.259-2.553c0.132,0.117,7.775,6.797,18.538,12.351
					c16.923-10.506,29.218-10.414,35.568-6.154c3.577,2.402,5.23,6.235,4.209,9.765
					C705.314,1314.971,701.048,1317.601,695.019,1317.979z M670.462,1309.059c7.202,3.287,15.451,5.781,23.641,5.549
					c5.759-0.188,8.5-2.535,9.127-4.702c0.61-2.11-0.476-4.404-2.834-5.987C693.147,1299.053,681.344,1302.752,670.462,1309.059z"/>
			</g>
		</g>
		<g>
			<path class="st0" d="M728.513,1279.574c-12.703,0.409-28.993-5.9-29.68-6.169l1.242-3.175c0.162,0.063,16.332,6.323,28.329,5.938
				L728.513,1279.574z"/>
		</g>
		<g>
			<polygon class="st0" points="726.594,1266.315 727.575,1281.942 749.002,1278.672 754.901,1268.339 			"/>
		</g>
	</g>
	<g>
	</g>
</g>
<g id="묐迹_4">
	<g>
		<g>
			<path class="st1" d="M272.016,426.548c-4.931-1.896-10.359-1.901-15.54-2.93c-11.743-2.332-21.752-9.787-32.887-14.187
				c-11.135-4.4-25.708-4.83-33.193,4.515c-2.604,3.251-4.028,7.339-6.739,10.503c-8.089,9.439-23.435,6.814-34.459,1.067
				c-11.023-5.746-21.775-14.023-34.198-13.569c-13.418,0.49-24.622,11.697-28.966,24.401c-4.344,12.704-3.134,26.597-1.006,39.854
				c4.087,25.449,16.587,55.148,42.19,58.118c8.451,0.98,16.894-1.317,25.359-2.169c8.465-0.852,17.917,0.12,23.858,6.211
				c5.94,6.09-3.687,12.758-2.847,21.224c2.262,22.796,45.406,6.111,68.109,9.167c4.905,0.66,11.324,3.277,10.343,8.129
				c-0.385,1.904-1.928,3.347-3.505,4.481c-9.357,6.726-21.891,7.007-32.208,12.141c-10.317,5.134-17.495,20.599-8.385,27.657
				c5.305,4.11,14.586,3.946,16.491,10.381c0.927,3.131-0.543,6.397-1.586,9.492c-4.676,13.879-0.184,30.378,10.883,39.971
				l4.021-23.073c14.27-29.779,28.711-60.094,33.803-92.721c0.581-3.724,0.928-7.912-1.37-10.899
				c-4.659-6.056-14.581-1.756-21.772-4.338c-11.531-4.139-8.589-22.408,0.826-30.247c9.415-7.839,22.436-10.886,30.686-19.944
				c8.044-8.831,9.918-21.596,10.178-33.539C290.44,450.717,286.511,432.122,272.016,426.548z"/>
		</g>
		<g>
			<path class="st1" d="M111.336,317.901c1.234,4.496,0.275,9.618,2.649,13.631c2.252,3.806,6.817,5.465,10.206,8.306
				c5.552,4.655,7.664,12.988,4.998,19.726c-1.095,2.767-2.907,5.278-3.461,8.203c-1.621,8.549,7.549,14.857,15.37,18.673
				l5.422,2.303c2.695,1.469,5.698,2.77,8.738,2.344c3.04-0.426,5.923-3.233,5.359-6.25c-0.46-2.461-2.823-3.999-4.775-5.566
				c-7.808-6.269-11.237-17.484-8.271-27.048c2.967-9.564,12.141-16.869,22.126-17.619c3.84-0.288,7.797,0.297,11.49-0.794
				c3.693-1.091,7.105-4.75,6.068-8.459c-0.594-2.124-2.446-3.63-4.266-4.875c-10.595-7.246-23.785-10.61-36.556-9.322
				c-3.881,0.391-7.813,1.194-11.645,0.466c-3.833-0.729-7.637-3.525-7.995-7.41c-0.189-2.053,0.594-4.065,0.775-6.119
				c0.623-7.088-5.633-12.595-10.69-17.6c-5.057-5.005-9.558-13.036-5.35-18.774c2.414-3.292,6.778-4.328,10.738-5.319
				c12.879-3.222,25.275-8.362,36.655-15.198c1.356-0.814,2.746-1.7,3.576-3.047c3.224-5.231-3.978-10.638-9.871-12.383
				c-19.716-5.838-40.382-8.456-60.931-7.716c-7.648,0.275-15.502,1.075-22.295,4.597c-14.774,7.661-20.673,27.314-15.706,43.197
				c4.966,15.884,18.707,27.86,34,34.424C97.077,304.3,108.632,308.052,111.336,317.901z"/>
		</g>
		<g>
			<path class="st1" d="M175.77,216.968c0.59,1.086,0.736,2.357,1.209,3.499c0.648,1.565,1.931,2.856,3.492,3.513l2.591,2.023
				c1.501,0.373,3.037,0.748,4.577,0.606c1.54-0.142,3.113-0.902,3.816-2.28c0.706-1.383,0.43-3.114,1.152-4.489
				c1.063-2.026,3.711-2.441,5.956-2.883c2.245-0.443,4.88-1.691,4.922-3.98c0.011-0.634-0.194-1.249-0.401-1.847
				c-1.006-2.9-2.192-5.861-4.415-7.976c-2.506-2.384-6.012-3.388-9.425-3.954c-5.143-0.854-10.419-0.901-15.576-0.138
				c-2.741,0.405-5.566,1.096-7.67,2.899c-2.103,1.804-3.234,5.002-1.924,7.443C166.324,213.6,173.498,212.783,175.77,216.968z"/>
		</g>
		<g>
			<path class="st1" d="M88.531,81.843l4.753-1.526c0.843,1.005,2.638,0.953,3.422-0.099c-1.276-2.697-2.552-5.394-3.828-8.091
				c-0.257-0.542-0.594-1.15-1.183-1.263c-0.597-0.115-1.136,0.336-1.708,0.539c-1.104,0.393-2.295-0.146-3.451-0.34
				c-3.682-0.618-7.381,3.143-6.701,6.814C80.515,81.549,85.314,83.737,88.531,81.843z"/>
		</g>
	</g>
	<g>
		<path class="st1" d="M101.054,36.76c-0.807-0.783-2.504-0.48-2.647,0.635l-1.246,0.969c-0.276,1.604-0.439,3.227-0.487,4.854
			c-0.008,0.279,0.02,0.616,0.268,0.743c0.161,0.083,0.356,0.04,0.53-0.012c1.903-0.573,3.478-2.132,4.073-4.027
			C101.881,38.85,101.861,37.543,101.054,36.76z"/>
	</g>
</g>
<g id="묐迹_3">
	<g>
		<g class="st2">
			<path class="st3" d="M226.877,685.131c-4.274,3.323-8.729,6.727-13.402,10.231C213.474,695.361,219.029,691.873,226.877,685.131z
				"/>
		</g>
		<g class="st2">
			<path class="st3" d="M226.877,685.131c105.394-81.946,90.832-110.015,44.661-143.696c1.089,3.189,2.043,6.409,2.84,9.667
				C291.068,619.339,249.456,665.733,226.877,685.131z"/>
		</g>
		<g class="st2">
			<path class="st3" d="M138.321,403.712c30.149,75.486,93.42,108.692,133.217,137.723
				c-27.214-79.705-141.51-139.08-139.774-250.018C120.748,321.814,120.2,358.342,138.321,403.712z"/>
		</g>
		<g class="st2">
			<path class="st3" d="M288.015,127.353C319.08,64.991,304.509,0,304.509,0c-4.167,123.834-142.285,124.261-169.383,260.518
				c-2.136,10.742-3.208,21.024-3.362,30.899C161.201,210.184,265.41,172.734,288.015,127.353z"/>
		</g>
	</g>
	<g class="st2">
		<path class="st3" d="M90.789,257.726c29.618-100.256,2.229-165.124,2.229-165.124c17.969,127.496-24.579,117.317-36.582,204.449
			c-12.003,87.132,53.449,124.46,53.449,124.46S61.171,357.982,90.789,257.726z"/>
	</g>
	<g>
		<g>
			<path d="M504.313,1261.232l-35.956,12.753l17.26,14.457c20.25-2.438,39.867-24.267,39.867-24.267L504.313,1261.232z"/>
		</g>
		<g>
			<g>
				<g>
					<path class="st4" d="M341.941,1267.921c-5.584,0.35-9.294,0.413-9.821,0.42l-0.049-3.49
						c0.473-0.007,47.542-0.818,69.043-14.039l1.829,2.974C386.59,1263.841,357.241,1266.961,341.941,1267.921z"/>
				</g>
			</g>
		</g>
		<g>
			<g>
				<g>
					<path class="st4" d="M327.095,1223.045c-19.679,1.235-44.319-0.333-73.421-8.168l0.908-3.371
						c89.454,24.082,137.186-11.141,137.658-11.499l2.113,2.779c-0.5,0.381-12.513,9.378-35.961,15.418
						C350.04,1220.355,339.562,1222.263,327.095,1223.045z"/>
				</g>
			</g>
		</g>
		<g>
			<g>
				<g>
					<path class="st4" d="M287.336,1248.074l-1.606-3.099c19.811-10.273,23.208-31.49,23.24-31.702l3.453,0.511
						C312.283,1214.726,308.772,1236.959,287.336,1248.074z"/>
				</g>
			</g>
		</g>
		<g>
			<g>
				<path class="st5" d="M895.536,1317.847l0.402,6.41c0,0,81.06,23.131,145.529-27.55l-0.417-6.64l-19.23-3.398l-74.538,26.051
					l-36.135,3.433L895.536,1317.847z"/>
			</g>
		</g>
		<g>
			<g>
				<g>
					<path class="st4" d="M671.117,1331.685l-3.414-0.729c2.306-10.8,7.715-19.655,15.904-26.214
						c-30.988-11.348-66.325-32.615-68.406-33.875l1.808-2.986c0.52,0.315,38.521,23.187,70.016,34.365
						c3.713-2.472,7.899-4.537,12.537-6.172c12.902-4.55,24.579-4.174,25.068-4.157l0.458,0.017l0.39,0.24
						c1.01,0.62,9.823,6.218,8.499,11.939c-0.939,4.054-6.426,6.506-16.778,7.498c-7.769,0.756-18.341-1.601-29.711-5.493
						C678.925,1312.26,673.438,1320.817,671.117,1331.685z M691.254,1303.686c9.899,3.228,18.902,5.078,25.612,4.45
						c11.626-1.114,13.461-3.735,13.71-4.81c0.52-2.248-3.456-5.943-6.528-7.928c-2.252-0.016-12.519,0.136-23.424,4.003
						C697.222,1300.606,694.098,1302.036,691.254,1303.686z"/>
				</g>
			</g>
		</g>
		<g>
			<g>
				<g>
					<path class="st4" d="M756.576,1158.722l-1.857-2.956c0.519-0.326,52.741-32.744,123.967-42.403l0.469,3.459
						C808.669,1126.381,757.089,1158.399,756.576,1158.722z"/>
				</g>
			</g>
		</g>
		<g>
			<g>
				<g>
					<path class="st4" d="M801.459,1166.743l-2.002-2.858c0.322-0.226,32.675-22.722,68.461-32.606l0.929,3.365
						C833.656,1144.362,801.777,1166.52,801.459,1166.743z"/>
				</g>
			</g>
		</g>
		<g>
			<polygon class="st5" points="314.514,1299.176 279.192,1306.058 287.697,1311.548 314.383,1306.376 347.874,1329.147 
				362.522,1321.035 			"/>
		</g>
		<g>
			<g>
				<path class="st5" d="M525.029,1151.892c0,0-67.692-54.048-160.599-48.219c0,0-19.267,18.114-27.03,33.758l14.663,10.716
					l31.685,3.282l13.339,22.096l-15.914-16.688l-32.046,0.262l-7.944-5.828c0,0-10.847,40.818,2.877,64.441l32.313,4.004
					l-46.585,10.105c0,0,28.723,33.56,61.657,34.995l75.957-34.395l92.786-5.825l-6.509-22.035L525.029,1151.892z"/>
			</g>
		</g>
		<g>
			<g>
				<polygon class="st5" points="934.173,1227.656 930.787,1235.641 861.208,1253.997 855.202,1232.61 905.525,1223.235 				"/>
			</g>
		</g>
		<g>
			<g>
				<polygon class="st5" points="516.965,1268.883 574.988,1269.623 568.405,1263.818 623.524,1262.744 658.795,1255.037 
					663.776,1241.511 653.805,1231.255 558.54,1237.232 517.489,1258.66 				"/>
			</g>
		</g>
		<g>
			<g>
				<path class="st1" d="M729.369,1168.911c0,0,34.467-45.301,102.477-48.402l17.569,19.872c0,0-20.861,20.573-8.938,52.657
					l-99.666,18.876L729.369,1168.911z"/>
			</g>
		</g>
		<g>
			<g>
				<path class="st5" d="M723.41,1166.844c0,0,34.467-45.301,102.477-48.402l17.569,19.872c0,0-20.861,20.573-8.938,52.657
					l-99.666,18.876L723.41,1166.844z"/>
			</g>
		</g>
		<g>
			<g>
				<path class="st1" d="M870.888,1247.168l-0.777-12.38l-94.209,22.233l-15.734-15.336l-36.822-4.685l5.227,21.428
					c-26.599,46.754-95.284,45.619-95.284,45.619l-82.68-24.998l-0.012-10.224l0.012-0.001l67.249-9.664l-12.509-4.264l52.5-8.738
					l-7.092-10.83l31.749-11.121l-60.415,15.648l5.654,3.528l-78.285,7.336l7.692,7.201l-39.641,0.738l-0.023,0.001l-0.524,10.223
					l-51.875-15.68l-11.292,7.704l-29.419,5.343l-12.61-2.707l-1.555-24.783l361.259-27.422l152.485,2.185l10.214,14.131
					L870.888,1247.168z"/>
			</g>
		</g>
		<g>
			<g>
				<polygon class="st1" points="336.618,1255.042 400.161,1289.141 413.323,1288.315 410.214,1238.765 350.599,1242.505 				"/>
			</g>
		</g>
		<g>
			<g>
				<path class="st1" d="M891.733,1220.21l-555.116,34.828c-4.315-19.153,50.274-28.804,50.274-28.804
					c7.882-23.031,75.311-30.759,75.311-30.759l171.504-36.795l72.1,11.344l46.159,7.271
					C859.623,1175.589,891.733,1220.21,891.733,1220.21z"/>
			</g>
		</g>
		<g>
			<g>
				<path class="st6" d="M153.855,943.643l-0.001-0.012l-6.207-15.315l9.291-0.583l-1.29-5.131l-4.143-16.424l16.058,14.359
					l-15.576-81.02l-3.58,54.439l-7.331-13.531l-0.061,28.568l-7.434,3.416l-19.016,8.725
					c-38.415-23.018-65.943-42.371-65.943-42.371S20.76,793.57,7.204,702.56C2.967,674.051,0.113,644.919,0,617.656
					c0,0,20.325-3.665,38.272,18.329c0,0,28.334,134.948,88.713,193.267c0,0,26.284,4.344,68.722-12.951L271.32,958.53
					l20.003,37.663C252.273,992.405,199.932,968.745,153.855,943.643z"/>
			</g>
		</g>
		<g>
			<g>
				<path class="st7" d="M271.32,958.53c-37.734-4.919-79.347-19.821-115.673-35.928l-4.143-16.424l16.058,14.359l-15.576-81.02
					l-3.58,54.439l-7.331-13.531l-0.061,28.568l-7.434,3.416c-43.387-20.876-74.85-40.681-74.85-40.681L7.263,702.568l-0.059-0.008
					C2.967,674.051,0.113,644.919,0,617.656c0,0,20.325-3.665,38.272,18.329c0,0,28.334,134.948,88.713,193.267
					c0,0,26.284,4.344,68.722-12.951L271.32,958.53z"/>
			</g>
		</g>
		<g>
			<g>
				<path class="st3" d="M297.146,443.051c-15.936-23.486-6.615-41.913-6.615-41.913c26.083,7.901,53.184,18.964,79.299,31.176
					c83.335,39.004,157.013,90.045,157.013,90.045s60.09,179.613,43.154,266.142l-30.371-29.926l-114.68-113.11
					c28.7-35.728,32.056-62.158,32.056-62.158C418.374,508.773,297.146,443.051,297.146,443.051z"/>
			</g>
		</g>
		<g>
			<g>
				<path class="st6" d="M297.146,443.051c-15.936-23.486-6.615-41.913-6.615-41.913c26.083,7.901,53.184,18.964,79.299,31.176
					l-0.007,0.052l147.393,97.675c0,0,37.58,134.747,22.411,228.534l-114.68-113.11c28.7-35.728,32.056-62.158,32.056-62.158
					C418.374,508.773,297.146,443.051,297.146,443.051z"/>
			</g>
		</g>
		<g>
			<g>
				<path class="st7" d="M209.721,805.852L411.143,655.74l-84.708-60.743c0,0-75.282,29.195-150.71,112.319L209.721,805.852z"/>
			</g>
		</g>
		<g>
			<g>
				<path class="st1" d="M751.966,1177.295l-289.763,18.18c-50.839-36.696-100.596-82.169-142.2-137.994
					c-20.637-27.689-39.652-55.562-56.939-83.206c-36.703-58.72-65.603-116.485-85.644-169.792
					c5.45-4.562,10.955-9.175,16.552-13.805c31.833-26.318,65.89-53.067,101.666-79.737c42.058-31.343,83.55-60.377,123.426-86.547
					c19.292,14.623,38.848,31.036,58.539,49.049c26.619,24.376,53.377,51.693,79.688,81.557
					c21.553,24.461,42.83,50.653,63.467,78.343C704.322,945.483,738.422,1077.189,751.966,1177.295z"/>
			</g>
		</g>
		<g>
			<g>
				<path class="st5" d="M610.887,1186.146l-108.735,6.822c-208.902-162.91-297.212-374.46-308.18-402.29
					c31.833-26.318,65.89-53.067,101.666-79.737C334.645,868.292,490.458,1057.874,610.887,1186.146z"/>
			</g>
		</g>
		<g>
			<g>
				<path class="st3" d="M712.666,1179.76l-17.757,1.114c-61.707-182.79-181.938-420.703-183.057-422.942
					C644.196,912.588,693.953,1076.796,712.666,1179.76z"/>
			</g>
		</g>
		<g>
			<path d="M396.073,1297.618c-2.308,5.155-4.329,10.96-5.888,17.467c20.605-5.813,41.984-12.809,64.078-21.147
				c0.019-0.011,0.04-0.018,0.062-0.025c0.004-0.007,0.004-0.007,0.011-0.011C453.728,1293.953,430.631,1296.018,396.073,1297.618z"
				/>
		</g>
		<g>
			<g>
				<path class="st6" d="M325.377,610.185c0,0-59.016,13.696-132.696,93.457c0,0,90.098-75.541,149.799-82.76L325.377,610.185z"/>
			</g>
		</g>
		<g>
			<g>
				<path class="st3" d="M751.966,1177.295l-20.869,1.309c-33.352-129.27-104.779-321.29-255.842-504.104l2.347-1.057
					c26.619,24.376,53.377,51.693,79.688,81.557c21.553,24.461,42.83,50.653,63.467,78.343
					C704.322,945.483,738.422,1077.189,751.966,1177.295z"/>
			</g>
		</g>
		<g>
			<g>
				<path class="st7" d="M364.126,851.654L113.104,464.163L213.14,576.43c0,0,0.088,0.118,0.294,0.333l206.564,231.823
					c19.335,21.737,25.483,52.196,16.046,79.746l-1.139,0.019C406.503,889.462,379.61,875.524,364.126,851.654z"/>
			</g>
		</g>
		<g>
			<g>
				<path class="st6" d="M113.104,464.163l306.894,344.423c19.335,21.737,25.483,52.196,16.046,79.746l-1.139,0.019L113.104,464.163
					z"/>
			</g>
		</g>
		<g>
			<g>
				<g>
					<path class="st3" d="M422.345,829.613c-19.07-28.62-200.821-243.295-208.911-252.85l206.564,231.823
						c19.335,21.737,25.483,52.196,16.046,79.746l-1.139,0.019C434.906,888.35,441.849,858.878,422.345,829.613z"/>
				</g>
			</g>
			<g>
				<g>
					<path class="st3" d="M422.159,871.247L269.512,670.334C269.512,670.334,417.927,845.585,422.159,871.247z"/>
				</g>
			</g>
		</g>
		<g>
			<g>
				<path class="st5" d="M502.152,1192.968c0,0-75.059,5.098-92.812,31.861c0,0,117.525-33.412,201.547-38.683l-64.528-4.89
					L502.152,1192.968z"/>
			</g>
		</g>
		<g>
			<g>
				<path class="st5" d="M363.715,1253.342c0,0,17.814-52.417,176.913-36.749c0,0-106.999-1.06-113.427,32.766L363.715,1253.342z"/>
			</g>
		</g>
		<g>
			<g>
				<polygon class="st5" points="363.715,1253.342 413.323,1288.315 442.068,1278.739 427.201,1249.359 385.102,1247.336 				"/>
			</g>
		</g>
		<g>
			<g>
				<polygon class="st5" points="464.409,1242.357 517.489,1258.66 516.965,1268.883 465.09,1253.203 				"/>
			</g>
		</g>
		<g>
			<g>
				<polygon class="st5" points="636.785,1295.282 633.29,1304.047 550.61,1279.049 550.598,1268.825 550.609,1268.824 				"/>
			</g>
		</g>
		<g>
			<g>
				<polygon class="st3" points="891.733,1220.21 890.308,1228.465 870.107,1234.784 775.898,1257.018 813.663,1245.71 
					795.227,1247.644 877.747,1214.096 				"/>
			</g>
		</g>
		<g>
			<path class="st1" d="M362.522,1321.035l4.157-20.466l-9.099-8.756l-51.587-16.972c0,0-40.399,25.075-65.32,24.307l20.715,20.464
				l65.52,3.658l-21.916-14.814l-25.8-2.397l35.323-6.882L362.522,1321.035z"/>
		</g>
		<g>
			<g>
				<polygon class="st5" points="240.672,1299.147 239.717,1302.511 259.757,1327.688 322.567,1334.621 326.908,1323.269 
					261.388,1319.611 				"/>
			</g>
		</g>
		<g>
			<path d="M621.283,1211.532l-27.211,12.292l4.154,2.724l-7.735-2.499c0,0-19.046,4.601-26.795,3.435l-5.642,2.006
				c0,0,25.151,6.964,36.087,4.727c10.936-2.237,42.579-18.213,42.579-18.213L621.283,1211.532z"/>
		</g>
		<g>
			<path d="M530.515,1232.869l-10.252,3.849c7.314,5.079,22.053,6.778,22.053,6.778c5.991-3,5.429-10.105,5.429-10.105
				C543.762,1234.953,530.515,1232.869,530.515,1232.869z"/>
		</g>
		<g>
			<g>
				<path d="M571.112,1190.241l13.785-22.284l6.369,8.042l5.08-30.523l-8.911-30.532l13.659,3.807c0,0,26.982-31.229,25.474-64.557
					c0,0,3.305,38.656-19.183,76.21l-10.027-5.978l11.63,31.527l-5.732-2.75l-3.147,33.757
					C600.109,1186.959,576.914,1189.427,571.112,1190.241z"/>
			</g>
		</g>
		<g>
			<g>
				<path class="st5" d="M683.312,983.01c0,0,4.522,90.657-17.479,158.105C665.833,1141.115,692.629,1094.352,683.312,983.01z"/>
			</g>
		</g>
		<g>
			<g>
				<path class="st5" d="M651.583,1047.182c0,0,7.226,65.622-0.844,110.429L651.583,1047.182z"/>
			</g>
		</g>
		<g>
			<g>
				<path class="st5" d="M725.1,1100.865c0,0-25.421,19.128-81.783,25.168C643.317,1126.033,698.056,1125.102,725.1,1100.865z"/>
			</g>
		</g>
		<g>
			<g>
				<path class="st3" d="M355.743,1076.722c0,0,83.622,46.644,153.327,47.756C509.071,1124.478,425.056,1128.434,355.743,1076.722z"
					/>
			</g>
		</g>
		<g>
			<g>
				<path d="M527.188,1186.337l-25.036,6.631l-25.879,3.221l-7.721-12.492l1.22-17.157l-10.087,0.528
					c-2.642-10.327-20-24.418-20-24.418l1.075,17.141c-24.508-27.33-32.522-78.686-32.522-78.686
					c2.935,9.621,8.522,18.201,14.781,25.422c13.451,15.549,30.007,24.84,30.007,24.84l-0.73-11.636l37.536,22.21l-0.515-8.21
					c20.398,9.213,22.832,32.577,22.832,32.577l-13.969-2.819L527.188,1186.337z"/>
			</g>
		</g>
		<g>
			<g>
				<path class="st1" d="M343.849,936.686l89.866,4.094C433.715,940.78,371.575,932.614,343.849,936.686z"/>
			</g>
		</g>
		<g>
			<g>
				<path class="st5" d="M517.122,898.61l135.153,37.447C586.84,910.695,517.122,898.61,517.122,898.61z"/>
			</g>
		</g>
		<g>
			<g>
				<path class="st5" d="M666.028,961.554l-18.33,23.691C647.698,985.245,662.446,972.66,666.028,961.554z"/>
			</g>
		</g>
		<g>
			<g>
				<path class="st5" d="M506.4,854.979c0,0-29.872,65.61-27.24,144.726C479.161,999.705,464.798,938.229,506.4,854.979z"/>
			</g>
		</g>
		<g>
			<g>
				<path class="st5" d="M563.248,927.637c0,0,39.825,15.326,62.137,36.467L563.248,927.637z"/>
			</g>
		</g>
		<g>
			<g>
				<g>
					
						<ellipse transform="matrix(0.7071 -0.7071 0.7071 0.7071 -572.8547 657.0675)" class="st8" cx="506.723" cy="1020.031" rx="82.915" ry="82.915"/>
				</g>
			</g>
			<g>
				<g>
					<path class="st3" d="M563.004,961.3c31.206,33.513,29.336,85.979-4.178,117.186c-16.594,15.452-37.835,22.781-58.841,22.188
						c23.946,3.412,49.168-3.617,68.249-21.384c33.513-31.206,35.384-83.672,4.178-117.186
						c-15.754-16.919-36.928-25.761-58.345-26.366C532.181,938.319,549.565,946.867,563.004,961.3z"/>
				</g>
			</g>
			<g>
				<g>
					<path class="st0" d="M515.582,1099.943c-19.645-1.33-38.847-9.825-53.324-25.372c-30.22-32.454-28.409-83.262,4.046-113.482
						c13.028-12.131,29.014-19.089,45.438-20.986c-21.363-1.447-43.25,5.583-60.157,21.327
						c-32.454,30.22-34.266,81.027-4.046,113.482C465.627,1094.338,491.091,1102.773,515.582,1099.943z"/>
				</g>
			</g>
			<g>
				<g>
					<path class="st3" d="M550.147,1064.525c1.861-1.346,3.667-2.805,5.391-4.411c22.599-21.043,23.86-56.423,2.817-79.022
						c-1.605-1.724-3.303-3.308-5.063-4.784C572.972,1002.768,571.661,1039.535,550.147,1064.525z"/>
				</g>
			</g>
			<g>
				<polygon class="st3" points="529.398,1004.83 524.308,996.05 523.541,994.726 522.7,996.037 505.734,1022.489 505.379,1023.042 
					505.445,1023.235 502.908,1027.022 497.189,1010.842 496.679,1009.398 495.739,1010.539 492.952,1013.917 493.351,994.928 
					491.603,1015.754 491.447,1017.613 492.749,1016.221 495.971,1012.78 501.081,1030.753 501.874,1033.541 503.7,1031.169 
					506.791,1027.151 511.91,1042.037 512.675,1044.262 514.558,1042.772 517.832,1040.181 517.461,1064.302 511.835,1064.572 
					507.782,1064.767 510.028,1068.229 530.8,1100.239 535.634,1097.001 516.243,1068.949 519.807,1068.673 521.935,1068.508 
					521.906,1066.439 521.492,1036.415 521.44,1032.594 518.553,1035.018 514.232,1038.648 508.474,1023.368 523.512,998.344 
					529.361,1007.786 530.698,1009.944 530.768,1007.428 532.2,955.571 				"/>
			</g>
		</g>
		<g>
			<g>
				<g>
					<path class="st4" d="M687.744,1191.482l-1.555-3.126c0.129-0.064,12.978-6.477,25.477-14.591
						c2.334-1.515,4.446-2.951,6.356-4.311c-2.52-2.344-4.7-5.034-6.413-7.802c-4.625-7.473-5.495-14.776-2.271-19.056
						c2.206-2.929,7.257-5.738,18.804-2.486c6.756,1.902,10.382,5.007,10.777,9.228c0.569,6.065-6.314,13.424-15.229,20.297
						c5.158,3.552,10.573,4.648,14.79,3.87c10.04-1.859,18.602-15.003,23.11-29.587c-10.026-6.316-16.007-15.602-18.513-24.101
						c-2.765-9.377-1.552-18.242,3.018-22.06c2.955-2.467,6.985-2.621,11.339-0.432c8.958,4.505,12.83,17.562,10.358,34.926
						c-0.475,3.332-1.186,6.741-2.114,10.122c4.59,2.478,10.212,4.391,17.083,5.236l-0.426,3.464
						c-6.789-0.835-12.652-2.746-17.644-5.369c-4.861,15.244-14.054,29.097-25.576,31.231c-6.584,1.215-12.998-1.14-18.309-5.145
						C707.34,1181.585,690.803,1189.96,687.744,1191.482z M717.933,1142.177c-2.693,0.169-4.673,1.012-5.808,2.519
						c-2.302,3.057-1.341,8.992,2.452,15.118c1.898,3.068,4.03,5.577,6.266,7.577c12.995-9.767,14.838-15.186,14.6-17.728
						c-0.247-2.638-3.022-4.722-8.249-6.194C723.564,1142.448,720.441,1142.02,717.933,1142.177z M751.258,1099.276
						c-1.104,0.069-2.082,0.456-2.926,1.161c-3.463,2.893-4.248,10.456-1.907,18.393c1.191,4.039,5.191,14.435,16.138,21.677
						c0.763-2.915,1.362-5.856,1.773-8.748c2.217-15.573-1.028-27.573-8.47-31.315
						C754.148,1099.581,752.608,1099.191,751.258,1099.276z"/>
				</g>
			</g>
		</g>
		<g>
			<g>
				<path class="st3" d="M728.573,1258.432l-14.559-57.187l-42.658-27.831l-59.582-11.224l57.237,20.31l33.904,29.352l4.63,36.63
					c0,0-25.628,28.229-50.995,32.735c0,0,29.352,9.818,56.12-3.521C712.67,1277.696,723.918,1267.857,728.573,1258.432z"/>
			</g>
		</g>
		<g>
			<g>
				<path class="st3" d="M891.733,1220.21l-12.194,0.765c-69.088-51.232-192.573-31.056-192.573-31.056l-6.876-4.232l5.631-15.615
					c0,0,7.726-0.065,20.085-0.048l46.159,7.271C859.623,1175.589,891.733,1220.21,891.733,1220.21z"/>
			</g>
		</g>
		<g>
			<g>
				<g>
					<path class="st4" d="M757.976,1273.103c-24.367,1.526-48.87-7.517-49.901-7.903l1.223-3.269
						c0.246,0.091,24.855,9.166,48.46,7.687L757.976,1273.103z"/>
				</g>
			</g>
		</g>
		<g>
			<g>
				<polygon class="st1" points="744.475,1282.696 738.64,1264.019 757.333,1262.846 776.602,1268.244 765.547,1277.876 				"/>
			</g>
		</g>
		<g>
			<g>
				<path class="st5" d="M779.554,1315.289l5.844,6.423l69.778,3.395l-2.846-14.384c0,0,7.025-11.917,17.114-12.161l0.389,6.194
					c0,0,15.287-10.306,23.224-7.685l0.438,6.978c0,0,39.39,2.192,48.682,7.828c9.292,5.635,15.773-8.762,15.773-8.762
					l-19.745-11.197l-40.044-6.426l-27.511-4.881l-46.306,11.451l-21.192,9.106L779.554,1315.289z"/>
			</g>
		</g>
		<g>
			<g>
				<path class="st5" d="M935.203,1267.127l1.297,5.367l5.723,2.944l-0.212-3.387c0,0,13.327,4.91,17.544,11.731
					s15.619,5.814,15.619,5.814l-2.303-18.121l-14.325-8.428l-11.033,0.692L935.203,1267.127z"/>
			</g>
		</g>
		<g>
			<g>
				<path class="st1" d="M1041.049,1290.065c0,0-33.911,37.431-120.962,29.741c-8.512-0.76-16.702-1.4-24.548-1.958
					c1.662-10.667,43.588-11.222,43.588-11.222c-1.599-6.895-38.129-6.935-38.129-6.935l-0.364-5.807
					c-5.283-3.551-26.759,0.897-26.759,0.897l2.342-5.976c-20.546,0.893-27.492,13.384-27.492,13.384l-4.486,3.395l5.313,9.787
					c-44.474-1.594-69.994-0.086-69.994-0.086l37.037-43.911c0,0,60.953,12.067,107.003-0.417l22.639,6.461l-0.267-4.25
					c0,0,14.551,2.795,18.645,9.137c0,0-4.889-10.093-13.586-15.097l0.686,4.621l-12.621-2.892l0.157,2.508l-4.048-4.316
					c7.327-2.896,14.019-6.616,19.717-11.31C996.877,1221.192,1041.049,1290.065,1041.049,1290.065z"/>
			</g>
		</g>
		<g>
			<g>
				<g>
					<path class="st4" d="M793.016,1309.964c-0.278,0.017-0.563-0.064-0.797-0.251c-0.503-0.4-0.586-1.132-0.187-1.635
						l20.127-25.309c0.401-0.505,1.134-0.586,1.635-0.187c0.503,0.4,0.586,1.132,0.187,1.635l-20.127,25.309
						C793.641,1309.795,793.333,1309.944,793.016,1309.964z"/>
				</g>
			</g>
		</g>
		<g>
			<g>
				<g>
					<path class="st4" d="M801.081,1310.77c-0.256,0.016-0.519-0.053-0.745-0.213c-0.525-0.371-0.648-1.098-0.276-1.622l7.9-11.135
						c0.371-0.524,1.098-0.648,1.622-0.276c0.525,0.371,0.648,1.098,0.276,1.622l-7.9,11.135
						C801.746,1310.579,801.42,1310.749,801.081,1310.77z"/>
				</g>
			</g>
		</g>
		<g>
			<g>
				<g>
					<path class="st4" d="M811.135,1296.804c-0.265,0.017-0.537-0.058-0.767-0.228c-0.515-0.384-0.622-1.112-0.239-1.628l4.571-6.14
						c0.383-0.514,1.112-0.622,1.628-0.239c0.515,0.384,0.622,1.112,0.239,1.628l-4.571,6.14
						C811.784,1296.622,811.465,1296.783,811.135,1296.804z"/>
				</g>
			</g>
		</g>
		<g>
			<g>
				<path class="st5" d="M681.353,1205.82l12.618,9.033c0,0,16.275-6.959,23.457-22.567l-18.9-6.976
					C698.528,1185.311,693.494,1201.172,681.353,1205.82z"/>
			</g>
		</g>
		<g>
			<g>
				<path class="st5" d="M632.158,1143.228l44.795,22.256C676.952,1165.484,641.116,1151.215,632.158,1143.228z"/>
			</g>
		</g>
		<g>
			<g>
				<path class="st5" d="M581.06,1106.795c0,0-7.714,32.89-16.762,46.644L581.06,1106.795z"/>
			</g>
		</g>
		<g>
			<g>
				<path class="st5" d="M707.373,1032.023c0,0-3.329,16.629-6.424,23.041L707.373,1032.023z"/>
			</g>
		</g>
		<g>
			<g>
				<g>
					<path class="st4" d="M366.283,1245.8c-25.933,1.627-59.4,0.29-92.219-10.866l1.124-3.305
						c74.787,25.423,154.29-0.311,155.084-0.573l1.098,3.313c-0.201,0.067-20.498,6.718-49.856,10.081
						C376.819,1244.988,371.714,1245.459,366.283,1245.8z"/>
				</g>
			</g>
		</g>
		<g>
			<g>
				<path class="st0" d="M440.118,1149.536l0.643,10.254c-24.508-27.33-32.522-78.686-32.522-78.686
					c2.935,9.621,8.522,18.201,14.781,25.422C426.943,1117.752,433.454,1135.497,440.118,1149.536z"/>
			</g>
		</g>
		<g>
			<g>
				<path class="st0" d="M439.686,1142.649l6.542-2.427c0,0,13.735,13.421,16.078,22.892l15.207,0.795l-3.026,16.804l9.362,14.533
					l-7.575,0.943l-7.721-12.492l1.22-17.157l-10.087,0.528C459.686,1167.068,453.117,1153.708,439.686,1142.649z"/>
			</g>
		</g>
		<g>
			<g>
				<polygon class="st0" points="453.027,1131.366 452.297,1119.729 457.69,1122.921 458.095,1129.373 				"/>
			</g>
		</g>
		<g>
			<g>
				<path class="st0" d="M489.833,1141.94l7.884-2.916c0,0-4.111-3.523-8.4-5.295L489.833,1141.94z"/>
			</g>
		</g>
		<g>
			<g>
				<polygon class="st0" points="498.18,1163.487 506.527,1161.797 511.614,1163.235 512.15,1166.306 				"/>
			</g>
		</g>
		<g>
			<g>
				<path class="st5" d="M179.154,1286.811l7.487-4.622l17.784,0.519l-2.361,3.095l14.677-0.557l22.534-10.743
					c0,0,19.908,10.309,14.169,17.871l-35.019-3.558l-29.504,2.598l-0.306-5.627L179.154,1286.811z"/>
			</g>
		</g>
		<g>
			<g>
				<path class="st1" d="M178.927,1283.452l7.596-4.441l17.766,0.947l-2.435,3.037l14.686-0.204l22.786-10.198
					c0,0,19.654,10.785,13.735,18.207l-34.923-4.398l-29.558,1.888l-0.17-5.632L178.927,1283.452z"/>
			</g>
		</g>
		<g>
			<g>
				<path class="st1" d="M375.802,1006.189c0,0,27.549,39.564,44.268,55.178C420.071,1061.367,393.812,1042.368,375.802,1006.189z"
					/>
			</g>
		</g>
		<g>
			<g>
				<path class="st1" d="M326.604,1030.395c0,0,19.12,7.412,42.093,11.217C368.697,1041.612,341.241,1040.685,326.604,1030.395z"/>
			</g>
		</g>
		<g>
			<g>
				<path class="st1" d="M367.392,1020.805c0,0,26.363,11.364,46.333,13.755L367.392,1020.805z"/>
			</g>
		</g>
		<g>
			<g>
				<path class="st5" d="M541.333,866.389c0,0,47.088,72.246,60.53,128.532C601.863,994.921,590.088,928.038,541.333,866.389z"/>
			</g>
		</g>
		<g>
			<g>
				<path class="st5" d="M596.631,818.616c0,0,0.007,27.989-3.202,41.886C593.43,860.501,601.648,841.489,596.631,818.616z"/>
			</g>
		</g>
		<g>
			<polygon points="538.747,1280.446 526.905,1286.824 537.442,1289.855 551.209,1288.603 			"/>
		</g>
		<g>
			<polygon points="442.505,1285.706 421.561,1293.433 445.818,1295.215 451.938,1290.554 			"/>
		</g>
		<g>
			<g>
				<path class="st5" d="M461.11,1300.474l4.368,1.475c0,0,25.606-5.337,29.928-3.816c4.322,1.521,16.257,19.864,16.257,19.864
					l47.758-9.992l5.825-2.795l-25.216-1.964l-32.739-13.103l-18.709-3.198l-14.923,8.369L461.11,1300.474z"/>
			</g>
		</g>
		<g>
			<path class="st1" d="M492.862,1280.993c-12.736,0.326-21.301,12.607-21.301,12.607l-10.451,6.874c0,0,21.097-4.433,32.626-5.545
				c11.529-1.112,20.799,19.317,20.799,19.317l50.712-9.036C565.247,1305.211,505.598,1280.668,492.862,1280.993z"/>
		</g>
	</g>
</g>
<g id="묐迹_5">
	<g>
		<g class="st2">
			<path class="st3" d="M727.521,485.891c0,0-26.456,42.266-6.494,119.559c14.024,54.298,73.435,106.483,103.325,169.888
				C800.989,659.073,694.811,547.143,727.521,485.891z"/>
		</g>
		<g class="st2">
			<path class="st3" d="M741.113,1024.096c-9.673,17.812-14.194,37.526-8.887,62.038c19.74,91.16,77.684,78.586,77.684,78.586
				s-85.428-46.533-69.963-134.741C740.297,1027.975,740.695,1026.024,741.113,1024.096z"/>
		</g>
		<g class="st2">
			<path class="st3" d="M840.754,862.94c3.622-31.889-3.743-60.752-16.401-87.603c1.921,9.56,3.286,19.15,3.964,28.743
				c8.72,123.388-69.222,137.125-87.204,220.017C767.414,975.663,831.854,941.308,840.754,862.94z"/>
		</g>
	</g>
	<g>
		<g class="st2">
			<path class="st3" d="M565.406,804.651c10.097,19.139,18.412,38.288,22.517,58.555c13.774,68.009-23.404,97.762-39.217,107.099
				C641.947,920.897,611.041,865.961,565.406,804.651z"/>
		</g>
		<g class="st2">
			<path class="st3" d="M493.432,581.634c-7.284,22.727-11.146,46.594-9.546,71.514c3.496,54.445,46.773,104.821,81.52,151.503
				c-32.513-61.631-83.526-123.164-72.141-221.651C493.318,582.543,493.376,582.089,493.432,581.634z"/>
		</g>
		<g class="st2">
			<path class="st3" d="M580.049,257.213c44.545,128.536-71.035,196.236-86.617,324.421
				c30.021-93.662,118.18-167.958,121.757-216.794C619.633,304.154,580.049,257.213,580.049,257.213z"/>
		</g>
	</g>
	<g>
		<g class="st2">
			<path class="st3" d="M507.179,115.364c0,0-35.157,13.189-28.945,89.681c2.277,28.039,24.705,47.681,45.405,68.502
				C498.256,220.462,482.523,191.758,507.179,115.364z"/>
		</g>
		<g class="st2">
			<path class="st3" d="M523.64,273.547c4.415,9.232,9.119,19.196,13.955,30.283c24.431,55.999-7.311,105.269-24.838,126.524
				C587.487,345.797,557.941,308.049,523.64,273.547z"/>
		</g>
	</g>
	<g>
		<g class="st2">
			<path class="st3" d="M726.78,841.846c0,0-31.607,25.78-23.395,54.553c4.255,14.909,40.413,56.571,57.468,103.479
				c-1.109-3.559-2.445-7.137-4.055-10.728C724.872,917.933,705.066,870.667,726.78,841.846z"/>
		</g>
		<g class="st2">
			<path class="st3" d="M760.853,999.878c20.894,67.043-42.997,127.174-42.997,127.174
				C776.052,1091.649,776.711,1043.495,760.853,999.878z"/>
		</g>
	</g>
	<g>
		<path class="st3" d="M420.065,994.814C227.677,945.772,82.719,862.852,96.292,809.606c5.857-22.979,40.286-36.674,92.994-40.879
			c-71.529,0.48-119.697,14.687-126.726,42.261c-13.573,53.246,131.385,136.167,323.773,185.208
			c109.362,27.877,210.505,38.805,279.931,33.267C599.669,1029.91,512.824,1018.459,420.065,994.814z"/>
	</g>
	<g>
		<path class="st3" d="M709.343,787.677c-5.204-13.224-29.959-17.257-65.432-13.03c26.38-1.206,44.294,3.43,48.631,14.451
			c10.049,25.537-56.603,75.673-148.872,111.983c-44.487,17.507-86.805,28.602-119.831,32.537
			c34.747-1.589,84.182-13.318,136.632-33.958C652.74,863.35,719.393,813.214,709.343,787.677z"/>
	</g>
	<g>
		<path class="st3" d="M753.076,777.015c0,0,33.439,79.964-202.929,150.878C550.147,927.893,822.154,866.247,753.076,777.015z"/>
	</g>
	<g>
		<path class="st3" d="M126.247,981.04c137.175,78.89,332.791,54.904,332.791,54.904C269.47,1041.4,126.247,981.04,126.247,981.04z"
			/>
	</g>
</g>
</svg>
