<?xml version="1.0" encoding="utf-8"?>
<!-- Generator: Adobe Illustrator 26.0.2, SVG Export Plug-In . SVG Version: 6.00 Build 0)  -->
<svg version="1.1" id="레이어_1" xmlns="http://www.w3.org/2000/svg" xmlns:xlink="http://www.w3.org/1999/xlink" x="0px"
	 y="0px" viewBox="0 0 200 200" style="enable-background:new 0 0 200 200;" xml:space="preserve">
<style type="text/css">
	.st0{opacity:0.3;}
	.st1{fill:#45B035;}
	.st2{fill:#44AF35;}
</style>
<g class="st0">
	<path class="st1" d="M100,15c46.869,0,85,38.131,85,85s-38.131,85-85,85s-85-38.131-85-85S53.131,15,100,15 M100,0
		C44.771,0,0,44.771,0,100s44.771,100,100,100s100-44.771,100-100S155.229,0,100,0L100,0z"/>
</g>
<path class="st2" d="M123.668,94.992c-1.354-5.127-4.156-9.339-8.406-12.639c-4.292-3.339-9.164-5.008-14.607-5.008
	c-3.26,0-6.36,0.617-9.3,1.848c-2.862,1.233-5.387,2.943-7.572,5.127c-2.187,2.227-3.897,4.75-5.127,7.571
	c-1.233,2.981-1.848,6.081-1.848,9.301v35.771H62.5v-35.771c0-5.166,0.992-10.114,2.981-14.845
	c1.946-4.569,4.669-8.624,8.168-12.162c3.537-3.496,7.591-6.22,12.162-8.168c4.729-1.987,9.677-2.981,14.845-2.981
	c8.743,0,16.553,2.683,23.43,8.049c3.258,2.544,6.022,5.525,8.287,8.943c2.342,3.498,4.054,7.254,5.127,11.268L123.668,94.992z"/>
</svg>
