<?xml version="1.0" encoding="utf-8"?>
<!-- Generator: Adobe Illustrator 26.0.2, SVG Export Plug-In . SVG Version: 6.00 Build 0)  -->
<svg version="1.1" id="레이어_1" xmlns="http://www.w3.org/2000/svg" xmlns:xlink="http://www.w3.org/1999/xlink" x="0px"
	 y="0px" viewBox="0 0 120 120" style="enable-background:new 0 0 120 120;" xml:space="preserve">
<style type="text/css">
	.st0{fill:#CCCCCC;}
	.st1{fill:#4341CE;}
	.st2{fill:none;}
</style>
<g>
	<path class="st0" d="M19.89,113.69c3.043,0,5.519-2.476,5.519-5.519c0-3.043-2.476-5.519-5.519-5.519s-5.519,2.476-5.519,5.519
		C14.371,111.214,16.847,113.69,19.89,113.69z M19.89,105.662c1.383,0,2.509,1.125,2.509,2.509s-1.125,2.509-2.509,2.509
		s-2.509-1.125-2.509-2.509S18.507,105.662,19.89,105.662z"/>
	<path class="st1" d="M91.824,15.343h0.043l0.042,0.007c3.447,0.591,6.161,3.305,6.752,6.752l0.007,0.042v0.043
		c0,0.83,0.675,1.505,1.505,1.505c0.83,0,1.505-0.675,1.505-1.505v-0.043l0.007-0.042c0.591-3.447,3.305-6.161,6.752-6.752
		l0.042-0.007h0.043c0.83,0,1.505-0.675,1.505-1.505c0-0.83-0.675-1.505-1.505-1.505h-0.043l-0.042-0.007
		c-3.447-0.591-6.161-3.305-6.752-6.752l-0.007-0.042V5.488c0-0.83-0.675-1.505-1.505-1.505c-0.83,0-1.505,0.675-1.505,1.505v0.043
		l-0.007,0.042c-0.591,3.447-3.305,6.161-6.752,6.752l-0.042,0.007h-0.043c-0.83,0-1.505,0.675-1.505,1.505
		C90.318,14.668,90.994,15.343,91.824,15.343z M97.017,13.426c1.074-0.747,1.998-1.671,2.745-2.745l0.412-0.592l0.412,0.592
		c0.747,1.074,1.671,1.998,2.745,2.745l0.592,0.412l-0.592,0.412c-1.074,0.747-1.998,1.67-2.745,2.745l-0.412,0.592l-0.412-0.592
		c-0.747-1.074-1.67-1.998-2.745-2.745l-0.592-0.412L97.017,13.426z"/>
	<path class="st1" d="M1.505,55.485h0.043l0.042,0.007c3.447,0.591,6.161,3.305,6.752,6.752l0.007,0.042v0.043
		c0,0.83,0.675,1.505,1.505,1.505c0.83,0,1.505-0.675,1.505-1.505v-0.043l0.007-0.042c0.591-3.447,3.305-6.161,6.752-6.752
		l0.042-0.007h0.043c0.83,0,1.505-0.675,1.505-1.505s-0.675-1.505-1.505-1.505h-0.043l-0.042-0.007
		c-3.447-0.591-6.161-3.305-6.752-6.752l-0.007-0.042V45.63c0-0.83-0.675-1.505-1.505-1.505c-0.83,0-1.505,0.675-1.505,1.505v0.043
		l-0.007,0.042c-0.591,3.447-3.305,6.161-6.752,6.752l-0.042,0.007H1.505C0.675,52.474,0,53.149,0,53.979S0.675,55.485,1.505,55.485
		z M6.698,53.567c1.074-0.747,1.998-1.671,2.745-2.745l0.412-0.592l0.412,0.592c0.747,1.074,1.671,1.998,2.745,2.745l0.592,0.412
		l-0.592,0.412c-1.074,0.747-1.998,1.67-2.745,2.745l-0.412,0.592l-0.412-0.592c-0.747-1.074-1.67-1.998-2.745-2.745l-0.592-0.412
		L6.698,53.567z"/>
	<polygon class="st2" points="65.102,49.449 67.606,60.502 67.606,60.502 	"/>
	<polygon class="st2" points="75.593,37.183 73.52,45.904 75.593,37.183 	"/>
	<polygon class="st2" points="70.461,49.449 67.885,60.502 67.885,60.502 	"/>
	<path class="st2" d="M43.967,50.201c-0.416,0-0.753-0.337-0.753-0.753v-1.472c0-0.416,0.337-0.753,0.753-0.753h3.699l-2.244-9.874
		c-0.051-0.223,0.003-0.457,0.146-0.636c0.143-0.179,0.359-0.283,0.588-0.283h2.34c0.35,0,0.655,0.242,0.733,0.583l2.356,10.21
		h4.805l2.392-10.213c0.08-0.34,0.383-0.581,0.733-0.581h2.793c0.351,0,0.656,0.243,0.734,0.586l2.32,10.208h4.841l2.392-10.213
		c0.08-0.34,0.383-0.581,0.733-0.581h2.264h0.001c0.416,0,0.752,0.337,0.752,0.753c0,0.072-0.01,0.141-0.029,0.207l-2.338,9.834
		h3.803c0.416,0,0.753,0.337,0.753,0.753v1.472c0,0.416-0.337,0.753-0.753,0.753h-4.499l-2.419,10.301h1.21
		c0.83,0,1.505,0.675,1.505,1.505c0,7.47-6.078,13.548-13.548,13.548H43.975c-1.383,0-2.509,1.125-2.509,2.509
		c0,1.383,1.125,2.509,2.509,2.509h35.346c0.338-0.001,0.667-0.068,0.978-0.201l13.789-5.861l0.489-0.208l-0.236-0.476l-2.691-5.442
		c-0.658-1.313-1.008-2.783-1.011-4.251V41.937c0-13.557-11.03-24.587-24.587-24.587H54.01c-13.557,0-24.587,11.03-24.587,24.587
		v20.071v0.801l0.72-0.349c2.643-1.28,5.593-1.957,8.532-1.957h11.902h0.179l-2.369-10.301H43.967z"/>
	<polygon class="st2" points="58.526,60.502 61.537,60.502 61.537,60.502 62.039,60.502 63.323,60.502 63.349,60.502 63.352,60.502 
		64.683,60.502 62.314,50.201 59.32,50.201 56.901,60.502 58.025,60.502 	"/>
	<polygon class="st2" points="54.735,14.34 54.994,14.34 65.029,14.34 65.288,14.34 65.438,14.129 72.603,4.094 73.169,3.301 
		72.195,3.301 47.869,3.301 46.897,3.301 47.46,4.093 54.585,14.128 	"/>
	<polygon class="st2" points="56.686,49.449 54.11,60.502 54.11,60.502 	"/>
	<polygon class="st2" points="9.77,78.648 9.475,78.207 9.051,78.526 3.532,82.681 3.332,82.832 3.332,83.082 3.332,116.199 
		3.332,116.701 3.834,116.701 27.096,116.701 27.301,116.701 27.448,116.556 31.783,112.281 32.079,111.99 31.848,111.645 	"/>
	<polygon class="st2" points="77.782,49.449 77.782,49.449 77.782,47.977 73.027,47.977 73.027,47.977 77.782,47.977 	"/>
	<rect x="52.397" y="63.493" class="st2" width="0" height="1.562"/>
	<polygon class="st2" points="51.289,49.449 53.829,60.502 53.829,60.502 	"/>
	<polygon class="st2" points="48.987,49.449 51.529,60.502 51.529,60.502 	"/>
	<polygon class="st2" points="70.8,47.977 70.8,47.977 64.762,47.977 62.309,37.183 64.762,47.977 	"/>
	<polygon class="st2" points="56.988,47.977 59.516,37.183 56.988,47.977 50.987,47.977 48.496,37.183 50.987,47.977 	"/>
	<rect x="43.967" y="47.977" class="st2" width="4.642" height="0"/>
	<path class="st2" d="M112.362,70.293c-0.799,0-1.587,0.214-2.28,0.619l-28.631,12.23c-0.688,0.293-1.416,0.442-2.172,0.442H43.975
		c-3.043,0-5.519-2.476-5.519-5.519c0-3.043,2.476-5.519,5.519-5.519h16.059c4.985,0,9.327-3.545,10.324-8.43l0.123-0.602h-0.323
		l-0.398,1.694c-0.08,0.34-0.383,0.581-0.733,0.581h-2.529c-0.351,0-0.655-0.242-0.733-0.584l-0.389-1.691h-9.182l-0.398,1.694
		c-0.08,0.34-0.383,0.581-0.733,0.581h-2.491c-0.351,0-0.655-0.242-0.733-0.584l-0.389-1.691H38.679l-0.085,0
		c-5.066,0-9.795,2.263-12.975,6.211l-9.654,12.143l-0.228,0.286l0.203,0.304l15.876,23.824l0.192,0.288l0.338-0.078l47.869-11.019
		c2.239-0.514,4.412-1.305,6.46-2.351l27.979-14.391l0.014-0.007l0.013-0.008c2.147-1.276,2.856-4.06,1.58-6.207
		C115.447,71.142,113.954,70.293,112.362,70.293z"/>
	<polygon class="st2" points="62.611,47.977 62.611,47.977 59.101,47.977 60.458,42.203 59.101,47.977 	"/>
	<polygon class="st2" points="53.974,57.772 55.738,50.201 52.234,50.201 	"/>
	<polygon class="st2" points="67.754,57.749 69.513,50.201 66.044,50.201 	"/>
	<polygon class="st2" points="61.665,47.224 60.867,43.752 60.051,47.224 	"/>
	<path class="st0" d="M119.053,71.093c-1.329-2.391-3.855-3.876-6.593-3.876c-1.271,0-2.534,0.329-3.653,0.95l-0.022,0.012
		l-0.023,0.01l-10.959,4.717l-0.435,0.187l-0.212-0.424l-2.81-5.62c-0.452-0.898-0.692-1.906-0.695-2.912v-22.2
		c-0.008-6.683-2.439-13.132-6.845-18.157c-4.406-5.026-10.481-8.28-17.106-9.163l-0.83-0.111l0.489-0.68l8.028-11.159
		c0.232-0.326,0.324-0.724,0.258-1.121c-0.066-0.397-0.283-0.744-0.611-0.977c-0.257-0.183-0.559-0.28-0.874-0.28
		c-0.018,0-0.036,0-0.054,0.001l-0.009,0h-0.009H43.975c-0.828,0.004-1.5,0.682-1.496,1.512c0.001,0.312,0.098,0.612,0.279,0.866
		l8.027,11.157l0.491,0.682l-0.833,0.109c-6.64,0.866-12.732,4.112-17.155,9.14s-6.864,11.485-6.875,18.181v22.619v0.239
		l-0.186,0.151c-1.084,0.878-2.079,1.873-2.957,2.957L14.401,79l-0.429,0.536l-0.381-0.571l-2.489-3.733l-0.004-0.006l-0.004-0.006
		c-0.22-0.35-0.577-0.595-0.982-0.675c-0.072-0.01-0.145-0.015-0.218-0.015c-0.344,0-0.673,0.106-0.952,0.308l-8.021,6.016
		c-0.382,0.286-0.607,0.742-0.602,1.219l0,36.132c0,0.83,0.675,1.505,1.505,1.505h26.092c0.411,0,0.788-0.155,1.072-0.437l6.02-6.02
		c0.5-0.505,0.576-1.303,0.179-1.895l-1.004-1.506l-0.403-0.604l0.708-0.163l46.424-10.678c2.472-0.572,4.871-1.449,7.129-2.607
		l28.091-14.467C119.76,79.315,121.069,74.722,119.053,71.093z M47.46,4.093l-0.563-0.792h0.972h24.326h0.975l-0.566,0.793
		l-7.165,10.035l-0.15,0.21h-0.258H54.994h-0.259l-0.15-0.211L47.46,4.093z M29.424,62.008V41.937
		c0-13.557,11.03-24.587,24.587-24.587h12.042c13.557,0,24.587,11.03,24.587,24.587v22.198c0.003,1.468,0.352,2.938,1.011,4.251
		l2.691,5.442l0.236,0.476l-0.489,0.208l-13.789,5.861c-0.311,0.132-0.64,0.2-0.978,0.201H43.975c-1.383,0-2.509-1.125-2.509-2.509
		c0-1.383,1.125-2.509,2.509-2.509h16.057c7.47,0,13.548-6.077,13.548-13.548c0-0.83-0.675-1.505-1.505-1.505h-1.21h-1.379h-0.731
		l0-0.001h-0.869h-0.28h0h-2.923h-1.331l-0.004,0l-0.025,0h-1.285h-0.502v-0.001h-3.011l-0.502,0.001h-1.124H56.74h-0.019
		l-0.009-0.001H54.11h-0.282h-2.299h0h-0.167l0,0.001h-0.605h-0.179H38.676c-2.939,0-5.889,0.677-8.532,1.957l-0.72,0.349V62.008z
		 M31.783,112.281l-4.335,4.275l-0.147,0.144h-0.206H3.834H3.332v-0.502V83.082v-0.25l0.2-0.151l5.519-4.155l0.424-0.319
		l0.295,0.441l22.078,32.996l0.231,0.345L31.783,112.281z M114.68,78.716l-0.013,0.008l-0.014,0.007L86.674,93.122
		c-2.047,1.046-4.22,1.837-6.46,2.351l-47.869,11.019l-0.338,0.078l-0.192-0.288L15.94,82.457l-0.203-0.304l0.228-0.286
		l9.654-12.143c3.18-3.948,7.909-6.211,12.975-6.211l0.085,0H51.45h0.772h0h3.972h9.182h4.491h0.291h0.323l-0.123,0.602
		c-0.997,4.885-5.339,8.43-10.324,8.43H43.975c-3.043,0-5.519,2.476-5.519,5.519c0,3.043,2.476,5.519,5.519,5.519H79.28
		c0.756,0,1.484-0.149,2.172-0.442l28.631-12.23c0.693-0.405,1.481-0.619,2.28-0.619c1.592,0,3.085,0.849,3.897,2.216
		C117.535,74.656,116.827,77.441,114.68,78.716z"/>
	<path class="st1" d="M67.885,60.502h0.869l0,0.001h0.731h1.379l2.419-10.301h4.499c0.416,0,0.753-0.337,0.753-0.753v-1.472
		c0-0.416-0.337-0.753-0.753-0.753H73.98l2.338-9.834c0.019-0.066,0.029-0.135,0.029-0.207c0-0.416-0.336-0.753-0.752-0.753h-0.001
		h-2.264c-0.35,0-0.653,0.241-0.733,0.581l-2.392,10.213h-4.841l-2.32-10.208c-0.078-0.343-0.383-0.586-0.734-0.586h-2.793
		c-0.35,0-0.653,0.241-0.733,0.581l-2.392,10.213h-4.805l-2.356-10.21c-0.079-0.341-0.383-0.583-0.733-0.583h-2.34
		c-0.229,0-0.445,0.104-0.588,0.283c-0.143,0.179-0.196,0.413-0.146,0.636l2.244,9.874h-3.699c-0.416,0-0.753,0.337-0.753,0.753
		v1.472c0,0.416,0.337,0.753,0.753,0.753h4.42l2.37,10.301h0.605l0-0.001h0.167h2.299h0.282h2.602h0.188l2.419-10.3h2.994
		l2.369,10.3h2.923H67.885 M53.974,57.772l-1.739-7.57h3.503L53.974,57.772z M60.051,47.224l0.816-3.472l0.798,3.472H60.051z
		 M67.754,57.749l-1.71-7.548h3.469L67.754,57.749z"/>
</g>
</svg>
