<?xml version="1.0" encoding="utf-8"?>
<!-- Generator: Adobe Illustrator 26.0.2, SVG Export Plug-In . SVG Version: 6.00 Build 0)  -->
<svg version="1.1" id="레이어_1" xmlns="http://www.w3.org/2000/svg" xmlns:xlink="http://www.w3.org/1999/xlink" x="0px"
	 y="0px" viewBox="0 0 120 120" style="enable-background:new 0 0 120 120;" xml:space="preserve">
<style type="text/css">
	.st0{fill:#CCCCCC;}
	.st1{fill:#888888;}
	.st2{fill:#4341CE;}
</style>
<g>
	<path class="st0" d="M107.802,51.929v-3.604c0-9.991-7.594-18.125-16.93-18.125c-9.066,0-16.657,7.887-16.93,17.583h0.116
		l-0.116,0.02v45.475c0,12.548-9.381,22.738-20.913,22.738s-20.913-10.204-20.913-22.738v-9.624c2.888,0,5.975-2.093,5.975-7.967
		v-5.009C50.874,67.41,60,56.434,60,43.989v-4.153h-3.983l-0.084-25.922c-0.029-4.798-3.472-8.895-8.194-9.75
		c-1.019-3.12-4.374-4.824-7.494-3.806c-3.12,1.019-4.824,4.374-3.806,7.494c1.019,3.12,4.374,4.824,7.494,3.806
		c1.671-0.545,3.015-1.802,3.67-3.433c2.552,0.726,4.319,3.047,4.34,5.7l0.09,25.911H48.05v4.211
		c-0.159,6.928-4.803,12.948-11.464,14.86c-3.564,1.131-7.391,1.131-10.955,0c-6.653-1.918-11.287-7.938-11.441-14.86v-4.211H8.215
		V13.944C8.226,11.252,10.037,8.9,12.636,8.2c1.212,3.086,4.697,4.605,7.782,3.392s4.605-4.697,3.392-7.782
		c-1.212-3.086-4.697-4.605-7.782-3.392c-1.672,0.657-2.962,2.028-3.516,3.737C7.739,4.97,4.244,9.101,4.231,13.944v25.893H0.248
		v4.143c0,12.458,9.132,23.439,21.909,26.699v5.009c0,5.874,3.087,7.967,5.975,7.967v9.624C28.132,108.018,39.3,120,53.029,120
		s24.897-11.996,24.897-26.721v-45.38c0.199-7.559,6.011-13.709,12.946-13.709c7.138,0,12.946,6.342,12.946,14.141v3.598
		c0.651-0.093,1.315-0.144,1.992-0.144C106.486,51.785,107.151,51.836,107.802,51.929z M42.074,7.969
		c-1.1,0-1.992-0.892-1.992-1.992s0.892-1.992,1.992-1.992s1.992,0.892,1.992,1.992S43.174,7.969,42.074,7.969z M18.173,3.985
		c1.1,0,1.992,0.892,1.992,1.992s-0.892,1.992-1.992,1.992c-1.1,0-1.992-0.892-1.992-1.992S17.073,3.985,18.173,3.985z
		 M4.231,43.979V43.82h5.975v0.227c0.149,8.657,5.909,16.212,14.217,18.649c4.354,1.378,9.027,1.378,13.381,0
		c8.312-2.434,14.077-9.989,14.229-18.649V43.82h3.983v0.159c0,11.08-8.541,20.83-20.316,23.188
		c-2.765,0.554-5.597,0.693-8.403,0.412c-0.924-0.09-1.842-0.228-2.751-0.416C12.772,64.809,4.231,55.059,4.231,43.979z
		 M28.132,79.671c-1.793,0-1.992-2.788-1.992-3.983v-4.226c0.159,0.02,0.323,0.028,0.484,0.044c0.199,0.022,0.398,0.038,0.598,0.056
		c0.942,0.084,1.892,0.139,2.85,0.141h0.1c0.956,0,1.904-0.058,2.84-0.141c0.199-0.018,0.41-0.034,0.615-0.056
		c0.157-0.018,0.321-0.024,0.478-0.044v4.226c0,1.195-0.199,3.983-1.992,3.983H28.132z"/>
	<path class="st1" d="M119.609,63.754c0.067,0.463,0.109,0.925,0.13,1.383c-0.283-6.756-5.371-12.268-11.937-13.208v0.017
		C113.92,52.829,118.726,57.636,119.609,63.754z"/>
	<path class="st2" d="M119.733,66.478c0.003-0.064,0.004-0.129,0.006-0.193c0.006-0.161,0.011-0.322,0.012-0.484
		c0-0.143-0.003-0.287-0.007-0.431c-0.002-0.077-0.003-0.155-0.006-0.232c-0.021-0.458-0.063-0.919-0.13-1.383
		c-0.883-6.118-5.689-10.924-11.807-11.807v-0.017c-0.651-0.093-1.315-0.144-1.992-0.144c-0.677,0-1.341,0.051-1.992,0.144v0.017
		c-6.412,0.925-11.17,6.077-11.864,12.227c-0.002,0.021-0.006,0.041-0.008,0.061c-0.017,0.153-0.027,0.308-0.039,0.462
		c-0.006,0.086-0.015,0.172-0.02,0.258c-0.007,0.118-0.008,0.237-0.012,0.355c-0.004,0.12-0.009,0.24-0.009,0.361
		c0,0.118,0.003,0.236,0.006,0.354c0.002,0.116,0.004,0.233,0.009,0.349c0.007,0.146,0.018,0.292,0.03,0.438
		c0.007,0.085,0.011,0.171,0.019,0.255c0.017,0.176,0.039,0.354,0.063,0.531c0.007,0.056,0.013,0.112,0.021,0.167
		c0.027,0.183,0.059,0.365,0.093,0.545c0.01,0.053,0.018,0.107,0.029,0.161c0.03,0.152,0.066,0.302,0.101,0.453
		c0.02,0.084,0.037,0.169,0.058,0.252c0.023,0.092,0.051,0.182,0.076,0.274c0.039,0.142,0.077,0.285,0.121,0.425
		c0.002,0.005,0.003,0.01,0.005,0.015c1.77,5.669,7.06,9.784,13.313,9.784c7.218,0,13.155-5.484,13.871-12.513
		c0.001-0.013,0.002-0.025,0.003-0.038C119.706,66.909,119.722,66.694,119.733,66.478z M105.81,75.688
		c-5.5,0-9.959-4.459-9.959-9.959c0-5.5,4.459-9.959,9.959-9.959c5.5,0,9.959,4.459,9.959,9.959
		C115.762,71.226,111.307,75.681,105.81,75.688z"/>
	<path class="st2" d="M105.81,59.754c-3.3,0-5.975,2.675-5.975,5.975s2.675,5.975,5.975,5.975c3.3,0,5.975-2.675,5.975-5.975
		S109.11,59.754,105.81,59.754z M105.81,67.721c-1.1,0-1.992-0.892-1.992-1.992s0.892-1.992,1.992-1.992
		c1.1,0,1.992,0.892,1.992,1.992S106.91,67.721,105.81,67.721z"/>
</g>
</svg>
