<?xml version="1.0" encoding="utf-8"?>
<!-- Generator: Adobe Illustrator 26.0.3, SVG Export Plug-In . SVG Version: 6.00 Build 0)  -->
<svg version="1.1" id="레이어_1" xmlns="http://www.w3.org/2000/svg" xmlns:xlink="http://www.w3.org/1999/xlink" x="0px"
	 y="0px" viewBox="0 0 13 13" style="enable-background:new 0 0 13 13;" xml:space="preserve">
<style type="text/css">
	.st0{fill:#A8A8A8;}
</style>
<g>
	<path class="st0" d="M0.972,9.987c-0.217,0.225-0.574,0.232-0.798,0.018C0.063,9.898,0,9.749,0,9.597
		c0-0.146,0.054-0.283,0.154-0.389l5.938-6.195c0.105-0.111,0.254-0.174,0.407-0.174c0.154,0,0.301,0.062,0.407,0.172l5.938,6.196
		c0.214,0.225,0.207,0.583-0.017,0.797c-0.108,0.105-0.251,0.16-0.401,0.157c-0.152-0.004-0.292-0.066-0.396-0.174L6.499,4.216
		L0.972,9.987z"/>
</g>
</svg>
