<?xml version="1.0" encoding="utf-8"?>
<!-- Generator: Adobe Illustrator 26.0.2, SVG Export Plug-In . SVG Version: 6.00 Build 0)  -->
<svg version="1.1" id="레이어_1" xmlns="http://www.w3.org/2000/svg" xmlns:xlink="http://www.w3.org/1999/xlink" x="0px"
	 y="0px" viewBox="0 0 13 13" style="enable-background:new 0 0 13 13;" xml:space="preserve">
<style type="text/css">
	.st0{fill:#A8A8A8;}
</style>
<g>
	<path class="st0" d="M6.499,8.784l5.531-5.771c0.104-0.108,0.244-0.17,0.396-0.174c0.15-0.003,0.293,0.052,0.401,0.157
		c0.224,0.214,0.231,0.572,0.017,0.797L6.906,9.989c-0.106,0.11-0.253,0.172-0.407,0.172c-0.153,0-0.302-0.063-0.407-0.174
		L0.154,3.792C0.054,3.686,0,3.549,0,3.403c0-0.152,0.063-0.301,0.174-0.408c0.224-0.214,0.581-0.207,0.798,0.018L6.499,8.784z"/>
</g>
</svg>
