<?xml version="1.0" encoding="utf-8"?>
<!-- Generator: Adobe Illustrator 26.0.1, SVG Export Plug-In . SVG Version: 6.00 Build 0)  -->
<svg version="1.1" id="레이어_1" xmlns="http://www.w3.org/2000/svg" xmlns:xlink="http://www.w3.org/1999/xlink" x="0px"
	 y="0px" viewBox="0 0 13 13" style="enable-background:new 0 0 13 13;" xml:space="preserve">
<style type="text/css">
	.st0{fill:#A8A8A8;}
</style>
<g>
	<path class="st0" d="M8.784,6.501L3.013,0.97c-0.108-0.104-0.17-0.244-0.174-0.396C2.836,0.424,2.891,0.281,2.996,0.173
		c0.214-0.224,0.572-0.231,0.797-0.017l6.196,5.938c0.11,0.106,0.172,0.253,0.172,0.407c0,0.153-0.063,0.302-0.174,0.407
		l-6.195,5.938C3.686,12.946,3.549,13,3.403,13c-0.152,0-0.301-0.063-0.408-0.174c-0.214-0.224-0.207-0.581,0.018-0.798L8.784,6.501
		z"/>
</g>
</svg>
