<?xml version="1.0" encoding="utf-8"?>
<!-- Generator: Adobe Illustrator 26.0.1, SVG Export Plug-In . SVG Version: 6.00 Build 0)  -->
<svg version="1.1" id="Layer_1" xmlns="http://www.w3.org/2000/svg" xmlns:xlink="http://www.w3.org/1999/xlink" x="0px" y="0px"
	 viewBox="0 0 28 13" style="enable-background:new 0 0 28 13;" xml:space="preserve">
<style type="text/css">
	.st0{fill:#B8B8B8;}
</style>
<g>
	<path class="st0" d="M27.809,6.107l-7-5.5c-0.149-0.118-0.354-0.14-0.527-0.057C20.109,0.634,20,0.809,20,1v2.5h-8.5
		c-0.231,0-0.434,0.16-0.486,0.385c-0.054,0.226,0.056,0.458,0.263,0.562L20,9.309V12c0,0.191,0.109,0.366,0.281,0.45
		c0.069,0.034,0.144,0.05,0.219,0.05c0.11,0,0.219-0.036,0.309-0.107l7-5.5C27.93,6.798,28,6.653,28,6.5
		C28,6.347,27.93,6.202,27.809,6.107z"/>
	<path class="st0" d="M16.724,8.553L8,3.691V1c0-0.191-0.109-0.366-0.281-0.45C7.546,0.466,7.342,0.488,7.191,0.607l-7,5.5
		C0.07,6.202,0,6.347,0,6.5c0,0.153,0.07,0.298,0.191,0.393l7,5.5C7.281,12.464,7.39,12.5,7.5,12.5c0.074,0,0.149-0.017,0.219-0.05
		C7.891,12.366,8,12.192,8,12V9.5h8.5c0.231,0,0.434-0.16,0.486-0.385C17.04,8.889,16.931,8.656,16.724,8.553z"/>
</g>
</svg>
