<?xml version="1.0" encoding="utf-8"?>
<!-- Generator: Adobe Illustrator 26.0.2, SVG Export Plug-In . SVG Version: 6.00 Build 0)  -->
<svg version="1.1" id="레이어_1" xmlns="http://www.w3.org/2000/svg" xmlns:xlink="http://www.w3.org/1999/xlink" x="0px"
	 y="0px" viewBox="0 0 200 200" style="enable-background:new 0 0 200 200;" xml:space="preserve">
<style type="text/css">
	.st0{opacity:0.3;}
	.st1{fill:#EE7800;}
	.st2{fill:#ED7700;}
</style>
<g class="st0">
	<path class="st1" d="M100,15c46.869,0,85,38.131,85,85s-38.131,85-85,85s-85-38.131-85-85S53.131,15,100,15 M100,0
		C44.771,0,0,44.771,0,100s44.771,100,100,100s100-44.771,100-100S155.229,0,100,0L100,0z"/>
</g>
<path class="st2" d="M132.909,108.645l4.591,1.252c-2.187,8.227-6.658,14.964-13.414,20.211c-3.3,2.585-6.916,4.552-10.851,5.902
	c-4.054,1.431-8.249,2.146-12.58,2.146c-5.168,0-10.116-0.994-14.845-2.981c-4.571-1.946-8.625-4.67-12.162-8.168
	c-3.498-3.537-6.222-7.591-8.168-12.162C63.494,110.116,62.5,105.168,62.5,100c0-5.166,0.994-10.114,2.981-14.845
	c1.946-4.569,4.67-8.624,8.168-12.162c3.537-3.496,7.591-6.22,12.162-8.168c4.729-1.987,9.677-2.981,14.845-2.981
	c8.743,0,16.553,2.683,23.43,8.049c3.258,2.544,6.021,5.525,8.287,8.943c2.344,3.498,4.054,7.254,5.127,11.268l-4.591,1.252
	l-9.241,2.504c-1.393-5.165-4.195-9.398-8.406-12.699c-4.293-3.339-9.162-5.008-14.607-5.008c-3.26,0-6.36,0.617-9.3,1.848
	c-2.862,1.233-5.387,2.943-7.572,5.127c-2.187,2.227-3.896,4.75-5.127,7.571c-1.233,2.981-1.848,6.081-1.848,9.301
	c0,3.219,0.615,6.32,1.848,9.3c1.231,2.823,2.94,5.347,5.127,7.572c2.185,2.187,4.71,3.896,7.572,5.127
	c2.94,1.233,6.041,1.848,9.3,1.848c5.445,0,10.314-1.67,14.607-5.008c4.212-3.298,7.014-7.531,8.406-12.699L132.909,108.645z"/>
</svg>
