<?xml version="1.0" encoding="utf-8"?>
<!-- Generator: Adobe Illustrator 26.0.2, SVG Export Plug-In . SVG Version: 6.00 Build 0)  -->
<svg version="1.1" id="레이어_1" xmlns="http://www.w3.org/2000/svg" xmlns:xlink="http://www.w3.org/1999/xlink" x="0px"
	 y="0px" viewBox="0 0 200 200" style="enable-background:new 0 0 200 200;" xml:space="preserve">
<style type="text/css">
	.st0{opacity:0.3;}
	.st1{fill:#008CCF;}
	.st2{fill:#008CCE;}
</style>
<g class="st0">
	<path class="st1" d="M100,15c46.869,0,85,38.131,85,85s-38.131,85-85,85s-85-38.131-85-85S53.131,15,100,15 M100,0
		C44.771,0,0,44.771,0,100s44.771,100,100,100s100-44.771,100-100S155.229,0,100,0L100,0z"/>
</g>
<path class="st2" d="M165,136.636h-14.182v-35.455c0-3.191-0.612-6.264-1.832-9.218c-1.22-2.796-2.916-5.297-5.082-7.504
	c-2.207-2.165-4.706-3.86-7.505-5.082c-2.954-1.22-6.027-1.832-9.218-1.832c-3.862,0-7.505,0.886-10.932,2.659
	c-3.309,1.735-6.048,4.117-8.214,7.15c1.735,4.413,2.6,9.022,2.6,13.827v35.455H96.455v-35.455c0-5.12-1.499-9.729-4.491-13.827
	c-2.165-3.033-4.905-5.415-8.214-7.15c-3.427-1.773-7.07-2.659-10.932-2.659c-3.191,0-6.264,0.612-9.218,1.832
	c-2.836,1.222-5.339,2.917-7.504,5.082c-2.165,2.207-3.862,4.708-5.082,7.504c-1.22,2.955-1.832,6.027-1.832,9.218v35.455H35
	v-35.455c0-5.12,0.984-10.025,2.954-14.714c1.929-4.529,4.63-8.547,8.096-12.055c3.507-3.465,7.526-6.164,12.054-8.095
	c4.689-1.969,9.594-2.955,14.714-2.955c5.238,0,10.244,1.026,15.009,3.073c4.609,2.009,8.665,4.826,12.173,8.45
	c3.507-3.623,7.564-6.441,12.173-8.45c4.765-2.047,9.771-3.073,15.009-3.073c5.12,0,10.024,0.986,14.714,2.955
	c4.529,1.931,8.547,4.63,12.054,8.095c3.465,3.507,6.167,7.526,8.096,12.055c1.971,4.689,2.955,9.594,2.955,14.714V136.636z"/>
</svg>
