<?xml version="1.0" encoding="utf-8"?>
<!-- Generator: Adobe Illustrator 26.0.2, SVG Export Plug-In . SVG Version: 6.00 Build 0)  -->
<svg version="1.1" id="레이어_1" xmlns="http://www.w3.org/2000/svg" xmlns:xlink="http://www.w3.org/1999/xlink" x="0px"
	 y="0px" viewBox="0 0 200 200" style="enable-background:new 0 0 200 200;" xml:space="preserve">
<style type="text/css">
	.st0{opacity:0.3;}
	.st1{fill:#F8B500;}
	.st2{fill:#F7B400;}
</style>
<g class="st0">
	<path class="st1" d="M100,15c46.869,0,85,38.131,85,85s-38.131,85-85,85s-85-38.131-85-85S53.131,15,100,15 M100,0
		C44.771,0,0,44.771,0,100s44.771,100,100,100s100-44.771,100-100S155.229,0,100,0L100,0z"/>
</g>
<path class="st2" d="M100,62.5c5.077,0,9.94,0.977,14.59,2.93c4.491,1.915,8.475,4.591,11.953,8.027
	c3.436,3.478,6.11,7.462,8.027,11.953c1.95,4.65,2.93,9.513,2.93,14.59c0,5.079-0.979,9.942-2.93,14.59
	c-1.917,4.493-4.591,8.477-8.027,11.953c-3.478,3.438-7.462,6.115-11.953,8.027c-4.65,1.952-9.513,2.93-14.59,2.93
	c-5.081,0-9.944-0.977-14.59-2.93c-4.495-1.913-8.48-4.589-11.953-8.027c-3.44-3.476-6.115-7.46-8.027-11.953
	c-1.955-4.648-2.93-9.511-2.93-14.59c0-5.077,0.975-9.94,2.93-14.59c1.912-4.491,4.587-8.475,8.027-11.953
	c3.474-3.436,7.458-6.113,11.953-8.027C90.056,63.477,94.919,62.5,100,62.5z M76.562,100c0,3.164,0.603,6.211,1.817,9.141
	c1.209,2.775,2.888,5.255,5.039,7.441c2.147,2.149,4.629,3.829,7.441,5.039c2.888,1.212,5.935,1.817,9.141,1.817
	c3.164,0,6.211-0.605,9.141-1.817c2.771-1.21,5.253-2.89,7.441-5.039c2.147-2.187,3.809-4.667,4.98-7.441
	c1.247-2.93,1.875-5.977,1.875-9.141c0-3.164-0.628-6.211-1.875-9.141c-1.172-2.812-2.833-5.292-4.98-7.441
	c-2.189-2.147-4.671-3.828-7.441-5.039c-2.93-1.209-5.976-1.816-9.141-1.816c-3.206,0-6.253,0.607-9.141,1.816
	c-2.812,1.212-5.294,2.892-7.441,5.039c-2.151,2.149-3.83,4.629-5.039,7.441C77.165,93.789,76.562,96.836,76.562,100z"/>
</svg>
