<?xml version="1.0" encoding="utf-8"?>
<!-- Generator: Adobe Illustrator 26.0.2, SVG Export Plug-In . SVG Version: 6.00 Build 0)  -->
<svg version="1.1" id="레이어_1" xmlns="http://www.w3.org/2000/svg" xmlns:xlink="http://www.w3.org/1999/xlink" x="0px"
	 y="0px" viewBox="0 0 120 120" style="enable-background:new 0 0 120 120;" xml:space="preserve">
<style type="text/css">
	.st0{fill:#CCCCCC;}
	.st1{fill:#4341CE;}
</style>
<g>
	<path class="st0" d="M86.972,96.974l0.349-0.078l0.947-0.212c0.88-0.192,8.776-1.985,16.57-6.028
		c4.493-2.331,8.054-4.95,10.585-7.786C118.46,79.466,120,75.737,120,71.787c0-5.391-1.485-9.221-4.415-11.384
		c-1.725-1.268-3.926-1.911-6.542-1.911c-2.995,0-5.984,0.854-7.965,1.57l-1.45,0.524v-1.739V54.32c0-4.112-2.927-7.458-6.525-7.458
		H21.802c-3.598,0-6.525,3.346-6.525,7.459v5.822c0,8.26,1.672,16.515,4.837,23.872c3.135,7.289,7.767,13.783,13.395,18.779
		l2.568,2.279h-3.251H1.436c-0.58,0-1.1,0.399-1.326,1.017c-0.223,0.612-0.101,1.312,0.311,1.783l5.709,6.532
		C9.29,118.013,13.487,120,17.947,120h79.011c4.463,0,8.663-1.988,11.828-5.596l5.709-6.53c0.412-0.471,0.533-1.171,0.309-1.783
		c-0.225-0.618-0.745-1.017-1.324-1.017H82.073h-3.253l2.57-2.28c1.9-1.685,3.696-3.544,5.337-5.525L86.972,96.974z M99.434,64.988
		l0.062-0.799l0.657-0.281c1.485-0.636,5.333-2.117,8.972-2.117c2.017,0,3.67,0.464,4.912,1.379c2.084,1.53,3.098,4.349,3.098,8.617
		c0,11.432-16.926,17.989-24.203,20.277l-2.88,0.906l1.657-2.84C96.065,82.665,98.736,73.972,99.434,64.988z M107.332,108.356h2.691
		l-1.904,2.175l-1.365,1.559c-2.613,2.989-6.091,4.635-9.791,4.635H17.947c-3.7,0-7.177-1.646-9.792-4.636L6.79,110.53l-1.902-2.174
		h2.69h33.936l0.036,0l0.019,0l0.017-0.001l0.013,0H107.332z M85.285,94.222l-0.029,0.037l-0.031,0.034
		c-0.056,0.06-0.108,0.126-0.154,0.195l-0.031,0.047l-0.035,0.043c-3.369,4.165-7.32,7.646-11.742,10.346l-0.246,0.15h-0.279H42.153
		h-0.279l-0.246-0.151c-14.486-8.86-23.486-26.02-23.486-44.782V54.32c0-2.307,1.642-4.185,3.661-4.185h71.301
		c2.018,0,3.661,1.877,3.661,4.185v5.822C96.764,72.794,92.687,84.897,85.285,94.222z"/>
	<path class="st1" d="M74.166,37.875c0.275,0.392,0.684,0.617,1.122,0.617c0.322,0,0.639-0.128,0.891-0.36
		c0.302-0.277,0.491-0.669,0.532-1.105c0.041-0.433-0.067-0.857-0.305-1.196c-2.932-4.178-2.93-11.239,0.003-15.422
		c3.827-5.467,3.827-14.034-0.001-19.501c-0.276-0.394-0.684-0.62-1.119-0.62c-0.326,0-0.635,0.125-0.893,0.363
		c-0.618,0.566-0.718,1.599-0.224,2.304c2.925,4.174,2.922,11.235-0.006,15.419C70.334,23.842,70.334,32.407,74.166,37.875z"/>
	<path class="st1" d="M58.867,37.876c0.274,0.392,0.683,0.617,1.122,0.617c0.324,0,0.633-0.126,0.895-0.364
		c0.297-0.272,0.485-0.663,0.528-1.097c0.042-0.433-0.067-0.86-0.306-1.202c-2.925-4.176-2.923-11.237,0.004-15.419
		c3.832-5.469,3.832-14.034,0.001-19.501c-0.274-0.394-0.681-0.618-1.119-0.618c-0.328,0-0.637,0.125-0.894,0.36
		c-0.301,0.276-0.49,0.668-0.532,1.104c-0.042,0.433,0.067,0.859,0.305,1.198c2.932,4.175,2.93,11.237-0.004,15.422
		C55.04,23.842,55.04,32.408,58.867,37.876z"/>
	<path class="st1" d="M43.608,37.875c0.275,0.392,0.684,0.617,1.122,0.617c0.323,0,0.641-0.128,0.897-0.36
		c0.296-0.271,0.485-0.663,0.527-1.099c0.041-0.433-0.067-0.858-0.305-1.197c-2.98-4.254-2.978-11.171,0.003-15.423
		c3.827-5.468,3.827-14.034-0.001-19.501c-0.275-0.395-0.681-0.62-1.118-0.62c-0.327,0-0.636,0.125-0.895,0.363
		c-0.616,0.564-0.716,1.595-0.224,2.299c2.924,4.174,2.922,11.235-0.006,15.418C39.776,23.842,39.776,32.407,43.608,37.875z"/>
</g>
</svg>
