<?xml version="1.0" encoding="utf-8"?>
<!-- Generator: Adobe Illustrator 26.0.2, SVG Export Plug-In . SVG Version: 6.00 Build 0)  -->
<svg version="1.1" id="레이어_1" xmlns="http://www.w3.org/2000/svg" xmlns:xlink="http://www.w3.org/1999/xlink" x="0px"
	 y="0px" viewBox="0 0 120 120" style="enable-background:new 0 0 120 120;" xml:space="preserve">
<style type="text/css">
	.st0{fill:#4341CE;}
	.st1{fill:#CCCCCC;}
</style>
<g>
	<path class="st0" d="M70.566,49.165l-0.361-0.011l-0.111-0.344c-0.853-2.649-3.295-4.428-6.076-4.428l-0.051,0l-1.919,0h-0.513
		v-0.513V12.218v-0.37l0.351-0.117c1.653-0.551,2.989-1.788,3.665-3.395l0.132-0.314h0.341h16.96h0.739l-0.258,0.692l-8.646,23.176
		l-0.079,0.212l-0.209,0.085c-0.582,0.235-0.958,0.793-0.958,1.421c0,6.518,5.014,11.071,12.192,11.071
		c7.224,0,12.269-4.552,12.269-11.071c0-0.595-0.349-1.14-0.89-1.39L96.95,32.13l-0.074-0.198L87.278,6.2l-0.001-0.002
		c-0.007-0.016-0.013-0.028-0.017-0.04l-0.008-0.019c-0.008-0.019-0.016-0.037-0.025-0.055c-0.012-0.025-0.022-0.044-0.033-0.064
		c-0.016-0.03-0.027-0.051-0.039-0.072c-0.013-0.021-0.029-0.044-0.043-0.065L87.11,5.878l-0.006-0.009
		c-0.009-0.015-0.019-0.029-0.028-0.042c-0.021-0.029-0.036-0.048-0.052-0.067l-0.047-0.054c-0.012-0.013-0.025-0.027-0.038-0.04
		l-0.041-0.04c-0.009-0.009-0.018-0.018-0.028-0.027l-0.008-0.008l-0.008-0.008L86.82,5.554l-0.025-0.032
		c-0.293-0.362-0.727-0.57-1.192-0.57H66.335h-0.401l-0.097-0.389C65.168,1.876,62.768,0,59.999,0c-2.769,0-5.17,1.876-5.838,4.563
		l-0.097,0.389h-0.401H34.396c-0.466,0-0.901,0.207-1.192,0.568l-0.025,0.032l-0.024,0.022c-0.01,0.01-0.019,0.019-0.029,0.028
		c-0.017,0.016-0.034,0.032-0.051,0.049c-0.018,0.018-0.039,0.04-0.057,0.059c-0.013,0.014-0.027,0.031-0.043,0.051
		c-0.019,0.022-0.033,0.04-0.048,0.06c-0.016,0.022-0.025,0.035-0.034,0.048l-0.006,0.009L32.88,5.885
		c-0.013,0.019-0.025,0.038-0.038,0.059l-0.021,0.038l-0.02,0.036c-0.007,0.013-0.019,0.036-0.03,0.059
		C32.762,6.1,32.75,6.126,32.74,6.151c-0.006,0.016-0.014,0.033-0.022,0.051l-9.599,25.73l-0.074,0.197l-0.191,0.089
		c-0.54,0.25-0.889,0.796-0.889,1.391c0,6.518,5.013,11.071,12.191,11.071c7.224,0,12.269-4.552,12.269-11.071
		c-0.001-0.628-0.377-1.186-0.959-1.422l-0.209-0.085l-0.079-0.211L36.534,8.715l-0.258-0.692h0.739h16.96h0.341l0.132,0.314
		c0.675,1.607,2.011,2.844,3.665,3.395l0.351,0.117v0.37v31.651v0.513h-0.513h-1.916l-0.056,0c-2.781,0-5.222,1.779-6.076,4.428
		l-0.111,0.344l-0.361,0.011c-0.804,0.025-1.447,0.674-1.465,1.479l0,5.633c0,0.887,0.822,1.417,1.618,1.417h20.83
		c0.796,0,1.619-0.53,1.619-1.417v-5.645C72.014,49.84,71.37,49.19,70.566,49.165z M94.855,35.163l-0.166,0.641
		c-1.111,4.293-5.339,5.823-8.925,5.823c-3.39,0-7.745-1.525-8.865-5.822l-0.167-0.642h0.664h16.797H94.855z M85.841,11.149
		l0.48,1.288L93.395,31.4l0.258,0.692h-0.739H78.766h-0.739l0.258-0.692l7.074-18.963L85.841,11.149z M43.248,35.163l-0.166,0.641
		c-1.109,4.293-5.338,5.823-8.925,5.823c-3.389,0-7.744-1.525-8.864-5.822l-0.167-0.642h0.664h16.796H43.248z M41.712,31.4
		l0.258,0.692h-0.739H27.083h-0.739l0.258-0.692l7.074-18.963l0.48-1.288l0.48,1.288L41.712,31.4z M57.054,6.019
		c-0.005-1.584,1.233-2.88,2.818-2.948c0.043-0.002,0.087-0.003,0.13-0.003c1.517,0,2.805,1.184,2.932,2.697l0.009,0.11
		l-0.037,0.104c-0.059,0.167-0.089,0.338-0.089,0.509c0,0.061,0.004,0.127,0.013,0.194l0.014,0.11l-0.033,0.106
		C62.425,8.136,61.296,8.967,60,8.967c-0.149,0-0.299-0.011-0.446-0.034C58.102,8.711,57.051,7.485,57.054,6.019z M53.901,48.028
		c0.646-0.354,1.379-0.553,2.118-0.576l0.008,0h0.008h7.928h0.008l0.008,0c0.738,0.023,1.471,0.222,2.118,0.575l1.762,0.963h-2.008
		H54.147h-2.004L53.901,48.028z M68.962,52.575v1.536v0.513h-0.513H51.55h-0.513v-0.513v-1.536v-0.513h0.513h16.899h0.513V52.575z"
		/>
	<path class="st1" d="M114.571,39.229c-0.119-0.75-0.754-1.295-1.511-1.295c-0.051,0-0.103,0.003-0.154,0.008
		c-4.087,0.393-7.131,3.912-6.932,8.011l0.308,12.649l0.011,0.463l-0.46,0.058c-3.289,0.416-6.104,2.45-7.53,5.441l-4.717,9.904
		c-0.744,1.557-1.847,2.949-3.188,4.027l-0.981,0.787c-2.356,1.88-4.276,4.315-5.554,7.044c-1.278,2.729-1.919,5.763-1.854,8.776
		l0.018,0.832l-0.751-0.358l-1.485-0.708c-0.208-0.099-0.43-0.149-0.659-0.149c-0.59,0-1.134,0.344-1.387,0.875l-5.171,10.86
		c-0.177,0.37-0.199,0.787-0.062,1.174c0.137,0.387,0.416,0.697,0.787,0.873l23.831,11.35c0.208,0.099,0.43,0.149,0.658,0.149
		c0.59,0,1.135-0.344,1.389-0.877l5.172-10.859c0.176-0.37,0.198-0.787,0.061-1.174c-0.137-0.386-0.417-0.696-0.787-0.872
		l-0.862-0.411l-0.269-0.128l-0.022-0.297l-0.24-3.225c-0.107-1.392,0.325-2.75,1.216-3.822l12.34-14.934
		c0.023-0.028,0.045-0.056,0.066-0.084c2.532-3.537,3.842-7.709,3.785-12.06c-0.001-0.068-0.008-0.142-0.02-0.216L114.571,39.229z
		 M100.692,108.792l-3.41,7.161l-0.22,0.463l-0.463-0.22l-20.132-9.587l-0.463-0.22l0.221-0.463l3.41-7.161l0.22-0.463l0.463,0.22
		l20.132,9.587l0.463,0.22L100.692,108.792z M113.392,81.471l-0.011,0.015l-0.012,0.014L101.075,96.38
		c-1.4,1.688-2.078,3.82-1.911,6.004l0.066,0.893l0.065,0.881l-0.797-0.38l-12.942-6.163l-0.245-0.117L85.27,97.23
		c-0.909-5.881,1.416-11.84,6.067-15.552l0.98-0.785c1.702-1.368,3.1-3.133,4.042-5.105l4.716-9.903
		c1.096-2.292,3.445-3.773,5.983-3.773c0.223,0,0.449,0.011,0.671,0.034l0.724,0.073l-0.313,0.657l-6.721,14.111
		c-0.243,0.499-0.2,1.09,0.111,1.544c0.286,0.419,0.76,0.669,1.268,0.669c0.042,0,0.084-0.002,0.126-0.005
		c0.549-0.046,1.034-0.384,1.266-0.883l7.755-16.283c0.177-0.37,0.198-0.787,0.061-1.174c-0.137-0.386-0.417-0.696-0.787-0.872
		c-0.475-0.226-0.975-0.415-1.487-0.562l-0.362-0.104l-0.009-0.377l-0.319-13.074l0-0.026l-0.001-0.012l0-0.001
		c-0.085-1.634,0.713-3.206,2.083-4.101l0.663-0.433l0.124,0.782l4.645,29.299l0.006,0.039l0,0.039
		C116.578,75.066,115.481,78.53,113.392,81.471z"/>
	<path class="st1" d="M42.256,95.593c-0.253-0.532-0.798-0.875-1.388-0.875c-0.229,0-0.45,0.05-0.659,0.15l-1.485,0.708
		l-0.751,0.358l0.018-0.832c0.065-3.012-0.576-6.047-1.854-8.775c-1.278-2.729-3.198-5.164-5.554-7.043l-0.981-0.786
		c-1.345-1.083-2.448-2.476-3.189-4.028l-4.717-9.904c-1.426-2.991-4.241-5.025-7.53-5.441l-0.46-0.058l0.011-0.463l0.308-12.636
		c0.199-4.111-2.845-7.63-6.93-8.024c-0.053-0.005-0.104-0.008-0.155-0.008h0c-0.757,0-1.393,0.544-1.512,1.294L0.384,71.041
		c-0.012,0.076-0.018,0.146-0.019,0.215c-0.057,4.354,1.253,8.525,3.788,12.066c0.02,0.027,0.044,0.059,0.067,0.089l12.336,14.925
		c0.89,1.073,1.322,2.431,1.215,3.823l-0.24,3.225l-0.022,0.297l-0.269,0.128l-0.863,0.41c-0.764,0.364-1.089,1.282-0.725,2.047
		l5.172,10.859c0.253,0.533,0.798,0.876,1.388,0.876c0.229,0,0.45-0.05,0.659-0.149L46.702,108.5
		c0.37-0.176,0.649-0.486,0.786-0.873c0.137-0.387,0.115-0.803-0.061-1.173L42.256,95.593z M6.629,81.501l-0.012-0.014l-0.011-0.015
		c-2.091-2.945-3.187-6.409-3.171-10.018l0-0.039l0.006-0.039l4.645-29.3l0.124-0.782l0.663,0.433
		c1.368,0.893,2.166,2.46,2.084,4.091c0,0.014-0.001,0.027-0.002,0.04L10.635,58.94l-0.009,0.376l-0.362,0.104
		c-0.51,0.147-1.01,0.336-1.486,0.562c-0.37,0.176-0.649,0.486-0.787,0.873c-0.137,0.386-0.115,0.803,0.061,1.174l7.755,16.279
		c0.234,0.503,0.719,0.841,1.268,0.886c0.043,0.004,0.085,0.005,0.128,0.005c0.506,0,0.979-0.25,1.266-0.669
		c0.311-0.454,0.354-1.043,0.112-1.539l-6.723-14.115l-0.313-0.657l0.724-0.074c0.223-0.023,0.45-0.034,0.673-0.034
		c2.538,0,4.886,1.481,5.98,3.772l4.718,9.904c0.941,1.971,2.339,3.736,4.042,5.105l0.979,0.786
		c4.651,3.71,6.976,9.669,6.067,15.551l-0.041,0.268l-0.245,0.117l-12.943,6.164l-0.797,0.38l0.065-0.881l0.066-0.892
		c0.168-2.187-0.51-4.319-1.909-6.005L6.629,81.501z M43.53,106.608l-20.129,9.588l-0.463,0.22l-0.221-0.463l-3.413-7.162
		l-0.221-0.463l0.463-0.221l20.132-9.587l0.463-0.221l0.22,0.463l3.409,7.161l0.22,0.463L43.53,106.608z"/>
</g>
</svg>
