<?xml version="1.0" encoding="utf-8"?>
<!-- Generator: Adobe Illustrator 26.0.2, SVG Export Plug-In . SVG Version: 6.00 Build 0)  -->
<svg version="1.1" id="레이어_1" xmlns="http://www.w3.org/2000/svg" xmlns:xlink="http://www.w3.org/1999/xlink" x="0px"
	 y="0px" viewBox="0 0 120 120" style="enable-background:new 0 0 120 120;" xml:space="preserve">
<style type="text/css">
	.st0{fill:#4341CE;}
	.st1{fill:#CCCCCC;}
</style>
<g>
	<path class="st0" d="M17.903,40.912h12.712h1.008h0.252l-0.061,0.244l-0.244,0.978l-0.875,3.905h2.841l0.994-4.382l0.149-0.596
		l0.037-0.149h0.154h0.614h10.475h0.614h0.154l0.037,0.149l0.149,0.596l0.994,4.382h2.841l-0.875-3.905l-0.244-0.978l-0.061-0.244
		h0.252h1.008h12.713c4.009-0.004,7.275-3.27,7.279-7.28V7.666c-0.004-4.009-3.27-7.275-7.28-7.279H17.902
		c-4.009,0.004-7.275,3.27-7.279,7.28v25.966C10.627,37.642,13.893,40.908,17.903,40.912z M13.377,28.518v-0.787V7.666
		c0.002-2.493,2.031-4.523,4.524-4.525h45.64c2.493,0.002,4.523,2.031,4.525,4.524v20.066v0.787v0.197h-0.197h-0.787H14.361h-0.787
		h-0.197V28.518z M13.377,32.453v-0.787v-0.197h0.197h0.787h52.721h0.787h0.197v0.197v0.787v1.18
		c-0.002,2.493-2.031,4.523-4.524,4.525h-45.64h-0.001c-2.492-0.002-4.522-2.031-4.524-4.524V32.453z"/>
	<path class="st1" d="M100.131,64.924h-5.508c-0.759,0-1.377,0.618-1.377,1.377c0,0.759,0.618,1.377,1.377,1.377h5.508
		c0.759,0,1.377-0.618,1.377-1.377C101.508,65.542,100.89,64.924,100.131,64.924z"/>
	<path class="st1" d="M100.131,83.81h-5.508c-0.759,0-1.377,0.618-1.377,1.377c0,0.759,0.618,1.377,1.377,1.377h5.508
		c0.759,0,1.377-0.618,1.377-1.377C101.508,84.427,100.89,83.81,100.131,83.81z"/>
	<path class="st1" d="M100.131,102.695h-5.508c-0.759,0-1.377,0.618-1.377,1.377c0,0.759,0.618,1.377,1.377,1.377h5.508
		c0.759,0,1.377-0.618,1.377-1.377C101.508,103.313,100.89,102.695,100.131,102.695z"/>
	<path class="st1" d="M118.623,46.039h-7.475h-0.787h-0.197v-0.197v-0.787V21.449c0-0.759-0.618-1.377-1.377-1.377H80.459
		c-0.759,0-1.377,0.618-1.377,1.377v23.607v0.787v0.197h-0.197h-0.787h-6.181H52.008h-4.869H34.303h-4.869H2.126H1.377
		C0.618,46.039,0,46.657,0,47.416v70.82c0,0.759,0.618,1.377,1.377,1.377h6.689c0.759,0,1.377-0.618,1.377-1.377V59.219v-0.787
		v-0.197h0.197h0.787h62.951h0.787h0.197v0.197v0.787v59.016c0,0.759,0.618,1.377,1.377,1.377h7.082
		c0.759,0,1.377-0.618,1.377-1.377v-2.361v-0.787v-0.197h0.197h0.787h24.393h0.787h0.197v0.197v0.787v2.361
		c0,0.759,0.618,1.377,1.377,1.377h6.689c0.759,0,1.377-0.618,1.377-1.377v-70.82C120,46.657,119.382,46.039,118.623,46.039z
		 M100.721,45.842v-0.787V23.81v-0.787v-0.197h0.197h0.787h4.721h0.787h0.197v0.197v0.787v21.246v0.787v0.197h-0.197h-0.787h-4.721
		h-0.787h-0.197V45.842z M91.279,45.842v-0.787V23.81v-0.787v-0.197h0.197h0.787h4.721h0.787h0.197v0.197v0.787v21.246v0.787v0.197
		H97.77h-0.787h-4.721h-0.787h-0.197V45.842z M81.836,45.842v-0.787V23.81v-0.787v-0.197h0.197h0.787h4.721h0.787h0.197v0.197v0.787
		v21.246v0.787v0.197h-0.197h-0.787H82.82h-0.787h-0.197V45.842z M6.689,58.433v0.787v56.656v0.787v0.197H6.492H5.705H3.738H2.951
		H2.754v-0.197v-0.787V59.219v-0.787v-0.197h0.197h0.787h1.967h0.787h0.197V58.433z M81.443,58.433v0.787v56.656v0.787v0.197h-0.197
		h-0.787h-2.361h-0.787h-0.197v-0.197v-0.787V59.219v-0.787v-0.197h0.197h0.787h2.361h0.787h0.197V58.433z M110.557,96.203v0.787
		v14.164v0.787v0.197h-0.197h-0.787H85.18h-0.787h-0.197v-0.197v-0.787V96.99v-0.787v-0.197h0.197h0.787h24.393h0.787h0.197V96.203z
		 M110.557,77.318v0.787v14.164v0.787v0.197h-0.197h-0.787H85.18h-0.787h-0.197v-0.197v-0.787V78.105v-0.787v-0.197h0.197h0.787
		h24.393h0.787h0.197V77.318z M110.557,58.433v0.787v14.164v0.787v0.197h-0.197h-0.787H85.18h-0.787h-0.197V74.17v-0.787V59.219
		v-0.787v-0.197h0.197h0.787h24.393h0.787h0.197V58.433z M117.246,58.433v0.787v56.656v0.787v0.197h-0.197h-0.393h-2.361h-0.787
		h-0.197v-0.197v-0.787V59.219v-0.787v-0.197h0.197h0.787h2.361h0.393h0.197V58.433z M117.246,48.99v0.787v4.721v0.787v0.197h-0.197
		h-0.393H3.738H2.951H2.754v-0.197v-0.787v-4.721V48.99v-0.197h0.197h0.787h112.918h0.393h0.197V48.99z"/>
</g>
</svg>
