<?xml version="1.0" encoding="utf-8"?>
<!-- Generator: Adobe Illustrator 26.2.1, SVG Export Plug-In . SVG Version: 6.00 Build 0)  -->
<svg version="1.1" id="레이어_1" xmlns="http://www.w3.org/2000/svg" xmlns:xlink="http://www.w3.org/1999/xlink" x="0px"
	 y="0px" viewBox="0 0 20 20" style="enable-background:new 0 0 20 20;" xml:space="preserve">
<style type="text/css">
	.st0{fill:#4341CE;}
</style>
<g>
	<path class="st0" d="M3.582,20.001c-0.076,0-0.152-0.016-0.223-0.05c-0.186-0.087-0.304-0.273-0.304-0.478v-3.614H0.538
		c-0.292,0-0.528-0.236-0.528-0.528V3.558c0-0.292,0.236-0.528,0.528-0.528h15.915c0.292,0,0.528,0.236,0.528,0.528v11.773
		c0,0.292-0.236,0.528-0.528,0.528H8.727l-4.806,4.019C3.824,19.959,3.704,20.001,3.582,20.001z M1.066,14.803h2.516
		c0.292,0,0.528,0.236,0.528,0.528v3.012l4.087-3.417c0.095-0.079,0.215-0.123,0.339-0.123h7.39V4.086H1.066V14.803z"/>
	<path class="st0" d="M19.462,12.829h-2.75c-0.292,0-0.528-0.236-0.528-0.528c0-0.292,0.236-0.528,0.528-0.528h2.222V1.055H4.075
		v2.48c0,0.292-0.236,0.528-0.528,0.528S3.019,3.827,3.019,3.536V0.527c0-0.292,0.236-0.528,0.528-0.528h15.915
		c0.292,0,0.528,0.236,0.528,0.528v11.773C19.99,12.592,19.753,12.829,19.462,12.829z"/>
</g>
</svg>
