<?xml version="1.0" encoding="utf-8"?>
<!-- Generator: Adobe Illustrator 26.0.1, SVG Export Plug-In . SVG Version: 6.00 Build 0)  -->
<svg version="1.1" id="레이어_1" xmlns="http://www.w3.org/2000/svg" xmlns:xlink="http://www.w3.org/1999/xlink" x="0px"
	 y="0px" viewBox="0 0 20 20" style="enable-background:new 0 0 20 20;" xml:space="preserve">
<style type="text/css">
	.st0{fill:#4341CE;}
</style>
<g>
	<path class="st0" d="M3.672,5.625h0.781v0.781c0,0.324,0.262,0.586,0.586,0.586S5.625,6.73,5.625,6.406V5.625h0.781
		c0.324,0,0.586-0.262,0.586-0.586S6.73,4.453,6.406,4.453H5.625V3.672c0-0.324-0.262-0.586-0.586-0.586S4.453,3.348,4.453,3.672
		v0.781H3.672c-0.324,0-0.586,0.262-0.586,0.586S3.348,5.625,3.672,5.625L3.672,5.625z M3.672,5.625"/>
	<path class="st0" d="M12.773,5.625h2.344c0.324,0,0.586-0.262,0.586-0.586s-0.262-0.586-0.586-0.586h-2.344
		c-0.324,0-0.586,0.262-0.586,0.586S12.45,5.625,12.773,5.625L12.773,5.625z M12.773,5.625"/>
	<path class="st0" d="M15.312,14.336h-2.734c-0.324,0-0.586,0.262-0.586,0.586c0,0.324,0.262,0.586,0.586,0.586h2.734
		c0.324,0,0.586-0.262,0.586-0.586C15.898,14.598,15.636,14.336,15.312,14.336L15.312,14.336z M15.312,14.336"/>
	<path class="st0" d="M15.312,12.383h-2.734c-0.324,0-0.586,0.262-0.586,0.586s0.262,0.586,0.586,0.586h2.734
		c0.324,0,0.586-0.262,0.586-0.586S15.636,12.383,15.312,12.383L15.312,12.383z M15.312,12.383"/>
	<path class="st0" d="M6.43,12.555c-0.229-0.229-0.6-0.229-0.829,0l-0.562,0.562l-0.562-0.562c-0.229-0.229-0.6-0.229-0.829,0
		c-0.229,0.229-0.229,0.6,0,0.829l0.562,0.562l-0.562,0.562c-0.229,0.229-0.229,0.6,0,0.829c0.115,0.114,0.264,0.172,0.414,0.172
		c0.15,0,0.3-0.057,0.414-0.172l0.562-0.562l0.562,0.562c0.114,0.114,0.264,0.172,0.414,0.172c0.15,0,0.3-0.057,0.414-0.172
		c0.229-0.229,0.229-0.6,0-0.829l-0.562-0.562l0.562-0.562C6.659,13.154,6.659,12.783,6.43,12.555L6.43,12.555z M6.43,12.555"/>
	<path class="st0" d="M18.984,10.592V1.758C18.984,0.789,18.196,0,17.227,0H1.758C0.789,0,0,0.789,0,1.758v15.469
		c0,0.969,0.789,1.758,1.758,1.758h8.835C11.553,19.626,12.706,20,13.945,20C17.284,20,20,17.284,20,13.945
		C20,12.706,19.626,11.553,18.984,10.592L18.984,10.592z M17.812,1.758V9.29c-1.05-0.873-2.398-1.4-3.867-1.4
		s-2.818,0.526-3.867,1.4V1.172h7.148C17.55,1.172,17.812,1.435,17.812,1.758L17.812,1.758z M1.758,1.172h7.148v7.734H1.172V1.758
		C1.172,1.435,1.435,1.172,1.758,1.172L1.758,1.172z M1.172,17.227v-7.148h7.734v0.514c-0.641,0.961-1.016,2.114-1.016,3.353
		c0,1.469,0.526,2.818,1.4,3.867H1.758C1.435,17.812,1.172,17.55,1.172,17.227L1.172,17.227z M13.945,18.828
		c-2.692,0-4.883-2.19-4.883-4.883s2.19-4.883,4.883-4.883s4.883,2.19,4.883,4.883S16.638,18.828,13.945,18.828L13.945,18.828z
		 M13.945,18.828"/>
</g>
</svg>
