<?xml version="1.0" encoding="utf-8"?>
<!-- Generator: Adobe Illustrator 26.2.1, SVG Export Plug-In . SVG Version: 6.00 Build 0)  -->
<svg version="1.1" id="레이어_1" xmlns="http://www.w3.org/2000/svg" xmlns:xlink="http://www.w3.org/1999/xlink" x="0px"
	 y="0px" viewBox="0 0 20 20" style="enable-background:new 0 0 20 20;" xml:space="preserve">
<style type="text/css">
	.st0{fill:#4341CE;}
</style>
<g>
	<g>
		<path class="st0" d="M17.162,19.855H2.838c-1.565,0-2.839-1.274-2.839-2.839V4.304c0-1.565,1.274-2.839,2.839-2.839h14.323
			c1.565,0,2.839,1.274,2.839,2.839v12.713C20.001,18.582,18.727,19.855,17.162,19.855z M2.838,2.564c-0.959,0-1.74,0.781-1.74,1.74
			v12.713c0,0.959,0.781,1.74,1.74,1.74h14.323c0.959,0,1.74-0.781,1.74-1.74V4.304c0-0.959-0.781-1.74-1.74-1.74H2.838z"/>
		<g>
			<path class="st0" d="M4.737,4.519c-0.303,0-0.549-0.246-0.549-0.549V0.694c0-0.303,0.246-0.549,0.549-0.549
				s0.549,0.246,0.549,0.549v3.275C5.287,4.273,5.041,4.519,4.737,4.519z"/>
			<path class="st0" d="M15.464,4.519c-0.303,0-0.549-0.246-0.549-0.549V0.694c0-0.303,0.246-0.549,0.549-0.549
				s0.549,0.246,0.549,0.549v3.275C16.013,4.273,15.767,4.519,15.464,4.519z"/>
		</g>
		<path class="st0" d="M17.313,6.948H2.687c-0.303,0-0.549-0.246-0.549-0.549s0.246-0.549,0.549-0.549h14.626
			c0.303,0,0.549,0.246,0.549,0.549S17.616,6.948,17.313,6.948z"/>
	</g>
	<path class="st0" d="M7.704,16.606c-0.114,0-0.227-0.035-0.323-0.105c-0.169-0.123-0.254-0.331-0.219-0.538l0.39-2.272
		l-1.651-1.609c-0.15-0.146-0.204-0.364-0.139-0.563c0.065-0.199,0.237-0.344,0.444-0.374l2.281-0.331l1.02-2.067
		C9.6,8.56,9.791,8.441,10,8.441c0.209,0,0.4,0.119,0.493,0.306l1.02,2.067l2.281,0.331c0.207,0.03,0.379,0.175,0.444,0.374
		c0.065,0.199,0.011,0.417-0.139,0.563l-1.651,1.609l0.39,2.272c0.035,0.206-0.049,0.415-0.219,0.538
		c-0.169,0.123-0.394,0.139-0.579,0.042L10,15.47l-2.04,1.073C7.879,16.585,7.792,16.606,7.704,16.606z M10,14.3
		c0.088,0,0.176,0.021,0.256,0.063l1.31,0.689l-0.25-1.459c-0.03-0.178,0.029-0.36,0.158-0.486l1.06-1.033l-1.465-0.213
		c-0.179-0.026-0.334-0.138-0.414-0.301L10,10.232L9.345,11.56c-0.08,0.162-0.235,0.275-0.414,0.301l-1.465,0.213l1.06,1.033
		c0.13,0.126,0.189,0.308,0.158,0.486l-0.25,1.459l1.31-0.689C9.824,14.321,9.912,14.3,10,14.3z"/>
</g>
</svg>
