<?xml version="1.0" encoding="utf-8"?>
<!-- Generator: Adobe Illustrator 26.0.1, SVG Export Plug-In . SVG Version: 6.00 Build 0)  -->
<svg version="1.1" id="레이어_1" xmlns="http://www.w3.org/2000/svg" xmlns:xlink="http://www.w3.org/1999/xlink" x="0px"
	 y="0px" viewBox="0 0 20 20" style="enable-background:new 0 0 20 20;" xml:space="preserve">
<style type="text/css">
	.st0{fill:#888888;}
</style>
<g>
	<path class="st0" d="M1.523,17.993c0.049,0,0.099-0.007,0.148-0.021l0.016-0.005h0l3.874-1.116c0.085-0.024,0.162-0.07,0.225-0.132
		C6.464,16.04,18.368,4.136,18.843,3.661c0.099-0.099,0.153-0.23,0.153-0.369c0-0.139-0.054-0.271-0.153-0.369l-2.77-2.77
		C15.975,0.054,15.844,0,15.704,0c-0.14,0-0.271,0.054-0.369,0.153l-3.4,3.4c-3.719,3.719-9.203,9.203-9.657,9.657
		c-0.062,0.062-0.108,0.14-0.132,0.224l-1.121,3.891c-0.053,0.185-0.004,0.377,0.133,0.514C1.257,17.938,1.386,17.993,1.523,17.993z
		 M14.022,2.943l1.597-1.597l0.085-0.085l0.085,0.085l1.861,1.861l0.085,0.085L17.65,3.377l-1.597,1.597l-0.085,0.085l-0.085-0.085
		l-1.861-1.861l-0.085-0.085L14.022,2.943z M2.35,16.497l0.753-2.614l0.009-0.03l0.022-0.022l9.98-9.98l0.085-0.085l0.085,0.085
		l1.861,1.861l0.085,0.085l-0.085,0.085l-9.98,9.98l-0.022,0.022l-0.03,0.009l-2.614,0.753l-0.209,0.06L2.35,16.497z"/>
	<path class="st0" d="M19.478,18.956H0.522C0.234,18.956,0,19.19,0,19.478S0.234,20,0.522,20h18.956C19.766,20,20,19.766,20,19.478
		S19.766,18.956,19.478,18.956z"/>
</g>
</svg>
