<?xml version="1.0" encoding="utf-8"?>
<!-- Generator: Adobe Illustrator 26.0.1, SVG Export Plug-In . SVG Version: 6.00 Build 0)  -->
<svg version="1.1" id="레이어_1" xmlns="http://www.w3.org/2000/svg" xmlns:xlink="http://www.w3.org/1999/xlink" x="0px"
	 y="0px" viewBox="0 0 20 20" style="enable-background:new 0 0 20 20;" xml:space="preserve">
<style type="text/css">
	.st0{fill:#4341CE;}
</style>
<g>
	<path class="st0" d="M19.175,10V7.113c0-1.118-0.851-2.04-1.94-2.153l-4.809-4.809C12.329,0.054,12.2,0,12.062,0
		s-0.267,0.054-0.364,0.151L10,1.848L8.303,0.151C8.205,0.054,8.076,0,7.938,0C7.8,0,7.671,0.054,7.574,0.151L2.776,4.948H2.165
		C0.971,4.948,0,5.92,0,7.113v10.722C0,19.029,0.971,20,2.165,20H17.01c1.194,0,2.165-0.971,2.165-2.165v-2.887
		C19.659,14.746,20,14.268,20,13.711v-2.474C20,10.681,19.659,10.203,19.175,10z M17.01,18.969H2.165
		c-0.625,0-1.134-0.509-1.134-1.134V7.113c0-0.625,0.509-1.134,1.134-1.134H17.01c0.625,0,1.134,0.509,1.134,1.134v2.784h-3.196
		c-1.421,0-2.577,1.156-2.577,2.577s1.156,2.577,2.577,2.577h3.196v2.784C18.144,18.46,17.636,18.969,17.01,18.969z M8.358,4.948
		l3.704-3.704l3.704,3.704H8.358z M6.9,4.948H4.234l3.704-3.704l1.333,1.333L6.9,4.948z M13.783,13.64
		c0.224,0.224,0.512,0.384,0.834,0.45C14.295,14.024,14.007,13.864,13.783,13.64c-0.224-0.224-0.384-0.512-0.45-0.834
		C13.399,13.128,13.559,13.416,13.783,13.64z M14.348,10.94c-0.03,0.012-0.059,0.024-0.088,0.038
		C14.289,10.964,14.318,10.951,14.348,10.94z M14.078,11.076c-0.036,0.023-0.071,0.047-0.106,0.072
		C14.007,11.122,14.042,11.098,14.078,11.076z M13.783,11.308c-0.059,0.059-0.112,0.123-0.161,0.19
		C13.671,11.431,13.724,11.367,13.783,11.308z M13.55,11.604c-0.102,0.163-0.177,0.344-0.217,0.538
		C13.372,11.948,13.448,11.767,13.55,11.604z M14.948,14.021c-0.853,0-1.546-0.694-1.546-1.546c0-0.853,0.694-1.546,1.546-1.546
		h3.711c0.171,0,0.309,0.139,0.309,0.309v2.474c0,0.171-0.139,0.309-0.309,0.309H14.948z M18.89,10.895
		c-0.007-0.005-0.015-0.008-0.022-0.012l0,0C18.875,10.887,18.883,10.891,18.89,10.895z M18.868,14.065
		c0.007-0.004,0.015-0.007,0.022-0.012C18.883,14.058,18.875,14.061,18.868,14.065L18.868,14.065z M19.04,13.872
		c0.021-0.049,0.032-0.104,0.032-0.16C19.072,13.768,19.061,13.822,19.04,13.872c-0.021,0.049-0.051,0.094-0.088,0.131
		C18.989,13.965,19.019,13.921,19.04,13.872z M19.04,11.077c0.021,0.049,0.032,0.104,0.032,0.16
		C19.072,11.18,19.061,11.126,19.04,11.077z M12.353,0.224c-0.06-0.06-0.135-0.098-0.213-0.113
		C12.219,0.126,12.293,0.163,12.353,0.224z M11.983,0.111c-0.078,0.015-0.152,0.053-0.213,0.113
		C11.831,0.163,11.905,0.126,11.983,0.111z"/>
	<circle class="st0" cx="14.948" cy="12.474" r="0.928"/>
</g>
</svg>
