<?xml version="1.0" encoding="utf-8"?>
<!-- Generator: Adobe Illustrator 26.0.1, SVG Export Plug-In . SVG Version: 6.00 Build 0)  -->
<svg version="1.1" id="레이어_1" xmlns="http://www.w3.org/2000/svg" xmlns:xlink="http://www.w3.org/1999/xlink" x="0px"
	 y="0px" viewBox="0 0 20 20" style="enable-background:new 0 0 20 20;" xml:space="preserve">
<style type="text/css">
	.st0{fill:#888888;}
</style>
<g>
	<path class="st0" d="M5.652,13.044c0.24,0,0.435-0.195,0.435-0.435V8.261c0-0.719-0.585-1.304-1.304-1.304H3.043
		c-0.719,0-1.304,0.585-1.304,1.304v4.348c0,0.24,0.194,0.435,0.435,0.435s0.435-0.195,0.435-0.435v-1.304h2.609v1.304
		C5.217,12.849,5.412,13.044,5.652,13.044z M2.609,10.435V8.261c0-0.24,0.195-0.435,0.435-0.435h1.739
		c0.24,0,0.435,0.195,0.435,0.435v2.174H2.609z"/>
	<path class="st0" d="M9.13,12.609v-1.304h1.304c1.199,0,2.174-0.975,2.174-2.174s-0.975-2.174-2.174-2.174H8.696
		c-0.24,0-0.435,0.195-0.435,0.435v5.217c0,0.24,0.194,0.435,0.435,0.435S9.13,12.849,9.13,12.609z M9.13,7.826h1.304
		c0.719,0,1.304,0.585,1.304,1.304c0,0.719-0.585,1.304-1.304,1.304H9.13V7.826z"/>
	<path class="st0" d="M14.348,12.174c-0.24,0-0.435,0.195-0.435,0.435c0,0.24,0.194,0.435,0.435,0.435h3.478
		c0.24,0,0.435-0.195,0.435-0.435c0-0.24-0.194-0.435-0.435-0.435h-1.304V7.826h1.304c0.24,0,0.435-0.195,0.435-0.435
		c0-0.24-0.194-0.435-0.435-0.435h-3.478c-0.24,0-0.435,0.195-0.435,0.435c0,0.24,0.194,0.435,0.435,0.435h1.304v4.348H14.348z"/>
	<path class="st0" d="M18.696,2.609h-6.777l-1.612-1.612c-0.17-0.17-0.445-0.17-0.615,0L8.081,2.609H1.304
		C0.585,2.609,0,3.194,0,3.913v1.304c0,0.24,0.194,0.435,0.435,0.435S0.87,5.457,0.87,5.217V3.913c0-0.24,0.195-0.435,0.435-0.435
		h6.957c0.116,0,0.226-0.046,0.307-0.127L10,1.919l1.432,1.432c0.081,0.082,0.192,0.127,0.307,0.127h6.957
		c0.24,0,0.435,0.195,0.435,0.435v1.304c0,0.24,0.194,0.435,0.435,0.435c0.24,0,0.435-0.195,0.435-0.435V3.913
		C20,3.194,19.415,2.609,18.696,2.609z"/>
	<path class="st0" d="M19.565,14.348c-0.24,0-0.435,0.195-0.435,0.435v1.304c0,0.24-0.195,0.435-0.435,0.435h-6.957
		c-0.116,0-0.226,0.046-0.307,0.127L10,18.081l-1.432-1.432c-0.081-0.082-0.192-0.127-0.307-0.127H1.304
		c-0.24,0-0.435-0.195-0.435-0.435v-1.304c0-0.24-0.194-0.435-0.435-0.435S0,14.543,0,14.783v1.304c0,0.719,0.585,1.304,1.304,1.304
		h6.777l1.612,1.612C9.777,19.088,9.889,19.13,10,19.13s0.223-0.043,0.307-0.127l1.612-1.612h6.777c0.719,0,1.304-0.585,1.304-1.304
		v-1.304C20,14.543,19.806,14.348,19.565,14.348z"/>
</g>
</svg>
