<?xml version="1.0" encoding="utf-8"?>
<!-- Generator: Adobe Illustrator 26.0.2, SVG Export Plug-In . SVG Version: 6.00 Build 0)  -->
<svg version="1.1" id="레이어_1" xmlns="http://www.w3.org/2000/svg" xmlns:xlink="http://www.w3.org/1999/xlink" x="0px"
	 y="0px" viewBox="0 0 20 20" style="enable-background:new 0 0 20 20;" xml:space="preserve">
<style type="text/css">
	.st0{fill:#4341CE;}
</style>
<g>
	<path class="st0" d="M11.548,1.043c-0.126,0-0.247,0.021-0.362,0.063c-0.078,0.029-0.155,0.069-0.233,0.124
		c-0.015,0.007-0.029,0.015-0.042,0.025l-5.175,4.18L2.285,6.623C1.42,6.921,0.726,7.539,0.332,8.365
		c-0.394,0.826-0.439,1.755-0.126,2.615c0.313,0.86,0.944,1.542,1.777,1.922c0.403,0.184,0.828,0.286,1.263,0.303l2.127,5.918
		c0.135,0.369,0.404,0.663,0.758,0.829c0.196,0.091,0.405,0.138,0.619,0.138c0.171,0,0.341-0.03,0.506-0.09
		c0.368-0.134,0.662-0.404,0.828-0.76c0.166-0.356,0.183-0.754,0.049-1.121l-1.462-4.091c0.928-0.23,1.052-1.212,0.835-1.807
		L7.38,11.877l0.627-0.204l6.586-0.124l0.009,0l0.022,0h0.005l0.003-0.001l0.014,0c0.024,0,0.047-0.005,0.069-0.013
		c0.075-0.006,0.162-0.017,0.25-0.049c0.625-0.227,0.968-1.015,0.965-2.218c-0.002-1.076-0.27-2.403-0.755-3.735
		C14.213,2.889,12.721,1.043,11.548,1.043z M6.074,18.868l-2.059-5.73c0.214-0.037,0.406-0.089,0.584-0.157l0.788-0.303l2.046,5.696
		c0.066,0.18,0.057,0.376-0.024,0.551c-0.082,0.176-0.227,0.309-0.409,0.375c-0.081,0.029-0.165,0.044-0.249,0.044
		c-0.105,0-0.207-0.023-0.303-0.068C6.273,19.194,6.14,19.05,6.074,18.868z M6.083,12.411l0.602-0.267l0.121,0.332
		c0.169,0.474-0.131,0.924-0.409,0.799L6.083,12.411z M3.385,12.463c-0.376,0-0.744-0.08-1.093-0.239
		c-0.649-0.296-1.141-0.828-1.385-1.498C0.663,10.055,0.698,9.33,1.005,8.686C1.312,8.043,1.853,7.56,2.528,7.328l2.954-1.016
		C5.43,7.174,5.757,8.25,5.86,8.565c0.135,0.411,0.628,1.794,1.396,2.596l-2.925,1.124C4.026,12.403,3.707,12.463,3.385,12.463z
		 M10.977,7.06c0.587,1.612,1.393,2.979,2.222,3.769l-3.082,0.058c-0.626-0.271-1.455-1.614-1.974-3.2
		C7.697,6.33,7.582,5.125,7.854,4.684l2.402-1.941C10.129,3.882,10.39,5.447,10.977,7.06z M6.313,5.929l0.65-0.525
		c-0.008,0.951,0.324,2.07,0.47,2.516c0.151,0.46,0.701,2.011,1.551,2.989l-0.842,0.016c-0.497-0.236-1.157-1.322-1.574-2.591
		C6.164,7.096,6.148,6.237,6.313,5.929z M14.605,10.802c-0.007,0-0.011,0-0.016,0c-0.34,0-0.842-0.381-1.343-1.02
		c-0.413-0.526-1.02-1.47-1.569-2.978c-0.912-2.506-0.879-4.519-0.326-4.946l0.012-0.009c0.026-0.018,0.052-0.033,0.079-0.043
		c0.036-0.013,0.075-0.019,0.119-0.019c0.34,0,0.842,0.381,1.343,1.02c0.382,0.487,0.931,1.332,1.445,2.647
		c-0.168-0.267-0.408-0.481-0.7-0.617c-0.223-0.104-0.458-0.157-0.701-0.157c-0.194,0-0.385,0.034-0.569,0.102
		c-0.192,0.07-0.292,0.284-0.222,0.478c0.054,0.147,0.194,0.246,0.35,0.246c0.044,0,0.088-0.008,0.13-0.024
		c0.101-0.037,0.206-0.055,0.312-0.055c0.133,0,0.262,0.029,0.385,0.086c0.221,0.103,0.389,0.286,0.473,0.517
		c0.084,0.229,0.073,0.477-0.031,0.699c-0.103,0.221-0.286,0.389-0.516,0.473c-0.093,0.034-0.168,0.102-0.21,0.192
		c-0.042,0.09-0.047,0.192-0.013,0.285c0.053,0.147,0.194,0.245,0.35,0.245c0.045,0,0.089-0.008,0.13-0.023
		c0.415-0.151,0.747-0.455,0.934-0.857c0.136-0.292,0.183-0.61,0.14-0.921c0.381,1.136,0.591,2.242,0.593,3.145
		c0.002,0.815-0.185,1.41-0.475,1.516c-0.025,0.009-0.054,0.015-0.087,0.018L14.605,10.802z"/>
	<path class="st0" d="M19.702,4.165c0.042-0.09,0.047-0.192,0.013-0.285c-0.053-0.147-0.194-0.245-0.351-0.245
		c-0.044,0-0.087,0.008-0.128,0.023l-3.014,1.096c-0.093,0.034-0.168,0.102-0.21,0.192c-0.042,0.09-0.047,0.192-0.013,0.285
		c0.053,0.147,0.194,0.245,0.35,0.245c0.045,0,0.089-0.008,0.13-0.023l3.012-1.096C19.585,4.324,19.659,4.255,19.702,4.165z
		 M19.366,3.831c-0.007,0-0.013,0-0.02,0.001c0.006-0.001,0.012-0.001,0.018-0.001C19.365,3.831,19.366,3.831,19.366,3.831z"/>
	<path class="st0" d="M15.361,3.18c0.054,0.026,0.11,0.039,0.167,0.039c0.142,0,0.27-0.079,0.334-0.206l1.192-2.402
		c0.091-0.184,0.016-0.408-0.167-0.5c-0.054-0.026-0.108-0.039-0.166-0.039c-0.143,0-0.271,0.079-0.335,0.205L15.194,2.68
		C15.103,2.864,15.178,3.088,15.361,3.18z M16.725,0.269c-0.004,0-0.008,0-0.011,0c0.003,0,0.007,0,0.01,0
		C16.724,0.269,16.724,0.269,16.725,0.269z"/>
	<path class="st0" d="M19.974,8.3c-0.036-0.093-0.106-0.166-0.198-0.206l-2.456-1.073C17.272,7,17.222,6.99,17.171,6.99
		c-0.147,0-0.281,0.087-0.341,0.222c-0.083,0.189,0.003,0.409,0.192,0.492l2.456,1.073c0.048,0.021,0.098,0.031,0.149,0.031
		c0.148,0,0.282-0.087,0.341-0.223C20.008,8.494,20.01,8.392,19.974,8.3z M17.168,7.186c0.001,0,0.003,0,0.004,0c0,0,0,0,0,0
		C17.171,7.186,17.169,7.186,17.168,7.186z"/>
</g>
</svg>
