<?xml version="1.0" encoding="utf-8"?>
<!-- Generator: Adobe Illustrator 26.0.1, SVG Export Plug-In . SVG Version: 6.00 Build 0)  -->
<svg version="1.1" id="레이어_1" xmlns="http://www.w3.org/2000/svg" xmlns:xlink="http://www.w3.org/1999/xlink" x="0px"
	 y="0px" viewBox="0 0 20 20" style="enable-background:new 0 0 20 20;" xml:space="preserve">
<style type="text/css">
	.st0{fill:#888888;}
</style>
<path class="st0" d="M13.376,0.626l-0.71-0.355c-0.588-0.294-1.304-0.056-1.598,0.532l-0.177,0.355
	c-0.255-0.128-0.559-0.108-0.794,0.054C8.885,0.666,3.859-1.337,0.62,1.431C0.366,1.627,0.257,1.959,0.347,2.267
	s0.36,0.53,0.681,0.558C3.567,2.968,6.05,3.627,8.326,4.763c0.018,0.28,0.183,0.53,0.433,0.656L2.622,17.691
	c-0.259,0.508-0.226,1.116,0.087,1.593c0.313,0.477,0.858,0.749,1.427,0.713c0.569-0.036,1.075-0.374,1.326-0.886L11.6,6.84
	c0.251,0.127,0.551,0.109,0.785-0.046c2.273,1.14,4.29,2.731,5.927,4.677c0.214,0.239,0.554,0.323,0.854,0.21
	c0.301-0.113,0.501-0.399,0.505-0.72c0.272-4.251-4.343-7.071-5.507-7.712c-0.011-0.286-0.178-0.542-0.435-0.669l0.178-0.355
	c0.141-0.283,0.165-0.61,0.065-0.91C13.874,1.015,13.659,0.767,13.376,0.626L13.376,0.626z M11.778,1.16
	c0.047-0.095,0.13-0.167,0.23-0.201c0.1-0.034,0.21-0.026,0.305,0.022l0.71,0.357c0.094,0.047,0.166,0.13,0.199,0.23
	c0.033,0.1,0.026,0.209-0.022,0.303l-0.178,0.355l-1.422-0.712L11.778,1.16z M1.136,2.033c2.748-2.347,7.213-0.704,8.504-0.151
	l-1.06,2.122C6.255,2.859,3.724,2.19,1.136,2.033L1.136,2.033z M4.752,18.755c-0.2,0.384-0.672,0.537-1.059,0.343
	c-0.387-0.194-0.548-0.663-0.361-1.053L9.47,5.774l1.42,0.711L4.752,18.755z M11.955,6.129L11.6,5.952L9.115,4.708l1.421-2.84
	l2.84,1.42L11.955,6.129L11.955,6.129z M18.88,10.91c-1.677-1.976-3.73-3.599-6.04-4.775l1.06-2.122
	C15.119,4.714,19.112,7.297,18.88,10.91L18.88,10.91z M18.88,10.91"/>
</svg>
