<?xml version="1.0" encoding="utf-8"?>
<!-- Generator: Adobe Illustrator 26.0.1, SVG Export Plug-In . SVG Version: 6.00 Build 0)  -->
<svg version="1.1" id="레이어_1" xmlns="http://www.w3.org/2000/svg" xmlns:xlink="http://www.w3.org/1999/xlink" x="0px"
	 y="0px" viewBox="0 0 20 20" style="enable-background:new 0 0 20 20;" xml:space="preserve">
<style type="text/css">
	.st0{fill:#888888;}
</style>
<g>
	<path class="st0" d="M8.763,6.268H7.876V4.722c0-0.239-0.194-0.433-0.433-0.433c-0.239,0-0.433,0.194-0.433,0.433v1.546H6.124
		c-0.239,0-0.433,0.194-0.433,0.433v8.577c0,0.239,0.194,0.433,0.433,0.433H7.01v1.216c0,0.239,0.194,0.433,0.433,0.433
		c0.239,0,0.433-0.194,0.433-0.433v-1.216h0.887c0.239,0,0.433-0.194,0.433-0.433V6.701C9.196,6.462,9.002,6.268,8.763,6.268z
		 M8.33,7.134v7.711H6.557V7.134H8.33z"/>
	<path class="st0" d="M13.876,4.948H12.99V3.402c0-0.239-0.194-0.433-0.433-0.433c-0.239,0-0.433,0.194-0.433,0.433v1.546h-0.887
		c-0.239,0-0.433,0.194-0.433,0.433v8.577c0,0.239,0.194,0.433,0.433,0.433h0.887v1.216c0,0.239,0.194,0.433,0.433,0.433
		c0.239,0,0.433-0.194,0.433-0.433v-1.216h0.887c0.239,0,0.433-0.194,0.433-0.433V5.381C14.309,5.143,14.115,4.948,13.876,4.948z
		 M13.443,5.814v7.711H11.67V5.814H13.443z"/>
	<path class="st0" d="M18.99,8.907h-0.887V7.361c0-0.239-0.194-0.433-0.433-0.433s-0.433,0.194-0.433,0.433v1.546h-0.887
		c-0.239,0-0.433,0.194-0.433,0.433v8.577c0,0.239,0.194,0.433,0.433,0.433h0.887v1.216c0,0.239,0.194,0.433,0.433,0.433
		s0.433-0.194,0.433-0.433v-1.216h0.887c0.239,0,0.433-0.194,0.433-0.433V9.34C19.423,9.101,19.228,8.907,18.99,8.907z
		 M18.557,9.773v7.711h-1.773V9.773H18.557z"/>
	<path class="st0" d="M3.649,1.979H2.763V0.433C2.763,0.194,2.569,0,2.33,0S1.897,0.194,1.897,0.433v1.546H1.01
		c-0.239,0-0.433,0.194-0.433,0.433v8.577c0,0.239,0.194,0.433,0.433,0.433h0.887v1.216c0,0.239,0.194,0.433,0.433,0.433
		s0.433-0.194,0.433-0.433v-1.216h0.887c0.239,0,0.433-0.194,0.433-0.433V2.412C4.082,2.174,3.888,1.979,3.649,1.979z M3.216,2.845
		v7.711H1.443V2.845H3.216z"/>
</g>
</svg>
