<?xml version="1.0" encoding="utf-8"?>
<!-- Generator: Adobe Illustrator 26.0.1, SVG Export Plug-In . SVG Version: 6.00 Build 0)  -->
<svg version="1.1" id="레이어_1" xmlns="http://www.w3.org/2000/svg" xmlns:xlink="http://www.w3.org/1999/xlink" x="0px"
	 y="0px" viewBox="0 0 20 20" style="enable-background:new 0 0 20 20;" xml:space="preserve">
<style type="text/css">
	.st0{fill:#888888;}
</style>
<g>
	<path class="st0" d="M10,8.369c-0.416,0-0.755,0.339-0.755,0.755v5.207c0,0.416,0.339,0.755,0.755,0.755s0.755-0.339,0.755-0.755
		V9.124C10.755,8.708,10.416,8.369,10,8.369z"/>
	<circle class="st0" cx="10" cy="6.233" r="1.038"/>
	<path class="st0" d="M10,0C4.486,0,0,4.486,0,10s4.486,10,10,10s10-4.486,10-10S15.514,0,10,0z M16.424,16.425
		c-1.715,1.715-3.996,2.659-6.424,2.659c-2.428,0-4.71-0.944-6.424-2.659C1.861,14.71,0.916,12.428,0.916,10
		c0-2.428,0.944-4.71,2.659-6.425C5.29,1.861,7.572,0.916,10,0.916c2.428,0,4.71,0.944,6.425,2.659
		C18.139,5.29,19.084,7.572,19.084,10C19.084,12.428,18.139,14.71,16.424,16.425z"/>
</g>
</svg>
