<?xml version="1.0" encoding="utf-8"?>
<!-- Generator: Adobe Illustrator 26.0.1, SVG Export Plug-In . SVG Version: 6.00 Build 0)  -->
<svg version="1.1" id="레이어_1" xmlns="http://www.w3.org/2000/svg" xmlns:xlink="http://www.w3.org/1999/xlink" x="0px"
	 y="0px" viewBox="0 0 20 20" style="enable-background:new 0 0 20 20;" xml:space="preserve">
<style type="text/css">
	.st0{fill:#888888;}
</style>
<g>
	<path class="st0" d="M13.941,7.409c-0.075-0.133-0.211-0.212-0.363-0.212h-1.584h-0.129l0.057-0.115l3.222-6.479
		c0.065-0.13,0.057-0.282-0.019-0.405C15.049,0.074,14.917,0,14.772,0h-3.579c-0.167,0-0.318,0.1-0.384,0.254l-3.579,8.39
		C7.175,8.774,7.188,8.918,7.267,9.037c0.078,0.117,0.208,0.187,0.348,0.187h1.697h0.11L9.387,9.329L6.026,19.451
		c-0.043,0.129-0.022,0.265,0.058,0.376C6.163,19.937,6.286,20,6.421,20c0.146,0,0.284-0.078,0.359-0.203l7.157-11.969
		C14.015,7.698,14.016,7.541,13.941,7.409z M12.771,8.152L8.39,15.478l-0.373,0.624l0.229-0.69l2.15-6.473
		c0.043-0.129,0.022-0.265-0.058-0.375C10.259,8.453,10.136,8.39,10,8.39H8.367H8.246l0.047-0.111l3.155-7.396l0.021-0.048h0.053
		h2.448h0.129l-0.057,0.115L10.82,7.428c-0.065,0.13-0.058,0.281,0.019,0.405c0.077,0.124,0.209,0.198,0.354,0.198h1.51h0.14
		L12.771,8.152z"/>
	<path class="st0" d="M6.382,10.776H4.685H4.575l0.035-0.105l0.975-2.925C5.627,7.618,5.606,7.481,5.527,7.37
		C5.448,7.26,5.324,7.197,5.189,7.197H2.803c-0.172,0-0.324,0.103-0.387,0.262L0.03,13.424c-0.052,0.13-0.037,0.272,0.042,0.389
		c0.079,0.117,0.205,0.184,0.345,0.184h1.781h0.097l-0.019,0.095l-1.075,5.411c-0.024,0.123,0.007,0.249,0.087,0.346
		C1.367,19.944,1.485,20,1.61,20c0.15,0,0.289-0.081,0.363-0.211l4.771-8.39c0.073-0.129,0.073-0.288-0.002-0.416
		C6.668,10.855,6.53,10.776,6.382,10.776z M5.597,11.729l-2.832,4.98l-0.243,0.428l0.096-0.483l0.595-2.994
		c0.024-0.123-0.007-0.249-0.087-0.346c-0.08-0.097-0.197-0.153-0.322-0.153H1.151H1.033l0.044-0.109l1.988-4.971l0.02-0.05h0.054
		H4.5H4.61L4.575,8.136L3.6,11.061c-0.043,0.129-0.022,0.265,0.057,0.376c0.079,0.11,0.203,0.173,0.338,0.173h1.531h0.137
		L5.597,11.729z"/>
	<path class="st0" d="M19.583,10.776h-1.696h-0.111l0.035-0.105l0.975-2.925c0.043-0.129,0.022-0.266-0.058-0.376
		c-0.079-0.11-0.203-0.173-0.338-0.173h-2.386c-0.172,0-0.324,0.103-0.387,0.262l-2.386,5.964c-0.052,0.13-0.037,0.272,0.042,0.389
		c0.079,0.117,0.205,0.183,0.345,0.183h1.781h0.097l-0.019,0.095l-1.075,5.411c-0.024,0.123,0.007,0.249,0.087,0.346
		C14.569,19.944,14.686,20,14.811,20c0.15,0,0.289-0.081,0.363-0.211l4.771-8.39c0.074-0.13,0.073-0.286-0.003-0.416
		C19.867,10.853,19.733,10.776,19.583,10.776z M18.798,11.729l-2.832,4.98l-0.243,0.428l0.096-0.483l0.595-2.994
		c0.024-0.123-0.007-0.249-0.087-0.346c-0.08-0.097-0.197-0.152-0.322-0.152h-1.652h-0.118l0.044-0.109l1.988-4.971l0.02-0.05h0.054
		h1.36h0.111l-0.035,0.105l-0.975,2.925c-0.043,0.128-0.022,0.265,0.057,0.376c0.079,0.11,0.203,0.173,0.338,0.173h1.532h0.137
		L18.798,11.729z"/>
</g>
</svg>
