<?xml version="1.0" encoding="utf-8"?>
<!-- Generator: Adobe Illustrator 26.0.1, SVG Export Plug-In . SVG Version: 6.00 Build 0)  -->
<svg version="1.1" id="레이어_1" xmlns="http://www.w3.org/2000/svg" xmlns:xlink="http://www.w3.org/1999/xlink" x="0px"
	 y="0px" viewBox="0 0 20 20" style="enable-background:new 0 0 20 20;" xml:space="preserve">
<style type="text/css">
	.st0{fill:#888888;}
</style>
<g>
	<path class="st0" d="M3,13.333c-1.491,0-3,0.458-3,1.333v4C0,19.542,1.509,20,3,20s3-0.458,3-1.333v-4
		C6,13.791,4.491,13.333,3,13.333L3,13.333z M3,14c1.516,0,2.333,0.473,2.333,0.667c0,0.193-0.818,0.667-2.333,0.667
		s-2.333-0.473-2.333-0.667C0.667,14.473,1.484,14,3,14L3,14z M3,19.333c-1.516,0-2.333-0.473-2.333-0.667v-1.163
		c0.732,0.331,1.53,0.49,2.333,0.467c0.803,0.024,1.601-0.136,2.333-0.467v1.163C5.333,18.86,4.516,19.333,3,19.333L3,19.333z
		 M3,16.667L3,16.667 M0.667,15.533C1.399,15.864,2.197,16.024,3,16c0.803,0.024,1.601-0.136,2.333-0.467v1.104
		c0,0.193-0.818,0.667-2.333,0.667l0,0c-1.516,0-2.333-0.473-2.333-0.667V15.533z M3,16.667"/>
	<path class="st0" d="M10,11.333c-1.491,0-3,0.458-3,1.333v6C7,19.542,8.509,20,10,20s3-0.458,3-1.333v-6
		C13,11.791,11.491,11.333,10,11.333L10,11.333z M10,12c1.516,0,2.333,0.473,2.333,0.667S11.516,13.333,10,13.333
		s-2.333-0.473-2.333-0.667S8.484,12,10,12L10,12z M10,19.333c-1.516,0-2.333-0.473-2.333-0.667v-1.163
		c0.732,0.331,1.53,0.49,2.333,0.467c0.803,0.024,1.601-0.136,2.333-0.467v1.163C12.333,18.86,11.516,19.333,10,19.333L10,19.333z
		 M12.333,16.637c0,0.193-0.818,0.667-2.333,0.667l0,0c-1.516,0-2.333-0.473-2.333-0.667v-1.104C8.399,15.864,9.197,16.024,10,16
		c0.803,0.024,1.601-0.136,2.333-0.467V16.637z M12.333,14.667c0,0.193-0.818,0.667-2.333,0.667l0,0
		c-1.516,0-2.333-0.473-2.333-0.667v-1.133C8.399,13.864,9.197,14.024,10,14c0.803,0.024,1.601-0.136,2.333-0.467V14.667z"/>
	<path class="st0" d="M17,7.333c-1.491,0-3,0.458-3,1.333v10C14,19.542,15.509,20,17,20c1.491,0,3-0.458,3-1.333v-10
		C20,7.791,18.491,7.333,17,7.333L17,7.333z M17,8c1.516,0,2.333,0.473,2.333,0.667c0,0.193-0.818,0.667-2.333,0.667
		c-1.516,0-2.333-0.473-2.333-0.667C14.667,8.473,15.484,8,17,8L17,8z M19.333,18.667c0,0.193-0.818,0.667-2.333,0.667l0,0
		c-1.516,0-2.333-0.473-2.333-0.667v-1.133c0.732,0.331,1.53,0.49,2.333,0.467c0.803,0.024,1.601-0.136,2.333-0.467V18.667z
		 M19.333,16.667c0,0.193-0.818,0.667-2.333,0.667l0,0c-1.516,0-2.333-0.473-2.333-0.667v-1.133c0.732,0.331,1.53,0.49,2.333,0.467
		c0.803,0.024,1.601-0.136,2.333-0.467V16.667z M19.333,14.667c0,0.193-0.818,0.667-2.333,0.667l0,0
		c-1.516,0-2.333-0.473-2.333-0.667v-1.133c0.732,0.331,1.53,0.49,2.333,0.467c0.803,0.024,1.601-0.136,2.333-0.467V14.667z
		 M17,13.333c-1.516,0-2.333-0.473-2.333-0.667v-1.133c0.732,0.331,1.53,0.49,2.333,0.467c0.803,0.024,1.601-0.136,2.333-0.467
		v1.133C19.333,12.86,18.516,13.333,17,13.333L17,13.333z M17,11.333c-1.516,0-2.333-0.473-2.333-0.667V9.533
		C15.399,9.864,16.197,10.024,17,10c0.803,0.024,1.601-0.136,2.333-0.467v1.133C19.333,10.86,18.516,11.333,17,11.333L17,11.333z
		 M17,11.333"/>
	<path class="st0" d="M16.333,0v0.667h2.529L12.529,7H5.541l-5.428,4.749l0.439,0.502l5.239-4.584h7.013l6.529-6.529v2.529H20V0
		H16.333z M16.333,0"/>
</g>
</svg>
