<?xml version="1.0" encoding="utf-8"?>
<!-- Generator: Adobe Illustrator 26.0.1, SVG Export Plug-In . SVG Version: 6.00 Build 0)  -->
<svg version="1.1" id="레이어_1" xmlns="http://www.w3.org/2000/svg" xmlns:xlink="http://www.w3.org/1999/xlink" x="0px"
	 y="0px" viewBox="0 0 20 20" style="enable-background:new 0 0 20 20;" xml:space="preserve">
<style type="text/css">
	.st0{fill:#4341CE;}
</style>
<g>
	<path class="st0" d="M19.527,19.178h-0.614V7.48c0-0.149-0.03-0.297-0.088-0.437c-0.085-0.2-0.225-0.371-0.407-0.493
		c-0.186-0.126-0.402-0.192-0.626-0.192c-0.001,0-0.002,0-0.002,0h-1.537c-0.153,0-0.3,0.03-0.439,0.088
		c-0.201,0.085-0.371,0.226-0.493,0.406c-0.126,0.185-0.192,0.402-0.192,0.628v11.698h-0.718v-8.18c0-0.151-0.029-0.298-0.088-0.437
		c-0.086-0.201-0.227-0.372-0.407-0.494c-0.186-0.126-0.403-0.192-0.628-0.192h-1.538c-0.151,0-0.298,0.03-0.438,0.089
		c-0.201,0.085-0.371,0.225-0.493,0.406c-0.126,0.186-0.192,0.403-0.192,0.628v8.18H9.59v-8.97c0-0.153-0.029-0.301-0.087-0.437
		c-0.085-0.2-0.225-0.371-0.407-0.493C8.911,9.152,8.694,9.086,8.468,9.086H6.929c-0.151,0-0.298,0.03-0.437,0.088
		C6.291,9.259,6.121,9.4,5.999,9.58c-0.125,0.186-0.192,0.403-0.192,0.628v8.97H4.872v-6.986c0-0.149-0.03-0.296-0.089-0.438
		c-0.086-0.201-0.227-0.371-0.407-0.493c-0.186-0.126-0.403-0.192-0.628-0.192H2.211c-0.151,0-0.299,0.03-0.438,0.088
		c-0.201,0.085-0.371,0.225-0.493,0.406c-0.125,0.185-0.192,0.403-0.192,0.628v6.986H0.472c-0.226,0-0.41,0.184-0.41,0.41
		c0,0.227,0.184,0.411,0.41,0.411h19.056c0.227,0,0.411-0.185,0.411-0.411C19.939,19.362,19.754,19.178,19.527,19.178z M18.092,7.48
		v11.698h-2.141V7.48c0-0.041,0.008-0.079,0.024-0.118c0.021-0.052,0.06-0.099,0.11-0.132c0.05-0.034,0.106-0.051,0.168-0.051h1.537
		c0.041,0,0.081,0.008,0.118,0.023c0.052,0.022,0.098,0.06,0.132,0.11C18.074,7.362,18.091,7.419,18.092,7.48z M13.589,10.999v8.18
		h-2.14v-8.18c0-0.043,0.008-0.081,0.023-0.117l0-0.001c0.022-0.052,0.061-0.099,0.11-0.132c0.05-0.034,0.106-0.051,0.167-0.051
		h1.538c0.041,0,0.079,0.008,0.117,0.023c0.053,0.022,0.099,0.06,0.132,0.109C13.571,10.881,13.589,10.938,13.589,10.999z
		 M6.629,10.209c0-0.043,0.008-0.081,0.023-0.116l0.001-0.001c0.021-0.052,0.06-0.1,0.108-0.132c0.05-0.034,0.107-0.051,0.168-0.051
		h1.539c0.041,0,0.08,0.008,0.117,0.024c0.053,0.022,0.1,0.061,0.132,0.11c0.034,0.051,0.052,0.107,0.052,0.168v8.97h-2.14V10.209z
		 M1.909,12.192c0-0.041,0.008-0.079,0.024-0.117l0,0c0.021-0.052,0.06-0.099,0.109-0.132c0.05-0.034,0.107-0.051,0.169-0.052h1.538
		c0.041,0,0.081,0.008,0.118,0.024c0.053,0.022,0.098,0.06,0.132,0.109c0.034,0.051,0.051,0.108,0.052,0.168v6.986H1.909V12.192z"/>
	<path class="st0" d="M2.221,8.207c0.242,0.164,0.526,0.251,0.82,0.251c0.001,0,0.001,0,0.002,0c0.199,0,0.391-0.039,0.572-0.116
		c0.263-0.11,0.487-0.294,0.647-0.532c0.164-0.243,0.251-0.527,0.251-0.822l0-0.009L4.512,6.976c0-0.007,0-0.015,0-0.025
		C4.507,6.796,4.479,6.646,4.429,6.503l1.974-1.479c0.114,0.212,0.277,0.394,0.474,0.527c0.243,0.164,0.527,0.251,0.822,0.251
		c0.199,0,0.391-0.039,0.571-0.116c0.263-0.111,0.486-0.295,0.646-0.532c0.055-0.08,0.102-0.168,0.141-0.265l2.032,0.79
		c0.02,0.081,0.045,0.159,0.075,0.23c0.111,0.262,0.295,0.485,0.532,0.646c0.242,0.165,0.525,0.251,0.819,0.251
		c0.001,0,0.002,0,0.002,0c0.199,0,0.392-0.039,0.572-0.116c0.262-0.111,0.485-0.294,0.647-0.532
		c0.164-0.243,0.251-0.527,0.251-0.822c0-0.006,0-0.019-0.001-0.038c-0.004-0.159-0.033-0.313-0.085-0.456
		c-0.01-0.03-0.022-0.06-0.035-0.088l1.95-2.446c0.104,0.149,0.233,0.276,0.382,0.376c0.404,0.275,0.94,0.327,1.395,0.135
		c0.263-0.112,0.486-0.295,0.646-0.532c0.164-0.243,0.251-0.527,0.251-0.822c0-0.006,0-0.019-0.001-0.038
		c-0.004-0.156-0.033-0.31-0.085-0.458c-0.159-0.444-0.524-0.786-0.976-0.916c-0.313-0.093-0.667-0.074-0.979,0.058
		c-0.263,0.112-0.486,0.296-0.645,0.532c-0.134,0.197-0.218,0.427-0.243,0.667l-2.232,2.799c-0.125-0.082-0.26-0.145-0.403-0.186
		c-0.319-0.093-0.676-0.071-0.979,0.058c-0.262,0.111-0.485,0.294-0.646,0.532c-0.063,0.093-0.116,0.195-0.157,0.303L9.139,4.04
		C9.124,3.968,9.105,3.9,9.082,3.837c-0.16-0.443-0.524-0.786-0.976-0.916C7.788,2.829,7.43,2.85,7.127,2.979
		C6.864,3.09,6.64,3.274,6.48,3.511C6.358,3.692,6.278,3.9,6.246,4.115l-2.295,1.72c-0.15-0.118-0.319-0.204-0.503-0.257
		C3.128,5.484,2.778,5.505,2.471,5.636C2.207,5.747,1.984,5.931,1.824,6.168C1.66,6.41,1.574,6.694,1.574,6.989
		c0,0.197,0.039,0.389,0.115,0.572C1.8,7.824,1.984,8.048,2.221,8.207z M3.746,6.977L3.69,6.989c0,0.089-0.017,0.174-0.049,0.251
		C3.59,7.357,3.508,7.456,3.404,7.527C3.225,7.647,2.99,7.67,2.79,7.586C2.677,7.538,2.575,7.454,2.505,7.351
		c-0.072-0.107-0.11-0.232-0.11-0.362c0-0.088,0.017-0.172,0.051-0.252C2.494,6.623,2.578,6.522,2.68,6.452
		c0.107-0.072,0.232-0.11,0.362-0.111c0.062,0,0.12,0.008,0.18,0.026c0.13,0.037,0.248,0.117,0.332,0.226
		C3.597,6.648,3.63,6.707,3.652,6.772C3.676,6.836,3.689,6.906,3.69,6.978L3.746,6.977L3.746,6.977z M7.052,4.332
		c0-0.089,0.017-0.173,0.05-0.251c0.05-0.117,0.132-0.215,0.236-0.285C7.494,3.689,7.69,3.656,7.878,3.711
		C8.009,3.748,8.127,3.828,8.21,3.936c0.042,0.055,0.075,0.115,0.098,0.178C8.332,4.18,8.344,4.25,8.345,4.32L8.346,4.34
		c-0.002,0.087-0.019,0.169-0.05,0.245C8.246,4.701,8.165,4.8,8.06,4.87C7.953,4.942,7.828,4.98,7.699,4.98
		c-0.088,0-0.173-0.017-0.251-0.051c-0.116-0.049-0.215-0.13-0.286-0.235C7.089,4.586,7.052,4.464,7.052,4.332z M11.871,5.339
		c0-0.087,0.017-0.172,0.05-0.252c0.05-0.117,0.132-0.215,0.236-0.285c0.106-0.072,0.231-0.11,0.361-0.111
		c0.061,0,0.119,0.008,0.18,0.026c0.13,0.037,0.248,0.117,0.332,0.225c0.042,0.055,0.075,0.115,0.099,0.178
		c0.024,0.069,0.036,0.138,0.037,0.207l0.001,0.012c0,0.086-0.017,0.171-0.051,0.252c-0.048,0.114-0.132,0.216-0.234,0.285
		c-0.185,0.123-0.414,0.144-0.614,0.06c-0.116-0.049-0.215-0.131-0.285-0.235C11.91,5.594,11.871,5.469,11.871,5.339z M16.374,1.469
		c0-0.088,0.017-0.173,0.051-0.251l0-0.001c0.048-0.114,0.131-0.215,0.234-0.285c0.107-0.072,0.232-0.11,0.361-0.111
		c0.061,0,0.12,0.008,0.18,0.026c0.132,0.038,0.247,0.116,0.333,0.225c0.042,0.056,0.075,0.116,0.098,0.178
		c0.024,0.069,0.036,0.138,0.037,0.207l0.001,0.012c0,0.086-0.017,0.171-0.052,0.252c-0.047,0.113-0.13,0.214-0.234,0.285
		c-0.109,0.073-0.231,0.111-0.362,0.111c-0.087,0-0.172-0.017-0.251-0.051c-0.115-0.048-0.216-0.132-0.285-0.235
		C16.412,1.724,16.374,1.599,16.374,1.469z"/>
</g>
</svg>
